<?xml version="1.0" encoding="utf-8" standalone="no"?>
<!DOCTYPE svg PUBLIC "-//W3C//DTD SVG 1.1//EN"
  "http://www.w3.org/Graphics/SVG/1.1/DTD/svg11.dtd">
<svg xmlns:xlink="http://www.w3.org/1999/xlink" width="376.041063pt" height="296.003437pt" viewBox="0 0 376.041063 296.003437" xmlns="http://www.w3.org/2000/svg" version="1.1">
 <metadata>
  <rdf:RDF xmlns:dc="http://purl.org/dc/elements/1.1/" xmlns:cc="http://creativecommons.org/ns#" xmlns:rdf="http://www.w3.org/1999/02/22-rdf-syntax-ns#">
   <cc:Work>
    <dc:type rdf:resource="http://purl.org/dc/dcmitype/StillImage"/>
    <dc:date>2022-04-26T09:20:36.595627</dc:date>
    <dc:format>image/svg+xml</dc:format>
    <dc:creator>
     <cc:Agent>
      <dc:title>Matplotlib v3.5.1, https://matplotlib.org/</dc:title>
     </cc:Agent>
    </dc:creator>
   </cc:Work>
  </rdf:RDF>
 </metadata>
 <defs>
  <style type="text/css">*{stroke-linejoin: round; stroke-linecap: butt}</style>
 </defs>
 <g id="figure_1">
  <g id="patch_1">
   <path d="M 0 296.003437 
L 376.041063 296.003437 
L 376.041063 0 
L 0 0 
z
" style="fill: #ffffff"/>
  </g>
  <g id="axes_1">
   <g id="patch_2">
    <path d="M 41.367188 259.483125 
L 309.207188 259.483125 
L 309.207188 42.043125 
L 41.367188 42.043125 
z
" style="fill: #eaeaf2"/>
   </g>
   <g id="matplotlib.axis_1">
    <g id="xtick_1">
     <g id="line2d_1">
      <path d="M 41.367188 259.483125 
L 41.367188 42.043125 
" clip-path="url(#p7c5a45f65d)" style="fill: none; stroke: #ffffff; stroke-width: 0.8; stroke-linecap: round"/>
     </g>
     <g id="text_1">
      <!-- 1.0 -->
      <g style="fill: #262626" transform="translate(34.417187 273.640937)scale(0.1 -0.1)">
       <defs>
        <path id="ArialMT-31" d="M 2384 0 
L 1822 0 
L 1822 3584 
Q 1619 3391 1289 3197 
Q 959 3003 697 2906 
L 697 3450 
Q 1169 3672 1522 3987 
Q 1875 4303 2022 4600 
L 2384 4600 
L 2384 0 
z
" transform="scale(0.015625)"/>
        <path id="ArialMT-2e" d="M 581 0 
L 581 641 
L 1222 641 
L 1222 0 
L 581 0 
z
" transform="scale(0.015625)"/>
        <path id="ArialMT-30" d="M 266 2259 
Q 266 3072 433 3567 
Q 600 4063 929 4331 
Q 1259 4600 1759 4600 
Q 2128 4600 2406 4451 
Q 2684 4303 2865 4023 
Q 3047 3744 3150 3342 
Q 3253 2941 3253 2259 
Q 3253 1453 3087 958 
Q 2922 463 2592 192 
Q 2263 -78 1759 -78 
Q 1097 -78 719 397 
Q 266 969 266 2259 
z
M 844 2259 
Q 844 1131 1108 757 
Q 1372 384 1759 384 
Q 2147 384 2411 759 
Q 2675 1134 2675 2259 
Q 2675 3391 2411 3762 
Q 2147 4134 1753 4134 
Q 1366 4134 1134 3806 
Q 844 3388 844 2259 
z
" transform="scale(0.015625)"/>
       </defs>
       <use xlink:href="#ArialMT-31"/>
       <use xlink:href="#ArialMT-2e" x="55.615234"/>
       <use xlink:href="#ArialMT-30" x="83.398438"/>
      </g>
     </g>
    </g>
    <g id="xtick_2">
     <g id="line2d_2">
      <path d="M 86.007188 259.483125 
L 86.007188 42.043125 
" clip-path="url(#p7c5a45f65d)" style="fill: none; stroke: #ffffff; stroke-width: 0.8; stroke-linecap: round"/>
     </g>
     <g id="text_2">
      <!-- 1.5 -->
      <g style="fill: #262626" transform="translate(79.057188 273.640937)scale(0.1 -0.1)">
       <defs>
        <path id="ArialMT-35" d="M 266 1200 
L 856 1250 
Q 922 819 1161 601 
Q 1400 384 1738 384 
Q 2144 384 2425 690 
Q 2706 997 2706 1503 
Q 2706 1984 2436 2262 
Q 2166 2541 1728 2541 
Q 1456 2541 1237 2417 
Q 1019 2294 894 2097 
L 366 2166 
L 809 4519 
L 3088 4519 
L 3088 3981 
L 1259 3981 
L 1013 2750 
Q 1425 3038 1878 3038 
Q 2478 3038 2890 2622 
Q 3303 2206 3303 1553 
Q 3303 931 2941 478 
Q 2500 -78 1738 -78 
Q 1113 -78 717 272 
Q 322 622 266 1200 
z
" transform="scale(0.015625)"/>
       </defs>
       <use xlink:href="#ArialMT-31"/>
       <use xlink:href="#ArialMT-2e" x="55.615234"/>
       <use xlink:href="#ArialMT-35" x="83.398438"/>
      </g>
     </g>
    </g>
    <g id="xtick_3">
     <g id="line2d_3">
      <path d="M 130.647188 259.483125 
L 130.647188 42.043125 
" clip-path="url(#p7c5a45f65d)" style="fill: none; stroke: #ffffff; stroke-width: 0.8; stroke-linecap: round"/>
     </g>
     <g id="text_3">
      <!-- 2.0 -->
      <g style="fill: #262626" transform="translate(123.697187 273.640937)scale(0.1 -0.1)">
       <defs>
        <path id="ArialMT-32" d="M 3222 541 
L 3222 0 
L 194 0 
Q 188 203 259 391 
Q 375 700 629 1000 
Q 884 1300 1366 1694 
Q 2113 2306 2375 2664 
Q 2638 3022 2638 3341 
Q 2638 3675 2398 3904 
Q 2159 4134 1775 4134 
Q 1369 4134 1125 3890 
Q 881 3647 878 3216 
L 300 3275 
Q 359 3922 746 4261 
Q 1134 4600 1788 4600 
Q 2447 4600 2831 4234 
Q 3216 3869 3216 3328 
Q 3216 3053 3103 2787 
Q 2991 2522 2730 2228 
Q 2469 1934 1863 1422 
Q 1356 997 1212 845 
Q 1069 694 975 541 
L 3222 541 
z
" transform="scale(0.015625)"/>
       </defs>
       <use xlink:href="#ArialMT-32"/>
       <use xlink:href="#ArialMT-2e" x="55.615234"/>
       <use xlink:href="#ArialMT-30" x="83.398438"/>
      </g>
     </g>
    </g>
    <g id="xtick_4">
     <g id="line2d_4">
      <path d="M 175.287187 259.483125 
L 175.287187 42.043125 
" clip-path="url(#p7c5a45f65d)" style="fill: none; stroke: #ffffff; stroke-width: 0.8; stroke-linecap: round"/>
     </g>
     <g id="text_4">
      <!-- 2.5 -->
      <g style="fill: #262626" transform="translate(168.337187 273.640937)scale(0.1 -0.1)">
       <use xlink:href="#ArialMT-32"/>
       <use xlink:href="#ArialMT-2e" x="55.615234"/>
       <use xlink:href="#ArialMT-35" x="83.398438"/>
      </g>
     </g>
    </g>
    <g id="xtick_5">
     <g id="line2d_5">
      <path d="M 219.927188 259.483125 
L 219.927188 42.043125 
" clip-path="url(#p7c5a45f65d)" style="fill: none; stroke: #ffffff; stroke-width: 0.8; stroke-linecap: round"/>
     </g>
     <g id="text_5">
      <!-- 3.0 -->
      <g style="fill: #262626" transform="translate(212.977188 273.640937)scale(0.1 -0.1)">
       <defs>
        <path id="ArialMT-33" d="M 269 1209 
L 831 1284 
Q 928 806 1161 595 
Q 1394 384 1728 384 
Q 2125 384 2398 659 
Q 2672 934 2672 1341 
Q 2672 1728 2419 1979 
Q 2166 2231 1775 2231 
Q 1616 2231 1378 2169 
L 1441 2663 
Q 1497 2656 1531 2656 
Q 1891 2656 2178 2843 
Q 2466 3031 2466 3422 
Q 2466 3731 2256 3934 
Q 2047 4138 1716 4138 
Q 1388 4138 1169 3931 
Q 950 3725 888 3313 
L 325 3413 
Q 428 3978 793 4289 
Q 1159 4600 1703 4600 
Q 2078 4600 2393 4439 
Q 2709 4278 2876 4000 
Q 3044 3722 3044 3409 
Q 3044 3113 2884 2869 
Q 2725 2625 2413 2481 
Q 2819 2388 3044 2092 
Q 3269 1797 3269 1353 
Q 3269 753 2831 336 
Q 2394 -81 1725 -81 
Q 1122 -81 723 278 
Q 325 638 269 1209 
z
" transform="scale(0.015625)"/>
       </defs>
       <use xlink:href="#ArialMT-33"/>
       <use xlink:href="#ArialMT-2e" x="55.615234"/>
       <use xlink:href="#ArialMT-30" x="83.398438"/>
      </g>
     </g>
    </g>
    <g id="xtick_6">
     <g id="line2d_6">
      <path d="M 264.567188 259.483125 
L 264.567188 42.043125 
" clip-path="url(#p7c5a45f65d)" style="fill: none; stroke: #ffffff; stroke-width: 0.8; stroke-linecap: round"/>
     </g>
     <g id="text_6">
      <!-- 3.5 -->
      <g style="fill: #262626" transform="translate(257.617188 273.640937)scale(0.1 -0.1)">
       <use xlink:href="#ArialMT-33"/>
       <use xlink:href="#ArialMT-2e" x="55.615234"/>
       <use xlink:href="#ArialMT-35" x="83.398438"/>
      </g>
     </g>
    </g>
    <g id="xtick_7">
     <g id="line2d_7">
      <path d="M 309.207188 259.483125 
L 309.207188 42.043125 
" clip-path="url(#p7c5a45f65d)" style="fill: none; stroke: #ffffff; stroke-width: 0.8; stroke-linecap: round"/>
     </g>
     <g id="text_7">
      <!-- 4.0 -->
      <g style="fill: #262626" transform="translate(302.257188 273.640937)scale(0.1 -0.1)">
       <defs>
        <path id="ArialMT-34" d="M 2069 0 
L 2069 1097 
L 81 1097 
L 81 1613 
L 2172 4581 
L 2631 4581 
L 2631 1613 
L 3250 1613 
L 3250 1097 
L 2631 1097 
L 2631 0 
L 2069 0 
z
M 2069 1613 
L 2069 3678 
L 634 1613 
L 2069 1613 
z
" transform="scale(0.015625)"/>
       </defs>
       <use xlink:href="#ArialMT-34"/>
       <use xlink:href="#ArialMT-2e" x="55.615234"/>
       <use xlink:href="#ArialMT-30" x="83.398438"/>
      </g>
     </g>
    </g>
    <g id="text_8">
     <!-- Predictor: upps_pe_3 -->
     <g style="fill: #262626" transform="translate(127.759063 286.815937)scale(0.1 -0.1)">
      <defs>
       <path id="ArialMT-50" d="M 494 0 
L 494 4581 
L 2222 4581 
Q 2678 4581 2919 4538 
Q 3256 4481 3484 4323 
Q 3713 4166 3852 3881 
Q 3991 3597 3991 3256 
Q 3991 2672 3619 2267 
Q 3247 1863 2275 1863 
L 1100 1863 
L 1100 0 
L 494 0 
z
M 1100 2403 
L 2284 2403 
Q 2872 2403 3119 2622 
Q 3366 2841 3366 3238 
Q 3366 3525 3220 3729 
Q 3075 3934 2838 4000 
Q 2684 4041 2272 4041 
L 1100 4041 
L 1100 2403 
z
" transform="scale(0.015625)"/>
       <path id="ArialMT-72" d="M 416 0 
L 416 3319 
L 922 3319 
L 922 2816 
Q 1116 3169 1280 3281 
Q 1444 3394 1641 3394 
Q 1925 3394 2219 3213 
L 2025 2691 
Q 1819 2813 1613 2813 
Q 1428 2813 1281 2702 
Q 1134 2591 1072 2394 
Q 978 2094 978 1738 
L 978 0 
L 416 0 
z
" transform="scale(0.015625)"/>
       <path id="ArialMT-65" d="M 2694 1069 
L 3275 997 
Q 3138 488 2766 206 
Q 2394 -75 1816 -75 
Q 1088 -75 661 373 
Q 234 822 234 1631 
Q 234 2469 665 2931 
Q 1097 3394 1784 3394 
Q 2450 3394 2872 2941 
Q 3294 2488 3294 1666 
Q 3294 1616 3291 1516 
L 816 1516 
Q 847 969 1125 678 
Q 1403 388 1819 388 
Q 2128 388 2347 550 
Q 2566 713 2694 1069 
z
M 847 1978 
L 2700 1978 
Q 2663 2397 2488 2606 
Q 2219 2931 1791 2931 
Q 1403 2931 1139 2672 
Q 875 2413 847 1978 
z
" transform="scale(0.015625)"/>
       <path id="ArialMT-64" d="M 2575 0 
L 2575 419 
Q 2259 -75 1647 -75 
Q 1250 -75 917 144 
Q 584 363 401 755 
Q 219 1147 219 1656 
Q 219 2153 384 2558 
Q 550 2963 881 3178 
Q 1213 3394 1622 3394 
Q 1922 3394 2156 3267 
Q 2391 3141 2538 2938 
L 2538 4581 
L 3097 4581 
L 3097 0 
L 2575 0 
z
M 797 1656 
Q 797 1019 1065 703 
Q 1334 388 1700 388 
Q 2069 388 2326 689 
Q 2584 991 2584 1609 
Q 2584 2291 2321 2609 
Q 2059 2928 1675 2928 
Q 1300 2928 1048 2622 
Q 797 2316 797 1656 
z
" transform="scale(0.015625)"/>
       <path id="ArialMT-69" d="M 425 3934 
L 425 4581 
L 988 4581 
L 988 3934 
L 425 3934 
z
M 425 0 
L 425 3319 
L 988 3319 
L 988 0 
L 425 0 
z
" transform="scale(0.015625)"/>
       <path id="ArialMT-63" d="M 2588 1216 
L 3141 1144 
Q 3050 572 2676 248 
Q 2303 -75 1759 -75 
Q 1078 -75 664 370 
Q 250 816 250 1647 
Q 250 2184 428 2587 
Q 606 2991 970 3192 
Q 1334 3394 1763 3394 
Q 2303 3394 2647 3120 
Q 2991 2847 3088 2344 
L 2541 2259 
Q 2463 2594 2264 2762 
Q 2066 2931 1784 2931 
Q 1359 2931 1093 2626 
Q 828 2322 828 1663 
Q 828 994 1084 691 
Q 1341 388 1753 388 
Q 2084 388 2306 591 
Q 2528 794 2588 1216 
z
" transform="scale(0.015625)"/>
       <path id="ArialMT-74" d="M 1650 503 
L 1731 6 
Q 1494 -44 1306 -44 
Q 1000 -44 831 53 
Q 663 150 594 308 
Q 525 466 525 972 
L 525 2881 
L 113 2881 
L 113 3319 
L 525 3319 
L 525 4141 
L 1084 4478 
L 1084 3319 
L 1650 3319 
L 1650 2881 
L 1084 2881 
L 1084 941 
Q 1084 700 1114 631 
Q 1144 563 1211 522 
Q 1278 481 1403 481 
Q 1497 481 1650 503 
z
" transform="scale(0.015625)"/>
       <path id="ArialMT-6f" d="M 213 1659 
Q 213 2581 725 3025 
Q 1153 3394 1769 3394 
Q 2453 3394 2887 2945 
Q 3322 2497 3322 1706 
Q 3322 1066 3130 698 
Q 2938 331 2570 128 
Q 2203 -75 1769 -75 
Q 1072 -75 642 372 
Q 213 819 213 1659 
z
M 791 1659 
Q 791 1022 1069 705 
Q 1347 388 1769 388 
Q 2188 388 2466 706 
Q 2744 1025 2744 1678 
Q 2744 2294 2464 2611 
Q 2184 2928 1769 2928 
Q 1347 2928 1069 2612 
Q 791 2297 791 1659 
z
" transform="scale(0.015625)"/>
       <path id="ArialMT-3a" d="M 578 2678 
L 578 3319 
L 1219 3319 
L 1219 2678 
L 578 2678 
z
M 578 0 
L 578 641 
L 1219 641 
L 1219 0 
L 578 0 
z
" transform="scale(0.015625)"/>
       <path id="ArialMT-20" transform="scale(0.015625)"/>
       <path id="ArialMT-75" d="M 2597 0 
L 2597 488 
Q 2209 -75 1544 -75 
Q 1250 -75 995 37 
Q 741 150 617 320 
Q 494 491 444 738 
Q 409 903 409 1263 
L 409 3319 
L 972 3319 
L 972 1478 
Q 972 1038 1006 884 
Q 1059 663 1231 536 
Q 1403 409 1656 409 
Q 1909 409 2131 539 
Q 2353 669 2445 892 
Q 2538 1116 2538 1541 
L 2538 3319 
L 3100 3319 
L 3100 0 
L 2597 0 
z
" transform="scale(0.015625)"/>
       <path id="ArialMT-70" d="M 422 -1272 
L 422 3319 
L 934 3319 
L 934 2888 
Q 1116 3141 1344 3267 
Q 1572 3394 1897 3394 
Q 2322 3394 2647 3175 
Q 2972 2956 3137 2557 
Q 3303 2159 3303 1684 
Q 3303 1175 3120 767 
Q 2938 359 2589 142 
Q 2241 -75 1856 -75 
Q 1575 -75 1351 44 
Q 1128 163 984 344 
L 984 -1272 
L 422 -1272 
z
M 931 1641 
Q 931 1000 1190 694 
Q 1450 388 1819 388 
Q 2194 388 2461 705 
Q 2728 1022 2728 1688 
Q 2728 2322 2467 2637 
Q 2206 2953 1844 2953 
Q 1484 2953 1207 2617 
Q 931 2281 931 1641 
z
" transform="scale(0.015625)"/>
       <path id="ArialMT-73" d="M 197 991 
L 753 1078 
Q 800 744 1014 566 
Q 1228 388 1613 388 
Q 2000 388 2187 545 
Q 2375 703 2375 916 
Q 2375 1106 2209 1216 
Q 2094 1291 1634 1406 
Q 1016 1563 777 1677 
Q 538 1791 414 1992 
Q 291 2194 291 2438 
Q 291 2659 392 2848 
Q 494 3038 669 3163 
Q 800 3259 1026 3326 
Q 1253 3394 1513 3394 
Q 1903 3394 2198 3281 
Q 2494 3169 2634 2976 
Q 2775 2784 2828 2463 
L 2278 2388 
Q 2241 2644 2061 2787 
Q 1881 2931 1553 2931 
Q 1166 2931 1000 2803 
Q 834 2675 834 2503 
Q 834 2394 903 2306 
Q 972 2216 1119 2156 
Q 1203 2125 1616 2013 
Q 2213 1853 2448 1751 
Q 2684 1650 2818 1456 
Q 2953 1263 2953 975 
Q 2953 694 2789 445 
Q 2625 197 2315 61 
Q 2006 -75 1616 -75 
Q 969 -75 630 194 
Q 291 463 197 991 
z
" transform="scale(0.015625)"/>
       <path id="ArialMT-5f" d="M -97 -1272 
L -97 -866 
L 3631 -866 
L 3631 -1272 
L -97 -1272 
z
" transform="scale(0.015625)"/>
      </defs>
      <use xlink:href="#ArialMT-50"/>
      <use xlink:href="#ArialMT-72" x="66.699219"/>
      <use xlink:href="#ArialMT-65" x="100"/>
      <use xlink:href="#ArialMT-64" x="155.615234"/>
      <use xlink:href="#ArialMT-69" x="211.230469"/>
      <use xlink:href="#ArialMT-63" x="233.447266"/>
      <use xlink:href="#ArialMT-74" x="283.447266"/>
      <use xlink:href="#ArialMT-6f" x="311.230469"/>
      <use xlink:href="#ArialMT-72" x="366.845703"/>
      <use xlink:href="#ArialMT-3a" x="400.146484"/>
      <use xlink:href="#ArialMT-20" x="427.929688"/>
      <use xlink:href="#ArialMT-75" x="455.712891"/>
      <use xlink:href="#ArialMT-70" x="511.328125"/>
      <use xlink:href="#ArialMT-70" x="566.943359"/>
      <use xlink:href="#ArialMT-73" x="622.558594"/>
      <use xlink:href="#ArialMT-5f" x="672.558594"/>
      <use xlink:href="#ArialMT-70" x="728.173828"/>
      <use xlink:href="#ArialMT-65" x="783.789062"/>
      <use xlink:href="#ArialMT-5f" x="839.404297"/>
      <use xlink:href="#ArialMT-33" x="895.019531"/>
     </g>
    </g>
   </g>
   <g id="matplotlib.axis_2">
    <g id="ytick_1">
     <g id="line2d_8">
      <path d="M 41.367188 259.483125 
L 309.207188 259.483125 
" clip-path="url(#p7c5a45f65d)" style="fill: none; stroke: #ffffff; stroke-width: 0.8; stroke-linecap: round"/>
     </g>
     <g id="text_9">
      <!-- 1.0 -->
      <g style="fill: #262626" transform="translate(20.467188 263.062031)scale(0.1 -0.1)">
       <use xlink:href="#ArialMT-31"/>
       <use xlink:href="#ArialMT-2e" x="55.615234"/>
       <use xlink:href="#ArialMT-30" x="83.398438"/>
      </g>
     </g>
    </g>
    <g id="ytick_2">
     <g id="line2d_9">
      <path d="M 41.367188 232.303125 
L 309.207188 232.303125 
" clip-path="url(#p7c5a45f65d)" style="fill: none; stroke: #ffffff; stroke-width: 0.8; stroke-linecap: round"/>
     </g>
     <g id="text_10">
      <!-- 1.5 -->
      <g style="fill: #262626" transform="translate(20.467188 235.882031)scale(0.1 -0.1)">
       <use xlink:href="#ArialMT-31"/>
       <use xlink:href="#ArialMT-2e" x="55.615234"/>
       <use xlink:href="#ArialMT-35" x="83.398438"/>
      </g>
     </g>
    </g>
    <g id="ytick_3">
     <g id="line2d_10">
      <path d="M 41.367188 205.123125 
L 309.207188 205.123125 
" clip-path="url(#p7c5a45f65d)" style="fill: none; stroke: #ffffff; stroke-width: 0.8; stroke-linecap: round"/>
     </g>
     <g id="text_11">
      <!-- 2.0 -->
      <g style="fill: #262626" transform="translate(20.467188 208.702031)scale(0.1 -0.1)">
       <use xlink:href="#ArialMT-32"/>
       <use xlink:href="#ArialMT-2e" x="55.615234"/>
       <use xlink:href="#ArialMT-30" x="83.398438"/>
      </g>
     </g>
    </g>
    <g id="ytick_4">
     <g id="line2d_11">
      <path d="M 41.367188 177.943125 
L 309.207188 177.943125 
" clip-path="url(#p7c5a45f65d)" style="fill: none; stroke: #ffffff; stroke-width: 0.8; stroke-linecap: round"/>
     </g>
     <g id="text_12">
      <!-- 2.5 -->
      <g style="fill: #262626" transform="translate(20.467188 181.522031)scale(0.1 -0.1)">
       <use xlink:href="#ArialMT-32"/>
       <use xlink:href="#ArialMT-2e" x="55.615234"/>
       <use xlink:href="#ArialMT-35" x="83.398438"/>
      </g>
     </g>
    </g>
    <g id="ytick_5">
     <g id="line2d_12">
      <path d="M 41.367188 150.763125 
L 309.207188 150.763125 
" clip-path="url(#p7c5a45f65d)" style="fill: none; stroke: #ffffff; stroke-width: 0.8; stroke-linecap: round"/>
     </g>
     <g id="text_13">
      <!-- 3.0 -->
      <g style="fill: #262626" transform="translate(20.467188 154.342031)scale(0.1 -0.1)">
       <use xlink:href="#ArialMT-33"/>
       <use xlink:href="#ArialMT-2e" x="55.615234"/>
       <use xlink:href="#ArialMT-30" x="83.398438"/>
      </g>
     </g>
    </g>
    <g id="ytick_6">
     <g id="line2d_13">
      <path d="M 41.367188 123.583125 
L 309.207188 123.583125 
" clip-path="url(#p7c5a45f65d)" style="fill: none; stroke: #ffffff; stroke-width: 0.8; stroke-linecap: round"/>
     </g>
     <g id="text_14">
      <!-- 3.5 -->
      <g style="fill: #262626" transform="translate(20.467188 127.162031)scale(0.1 -0.1)">
       <use xlink:href="#ArialMT-33"/>
       <use xlink:href="#ArialMT-2e" x="55.615234"/>
       <use xlink:href="#ArialMT-35" x="83.398438"/>
      </g>
     </g>
    </g>
    <g id="ytick_7">
     <g id="line2d_14">
      <path d="M 41.367188 96.403125 
L 309.207188 96.403125 
" clip-path="url(#p7c5a45f65d)" style="fill: none; stroke: #ffffff; stroke-width: 0.8; stroke-linecap: round"/>
     </g>
     <g id="text_15">
      <!-- 4.0 -->
      <g style="fill: #262626" transform="translate(20.467188 99.982031)scale(0.1 -0.1)">
       <use xlink:href="#ArialMT-34"/>
       <use xlink:href="#ArialMT-2e" x="55.615234"/>
       <use xlink:href="#ArialMT-30" x="83.398438"/>
      </g>
     </g>
    </g>
    <g id="ytick_8">
     <g id="line2d_15">
      <path d="M 41.367188 69.223125 
L 309.207188 69.223125 
" clip-path="url(#p7c5a45f65d)" style="fill: none; stroke: #ffffff; stroke-width: 0.8; stroke-linecap: round"/>
     </g>
     <g id="text_16">
      <!-- 4.5 -->
      <g style="fill: #262626" transform="translate(20.467188 72.802031)scale(0.1 -0.1)">
       <use xlink:href="#ArialMT-34"/>
       <use xlink:href="#ArialMT-2e" x="55.615234"/>
       <use xlink:href="#ArialMT-35" x="83.398438"/>
      </g>
     </g>
    </g>
    <g id="ytick_9">
     <g id="line2d_16">
      <path d="M 41.367188 42.043125 
L 309.207188 42.043125 
" clip-path="url(#p7c5a45f65d)" style="fill: none; stroke: #ffffff; stroke-width: 0.8; stroke-linecap: round"/>
     </g>
     <g id="text_17">
      <!-- 5.0 -->
      <g style="fill: #262626" transform="translate(20.467188 45.622031)scale(0.1 -0.1)">
       <use xlink:href="#ArialMT-35"/>
       <use xlink:href="#ArialMT-2e" x="55.615234"/>
       <use xlink:href="#ArialMT-30" x="83.398438"/>
      </g>
     </g>
    </g>
    <g id="text_18">
     <!-- Predictor: ffmq_ds3 -->
     <g style="fill: #262626" transform="translate(14.479688 194.024844)rotate(-90)scale(0.1 -0.1)">
      <defs>
       <path id="ArialMT-66" d="M 556 0 
L 556 2881 
L 59 2881 
L 59 3319 
L 556 3319 
L 556 3672 
Q 556 4006 616 4169 
Q 697 4388 901 4523 
Q 1106 4659 1475 4659 
Q 1713 4659 2000 4603 
L 1916 4113 
Q 1741 4144 1584 4144 
Q 1328 4144 1222 4034 
Q 1116 3925 1116 3625 
L 1116 3319 
L 1763 3319 
L 1763 2881 
L 1116 2881 
L 1116 0 
L 556 0 
z
" transform="scale(0.015625)"/>
       <path id="ArialMT-6d" d="M 422 0 
L 422 3319 
L 925 3319 
L 925 2853 
Q 1081 3097 1340 3245 
Q 1600 3394 1931 3394 
Q 2300 3394 2536 3241 
Q 2772 3088 2869 2813 
Q 3263 3394 3894 3394 
Q 4388 3394 4653 3120 
Q 4919 2847 4919 2278 
L 4919 0 
L 4359 0 
L 4359 2091 
Q 4359 2428 4304 2576 
Q 4250 2725 4106 2815 
Q 3963 2906 3769 2906 
Q 3419 2906 3187 2673 
Q 2956 2441 2956 1928 
L 2956 0 
L 2394 0 
L 2394 2156 
Q 2394 2531 2256 2718 
Q 2119 2906 1806 2906 
Q 1569 2906 1367 2781 
Q 1166 2656 1075 2415 
Q 984 2175 984 1722 
L 984 0 
L 422 0 
z
" transform="scale(0.015625)"/>
       <path id="ArialMT-71" d="M 2538 -1272 
L 2538 353 
Q 2406 169 2170 47 
Q 1934 -75 1669 -75 
Q 1078 -75 651 397 
Q 225 869 225 1691 
Q 225 2191 398 2587 
Q 572 2984 901 3189 
Q 1231 3394 1625 3394 
Q 2241 3394 2594 2875 
L 2594 3319 
L 3100 3319 
L 3100 -1272 
L 2538 -1272 
z
M 803 1669 
Q 803 1028 1072 708 
Q 1341 388 1716 388 
Q 2075 388 2334 692 
Q 2594 997 2594 1619 
Q 2594 2281 2320 2615 
Q 2047 2950 1678 2950 
Q 1313 2950 1058 2639 
Q 803 2328 803 1669 
z
" transform="scale(0.015625)"/>
      </defs>
      <use xlink:href="#ArialMT-50"/>
      <use xlink:href="#ArialMT-72" x="66.699219"/>
      <use xlink:href="#ArialMT-65" x="100"/>
      <use xlink:href="#ArialMT-64" x="155.615234"/>
      <use xlink:href="#ArialMT-69" x="211.230469"/>
      <use xlink:href="#ArialMT-63" x="233.447266"/>
      <use xlink:href="#ArialMT-74" x="283.447266"/>
      <use xlink:href="#ArialMT-6f" x="311.230469"/>
      <use xlink:href="#ArialMT-72" x="366.845703"/>
      <use xlink:href="#ArialMT-3a" x="400.146484"/>
      <use xlink:href="#ArialMT-20" x="427.929688"/>
      <use xlink:href="#ArialMT-66" x="455.712891"/>
      <use xlink:href="#ArialMT-66" x="481.746094"/>
      <use xlink:href="#ArialMT-6d" x="509.529297"/>
      <use xlink:href="#ArialMT-71" x="592.830078"/>
      <use xlink:href="#ArialMT-5f" x="648.445312"/>
      <use xlink:href="#ArialMT-64" x="704.060547"/>
      <use xlink:href="#ArialMT-73" x="759.675781"/>
      <use xlink:href="#ArialMT-33" x="809.675781"/>
     </g>
    </g>
   </g>
   <g id="PathCollection_1">
    <path d="M 55.46403 160.842461 
L 69.560872 160.297256 
L 83.657714 159.756367 
L 97.754556 159.219742 
L 111.851398 158.687332 
L 125.94824 158.159087 
L 140.045082 157.845981 
L 154.141924 157.637876 
L 168.238766 157.428327 
L 182.335609 157.21732 
L 196.432451 157.004838 
L 210.529293 156.790866 
L 211.329844 156.48523 
L 210.529293 154.958176 
L 196.432451 153.814867 
L 182.335609 152.612922 
L 168.238766 151.347713 
L 154.141924 150.014109 
L 140.045082 148.60641 
L 125.94824 146.435815 
L 120.623949 145.04102 
L 111.851398 144.749382 
L 97.754556 144.268622 
L 83.657714 143.772285 
L 69.560872 143.259602 
L 55.46403 142.729751 
L 41.367188 142.181856 
L 41.367188 145.04102 
L 41.367188 156.48523 
L 41.367188 161.392033 
z
" clip-path="url(#p7c5a45f65d)" style="fill: #485fd1"/>
   </g>
   <g id="PathCollection_2">
    <path d="M 55.46403 259.483125 
L 69.560872 259.483125 
L 83.657714 259.483125 
L 97.754556 259.483125 
L 111.851398 259.483125 
L 125.94824 259.483125 
L 140.045082 259.483125 
L 154.141924 259.483125 
L 168.238766 259.483125 
L 182.335609 259.483125 
L 196.432451 259.483125 
L 210.529293 259.483125 
L 224.626135 259.483125 
L 227.348478 259.483125 
L 224.626135 255.128723 
L 211.226292 248.038914 
L 210.529293 247.677636 
L 196.432451 247.457466 
L 182.335609 247.23892 
L 168.238766 247.02198 
L 154.141924 246.806628 
L 140.045082 246.592846 
L 125.94824 246.030478 
L 111.851398 244.779688 
L 97.754556 243.545651 
L 83.657714 242.328032 
L 69.560872 241.126506 
L 55.46403 239.940756 
L 41.367188 238.770474 
L 41.367188 248.038914 
L 41.367188 259.483125 
z
" clip-path="url(#p7c5a45f65d)" style="fill: #6485ec"/>
    <path d="M 55.46403 178.570109 
L 69.560872 177.954463 
L 83.657714 177.343689 
L 97.754556 176.737731 
L 111.851398 176.136533 
L 125.94824 175.540037 
L 140.045082 175.24417 
L 154.141924 175.096215 
L 168.238766 174.947235 
L 182.335609 174.797217 
L 196.432451 174.646151 
L 210.529293 174.494025 
L 224.626135 169.31015 
L 225.881559 167.929441 
L 235.953453 156.48523 
L 233.690118 145.04102 
L 224.626135 137.747809 
L 210.529293 133.816044 
L 197.922677 133.596809 
L 196.432451 133.570777 
L 182.335609 133.323298 
L 168.238766 133.073576 
L 154.141924 132.821582 
L 140.045082 132.567284 
L 125.94824 132.17754 
L 111.851398 131.507048 
L 97.754556 130.815178 
L 83.657714 130.100892 
L 69.560872 129.363081 
L 55.46403 128.600564 
L 41.367188 127.812079 
L 41.367188 133.596809 
L 41.367188 142.181856 
L 55.46403 142.729751 
L 69.560872 143.259602 
L 83.657714 143.772285 
L 97.754556 144.268622 
L 111.851398 144.749382 
L 120.623949 145.04102 
L 125.94824 146.435815 
L 140.045082 148.60641 
L 154.141924 150.014109 
L 168.238766 151.347713 
L 182.335609 152.612922 
L 196.432451 153.814867 
L 210.529293 154.958176 
L 211.329844 156.48523 
L 210.529293 156.790866 
L 196.432451 157.004838 
L 182.335609 157.21732 
L 168.238766 157.428327 
L 154.141924 157.637876 
L 140.045082 157.845981 
L 125.94824 158.159087 
L 111.851398 158.687332 
L 97.754556 159.219742 
L 83.657714 159.756367 
L 69.560872 160.297256 
L 55.46403 160.842461 
L 41.367188 161.392033 
L 41.367188 167.929441 
L 41.367188 179.190687 
z
" clip-path="url(#p7c5a45f65d)" style="fill: #6485ec"/>
    <path d="M 55.46403 57.039371 
L 69.560872 55.354151 
L 83.657714 53.662476 
L 85.114096 53.487336 
L 97.754556 51.964309 
L 111.851398 50.259611 
L 125.94824 48.548346 
L 140.045082 47.643321 
L 154.141924 47.144776 
L 168.238766 46.647619 
L 182.335609 46.151845 
L 196.432451 45.657449 
L 210.529293 45.164423 
L 218.622731 42.043125 
L 210.529293 42.043125 
L 196.432451 42.043125 
L 182.335609 42.043125 
L 168.238766 42.043125 
L 154.141924 42.043125 
L 140.045082 42.043125 
L 125.94824 42.043125 
L 111.851398 42.043125 
L 97.754556 42.043125 
L 83.657714 42.043125 
L 69.560872 42.043125 
L 55.46403 42.043125 
L 41.367188 42.043125 
L 41.367188 53.487336 
L 41.367188 58.718173 
z
" clip-path="url(#p7c5a45f65d)" style="fill: #6485ec"/>
   </g>
   <g id="PathCollection_3">
    <path d="M 224.626135 255.128723 
L 227.348478 259.483125 
L 238.722977 259.483125 
L 243.044946 259.483125 
L 238.722977 252.170026 
L 236.211803 248.038914 
L 228.976872 236.594704 
L 224.626135 230.022145 
L 214.792018 225.150493 
L 210.529293 223.081768 
L 196.432451 222.952627 
L 182.335609 222.824438 
L 168.238766 222.697191 
L 154.141924 222.570875 
L 140.045082 222.445481 
L 125.94824 221.996183 
L 111.851398 220.907433 
L 97.754556 219.833265 
L 83.657714 218.773389 
L 69.560872 217.727521 
L 55.46403 216.695385 
L 41.367188 215.676713 
L 41.367188 225.150493 
L 41.367188 236.594704 
L 41.367188 238.770474 
L 55.46403 239.940756 
L 69.560872 241.126506 
L 83.657714 242.328032 
L 97.754556 243.545651 
L 111.851398 244.779688 
L 125.94824 246.030478 
L 140.045082 246.592846 
L 154.141924 246.806628 
L 168.238766 247.02198 
L 182.335609 247.23892 
L 196.432451 247.457466 
L 210.529293 247.677636 
L 211.226292 248.038914 
z
" clip-path="url(#p7c5a45f65d)" style="fill: #85a8fc"/>
    <path d="M 55.46403 196.297757 
L 69.560872 195.611669 
L 83.657714 194.931011 
L 97.754556 194.255721 
L 111.851398 193.585733 
L 125.94824 192.920987 
L 140.045082 192.642359 
L 154.141924 192.554555 
L 168.238766 192.466142 
L 182.335609 192.377114 
L 196.432451 192.287464 
L 210.529293 192.197185 
L 214.536929 190.817862 
L 224.626135 187.290962 
L 232.043658 179.373651 
L 238.722977 171.947771 
L 242.230792 167.929441 
L 251.834594 156.48523 
L 249.371706 145.04102 
L 238.722977 136.445912 
L 235.182021 133.596809 
L 224.626135 125.129831 
L 214.012608 122.152599 
L 210.529293 121.173588 
L 196.432451 120.871566 
L 182.335609 120.56682 
L 168.238766 120.259312 
L 154.141924 119.949007 
L 140.045082 119.635864 
L 125.94824 119.139792 
L 111.851398 118.264714 
L 97.754556 117.361735 
L 83.657714 116.429499 
L 69.560872 115.46656 
L 55.46403 114.471377 
L 41.367188 113.442302 
L 41.367188 122.152599 
L 41.367188 127.812079 
L 55.46403 128.600564 
L 69.560872 129.363081 
L 83.657714 130.100892 
L 97.754556 130.815178 
L 111.851398 131.507048 
L 125.94824 132.17754 
L 140.045082 132.567284 
L 154.141924 132.821582 
L 168.238766 133.073576 
L 182.335609 133.323298 
L 196.432451 133.570777 
L 197.922677 133.596809 
L 210.529293 133.816044 
L 224.626135 137.747809 
L 233.690118 145.04102 
L 235.953453 156.48523 
L 225.881559 167.929441 
L 224.626135 169.31015 
L 210.529293 174.494025 
L 196.432451 174.646151 
L 182.335609 174.797217 
L 168.238766 174.947235 
L 154.141924 175.096215 
L 140.045082 175.24417 
L 125.94824 175.540037 
L 111.851398 176.136533 
L 97.754556 176.737731 
L 83.657714 177.343689 
L 69.560872 177.954463 
L 55.46403 178.570109 
L 41.367188 179.190687 
L 41.367188 179.373651 
L 41.367188 190.817862 
L 41.367188 196.989341 
z
" clip-path="url(#p7c5a45f65d)" style="fill: #85a8fc"/>
    <path d="M 55.46403 74.313349 
L 69.560872 72.66115 
L 83.657714 71.002623 
L 97.754556 69.337731 
L 111.851398 67.666436 
L 125.94824 65.988702 
L 140.045082 65.078636 
L 144.006814 64.931546 
L 154.141924 64.555777 
L 168.238766 64.034375 
L 182.335609 63.514423 
L 196.432451 62.995915 
L 210.529293 62.478844 
L 224.626135 57.026294 
L 227.882074 53.487336 
L 238.41547 42.043125 
L 224.626135 42.043125 
L 218.622731 42.043125 
L 210.529293 45.164423 
L 196.432451 45.657449 
L 182.335609 46.151845 
L 168.238766 46.647619 
L 154.141924 47.144776 
L 140.045082 47.643321 
L 125.94824 48.548346 
L 111.851398 50.259611 
L 97.754556 51.964309 
L 85.114096 53.487336 
L 83.657714 53.662476 
L 69.560872 55.354151 
L 55.46403 57.039371 
L 41.367188 58.718173 
L 41.367188 64.931546 
L 41.367188 75.959255 
z
" clip-path="url(#p7c5a45f65d)" style="fill: #85a8fc"/>
   </g>
   <g id="PathCollection_4">
    <path d="M 238.722977 252.170026 
L 243.044946 259.483125 
L 252.819819 259.483125 
L 258.741413 259.483125 
L 252.819819 248.847823 
L 252.356566 248.038914 
L 245.596291 236.594704 
L 238.722977 225.610411 
L 238.426471 225.150493 
L 230.808728 213.706283 
L 227.62819 202.262072 
L 238.591765 190.817862 
L 238.722977 190.676415 
L 248.889416 179.373651 
L 252.819819 174.814313 
L 258.580026 167.929441 
L 266.916661 157.513077 
L 267.715736 156.48523 
L 266.916661 153.080814 
L 265.053295 145.04102 
L 252.819819 135.135861 
L 250.913008 133.596809 
L 238.722977 123.788539 
L 236.683352 122.152599 
L 224.626135 112.511853 
L 218.232793 110.708388 
L 210.529293 108.531132 
L 196.432451 108.172354 
L 182.335609 107.810341 
L 168.238766 107.445049 
L 154.141924 107.076431 
L 140.045082 106.704444 
L 125.94824 106.102044 
L 111.851398 105.022379 
L 97.754556 103.908291 
L 83.657714 102.758105 
L 69.560872 101.570039 
L 55.46403 100.34219 
L 43.464738 99.264178 
L 55.46403 96.298203 
L 69.560872 92.71728 
L 83.657714 89.027609 
L 88.180509 87.819967 
L 97.754556 86.711152 
L 111.851398 85.073261 
L 125.94824 83.429059 
L 140.045082 82.513952 
L 154.141924 81.966779 
L 168.238766 81.421131 
L 182.335609 80.877 
L 196.432451 80.33438 
L 210.529293 79.793266 
L 219.331468 76.375757 
L 224.626135 74.322255 
L 233.263084 64.931546 
L 238.722977 58.9977 
L 243.794833 53.487336 
L 252.819819 43.68625 
L 254.333317 42.043125 
L 252.819819 42.043125 
L 238.722977 42.043125 
L 238.41547 42.043125 
L 227.882074 53.487336 
L 224.626135 57.026294 
L 210.529293 62.478844 
L 196.432451 62.995915 
L 182.335609 63.514423 
L 168.238766 64.034375 
L 154.141924 64.555777 
L 144.006814 64.931546 
L 140.045082 65.078636 
L 125.94824 65.988702 
L 111.851398 67.666436 
L 97.754556 69.337731 
L 83.657714 71.002623 
L 69.560872 72.66115 
L 55.46403 74.313349 
L 41.367188 75.959255 
L 41.367188 76.375757 
L 41.367188 87.819967 
L 41.367188 99.264178 
L 41.367188 110.708388 
L 41.367188 113.442302 
L 55.46403 114.471377 
L 69.560872 115.46656 
L 83.657714 116.429499 
L 97.754556 117.361735 
L 111.851398 118.264714 
L 125.94824 119.139792 
L 140.045082 119.635864 
L 154.141924 119.949007 
L 168.238766 120.259312 
L 182.335609 120.56682 
L 196.432451 120.871566 
L 210.529293 121.173588 
L 214.012608 122.152599 
L 224.626135 125.129831 
L 235.182021 133.596809 
L 238.722977 136.445912 
L 249.371706 145.04102 
L 251.834594 156.48523 
L 242.230792 167.929441 
L 238.722977 171.947771 
L 232.043658 179.373651 
L 224.626135 187.290962 
L 214.536929 190.817862 
L 210.529293 192.197185 
L 196.432451 192.287464 
L 182.335609 192.377114 
L 168.238766 192.466142 
L 154.141924 192.554555 
L 140.045082 192.642359 
L 125.94824 192.920987 
L 111.851398 193.585733 
L 97.754556 194.255721 
L 83.657714 194.931011 
L 69.560872 195.611669 
L 55.46403 196.297757 
L 41.367188 196.989341 
L 41.367188 202.262072 
L 41.367188 213.706283 
L 41.367188 215.676713 
L 55.46403 216.695385 
L 69.560872 217.727521 
L 83.657714 218.773389 
L 97.754556 219.833265 
L 111.851398 220.907433 
L 125.94824 221.996183 
L 140.045082 222.445481 
L 154.141924 222.570875 
L 168.238766 222.697191 
L 182.335609 222.824438 
L 196.432451 222.952627 
L 210.529293 223.081768 
L 214.792018 225.150493 
L 224.626135 230.022145 
L 228.976872 236.594704 
L 236.211803 248.038914 
z
" clip-path="url(#p7c5a45f65d)" style="fill: #a5c3fe"/>
   </g>
   <g id="PathCollection_5">
    <path d="M 252.819819 248.847823 
L 258.741413 259.483125 
L 266.916661 259.483125 
L 274.43788 259.483125 
L 268.50133 248.038914 
L 266.916661 245.09074 
L 262.21571 236.594704 
L 255.549301 225.150493 
L 252.819819 220.656651 
L 248.466419 213.706283 
L 245.563322 202.262072 
L 252.819819 194.355693 
L 255.96515 190.817862 
L 265.735173 179.373651 
L 266.916661 177.940931 
L 274.92926 167.929441 
L 281.013503 159.966122 
L 283.596878 156.48523 
L 281.013503 146.167913 
L 280.734884 145.04102 
L 266.916661 133.817578 
L 266.643996 133.596809 
L 252.819819 122.438846 
L 252.464051 122.152599 
L 238.722977 111.131167 
L 238.194203 110.708388 
L 224.626135 99.893875 
L 222.406207 99.264178 
L 224.626135 97.145054 
L 228.11728 87.819967 
L 238.640656 76.375757 
L 238.722977 76.286261 
L 249.170758 64.931546 
L 252.819819 60.967419 
L 259.707592 53.487336 
L 266.916661 45.661673 
L 270.251165 42.043125 
L 266.916661 42.043125 
L 254.333317 42.043125 
L 252.819819 43.68625 
L 243.794833 53.487336 
L 238.722977 58.9977 
L 233.263084 64.931546 
L 224.626135 74.322255 
L 219.331468 76.375757 
L 210.529293 79.793266 
L 196.432451 80.33438 
L 182.335609 80.877 
L 168.238766 81.421131 
L 154.141924 81.966779 
L 140.045082 82.513952 
L 125.94824 83.429059 
L 111.851398 85.073261 
L 97.754556 86.711152 
L 88.180509 87.819967 
L 83.657714 89.027609 
L 69.560872 92.71728 
L 55.46403 96.298203 
L 43.464738 99.264178 
L 55.46403 100.34219 
L 69.560872 101.570039 
L 83.657714 102.758105 
L 97.754556 103.908291 
L 111.851398 105.022379 
L 125.94824 106.102044 
L 140.045082 106.704444 
L 154.141924 107.076431 
L 168.238766 107.445049 
L 182.335609 107.810341 
L 196.432451 108.172354 
L 210.529293 108.531132 
L 218.232793 110.708388 
L 224.626135 112.511853 
L 236.683352 122.152599 
L 238.722977 123.788539 
L 250.913008 133.596809 
L 252.819819 135.135861 
L 265.053295 145.04102 
L 266.916661 153.080814 
L 267.715736 156.48523 
L 266.916661 157.513077 
L 258.580026 167.929441 
L 252.819819 174.814313 
L 248.889416 179.373651 
L 238.722977 190.676415 
L 238.591765 190.817862 
L 227.62819 202.262072 
L 230.808728 213.706283 
L 238.426471 225.150493 
L 238.722977 225.610411 
L 245.596291 236.594704 
L 252.356566 248.038914 
z
" clip-path="url(#p7c5a45f65d)" style="fill: #c3d5f4"/>
   </g>
   <g id="PathCollection_6">
    <path d="M 281.013503 259.483125 
L 290.134348 259.483125 
L 284.646093 248.038914 
L 281.013503 240.807406 
L 278.83513 236.594704 
L 272.672132 225.150493 
L 266.916661 215.054438 
L 266.12411 213.706283 
L 263.498454 202.262072 
L 266.916661 198.368785 
L 273.338534 190.817862 
L 281.013503 181.3647 
L 282.580931 179.373651 
L 291.278494 167.929441 
L 295.110345 162.663934 
L 299.47802 156.48523 
L 296.416472 145.04102 
L 295.110345 143.973449 
L 282.374983 133.596809 
L 281.013503 132.490986 
L 268.24475 122.152599 
L 266.916661 121.080673 
L 254.024928 110.708388 
L 252.819819 109.741832 
L 239.714663 99.264178 
L 244.014793 87.819967 
L 252.819819 78.248587 
L 254.543248 76.375757 
L 265.078431 64.931546 
L 266.916661 62.935454 
L 275.620351 53.487336 
L 281.013503 47.635407 
L 286.169012 42.043125 
L 281.013503 42.043125 
L 270.251165 42.043125 
L 266.916661 45.661673 
L 259.707592 53.487336 
L 252.819819 60.967419 
L 249.170758 64.931546 
L 238.722977 76.286261 
L 238.640656 76.375757 
L 228.11728 87.819967 
L 224.626135 97.145054 
L 222.406207 99.264178 
L 224.626135 99.893875 
L 238.194203 110.708388 
L 238.722977 111.131167 
L 252.464051 122.152599 
L 252.819819 122.438846 
L 266.643996 133.596809 
L 266.916661 133.817578 
L 280.734884 145.04102 
L 281.013503 146.167913 
L 283.596878 156.48523 
L 281.013503 159.966122 
L 274.92926 167.929441 
L 266.916661 177.940931 
L 265.735173 179.373651 
L 255.96515 190.817862 
L 252.819819 194.355693 
L 245.563322 202.262072 
L 248.466419 213.706283 
L 252.819819 220.656651 
L 255.549301 225.150493 
L 262.21571 236.594704 
L 266.916661 245.09074 
L 268.50133 248.038914 
L 274.43788 259.483125 
z
" clip-path="url(#p7c5a45f65d)" style="fill: #dddcdc"/>
   </g>
   <g id="PathCollection_7">
    <path d="M 295.110345 259.483125 
L 305.830815 259.483125 
L 300.790857 248.038914 
L 295.454549 236.594704 
L 295.110345 235.878928 
L 289.794962 225.150493 
L 283.781801 213.706283 
L 281.433586 202.262072 
L 290.711919 190.817862 
L 295.110345 185.130095 
L 299.426688 179.373651 
L 307.627727 167.929441 
L 309.207188 165.645071 
L 309.207188 156.48523 
L 309.207188 145.04102 
L 309.207188 142.670652 
L 298.105971 133.596809 
L 295.110345 131.156005 
L 284.025449 122.152599 
L 281.013503 119.713938 
L 269.855653 110.708388 
L 266.916661 108.343767 
L 255.595733 99.264178 
L 259.912306 87.819967 
L 266.916661 80.209235 
L 270.445839 76.375757 
L 280.986105 64.931546 
L 281.013503 64.901808 
L 291.53311 53.487336 
L 295.110345 49.607455 
L 302.08686 42.043125 
L 295.110345 42.043125 
L 286.169012 42.043125 
L 281.013503 47.635407 
L 275.620351 53.487336 
L 266.916661 62.935454 
L 265.078431 64.931546 
L 254.543248 76.375757 
L 252.819819 78.248587 
L 244.014793 87.819967 
L 239.714663 99.264178 
L 252.819819 109.741832 
L 254.024928 110.708388 
L 266.916661 121.080673 
L 268.24475 122.152599 
L 281.013503 132.490986 
L 282.374983 133.596809 
L 295.110345 143.973449 
L 296.416472 145.04102 
L 299.47802 156.48523 
L 295.110345 162.663934 
L 291.278494 167.929441 
L 282.580931 179.373651 
L 281.013503 181.3647 
L 273.338534 190.817862 
L 266.916661 198.368785 
L 263.498454 202.262072 
L 266.12411 213.706283 
L 266.916661 215.054438 
L 272.672132 225.150493 
L 278.83513 236.594704 
L 281.013503 240.807406 
L 284.646093 248.038914 
L 290.134348 259.483125 
z
" clip-path="url(#p7c5a45f65d)" style="fill: #f1cdba"/>
   </g>
   <g id="PathCollection_8">
    <path d="M 309.207188 259.483125 
L 309.207188 248.038914 
L 309.207188 236.594704 
L 309.207188 230.147682 
L 306.917792 225.150493 
L 301.439492 213.706283 
L 299.368718 202.262072 
L 308.085303 190.817862 
L 309.207188 189.290933 
L 309.207188 179.373651 
L 309.207188 167.929441 
L 309.207188 165.645071 
L 307.627727 167.929441 
L 299.426688 179.373651 
L 295.110345 185.130095 
L 290.711919 190.817862 
L 281.433586 202.262072 
L 283.781801 213.706283 
L 289.794962 225.150493 
L 295.110345 235.878928 
L 295.454549 236.594704 
L 300.790857 248.038914 
L 305.830815 259.483125 
z
" clip-path="url(#p7c5a45f65d)" style="fill: #f7b396"/>
    <path d="M 309.207188 142.670652 
L 309.207188 133.596809 
L 309.207188 129.812556 
L 299.806148 122.152599 
L 295.110345 118.338561 
L 285.686379 110.708388 
L 281.013503 106.93689 
L 271.476803 99.264178 
L 275.809819 87.819967 
L 281.013503 82.168209 
L 286.348431 76.375757 
L 295.110345 66.866481 
L 296.893779 64.931546 
L 307.445868 53.487336 
L 309.207188 51.577819 
L 309.207188 42.043125 
L 302.08686 42.043125 
L 295.110345 49.607455 
L 291.53311 53.487336 
L 281.013503 64.901808 
L 280.986105 64.931546 
L 270.445839 76.375757 
L 266.916661 80.209235 
L 259.912306 87.819967 
L 255.595733 99.264178 
L 266.916661 108.343767 
L 269.855653 110.708388 
L 281.013503 119.713938 
L 284.025449 122.152599 
L 295.110345 131.156005 
L 298.105971 133.596809 
z
" clip-path="url(#p7c5a45f65d)" style="fill: #f7b396"/>
   </g>
   <g id="PathCollection_9">
    <path d="M 309.207188 230.147682 
L 309.207188 225.150493 
L 309.207188 213.706283 
L 309.207188 202.262072 
L 309.207188 190.817862 
L 309.207188 189.290933 
L 308.085303 190.817862 
L 299.368718 202.262072 
L 301.439492 213.706283 
L 306.917792 225.150493 
z
" clip-path="url(#p7c5a45f65d)" style="fill: #f29072"/>
    <path d="M 309.207188 129.812556 
L 309.207188 122.152599 
L 309.207188 116.954459 
L 301.517104 110.708388 
L 295.110345 105.521117 
L 287.357873 99.264178 
L 291.707332 87.819967 
L 295.110345 84.125508 
L 302.251022 76.375757 
L 309.207188 68.829478 
L 309.207188 64.931546 
L 309.207188 53.487336 
L 309.207188 51.577819 
L 307.445868 53.487336 
L 296.893779 64.931546 
L 295.110345 66.866481 
L 286.348431 76.375757 
L 281.013503 82.168209 
L 275.809819 87.819967 
L 271.476803 99.264178 
L 281.013503 106.93689 
L 285.686379 110.708388 
L 295.110345 118.338561 
L 299.806148 122.152599 
z
" clip-path="url(#p7c5a45f65d)" style="fill: #f29072"/>
   </g>
   <g id="PathCollection_10">
    <path d="M 309.207188 116.954459 
L 309.207188 110.708388 
L 309.207188 104.096363 
L 303.238942 99.264178 
L 307.604844 87.819967 
L 309.207188 86.081137 
L 309.207188 76.375757 
L 309.207188 68.829478 
L 302.251022 76.375757 
L 295.110345 84.125508 
L 291.707332 87.819967 
L 287.357873 99.264178 
L 295.110345 105.521117 
L 301.517104 110.708388 
z
" clip-path="url(#p7c5a45f65d)" style="fill: #e0654f"/>
   </g>
   <g id="PathCollection_11">
    <path d="M 309.207188 104.096363 
L 309.207188 99.264178 
L 309.207188 87.819967 
L 309.207188 86.081137 
L 307.604844 87.819967 
L 303.238942 99.264178 
z
" clip-path="url(#p7c5a45f65d)" style="fill: #c43032"/>
   </g>
   <g id="PathCollection_12"/>
   <g id="PathCollection_13">
    <path d="M 41.367188 142.181856 
L 55.46403 142.729751 
L 69.560872 143.259602 
L 83.657714 143.772285 
L 97.754556 144.268622 
L 111.851398 144.749382 
L 120.623949 145.04102 
L 125.94824 146.435815 
L 140.045082 148.60641 
L 153.243675 149.92441 
" clip-path="url(#p7c5a45f65d)" style="fill: none; stroke: #000000; stroke-width: 0.5"/>
    <path d="M 183.241317 152.690146 
L 196.432451 153.814867 
L 210.529293 154.958176 
L 211.329844 156.48523 
L 210.529293 156.790866 
L 196.432451 157.004838 
L 182.335609 157.21732 
L 168.238766 157.428327 
L 154.141924 157.637876 
L 140.045082 157.845981 
L 125.94824 158.159087 
L 111.851398 158.687332 
L 97.754556 159.219742 
L 83.657714 159.756367 
L 69.560872 160.297256 
L 55.46403 160.842461 
L 41.367188 161.392033 
" clip-path="url(#p7c5a45f65d)" style="fill: none; stroke: #000000; stroke-width: 0.5"/>
   </g>
   <g id="PathCollection_14">
    <path d="M 41.367188 238.770474 
L 55.46403 239.940756 
L 69.560872 241.126506 
L 83.657714 242.328032 
L 97.754556 243.545651 
L 111.851398 244.779688 
L 125.94824 246.030478 
L 139.081811 246.554418 
" clip-path="url(#p7c5a45f65d)" style="fill: none; stroke: #000000; stroke-width: 0.5"/>
    <path d="M 169.202665 247.036814 
L 182.335609 247.23892 
L 196.432451 247.457466 
L 210.529293 247.677636 
L 211.226292 248.038914 
L 224.626135 255.128723 
L 227.348478 259.483125 
" clip-path="url(#p7c5a45f65d)" style="fill: none; stroke: #000000; stroke-width: 0.5"/>
    <path d="M 41.367188 127.812079 
L 55.46403 128.600564 
L 69.560872 129.363081 
L 83.657714 130.100892 
L 97.754556 130.815178 
L 111.851398 131.507048 
L 125.94824 132.17754 
L 140.045082 132.567284 
L 154.141924 132.821582 
L 168.238766 133.073576 
L 182.335609 133.323298 
L 196.432451 133.570777 
L 197.922677 133.596809 
L 210.529293 133.816044 
L 224.626135 137.747809 
L 233.690118 145.04102 
L 235.953453 156.48523 
L 225.881559 167.929441 
L 224.626135 169.31015 
L 210.529293 174.494025 
L 196.432451 174.646151 
L 182.335609 174.797217 
L 168.238766 174.947235 
L 154.141924 175.096215 
L 140.045082 175.24417 
L 125.94824 175.540037 
L 111.851398 176.136533 
L 97.754556 176.737731 
L 83.657714 177.343689 
L 70.5122 177.913244 
" clip-path="url(#p7c5a45f65d)" style="fill: none; stroke: #000000; stroke-width: 0.5"/>
    <path d="M 218.622731 42.043125 
L 210.529293 45.164423 
L 196.432451 45.657449 
L 182.335609 46.151845 
L 168.238766 46.647619 
L 154.141924 47.144776 
L 140.981133 47.610216 
" clip-path="url(#p7c5a45f65d)" style="fill: none; stroke: #000000; stroke-width: 0.5"/>
    <path d="M 110.995464 50.363117 
L 97.754556 51.964309 
L 85.114096 53.487336 
L 83.657714 53.662476 
L 69.560872 55.354151 
L 55.46403 57.039371 
L 41.367188 58.718173 
" clip-path="url(#p7c5a45f65d)" style="fill: none; stroke: #000000; stroke-width: 0.5"/>
   </g>
   <g id="PathCollection_15">
    <path d="M 41.367188 215.676713 
L 55.46403 216.695385 
L 69.560872 217.727521 
L 83.657714 218.773389 
L 97.754556 219.833265 
L 111.851398 220.907433 
L 125.94824 221.996183 
L 140.045082 222.445481 
L 153.239368 222.562847 
" clip-path="url(#p7c5a45f65d)" style="fill: none; stroke: #000000; stroke-width: 0.5"/>
    <path d="M 183.238155 222.832645 
L 196.432451 222.952627 
L 210.529293 223.081768 
L 214.792018 225.150493 
L 224.626135 230.022145 
L 228.976872 236.594704 
L 236.211803 248.038914 
L 238.722977 252.170026 
L 243.044946 259.483125 
" clip-path="url(#p7c5a45f65d)" style="fill: none; stroke: #000000; stroke-width: 0.5"/>
    <path d="M 41.367188 113.442302 
L 55.46403 114.471377 
L 69.560872 115.46656 
L 83.657714 116.429499 
L 97.754556 117.361735 
L 111.851398 118.264714 
L 125.94824 119.139792 
L 140.045082 119.635864 
L 154.141924 119.949007 
L 167.33918 120.23951 
" clip-path="url(#p7c5a45f65d)" style="fill: none; stroke: #000000; stroke-width: 0.5"/>
    <path d="M 197.332108 120.890841 
L 210.529293 121.173588 
L 214.012608 122.152599 
L 224.626135 125.129831 
L 235.182021 133.596809 
L 238.722977 136.445912 
L 249.371706 145.04102 
L 251.834594 156.48523 
L 242.230792 167.929441 
L 238.722977 171.947771 
L 232.043658 179.373651 
L 224.626135 187.290962 
L 214.536929 190.817862 
L 210.529293 192.197185 
L 196.432451 192.287464 
L 182.335609 192.377114 
L 168.238766 192.466142 
L 154.141924 192.554555 
L 140.045082 192.642359 
L 125.94824 192.920987 
L 111.851398 193.585733 
L 97.754556 194.255721 
L 83.657714 194.931011 
L 69.560872 195.611669 
L 55.46403 196.297757 
L 41.367188 196.989341 
" clip-path="url(#p7c5a45f65d)" style="fill: none; stroke: #000000; stroke-width: 0.5"/>
    <path d="M 238.41547 42.043125 
L 227.882074 53.487336 
L 224.626135 57.026294 
L 210.529293 62.478844 
L 196.432451 62.995915 
L 182.335609 63.514423 
L 168.238766 64.034375 
L 158.99653 64.376219 
" clip-path="url(#p7c5a45f65d)" style="fill: none; stroke: #000000; stroke-width: 0.5"/>
    <path d="M 129.032468 65.78959 
L 125.94824 65.988702 
L 111.851398 67.666436 
L 97.754556 69.337731 
L 83.657714 71.002623 
L 69.560872 72.66115 
L 55.46403 74.313349 
L 41.367188 75.959255 
" clip-path="url(#p7c5a45f65d)" style="fill: none; stroke: #000000; stroke-width: 0.5"/>
   </g>
   <g id="PathCollection_16">
    <path d="M 254.333317 42.043125 
L 252.819819 43.68625 
L 243.794833 53.487336 
L 238.722977 58.9977 
L 233.263084 64.931546 
L 224.626135 74.322255 
L 219.331468 76.375757 
L 210.529293 79.793266 
L 196.432451 80.33438 
L 183.227608 80.842665 
" clip-path="url(#p7c5a45f65d)" style="fill: none; stroke: #000000; stroke-width: 0.5"/>
    <path d="M 153.249994 82.0014 
L 140.045082 82.513952 
L 125.94824 83.429059 
L 111.851398 85.073261 
L 97.754556 86.711152 
L 88.180509 87.819967 
L 83.657714 89.027609 
L 69.560872 92.71728 
L 55.46403 96.298203 
L 43.464738 99.264178 
L 55.46403 100.34219 
L 69.560872 101.570039 
L 83.657714 102.758105 
L 97.754556 103.908291 
L 111.851398 105.022379 
L 125.94824 106.102044 
L 140.045082 106.704444 
L 154.141924 107.076431 
L 168.238766 107.445049 
L 182.335609 107.810341 
L 196.432451 108.172354 
L 210.529293 108.531132 
L 218.232793 110.708388 
L 224.626135 112.511853 
L 236.683352 122.152599 
L 238.722977 123.788539 
L 250.913008 133.596809 
L 252.819819 135.135861 
L 265.053295 145.04102 
L 266.916661 153.080814 
L 267.715736 156.48523 
L 266.916661 157.513077 
L 258.580026 167.929441 
L 252.819819 174.814313 
L 248.889416 179.373651 
L 238.722977 190.676415 
L 238.591765 190.817862 
L 227.62819 202.262072 
L 230.808728 213.706283 
L 238.426471 225.150493 
L 238.722977 225.610411 
L 245.596291 236.594704 
L 252.356566 248.038914 
L 252.819819 248.847823 
L 258.741413 259.483125 
" clip-path="url(#p7c5a45f65d)" style="fill: none; stroke: #000000; stroke-width: 0.5"/>
   </g>
   <g id="PathCollection_17">
    <path d="M 270.251165 42.043125 
L 266.916661 45.661673 
L 259.707592 53.487336 
L 252.819819 60.967419 
L 249.170758 64.931546 
L 238.722977 76.286261 
L 238.640656 76.375757 
L 228.11728 87.819967 
L 228.000285 88.13247 
" clip-path="url(#p7c5a45f65d)" style="fill: none; stroke: #000000; stroke-width: 0.5"/>
    <path d="M 236.355992 109.243231 
L 238.194203 110.708388 
L 238.722977 111.131167 
L 252.464051 122.152599 
L 252.819819 122.438846 
L 266.643996 133.596809 
L 266.916661 133.817578 
L 280.734884 145.04102 
L 281.013503 146.167913 
L 283.596878 156.48523 
L 281.013503 159.966122 
L 274.92926 167.929441 
L 266.916661 177.940931 
L 265.735173 179.373651 
L 255.96515 190.817862 
L 252.819819 194.355693 
L 245.563322 202.262072 
L 248.466419 213.706283 
L 252.819819 220.656651 
L 255.549301 225.150493 
L 262.21571 236.594704 
L 266.916661 245.09074 
L 268.50133 248.038914 
L 274.43788 259.483125 
" clip-path="url(#p7c5a45f65d)" style="fill: none; stroke: #000000; stroke-width: 0.5"/>
   </g>
   <g id="PathCollection_18">
    <path d="M 286.169012 42.043125 
L 281.013503 47.635407 
L 275.620351 53.487336 
L 266.916661 62.935454 
L 265.078431 64.931546 
L 254.543248 76.375757 
L 252.819819 78.248587 
L 244.014793 87.819967 
L 239.714663 99.264178 
L 242.310571 101.339622 
" clip-path="url(#p7c5a45f65d)" style="fill: none; stroke: #000000; stroke-width: 0.5"/>
    <path d="M 265.711869 120.111335 
L 266.916661 121.080673 
L 268.24475 122.152599 
L 281.013503 132.490986 
L 282.374983 133.596809 
L 295.110345 143.973449 
L 296.416472 145.04102 
L 299.47802 156.48523 
L 295.110345 162.663934 
L 291.278494 167.929441 
L 282.580931 179.373651 
L 281.013503 181.3647 
L 273.338534 190.817862 
L 266.916661 198.368785 
L 263.498454 202.262072 
L 266.12411 213.706283 
L 266.916661 215.054438 
L 272.672132 225.150493 
L 278.83513 236.594704 
L 281.013503 240.807406 
L 284.646093 248.038914 
L 290.134348 259.483125 
" clip-path="url(#p7c5a45f65d)" style="fill: none; stroke: #000000; stroke-width: 0.5"/>
   </g>
   <g id="PathCollection_19">
    <path d="M 309.207188 165.645071 
L 307.627727 167.929441 
L 299.426688 179.373651 
L 295.110345 185.130095 
L 290.711919 190.817862 
L 283.522763 199.68521 
" clip-path="url(#p7c5a45f65d)" style="fill: none; stroke: #000000; stroke-width: 0.5"/>
    <path d="M 290.71491 227.007292 
L 295.110345 235.878928 
L 295.454549 236.594704 
L 300.790857 248.038914 
L 305.830815 259.483125 
" clip-path="url(#p7c5a45f65d)" style="fill: none; stroke: #000000; stroke-width: 0.5"/>
    <path d="M 302.08686 42.043125 
L 295.110345 49.607455 
L 291.53311 53.487336 
L 281.013503 64.901808 
L 280.986105 64.931546 
L 270.445839 76.375757 
L 266.916661 80.209235 
L 261.787286 85.782668 
" clip-path="url(#p7c5a45f65d)" style="fill: none; stroke: #000000; stroke-width: 0.5"/>
    <path d="M 267.296763 108.649585 
L 269.855653 110.708388 
L 281.013503 119.713938 
L 284.025449 122.152599 
L 295.110345 131.156005 
L 298.105971 133.596809 
L 309.207188 142.670652 
" clip-path="url(#p7c5a45f65d)" style="fill: none; stroke: #000000; stroke-width: 0.5"/>
   </g>
   <g id="PathCollection_20">
    <path d="M 309.207188 189.290933 
L 308.085303 190.817862 
L 301.410637 199.581189 
" clip-path="url(#p7c5a45f65d)" style="fill: none; stroke: #000000; stroke-width: 0.5"/>
    <path d="M 307.880816 227.252538 
L 309.207188 230.147682 
" clip-path="url(#p7c5a45f65d)" style="fill: none; stroke: #000000; stroke-width: 0.5"/>
    <path d="M 309.207188 51.577819 
L 307.445868 53.487336 
L 296.893779 64.931546 
L 295.110345 66.866481 
L 286.348431 76.375757 
L 285.970823 76.785748 
" clip-path="url(#p7c5a45f65d)" style="fill: none; stroke: #000000; stroke-width: 0.5"/>
    <path d="M 273.629536 100.99615 
L 281.013503 106.93689 
L 285.686379 110.708388 
L 295.110345 118.338561 
L 299.806148 122.152599 
L 309.207188 129.812556 
" clip-path="url(#p7c5a45f65d)" style="fill: none; stroke: #000000; stroke-width: 0.5"/>
   </g>
   <g id="PathCollection_21">
    <path d="M 309.207188 68.829478 
L 302.251022 76.375757 
L 295.110345 84.125508 
L 293.57529 85.792031 
" clip-path="url(#p7c5a45f65d)" style="fill: none; stroke: #000000; stroke-width: 0.5"/>
    <path d="M 299.025513 108.691056 
L 301.517104 110.708388 
L 309.207188 116.954459 
" clip-path="url(#p7c5a45f65d)" style="fill: none; stroke: #000000; stroke-width: 0.5"/>
   </g>
   <g id="PathCollection_22">
    <path d="M 309.207188 86.081137 
L 307.604844 87.819967 
L 303.238942 99.264178 
L 309.207188 104.096363 
" clip-path="url(#p7c5a45f65d)" style="fill: none; stroke: #000000; stroke-width: 0.5"/>
   </g>
   <g id="PathCollection_23"/>
   <g id="patch_3">
    <path d="M 41.367188 259.483125 
L 41.367188 42.043125 
" style="fill: none; stroke: #ffffff; stroke-width: 0.8; stroke-linejoin: miter; stroke-linecap: square"/>
   </g>
   <g id="patch_4">
    <path d="M 309.207188 259.483125 
L 309.207188 42.043125 
" style="fill: none; stroke: #ffffff; stroke-width: 0.8; stroke-linejoin: miter; stroke-linecap: square"/>
   </g>
   <g id="patch_5">
    <path d="M 41.367188 259.483125 
L 309.207188 259.483125 
" style="fill: none; stroke: #ffffff; stroke-width: 0.8; stroke-linejoin: miter; stroke-linecap: square"/>
   </g>
   <g id="patch_6">
    <path d="M 41.367188 42.043125 
L 309.207188 42.043125 
" style="fill: none; stroke: #ffffff; stroke-width: 0.8; stroke-linejoin: miter; stroke-linecap: square"/>
   </g>
   <g id="text_19">
    <!-- GB | target: audit dependence on -->
    <g style="fill: #262626" transform="translate(101.718438 14.479687)scale(0.1 -0.1)">
     <defs>
      <path id="ArialMT-47" d="M 2638 1797 
L 2638 2334 
L 4578 2338 
L 4578 638 
Q 4131 281 3656 101 
Q 3181 -78 2681 -78 
Q 2006 -78 1454 211 
Q 903 500 622 1047 
Q 341 1594 341 2269 
Q 341 2938 620 3517 
Q 900 4097 1425 4378 
Q 1950 4659 2634 4659 
Q 3131 4659 3532 4498 
Q 3934 4338 4162 4050 
Q 4391 3763 4509 3300 
L 3963 3150 
Q 3859 3500 3706 3700 
Q 3553 3900 3268 4020 
Q 2984 4141 2638 4141 
Q 2222 4141 1919 4014 
Q 1616 3888 1430 3681 
Q 1244 3475 1141 3228 
Q 966 2803 966 2306 
Q 966 1694 1177 1281 
Q 1388 869 1791 669 
Q 2194 469 2647 469 
Q 3041 469 3416 620 
Q 3791 772 3984 944 
L 3984 1797 
L 2638 1797 
z
" transform="scale(0.015625)"/>
      <path id="ArialMT-42" d="M 469 0 
L 469 4581 
L 2188 4581 
Q 2713 4581 3030 4442 
Q 3347 4303 3526 4014 
Q 3706 3725 3706 3409 
Q 3706 3116 3547 2856 
Q 3388 2597 3066 2438 
Q 3481 2316 3704 2022 
Q 3928 1728 3928 1328 
Q 3928 1006 3792 729 
Q 3656 453 3456 303 
Q 3256 153 2954 76 
Q 2653 0 2216 0 
L 469 0 
z
M 1075 2656 
L 2066 2656 
Q 2469 2656 2644 2709 
Q 2875 2778 2992 2937 
Q 3109 3097 3109 3338 
Q 3109 3566 3000 3739 
Q 2891 3913 2687 3977 
Q 2484 4041 1991 4041 
L 1075 4041 
L 1075 2656 
z
M 1075 541 
L 2216 541 
Q 2509 541 2628 563 
Q 2838 600 2978 687 
Q 3119 775 3209 942 
Q 3300 1109 3300 1328 
Q 3300 1584 3169 1773 
Q 3038 1963 2805 2039 
Q 2572 2116 2134 2116 
L 1075 2116 
L 1075 541 
z
" transform="scale(0.015625)"/>
      <path id="ArialMT-7c" d="M 588 -1347 
L 588 4659 
L 1078 4659 
L 1078 -1347 
L 588 -1347 
z
" transform="scale(0.015625)"/>
      <path id="ArialMT-61" d="M 2588 409 
Q 2275 144 1986 34 
Q 1697 -75 1366 -75 
Q 819 -75 525 192 
Q 231 459 231 875 
Q 231 1119 342 1320 
Q 453 1522 633 1644 
Q 813 1766 1038 1828 
Q 1203 1872 1538 1913 
Q 2219 1994 2541 2106 
Q 2544 2222 2544 2253 
Q 2544 2597 2384 2738 
Q 2169 2928 1744 2928 
Q 1347 2928 1158 2789 
Q 969 2650 878 2297 
L 328 2372 
Q 403 2725 575 2942 
Q 747 3159 1072 3276 
Q 1397 3394 1825 3394 
Q 2250 3394 2515 3294 
Q 2781 3194 2906 3042 
Q 3031 2891 3081 2659 
Q 3109 2516 3109 2141 
L 3109 1391 
Q 3109 606 3145 398 
Q 3181 191 3288 0 
L 2700 0 
Q 2613 175 2588 409 
z
M 2541 1666 
Q 2234 1541 1622 1453 
Q 1275 1403 1131 1340 
Q 988 1278 909 1158 
Q 831 1038 831 891 
Q 831 666 1001 516 
Q 1172 366 1500 366 
Q 1825 366 2078 508 
Q 2331 650 2450 897 
Q 2541 1088 2541 1459 
L 2541 1666 
z
" transform="scale(0.015625)"/>
      <path id="ArialMT-67" d="M 319 -275 
L 866 -356 
Q 900 -609 1056 -725 
Q 1266 -881 1628 -881 
Q 2019 -881 2231 -725 
Q 2444 -569 2519 -288 
Q 2563 -116 2559 434 
Q 2191 0 1641 0 
Q 956 0 581 494 
Q 206 988 206 1678 
Q 206 2153 378 2554 
Q 550 2956 876 3175 
Q 1203 3394 1644 3394 
Q 2231 3394 2613 2919 
L 2613 3319 
L 3131 3319 
L 3131 450 
Q 3131 -325 2973 -648 
Q 2816 -972 2473 -1159 
Q 2131 -1347 1631 -1347 
Q 1038 -1347 672 -1080 
Q 306 -813 319 -275 
z
M 784 1719 
Q 784 1066 1043 766 
Q 1303 466 1694 466 
Q 2081 466 2343 764 
Q 2606 1063 2606 1700 
Q 2606 2309 2336 2618 
Q 2066 2928 1684 2928 
Q 1309 2928 1046 2623 
Q 784 2319 784 1719 
z
" transform="scale(0.015625)"/>
      <path id="ArialMT-6e" d="M 422 0 
L 422 3319 
L 928 3319 
L 928 2847 
Q 1294 3394 1984 3394 
Q 2284 3394 2536 3286 
Q 2788 3178 2913 3003 
Q 3038 2828 3088 2588 
Q 3119 2431 3119 2041 
L 3119 0 
L 2556 0 
L 2556 2019 
Q 2556 2363 2490 2533 
Q 2425 2703 2258 2804 
Q 2091 2906 1866 2906 
Q 1506 2906 1245 2678 
Q 984 2450 984 1813 
L 984 0 
L 422 0 
z
" transform="scale(0.015625)"/>
     </defs>
     <use xlink:href="#ArialMT-47"/>
     <use xlink:href="#ArialMT-42" x="77.783203"/>
     <use xlink:href="#ArialMT-20" x="144.482422"/>
     <use xlink:href="#ArialMT-7c" x="172.265625"/>
     <use xlink:href="#ArialMT-20" x="198.242188"/>
     <use xlink:href="#ArialMT-74" x="226.025391"/>
     <use xlink:href="#ArialMT-61" x="253.808594"/>
     <use xlink:href="#ArialMT-72" x="309.423828"/>
     <use xlink:href="#ArialMT-67" x="342.724609"/>
     <use xlink:href="#ArialMT-65" x="398.339844"/>
     <use xlink:href="#ArialMT-74" x="453.955078"/>
     <use xlink:href="#ArialMT-3a" x="481.738281"/>
     <use xlink:href="#ArialMT-20" x="509.521484"/>
     <use xlink:href="#ArialMT-61" x="537.304688"/>
     <use xlink:href="#ArialMT-75" x="592.919922"/>
     <use xlink:href="#ArialMT-64" x="648.535156"/>
     <use xlink:href="#ArialMT-69" x="704.150391"/>
     <use xlink:href="#ArialMT-74" x="726.367188"/>
     <use xlink:href="#ArialMT-20" x="754.150391"/>
     <use xlink:href="#ArialMT-64" x="781.933594"/>
     <use xlink:href="#ArialMT-65" x="837.548828"/>
     <use xlink:href="#ArialMT-70" x="893.164062"/>
     <use xlink:href="#ArialMT-65" x="948.779297"/>
     <use xlink:href="#ArialMT-6e" x="1004.394531"/>
     <use xlink:href="#ArialMT-64" x="1060.009766"/>
     <use xlink:href="#ArialMT-65" x="1115.625"/>
     <use xlink:href="#ArialMT-6e" x="1171.240234"/>
     <use xlink:href="#ArialMT-63" x="1226.855469"/>
     <use xlink:href="#ArialMT-65" x="1276.855469"/>
     <use xlink:href="#ArialMT-20" x="1332.470703"/>
     <use xlink:href="#ArialMT-6f" x="1360.253906"/>
     <use xlink:href="#ArialMT-6e" x="1415.869141"/>
    </g>
    <!-- predictors: ffmq_ds3 &amp; upps_pe_3 -->
    <g style="fill: #262626" transform="translate(99.223125 25.32)scale(0.1 -0.1)">
     <defs>
      <path id="ArialMT-26" d="M 3041 541 
Q 2763 231 2434 76 
Q 2106 -78 1725 -78 
Q 1022 -78 609 397 
Q 275 784 275 1263 
Q 275 1688 548 2030 
Q 822 2372 1366 2631 
Q 1056 2988 953 3209 
Q 850 3431 850 3638 
Q 850 4050 1173 4354 
Q 1497 4659 1988 4659 
Q 2456 4659 2754 4371 
Q 3053 4084 3053 3681 
Q 3053 3028 2188 2566 
L 3009 1519 
Q 3150 1794 3228 2156 
L 3813 2031 
Q 3663 1431 3406 1044 
Q 3722 625 4122 341 
L 3744 -106 
Q 3403 113 3041 541 
z
M 1897 2928 
Q 2263 3144 2370 3306 
Q 2478 3469 2478 3666 
Q 2478 3900 2329 4048 
Q 2181 4197 1959 4197 
Q 1731 4197 1579 4050 
Q 1428 3903 1428 3691 
Q 1428 3584 1483 3467 
Q 1538 3350 1647 3219 
L 1897 2928 
z
M 2688 984 
L 1656 2263 
Q 1200 1991 1040 1758 
Q 881 1525 881 1297 
Q 881 1019 1103 719 
Q 1325 419 1731 419 
Q 1984 419 2254 576 
Q 2525 734 2688 984 
z
" transform="scale(0.015625)"/>
     </defs>
     <use xlink:href="#ArialMT-70"/>
     <use xlink:href="#ArialMT-72" x="55.615234"/>
     <use xlink:href="#ArialMT-65" x="88.916016"/>
     <use xlink:href="#ArialMT-64" x="144.53125"/>
     <use xlink:href="#ArialMT-69" x="200.146484"/>
     <use xlink:href="#ArialMT-63" x="222.363281"/>
     <use xlink:href="#ArialMT-74" x="272.363281"/>
     <use xlink:href="#ArialMT-6f" x="300.146484"/>
     <use xlink:href="#ArialMT-72" x="355.761719"/>
     <use xlink:href="#ArialMT-73" x="389.0625"/>
     <use xlink:href="#ArialMT-3a" x="439.0625"/>
     <use xlink:href="#ArialMT-20" x="466.845703"/>
     <use xlink:href="#ArialMT-66" x="494.628906"/>
     <use xlink:href="#ArialMT-66" x="520.662109"/>
     <use xlink:href="#ArialMT-6d" x="548.445312"/>
     <use xlink:href="#ArialMT-71" x="631.746094"/>
     <use xlink:href="#ArialMT-5f" x="687.361328"/>
     <use xlink:href="#ArialMT-64" x="742.976562"/>
     <use xlink:href="#ArialMT-73" x="798.591797"/>
     <use xlink:href="#ArialMT-33" x="848.591797"/>
     <use xlink:href="#ArialMT-20" x="904.207031"/>
     <use xlink:href="#ArialMT-26" x="931.990234"/>
     <use xlink:href="#ArialMT-20" x="998.689453"/>
     <use xlink:href="#ArialMT-75" x="1026.472656"/>
     <use xlink:href="#ArialMT-70" x="1082.087891"/>
     <use xlink:href="#ArialMT-70" x="1137.703125"/>
     <use xlink:href="#ArialMT-73" x="1193.318359"/>
     <use xlink:href="#ArialMT-5f" x="1243.318359"/>
     <use xlink:href="#ArialMT-70" x="1298.933594"/>
     <use xlink:href="#ArialMT-65" x="1354.548828"/>
     <use xlink:href="#ArialMT-5f" x="1410.164062"/>
     <use xlink:href="#ArialMT-33" x="1465.779297"/>
    </g>
    <!-- Influence (% of audit range) 0.1% -->
    <g style="fill: #262626" transform="translate(101.080938 36.043125)scale(0.1 -0.1)">
     <defs>
      <path id="ArialMT-49" d="M 597 0 
L 597 4581 
L 1203 4581 
L 1203 0 
L 597 0 
z
" transform="scale(0.015625)"/>
      <path id="ArialMT-6c" d="M 409 0 
L 409 4581 
L 972 4581 
L 972 0 
L 409 0 
z
" transform="scale(0.015625)"/>
      <path id="ArialMT-28" d="M 1497 -1347 
Q 1031 -759 709 28 
Q 388 816 388 1659 
Q 388 2403 628 3084 
Q 909 3875 1497 4659 
L 1900 4659 
Q 1522 4009 1400 3731 
Q 1209 3300 1100 2831 
Q 966 2247 966 1656 
Q 966 153 1900 -1347 
L 1497 -1347 
z
" transform="scale(0.015625)"/>
      <path id="ArialMT-25" d="M 372 3481 
Q 372 3972 619 4315 
Q 866 4659 1334 4659 
Q 1766 4659 2048 4351 
Q 2331 4044 2331 3447 
Q 2331 2866 2045 2552 
Q 1759 2238 1341 2238 
Q 925 2238 648 2547 
Q 372 2856 372 3481 
z
M 1350 4272 
Q 1141 4272 1002 4090 
Q 863 3909 863 3425 
Q 863 2984 1003 2804 
Q 1144 2625 1350 2625 
Q 1563 2625 1702 2806 
Q 1841 2988 1841 3469 
Q 1841 3913 1700 4092 
Q 1559 4272 1350 4272 
z
M 1353 -169 
L 3859 4659 
L 4316 4659 
L 1819 -169 
L 1353 -169 
z
M 3334 1075 
Q 3334 1569 3581 1911 
Q 3828 2253 4300 2253 
Q 4731 2253 5014 1945 
Q 5297 1638 5297 1041 
Q 5297 459 5011 145 
Q 4725 -169 4303 -169 
Q 3888 -169 3611 142 
Q 3334 453 3334 1075 
z
M 4316 1866 
Q 4103 1866 3964 1684 
Q 3825 1503 3825 1019 
Q 3825 581 3965 400 
Q 4106 219 4313 219 
Q 4528 219 4667 400 
Q 4806 581 4806 1063 
Q 4806 1506 4665 1686 
Q 4525 1866 4316 1866 
z
" transform="scale(0.015625)"/>
      <path id="ArialMT-29" d="M 791 -1347 
L 388 -1347 
Q 1322 153 1322 1656 
Q 1322 2244 1188 2822 
Q 1081 3291 891 3722 
Q 769 4003 388 4659 
L 791 4659 
Q 1378 3875 1659 3084 
Q 1900 2403 1900 1659 
Q 1900 816 1576 28 
Q 1253 -759 791 -1347 
z
" transform="scale(0.015625)"/>
     </defs>
     <use xlink:href="#ArialMT-49"/>
     <use xlink:href="#ArialMT-6e" x="27.783203"/>
     <use xlink:href="#ArialMT-66" x="83.398438"/>
     <use xlink:href="#ArialMT-6c" x="111.181641"/>
     <use xlink:href="#ArialMT-75" x="133.398438"/>
     <use xlink:href="#ArialMT-65" x="189.013672"/>
     <use xlink:href="#ArialMT-6e" x="244.628906"/>
     <use xlink:href="#ArialMT-63" x="300.244141"/>
     <use xlink:href="#ArialMT-65" x="350.244141"/>
     <use xlink:href="#ArialMT-20" x="405.859375"/>
     <use xlink:href="#ArialMT-28" x="433.642578"/>
     <use xlink:href="#ArialMT-25" x="466.943359"/>
     <use xlink:href="#ArialMT-20" x="555.859375"/>
     <use xlink:href="#ArialMT-6f" x="583.642578"/>
     <use xlink:href="#ArialMT-66" x="639.257812"/>
     <use xlink:href="#ArialMT-20" x="667.041016"/>
     <use xlink:href="#ArialMT-61" x="694.824219"/>
     <use xlink:href="#ArialMT-75" x="750.439453"/>
     <use xlink:href="#ArialMT-64" x="806.054688"/>
     <use xlink:href="#ArialMT-69" x="861.669922"/>
     <use xlink:href="#ArialMT-74" x="883.886719"/>
     <use xlink:href="#ArialMT-20" x="911.669922"/>
     <use xlink:href="#ArialMT-72" x="939.453125"/>
     <use xlink:href="#ArialMT-61" x="972.753906"/>
     <use xlink:href="#ArialMT-6e" x="1028.369141"/>
     <use xlink:href="#ArialMT-67" x="1083.984375"/>
     <use xlink:href="#ArialMT-65" x="1139.599609"/>
     <use xlink:href="#ArialMT-29" x="1195.214844"/>
     <use xlink:href="#ArialMT-20" x="1228.515625"/>
     <use xlink:href="#ArialMT-30" x="1256.298828"/>
     <use xlink:href="#ArialMT-2e" x="1311.914062"/>
     <use xlink:href="#ArialMT-31" x="1339.697266"/>
     <use xlink:href="#ArialMT-25" x="1395.3125"/>
    </g>
   </g>
   <g id="text_20">
    <g clip-path="url(#p7c5a45f65d)">
     <!-- 6.004 -->
     <g transform="translate(158.082439 152.488429)rotate(-354.733551)scale(0.08 -0.08)">
      <defs>
       <path id="ArialMT-36" d="M 3184 3459 
L 2625 3416 
Q 2550 3747 2413 3897 
Q 2184 4138 1850 4138 
Q 1581 4138 1378 3988 
Q 1113 3794 959 3422 
Q 806 3050 800 2363 
Q 1003 2672 1297 2822 
Q 1591 2972 1913 2972 
Q 2475 2972 2870 2558 
Q 3266 2144 3266 1488 
Q 3266 1056 3080 686 
Q 2894 316 2569 119 
Q 2244 -78 1831 -78 
Q 1128 -78 684 439 
Q 241 956 241 2144 
Q 241 3472 731 4075 
Q 1159 4600 1884 4600 
Q 2425 4600 2770 4297 
Q 3116 3994 3184 3459 
z
M 888 1484 
Q 888 1194 1011 928 
Q 1134 663 1356 523 
Q 1578 384 1822 384 
Q 2178 384 2434 671 
Q 2691 959 2691 1453 
Q 2691 1928 2437 2201 
Q 2184 2475 1800 2475 
Q 1419 2475 1153 2201 
Q 888 1928 888 1484 
z
" transform="scale(0.015625)"/>
      </defs>
      <use xlink:href="#ArialMT-36"/>
      <use xlink:href="#ArialMT-2e" x="55.615234"/>
      <use xlink:href="#ArialMT-30" x="83.398438"/>
      <use xlink:href="#ArialMT-30" x="139.013672"/>
      <use xlink:href="#ArialMT-34" x="194.628906"/>
     </g>
    </g>
   </g>
   <g id="text_21">
    <g clip-path="url(#p7c5a45f65d)">
     <!-- 6.008 -->
     <g transform="translate(144.102858 248.722189)rotate(-359.127973)scale(0.08 -0.08)">
      <defs>
       <path id="ArialMT-38" d="M 1131 2484 
Q 781 2613 612 2850 
Q 444 3088 444 3419 
Q 444 3919 803 4259 
Q 1163 4600 1759 4600 
Q 2359 4600 2725 4251 
Q 3091 3903 3091 3403 
Q 3091 3084 2923 2848 
Q 2756 2613 2416 2484 
Q 2838 2347 3058 2040 
Q 3278 1734 3278 1309 
Q 3278 722 2862 322 
Q 2447 -78 1769 -78 
Q 1091 -78 675 323 
Q 259 725 259 1325 
Q 259 1772 486 2073 
Q 713 2375 1131 2484 
z
M 1019 3438 
Q 1019 3113 1228 2906 
Q 1438 2700 1772 2700 
Q 2097 2700 2305 2904 
Q 2513 3109 2513 3406 
Q 2513 3716 2298 3927 
Q 2084 4138 1766 4138 
Q 1444 4138 1231 3931 
Q 1019 3725 1019 3438 
z
M 838 1322 
Q 838 1081 952 856 
Q 1066 631 1291 507 
Q 1516 384 1775 384 
Q 2178 384 2440 643 
Q 2703 903 2703 1303 
Q 2703 1709 2433 1975 
Q 2163 2241 1756 2241 
Q 1359 2241 1098 1978 
Q 838 1716 838 1322 
z
" transform="scale(0.015625)"/>
      </defs>
      <use xlink:href="#ArialMT-36"/>
      <use xlink:href="#ArialMT-2e" x="55.615234"/>
      <use xlink:href="#ArialMT-30" x="83.398438"/>
      <use xlink:href="#ArialMT-30" x="139.013672"/>
      <use xlink:href="#ArialMT-38" x="194.628906"/>
     </g>
    </g>
   </g>
   <g id="text_22">
    <g clip-path="url(#p7c5a45f65d)">
     <!-- 6.008 -->
     <g transform="translate(45.555482 181.074687)rotate(-2.510673)scale(0.08 -0.08)">
      <use xlink:href="#ArialMT-36"/>
      <use xlink:href="#ArialMT-2e" x="55.615234"/>
      <use xlink:href="#ArialMT-30" x="83.398438"/>
      <use xlink:href="#ArialMT-30" x="139.013672"/>
      <use xlink:href="#ArialMT-38" x="194.628906"/>
     </g>
    </g>
   </g>
   <g id="text_23">
    <g clip-path="url(#p7c5a45f65d)">
     <!-- 6.008 -->
     <g transform="translate(116.17318 51.531704)rotate(-5.297425)scale(0.08 -0.08)">
      <use xlink:href="#ArialMT-36"/>
      <use xlink:href="#ArialMT-2e" x="55.615234"/>
      <use xlink:href="#ArialMT-30" x="83.398438"/>
      <use xlink:href="#ArialMT-30" x="139.013672"/>
      <use xlink:href="#ArialMT-38" x="194.628906"/>
     </g>
    </g>
   </g>
   <g id="text_24">
    <g clip-path="url(#p7c5a45f65d)">
     <!-- 6.012 -->
     <g transform="translate(158.211822 224.675221)rotate(-359.484719)scale(0.08 -0.08)">
      <use xlink:href="#ArialMT-36"/>
      <use xlink:href="#ArialMT-2e" x="55.615234"/>
      <use xlink:href="#ArialMT-30" x="83.398438"/>
      <use xlink:href="#ArialMT-31" x="139.013672"/>
      <use xlink:href="#ArialMT-32" x="194.628906"/>
     </g>
    </g>
   </g>
   <g id="text_25">
    <g clip-path="url(#p7c5a45f65d)">
     <!-- 6.012 -->
     <g transform="translate(172.284317 122.417159)rotate(-358.755962)scale(0.08 -0.08)">
      <use xlink:href="#ArialMT-36"/>
      <use xlink:href="#ArialMT-2e" x="55.615234"/>
      <use xlink:href="#ArialMT-30" x="83.398438"/>
      <use xlink:href="#ArialMT-31" x="139.013672"/>
      <use xlink:href="#ArialMT-32" x="194.628906"/>
     </g>
    </g>
   </g>
   <g id="text_26">
    <g clip-path="url(#p7c5a45f65d)">
     <!-- 6.012 -->
     <g transform="translate(134.102087 67.451192)rotate(-2.597822)scale(0.08 -0.08)">
      <use xlink:href="#ArialMT-36"/>
      <use xlink:href="#ArialMT-2e" x="55.615234"/>
      <use xlink:href="#ArialMT-30" x="83.398438"/>
      <use xlink:href="#ArialMT-31" x="139.013672"/>
      <use xlink:href="#ArialMT-32" x="194.628906"/>
     </g>
    </g>
   </g>
   <g id="text_27">
    <g clip-path="url(#p7c5a45f65d)">
     <!-- 6.016 -->
     <g transform="translate(158.317365 83.874295)rotate(-2.21357)scale(0.08 -0.08)">
      <use xlink:href="#ArialMT-36"/>
      <use xlink:href="#ArialMT-2e" x="55.615234"/>
      <use xlink:href="#ArialMT-30" x="83.398438"/>
      <use xlink:href="#ArialMT-31" x="139.013672"/>
      <use xlink:href="#ArialMT-36" x="194.628906"/>
     </g>
    </g>
   </g>
   <g id="text_28">
    <g clip-path="url(#p7c5a45f65d)">
     <!-- 6.020 -->
     <g transform="translate(218.526207 91.693686)rotate(-294.969876)scale(0.08 -0.08)">
      <use xlink:href="#ArialMT-36"/>
      <use xlink:href="#ArialMT-2e" x="55.615234"/>
      <use xlink:href="#ArialMT-30" x="83.398438"/>
      <use xlink:href="#ArialMT-32" x="139.013672"/>
      <use xlink:href="#ArialMT-30" x="194.628906"/>
     </g>
    </g>
   </g>
   <g id="text_29">
    <g clip-path="url(#p7c5a45f65d)">
     <!-- 6.024 -->
     <g transform="translate(244.92377 106.058534)rotate(-321.262334)scale(0.08 -0.08)">
      <use xlink:href="#ArialMT-36"/>
      <use xlink:href="#ArialMT-2e" x="55.615234"/>
      <use xlink:href="#ArialMT-30" x="83.398438"/>
      <use xlink:href="#ArialMT-32" x="139.013672"/>
      <use xlink:href="#ArialMT-34" x="194.628906"/>
     </g>
    </g>
   </g>
   <g id="text_30">
    <g clip-path="url(#p7c5a45f65d)">
     <!-- 6.028 -->
     <g transform="translate(278.467343 204.976521)rotate(-289.657181)scale(0.08 -0.08)">
      <use xlink:href="#ArialMT-36"/>
      <use xlink:href="#ArialMT-2e" x="55.615234"/>
      <use xlink:href="#ArialMT-30" x="83.398438"/>
      <use xlink:href="#ArialMT-32" x="139.013672"/>
      <use xlink:href="#ArialMT-38" x="194.628906"/>
     </g>
    </g>
   </g>
   <g id="text_31">
    <g clip-path="url(#p7c5a45f65d)">
     <!-- 6.028 -->
     <g transform="translate(250.959544 90.156051)rotate(-285.302042)scale(0.08 -0.08)">
      <use xlink:href="#ArialMT-36"/>
      <use xlink:href="#ArialMT-2e" x="55.615234"/>
      <use xlink:href="#ArialMT-30" x="83.398438"/>
      <use xlink:href="#ArialMT-32" x="139.013672"/>
      <use xlink:href="#ArialMT-38" x="194.628906"/>
     </g>
    </g>
   </g>
   <g id="text_32">
    <g clip-path="url(#p7c5a45f65d)">
     <!-- 6.032 -->
     <g transform="translate(296.392376 204.819279)rotate(-287.918339)scale(0.08 -0.08)">
      <use xlink:href="#ArialMT-36"/>
      <use xlink:href="#ArialMT-2e" x="55.615234"/>
      <use xlink:href="#ArialMT-30" x="83.398438"/>
      <use xlink:href="#ArialMT-33" x="139.013672"/>
      <use xlink:href="#ArialMT-32" x="194.628906"/>
     </g>
    </g>
   </g>
   <g id="text_33">
    <g clip-path="url(#p7c5a45f65d)">
     <!-- 6.032 -->
     <g transform="translate(272.312083 97.422991)rotate(-58.311902)scale(0.08 -0.08)">
      <use xlink:href="#ArialMT-36"/>
      <use xlink:href="#ArialMT-2e" x="55.615234"/>
      <use xlink:href="#ArialMT-30" x="83.398438"/>
      <use xlink:href="#ArialMT-33" x="139.013672"/>
      <use xlink:href="#ArialMT-32" x="194.628906"/>
     </g>
    </g>
   </g>
   <g id="text_34">
    <g clip-path="url(#p7c5a45f65d)">
     <!-- 6.036 -->
     <g transform="translate(282.747194 90.143111)rotate(-285.141679)scale(0.08 -0.08)">
      <use xlink:href="#ArialMT-36"/>
      <use xlink:href="#ArialMT-2e" x="55.615234"/>
      <use xlink:href="#ArialMT-30" x="83.398438"/>
      <use xlink:href="#ArialMT-33" x="139.013672"/>
      <use xlink:href="#ArialMT-36" x="194.628906"/>
     </g>
    </g>
   </g>
  </g>
  <g id="axes_2">
   <g id="patch_7">
    <path d="M 325.947188 259.483125 
L 336.819188 259.483125 
L 336.819188 42.043125 
L 325.947188 42.043125 
z
" style="fill: #eaeaf2"/>
   </g>
   <g id="patch_8">
    <path clip-path="url(#pd72c3b6a7a)" style="fill: #eaeaf2; stroke: #eaeaf2; stroke-width: 0.01; stroke-linejoin: miter"/>
   </g>
   <g id="matplotlib.axis_3">
    <g id="ytick_10">
     <g id="line2d_17">
      <defs>
       <path id="mf18ad35f50" d="M 0 0 
L 3.5 0 
" style="stroke: #262626; stroke-width: 0.8"/>
      </defs>
      <g>
       <use xlink:href="#mf18ad35f50" x="336.819188" y="259.483125" style="fill: #262626; stroke: #262626; stroke-width: 0.8"/>
      </g>
     </g>
     <g id="text_35">
      <!-- 6.000 -->
      <g style="fill: #262626" transform="translate(343.819188 263.062031)scale(0.1 -0.1)">
       <use xlink:href="#ArialMT-36"/>
       <use xlink:href="#ArialMT-2e" x="55.615234"/>
       <use xlink:href="#ArialMT-30" x="83.398438"/>
       <use xlink:href="#ArialMT-30" x="139.013672"/>
       <use xlink:href="#ArialMT-30" x="194.628906"/>
      </g>
     </g>
    </g>
    <g id="ytick_11">
     <g id="line2d_18">
      <g>
       <use xlink:href="#mf18ad35f50" x="336.819188" y="219.94858" style="fill: #262626; stroke: #262626; stroke-width: 0.8"/>
      </g>
     </g>
     <g id="text_36">
      <!-- 6.008 -->
      <g style="fill: #262626" transform="translate(343.819188 223.527486)scale(0.1 -0.1)">
       <use xlink:href="#ArialMT-36"/>
       <use xlink:href="#ArialMT-2e" x="55.615234"/>
       <use xlink:href="#ArialMT-30" x="83.398438"/>
       <use xlink:href="#ArialMT-30" x="139.013672"/>
       <use xlink:href="#ArialMT-38" x="194.628906"/>
      </g>
     </g>
    </g>
    <g id="ytick_12">
     <g id="line2d_19">
      <g>
       <use xlink:href="#mf18ad35f50" x="336.819188" y="180.414034" style="fill: #262626; stroke: #262626; stroke-width: 0.8"/>
      </g>
     </g>
     <g id="text_37">
      <!-- 6.016 -->
      <g style="fill: #262626" transform="translate(343.819188 183.99294)scale(0.1 -0.1)">
       <use xlink:href="#ArialMT-36"/>
       <use xlink:href="#ArialMT-2e" x="55.615234"/>
       <use xlink:href="#ArialMT-30" x="83.398438"/>
       <use xlink:href="#ArialMT-31" x="139.013672"/>
       <use xlink:href="#ArialMT-36" x="194.628906"/>
      </g>
     </g>
    </g>
    <g id="ytick_13">
     <g id="line2d_20">
      <g>
       <use xlink:href="#mf18ad35f50" x="336.819188" y="140.879489" style="fill: #262626; stroke: #262626; stroke-width: 0.8"/>
      </g>
     </g>
     <g id="text_38">
      <!-- 6.024 -->
      <g style="fill: #262626" transform="translate(343.819188 144.458395)scale(0.1 -0.1)">
       <use xlink:href="#ArialMT-36"/>
       <use xlink:href="#ArialMT-2e" x="55.615234"/>
       <use xlink:href="#ArialMT-30" x="83.398438"/>
       <use xlink:href="#ArialMT-32" x="139.013672"/>
       <use xlink:href="#ArialMT-34" x="194.628906"/>
      </g>
     </g>
    </g>
    <g id="ytick_14">
     <g id="line2d_21">
      <g>
       <use xlink:href="#mf18ad35f50" x="336.819188" y="101.344943" style="fill: #262626; stroke: #262626; stroke-width: 0.8"/>
      </g>
     </g>
     <g id="text_39">
      <!-- 6.032 -->
      <g style="fill: #262626" transform="translate(343.819188 104.923849)scale(0.1 -0.1)">
       <use xlink:href="#ArialMT-36"/>
       <use xlink:href="#ArialMT-2e" x="55.615234"/>
       <use xlink:href="#ArialMT-30" x="83.398438"/>
       <use xlink:href="#ArialMT-33" x="139.013672"/>
       <use xlink:href="#ArialMT-32" x="194.628906"/>
      </g>
     </g>
    </g>
    <g id="ytick_15">
     <g id="line2d_22">
      <g>
       <use xlink:href="#mf18ad35f50" x="336.819188" y="61.810398" style="fill: #262626; stroke: #262626; stroke-width: 0.8"/>
      </g>
     </g>
     <g id="text_40">
      <!-- 6.040 -->
      <g style="fill: #262626" transform="translate(343.819188 65.389304)scale(0.1 -0.1)">
       <use xlink:href="#ArialMT-36"/>
       <use xlink:href="#ArialMT-2e" x="55.615234"/>
       <use xlink:href="#ArialMT-30" x="83.398438"/>
       <use xlink:href="#ArialMT-34" x="139.013672"/>
       <use xlink:href="#ArialMT-30" x="194.628906"/>
      </g>
     </g>
    </g>
   </g>
   <g id="QuadMesh_1">
    <path d="M 325.947188 259.483125 
L 336.819188 259.483125 
L 336.819188 239.715852 
L 325.947188 239.715852 
L 325.947188 259.483125 
" clip-path="url(#pd72c3b6a7a)" style="fill: #485fd1"/>
    <path d="M 325.947188 239.715852 
L 336.819188 239.715852 
L 336.819188 219.94858 
L 325.947188 219.94858 
L 325.947188 239.715852 
" clip-path="url(#pd72c3b6a7a)" style="fill: #6485ec"/>
    <path d="M 325.947188 219.94858 
L 336.819188 219.94858 
L 336.819188 200.181307 
L 325.947188 200.181307 
L 325.947188 219.94858 
" clip-path="url(#pd72c3b6a7a)" style="fill: #85a8fc"/>
    <path d="M 325.947188 200.181307 
L 336.819188 200.181307 
L 336.819188 180.414034 
L 325.947188 180.414034 
L 325.947188 200.181307 
" clip-path="url(#pd72c3b6a7a)" style="fill: #a5c3fe"/>
    <path d="M 325.947188 180.414034 
L 336.819188 180.414034 
L 336.819188 160.646761 
L 325.947188 160.646761 
L 325.947188 180.414034 
" clip-path="url(#pd72c3b6a7a)" style="fill: #c3d5f4"/>
    <path d="M 325.947188 160.646761 
L 336.819188 160.646761 
L 336.819188 140.879489 
L 325.947188 140.879489 
L 325.947188 160.646761 
" clip-path="url(#pd72c3b6a7a)" style="fill: #dddcdc"/>
    <path d="M 325.947188 140.879489 
L 336.819188 140.879489 
L 336.819188 121.112216 
L 325.947188 121.112216 
L 325.947188 140.879489 
" clip-path="url(#pd72c3b6a7a)" style="fill: #f1cdba"/>
    <path d="M 325.947188 121.112216 
L 336.819188 121.112216 
L 336.819188 101.344943 
L 325.947188 101.344943 
L 325.947188 121.112216 
" clip-path="url(#pd72c3b6a7a)" style="fill: #f7b396"/>
    <path d="M 325.947188 101.344943 
L 336.819188 101.344943 
L 336.819188 81.57767 
L 325.947188 81.57767 
L 325.947188 101.344943 
" clip-path="url(#pd72c3b6a7a)" style="fill: #f29072"/>
    <path d="M 325.947188 81.57767 
L 336.819188 81.57767 
L 336.819188 61.810398 
L 325.947188 61.810398 
L 325.947188 81.57767 
" clip-path="url(#pd72c3b6a7a)" style="fill: #e0654f"/>
    <path d="M 325.947188 61.810398 
L 336.819188 61.810398 
L 336.819188 42.043125 
L 325.947188 42.043125 
L 325.947188 61.810398 
" clip-path="url(#pd72c3b6a7a)" style="fill: #c43032"/>
   </g>
   <g id="LineCollection_1"/>
   <g id="patch_9">
    <path d="M 325.947188 259.483125 
L 331.383188 259.483125 
L 336.819188 259.483125 
L 336.819188 42.043125 
L 331.383188 42.043125 
L 325.947188 42.043125 
L 325.947188 259.483125 
z
" style="fill: none; stroke: #ffffff; stroke-width: 0.8; stroke-linejoin: miter; stroke-linecap: square"/>
   </g>
  </g>
 </g>
 <defs>
  <clipPath id="p7c5a45f65d">
   <rect x="41.367188" y="42.043125" width="267.84" height="217.44"/>
  </clipPath>
  <clipPath id="pd72c3b6a7a">
   <rect x="325.947188" y="42.043125" width="10.872" height="217.44"/>
  </clipPath>
 </defs>
</svg>
