<?xml version="1.0" encoding="utf-8" standalone="no"?>
<!DOCTYPE svg PUBLIC "-//W3C//DTD SVG 1.1//EN"
  "http://www.w3.org/Graphics/SVG/1.1/DTD/svg11.dtd">
<svg xmlns:xlink="http://www.w3.org/1999/xlink" width="364.827pt" height="296.208125pt" viewBox="0 0 364.827 296.208125" xmlns="http://www.w3.org/2000/svg" version="1.1">
 <metadata>
  <rdf:RDF xmlns:dc="http://purl.org/dc/elements/1.1/" xmlns:cc="http://creativecommons.org/ns#" xmlns:rdf="http://www.w3.org/1999/02/22-rdf-syntax-ns#">
   <cc:Work>
    <dc:type rdf:resource="http://purl.org/dc/dcmitype/StillImage"/>
    <dc:date>2022-04-26T09:27:58.350271</dc:date>
    <dc:format>image/svg+xml</dc:format>
    <dc:creator>
     <cc:Agent>
      <dc:title>Matplotlib v3.5.1, https://matplotlib.org/</dc:title>
     </cc:Agent>
    </dc:creator>
   </cc:Work>
  </rdf:RDF>
 </metadata>
 <defs>
  <style type="text/css">*{stroke-linejoin: round; stroke-linecap: butt}</style>
 </defs>
 <g id="figure_1">
  <g id="patch_1">
   <path d="M 0 296.208125 
L 364.827 296.208125 
L 364.827 0 
L 0 0 
z
" style="fill: #ffffff"/>
  </g>
  <g id="axes_1">
   <g id="patch_2">
    <path d="M 41.275 259.600312 
L 309.115 259.600312 
L 309.115 42.160312 
L 41.275 42.160312 
z
" style="fill: #eaeaf2"/>
   </g>
   <g id="matplotlib.axis_1">
    <g id="xtick_1">
     <g id="line2d_1">
      <path d="M 41.275 259.600312 
L 41.275 42.160312 
" clip-path="url(#p3624de6353)" style="fill: none; stroke: #ffffff; stroke-width: 0.8; stroke-linecap: round"/>
     </g>
     <g id="text_1">
      <!-- 0.0 -->
      <g style="fill: #262626" transform="translate(34.325 273.758125)scale(0.1 -0.1)">
       <defs>
        <path id="ArialMT-30" d="M 266 2259 
Q 266 3072 433 3567 
Q 600 4063 929 4331 
Q 1259 4600 1759 4600 
Q 2128 4600 2406 4451 
Q 2684 4303 2865 4023 
Q 3047 3744 3150 3342 
Q 3253 2941 3253 2259 
Q 3253 1453 3087 958 
Q 2922 463 2592 192 
Q 2263 -78 1759 -78 
Q 1097 -78 719 397 
Q 266 969 266 2259 
z
M 844 2259 
Q 844 1131 1108 757 
Q 1372 384 1759 384 
Q 2147 384 2411 759 
Q 2675 1134 2675 2259 
Q 2675 3391 2411 3762 
Q 2147 4134 1753 4134 
Q 1366 4134 1134 3806 
Q 844 3388 844 2259 
z
" transform="scale(0.015625)"/>
        <path id="ArialMT-2e" d="M 581 0 
L 581 641 
L 1222 641 
L 1222 0 
L 581 0 
z
" transform="scale(0.015625)"/>
       </defs>
       <use xlink:href="#ArialMT-30"/>
       <use xlink:href="#ArialMT-2e" x="55.615234"/>
       <use xlink:href="#ArialMT-30" x="83.398438"/>
      </g>
     </g>
    </g>
    <g id="xtick_2">
     <g id="line2d_2">
      <path d="M 94.843 259.600312 
L 94.843 42.160312 
" clip-path="url(#p3624de6353)" style="fill: none; stroke: #ffffff; stroke-width: 0.8; stroke-linecap: round"/>
     </g>
     <g id="text_2">
      <!-- 0.2 -->
      <g style="fill: #262626" transform="translate(87.893 273.758125)scale(0.1 -0.1)">
       <defs>
        <path id="ArialMT-32" d="M 3222 541 
L 3222 0 
L 194 0 
Q 188 203 259 391 
Q 375 700 629 1000 
Q 884 1300 1366 1694 
Q 2113 2306 2375 2664 
Q 2638 3022 2638 3341 
Q 2638 3675 2398 3904 
Q 2159 4134 1775 4134 
Q 1369 4134 1125 3890 
Q 881 3647 878 3216 
L 300 3275 
Q 359 3922 746 4261 
Q 1134 4600 1788 4600 
Q 2447 4600 2831 4234 
Q 3216 3869 3216 3328 
Q 3216 3053 3103 2787 
Q 2991 2522 2730 2228 
Q 2469 1934 1863 1422 
Q 1356 997 1212 845 
Q 1069 694 975 541 
L 3222 541 
z
" transform="scale(0.015625)"/>
       </defs>
       <use xlink:href="#ArialMT-30"/>
       <use xlink:href="#ArialMT-2e" x="55.615234"/>
       <use xlink:href="#ArialMT-32" x="83.398438"/>
      </g>
     </g>
    </g>
    <g id="xtick_3">
     <g id="line2d_3">
      <path d="M 148.411 259.600312 
L 148.411 42.160312 
" clip-path="url(#p3624de6353)" style="fill: none; stroke: #ffffff; stroke-width: 0.8; stroke-linecap: round"/>
     </g>
     <g id="text_3">
      <!-- 0.4 -->
      <g style="fill: #262626" transform="translate(141.461 273.758125)scale(0.1 -0.1)">
       <defs>
        <path id="ArialMT-34" d="M 2069 0 
L 2069 1097 
L 81 1097 
L 81 1613 
L 2172 4581 
L 2631 4581 
L 2631 1613 
L 3250 1613 
L 3250 1097 
L 2631 1097 
L 2631 0 
L 2069 0 
z
M 2069 1613 
L 2069 3678 
L 634 1613 
L 2069 1613 
z
" transform="scale(0.015625)"/>
       </defs>
       <use xlink:href="#ArialMT-30"/>
       <use xlink:href="#ArialMT-2e" x="55.615234"/>
       <use xlink:href="#ArialMT-34" x="83.398438"/>
      </g>
     </g>
    </g>
    <g id="xtick_4">
     <g id="line2d_4">
      <path d="M 201.979 259.600312 
L 201.979 42.160312 
" clip-path="url(#p3624de6353)" style="fill: none; stroke: #ffffff; stroke-width: 0.8; stroke-linecap: round"/>
     </g>
     <g id="text_4">
      <!-- 0.6 -->
      <g style="fill: #262626" transform="translate(195.029 273.758125)scale(0.1 -0.1)">
       <defs>
        <path id="ArialMT-36" d="M 3184 3459 
L 2625 3416 
Q 2550 3747 2413 3897 
Q 2184 4138 1850 4138 
Q 1581 4138 1378 3988 
Q 1113 3794 959 3422 
Q 806 3050 800 2363 
Q 1003 2672 1297 2822 
Q 1591 2972 1913 2972 
Q 2475 2972 2870 2558 
Q 3266 2144 3266 1488 
Q 3266 1056 3080 686 
Q 2894 316 2569 119 
Q 2244 -78 1831 -78 
Q 1128 -78 684 439 
Q 241 956 241 2144 
Q 241 3472 731 4075 
Q 1159 4600 1884 4600 
Q 2425 4600 2770 4297 
Q 3116 3994 3184 3459 
z
M 888 1484 
Q 888 1194 1011 928 
Q 1134 663 1356 523 
Q 1578 384 1822 384 
Q 2178 384 2434 671 
Q 2691 959 2691 1453 
Q 2691 1928 2437 2201 
Q 2184 2475 1800 2475 
Q 1419 2475 1153 2201 
Q 888 1928 888 1484 
z
" transform="scale(0.015625)"/>
       </defs>
       <use xlink:href="#ArialMT-30"/>
       <use xlink:href="#ArialMT-2e" x="55.615234"/>
       <use xlink:href="#ArialMT-36" x="83.398438"/>
      </g>
     </g>
    </g>
    <g id="xtick_5">
     <g id="line2d_5">
      <path d="M 255.547 259.600312 
L 255.547 42.160312 
" clip-path="url(#p3624de6353)" style="fill: none; stroke: #ffffff; stroke-width: 0.8; stroke-linecap: round"/>
     </g>
     <g id="text_5">
      <!-- 0.8 -->
      <g style="fill: #262626" transform="translate(248.597 273.758125)scale(0.1 -0.1)">
       <defs>
        <path id="ArialMT-38" d="M 1131 2484 
Q 781 2613 612 2850 
Q 444 3088 444 3419 
Q 444 3919 803 4259 
Q 1163 4600 1759 4600 
Q 2359 4600 2725 4251 
Q 3091 3903 3091 3403 
Q 3091 3084 2923 2848 
Q 2756 2613 2416 2484 
Q 2838 2347 3058 2040 
Q 3278 1734 3278 1309 
Q 3278 722 2862 322 
Q 2447 -78 1769 -78 
Q 1091 -78 675 323 
Q 259 725 259 1325 
Q 259 1772 486 2073 
Q 713 2375 1131 2484 
z
M 1019 3438 
Q 1019 3113 1228 2906 
Q 1438 2700 1772 2700 
Q 2097 2700 2305 2904 
Q 2513 3109 2513 3406 
Q 2513 3716 2298 3927 
Q 2084 4138 1766 4138 
Q 1444 4138 1231 3931 
Q 1019 3725 1019 3438 
z
M 838 1322 
Q 838 1081 952 856 
Q 1066 631 1291 507 
Q 1516 384 1775 384 
Q 2178 384 2440 643 
Q 2703 903 2703 1303 
Q 2703 1709 2433 1975 
Q 2163 2241 1756 2241 
Q 1359 2241 1098 1978 
Q 838 1716 838 1322 
z
" transform="scale(0.015625)"/>
       </defs>
       <use xlink:href="#ArialMT-30"/>
       <use xlink:href="#ArialMT-2e" x="55.615234"/>
       <use xlink:href="#ArialMT-38" x="83.398438"/>
      </g>
     </g>
    </g>
    <g id="xtick_6">
     <g id="line2d_6">
      <path d="M 309.115 259.600312 
L 309.115 42.160312 
" clip-path="url(#p3624de6353)" style="fill: none; stroke: #ffffff; stroke-width: 0.8; stroke-linecap: round"/>
     </g>
     <g id="text_6">
      <!-- 1.0 -->
      <g style="fill: #262626" transform="translate(302.165 273.758125)scale(0.1 -0.1)">
       <defs>
        <path id="ArialMT-31" d="M 2384 0 
L 1822 0 
L 1822 3584 
Q 1619 3391 1289 3197 
Q 959 3003 697 2906 
L 697 3450 
Q 1169 3672 1522 3987 
Q 1875 4303 2022 4600 
L 2384 4600 
L 2384 0 
z
" transform="scale(0.015625)"/>
       </defs>
       <use xlink:href="#ArialMT-31"/>
       <use xlink:href="#ArialMT-2e" x="55.615234"/>
       <use xlink:href="#ArialMT-30" x="83.398438"/>
      </g>
     </g>
    </g>
    <g id="text_7">
     <!-- Predictor: geschlecht_kod_male -->
     <g style="fill: #262626" transform="translate(104.049688 286.903437)scale(0.1 -0.1)">
      <defs>
       <path id="ArialMT-50" d="M 494 0 
L 494 4581 
L 2222 4581 
Q 2678 4581 2919 4538 
Q 3256 4481 3484 4323 
Q 3713 4166 3852 3881 
Q 3991 3597 3991 3256 
Q 3991 2672 3619 2267 
Q 3247 1863 2275 1863 
L 1100 1863 
L 1100 0 
L 494 0 
z
M 1100 2403 
L 2284 2403 
Q 2872 2403 3119 2622 
Q 3366 2841 3366 3238 
Q 3366 3525 3220 3729 
Q 3075 3934 2838 4000 
Q 2684 4041 2272 4041 
L 1100 4041 
L 1100 2403 
z
" transform="scale(0.015625)"/>
       <path id="ArialMT-72" d="M 416 0 
L 416 3319 
L 922 3319 
L 922 2816 
Q 1116 3169 1280 3281 
Q 1444 3394 1641 3394 
Q 1925 3394 2219 3213 
L 2025 2691 
Q 1819 2813 1613 2813 
Q 1428 2813 1281 2702 
Q 1134 2591 1072 2394 
Q 978 2094 978 1738 
L 978 0 
L 416 0 
z
" transform="scale(0.015625)"/>
       <path id="ArialMT-65" d="M 2694 1069 
L 3275 997 
Q 3138 488 2766 206 
Q 2394 -75 1816 -75 
Q 1088 -75 661 373 
Q 234 822 234 1631 
Q 234 2469 665 2931 
Q 1097 3394 1784 3394 
Q 2450 3394 2872 2941 
Q 3294 2488 3294 1666 
Q 3294 1616 3291 1516 
L 816 1516 
Q 847 969 1125 678 
Q 1403 388 1819 388 
Q 2128 388 2347 550 
Q 2566 713 2694 1069 
z
M 847 1978 
L 2700 1978 
Q 2663 2397 2488 2606 
Q 2219 2931 1791 2931 
Q 1403 2931 1139 2672 
Q 875 2413 847 1978 
z
" transform="scale(0.015625)"/>
       <path id="ArialMT-64" d="M 2575 0 
L 2575 419 
Q 2259 -75 1647 -75 
Q 1250 -75 917 144 
Q 584 363 401 755 
Q 219 1147 219 1656 
Q 219 2153 384 2558 
Q 550 2963 881 3178 
Q 1213 3394 1622 3394 
Q 1922 3394 2156 3267 
Q 2391 3141 2538 2938 
L 2538 4581 
L 3097 4581 
L 3097 0 
L 2575 0 
z
M 797 1656 
Q 797 1019 1065 703 
Q 1334 388 1700 388 
Q 2069 388 2326 689 
Q 2584 991 2584 1609 
Q 2584 2291 2321 2609 
Q 2059 2928 1675 2928 
Q 1300 2928 1048 2622 
Q 797 2316 797 1656 
z
" transform="scale(0.015625)"/>
       <path id="ArialMT-69" d="M 425 3934 
L 425 4581 
L 988 4581 
L 988 3934 
L 425 3934 
z
M 425 0 
L 425 3319 
L 988 3319 
L 988 0 
L 425 0 
z
" transform="scale(0.015625)"/>
       <path id="ArialMT-63" d="M 2588 1216 
L 3141 1144 
Q 3050 572 2676 248 
Q 2303 -75 1759 -75 
Q 1078 -75 664 370 
Q 250 816 250 1647 
Q 250 2184 428 2587 
Q 606 2991 970 3192 
Q 1334 3394 1763 3394 
Q 2303 3394 2647 3120 
Q 2991 2847 3088 2344 
L 2541 2259 
Q 2463 2594 2264 2762 
Q 2066 2931 1784 2931 
Q 1359 2931 1093 2626 
Q 828 2322 828 1663 
Q 828 994 1084 691 
Q 1341 388 1753 388 
Q 2084 388 2306 591 
Q 2528 794 2588 1216 
z
" transform="scale(0.015625)"/>
       <path id="ArialMT-74" d="M 1650 503 
L 1731 6 
Q 1494 -44 1306 -44 
Q 1000 -44 831 53 
Q 663 150 594 308 
Q 525 466 525 972 
L 525 2881 
L 113 2881 
L 113 3319 
L 525 3319 
L 525 4141 
L 1084 4478 
L 1084 3319 
L 1650 3319 
L 1650 2881 
L 1084 2881 
L 1084 941 
Q 1084 700 1114 631 
Q 1144 563 1211 522 
Q 1278 481 1403 481 
Q 1497 481 1650 503 
z
" transform="scale(0.015625)"/>
       <path id="ArialMT-6f" d="M 213 1659 
Q 213 2581 725 3025 
Q 1153 3394 1769 3394 
Q 2453 3394 2887 2945 
Q 3322 2497 3322 1706 
Q 3322 1066 3130 698 
Q 2938 331 2570 128 
Q 2203 -75 1769 -75 
Q 1072 -75 642 372 
Q 213 819 213 1659 
z
M 791 1659 
Q 791 1022 1069 705 
Q 1347 388 1769 388 
Q 2188 388 2466 706 
Q 2744 1025 2744 1678 
Q 2744 2294 2464 2611 
Q 2184 2928 1769 2928 
Q 1347 2928 1069 2612 
Q 791 2297 791 1659 
z
" transform="scale(0.015625)"/>
       <path id="ArialMT-3a" d="M 578 2678 
L 578 3319 
L 1219 3319 
L 1219 2678 
L 578 2678 
z
M 578 0 
L 578 641 
L 1219 641 
L 1219 0 
L 578 0 
z
" transform="scale(0.015625)"/>
       <path id="ArialMT-20" transform="scale(0.015625)"/>
       <path id="ArialMT-67" d="M 319 -275 
L 866 -356 
Q 900 -609 1056 -725 
Q 1266 -881 1628 -881 
Q 2019 -881 2231 -725 
Q 2444 -569 2519 -288 
Q 2563 -116 2559 434 
Q 2191 0 1641 0 
Q 956 0 581 494 
Q 206 988 206 1678 
Q 206 2153 378 2554 
Q 550 2956 876 3175 
Q 1203 3394 1644 3394 
Q 2231 3394 2613 2919 
L 2613 3319 
L 3131 3319 
L 3131 450 
Q 3131 -325 2973 -648 
Q 2816 -972 2473 -1159 
Q 2131 -1347 1631 -1347 
Q 1038 -1347 672 -1080 
Q 306 -813 319 -275 
z
M 784 1719 
Q 784 1066 1043 766 
Q 1303 466 1694 466 
Q 2081 466 2343 764 
Q 2606 1063 2606 1700 
Q 2606 2309 2336 2618 
Q 2066 2928 1684 2928 
Q 1309 2928 1046 2623 
Q 784 2319 784 1719 
z
" transform="scale(0.015625)"/>
       <path id="ArialMT-73" d="M 197 991 
L 753 1078 
Q 800 744 1014 566 
Q 1228 388 1613 388 
Q 2000 388 2187 545 
Q 2375 703 2375 916 
Q 2375 1106 2209 1216 
Q 2094 1291 1634 1406 
Q 1016 1563 777 1677 
Q 538 1791 414 1992 
Q 291 2194 291 2438 
Q 291 2659 392 2848 
Q 494 3038 669 3163 
Q 800 3259 1026 3326 
Q 1253 3394 1513 3394 
Q 1903 3394 2198 3281 
Q 2494 3169 2634 2976 
Q 2775 2784 2828 2463 
L 2278 2388 
Q 2241 2644 2061 2787 
Q 1881 2931 1553 2931 
Q 1166 2931 1000 2803 
Q 834 2675 834 2503 
Q 834 2394 903 2306 
Q 972 2216 1119 2156 
Q 1203 2125 1616 2013 
Q 2213 1853 2448 1751 
Q 2684 1650 2818 1456 
Q 2953 1263 2953 975 
Q 2953 694 2789 445 
Q 2625 197 2315 61 
Q 2006 -75 1616 -75 
Q 969 -75 630 194 
Q 291 463 197 991 
z
" transform="scale(0.015625)"/>
       <path id="ArialMT-68" d="M 422 0 
L 422 4581 
L 984 4581 
L 984 2938 
Q 1378 3394 1978 3394 
Q 2347 3394 2619 3248 
Q 2891 3103 3008 2847 
Q 3125 2591 3125 2103 
L 3125 0 
L 2563 0 
L 2563 2103 
Q 2563 2525 2380 2717 
Q 2197 2909 1863 2909 
Q 1613 2909 1392 2779 
Q 1172 2650 1078 2428 
Q 984 2206 984 1816 
L 984 0 
L 422 0 
z
" transform="scale(0.015625)"/>
       <path id="ArialMT-6c" d="M 409 0 
L 409 4581 
L 972 4581 
L 972 0 
L 409 0 
z
" transform="scale(0.015625)"/>
       <path id="ArialMT-5f" d="M -97 -1272 
L -97 -866 
L 3631 -866 
L 3631 -1272 
L -97 -1272 
z
" transform="scale(0.015625)"/>
       <path id="ArialMT-6b" d="M 425 0 
L 425 4581 
L 988 4581 
L 988 1969 
L 2319 3319 
L 3047 3319 
L 1778 2088 
L 3175 0 
L 2481 0 
L 1384 1697 
L 988 1316 
L 988 0 
L 425 0 
z
" transform="scale(0.015625)"/>
       <path id="ArialMT-6d" d="M 422 0 
L 422 3319 
L 925 3319 
L 925 2853 
Q 1081 3097 1340 3245 
Q 1600 3394 1931 3394 
Q 2300 3394 2536 3241 
Q 2772 3088 2869 2813 
Q 3263 3394 3894 3394 
Q 4388 3394 4653 3120 
Q 4919 2847 4919 2278 
L 4919 0 
L 4359 0 
L 4359 2091 
Q 4359 2428 4304 2576 
Q 4250 2725 4106 2815 
Q 3963 2906 3769 2906 
Q 3419 2906 3187 2673 
Q 2956 2441 2956 1928 
L 2956 0 
L 2394 0 
L 2394 2156 
Q 2394 2531 2256 2718 
Q 2119 2906 1806 2906 
Q 1569 2906 1367 2781 
Q 1166 2656 1075 2415 
Q 984 2175 984 1722 
L 984 0 
L 422 0 
z
" transform="scale(0.015625)"/>
       <path id="ArialMT-61" d="M 2588 409 
Q 2275 144 1986 34 
Q 1697 -75 1366 -75 
Q 819 -75 525 192 
Q 231 459 231 875 
Q 231 1119 342 1320 
Q 453 1522 633 1644 
Q 813 1766 1038 1828 
Q 1203 1872 1538 1913 
Q 2219 1994 2541 2106 
Q 2544 2222 2544 2253 
Q 2544 2597 2384 2738 
Q 2169 2928 1744 2928 
Q 1347 2928 1158 2789 
Q 969 2650 878 2297 
L 328 2372 
Q 403 2725 575 2942 
Q 747 3159 1072 3276 
Q 1397 3394 1825 3394 
Q 2250 3394 2515 3294 
Q 2781 3194 2906 3042 
Q 3031 2891 3081 2659 
Q 3109 2516 3109 2141 
L 3109 1391 
Q 3109 606 3145 398 
Q 3181 191 3288 0 
L 2700 0 
Q 2613 175 2588 409 
z
M 2541 1666 
Q 2234 1541 1622 1453 
Q 1275 1403 1131 1340 
Q 988 1278 909 1158 
Q 831 1038 831 891 
Q 831 666 1001 516 
Q 1172 366 1500 366 
Q 1825 366 2078 508 
Q 2331 650 2450 897 
Q 2541 1088 2541 1459 
L 2541 1666 
z
" transform="scale(0.015625)"/>
      </defs>
      <use xlink:href="#ArialMT-50"/>
      <use xlink:href="#ArialMT-72" x="66.699219"/>
      <use xlink:href="#ArialMT-65" x="100"/>
      <use xlink:href="#ArialMT-64" x="155.615234"/>
      <use xlink:href="#ArialMT-69" x="211.230469"/>
      <use xlink:href="#ArialMT-63" x="233.447266"/>
      <use xlink:href="#ArialMT-74" x="283.447266"/>
      <use xlink:href="#ArialMT-6f" x="311.230469"/>
      <use xlink:href="#ArialMT-72" x="366.845703"/>
      <use xlink:href="#ArialMT-3a" x="400.146484"/>
      <use xlink:href="#ArialMT-20" x="427.929688"/>
      <use xlink:href="#ArialMT-67" x="455.712891"/>
      <use xlink:href="#ArialMT-65" x="511.328125"/>
      <use xlink:href="#ArialMT-73" x="566.943359"/>
      <use xlink:href="#ArialMT-63" x="616.943359"/>
      <use xlink:href="#ArialMT-68" x="666.943359"/>
      <use xlink:href="#ArialMT-6c" x="722.558594"/>
      <use xlink:href="#ArialMT-65" x="744.775391"/>
      <use xlink:href="#ArialMT-63" x="800.390625"/>
      <use xlink:href="#ArialMT-68" x="850.390625"/>
      <use xlink:href="#ArialMT-74" x="906.005859"/>
      <use xlink:href="#ArialMT-5f" x="933.789062"/>
      <use xlink:href="#ArialMT-6b" x="989.404297"/>
      <use xlink:href="#ArialMT-6f" x="1039.404297"/>
      <use xlink:href="#ArialMT-64" x="1095.019531"/>
      <use xlink:href="#ArialMT-5f" x="1150.634766"/>
      <use xlink:href="#ArialMT-6d" x="1206.25"/>
      <use xlink:href="#ArialMT-61" x="1289.550781"/>
      <use xlink:href="#ArialMT-6c" x="1345.166016"/>
      <use xlink:href="#ArialMT-65" x="1367.382812"/>
     </g>
    </g>
   </g>
   <g id="matplotlib.axis_2">
    <g id="ytick_1">
     <g id="line2d_7">
      <path d="M 41.275 259.600312 
L 309.115 259.600312 
" clip-path="url(#p3624de6353)" style="fill: none; stroke: #ffffff; stroke-width: 0.8; stroke-linecap: round"/>
     </g>
     <g id="text_8">
      <!-- 1.0 -->
      <g style="fill: #262626" transform="translate(20.375 263.179219)scale(0.1 -0.1)">
       <use xlink:href="#ArialMT-31"/>
       <use xlink:href="#ArialMT-2e" x="55.615234"/>
       <use xlink:href="#ArialMT-30" x="83.398438"/>
      </g>
     </g>
    </g>
    <g id="ytick_2">
     <g id="line2d_8">
      <path d="M 41.275 232.420312 
L 309.115 232.420312 
" clip-path="url(#p3624de6353)" style="fill: none; stroke: #ffffff; stroke-width: 0.8; stroke-linecap: round"/>
     </g>
     <g id="text_9">
      <!-- 1.5 -->
      <g style="fill: #262626" transform="translate(20.375 235.999219)scale(0.1 -0.1)">
       <defs>
        <path id="ArialMT-35" d="M 266 1200 
L 856 1250 
Q 922 819 1161 601 
Q 1400 384 1738 384 
Q 2144 384 2425 690 
Q 2706 997 2706 1503 
Q 2706 1984 2436 2262 
Q 2166 2541 1728 2541 
Q 1456 2541 1237 2417 
Q 1019 2294 894 2097 
L 366 2166 
L 809 4519 
L 3088 4519 
L 3088 3981 
L 1259 3981 
L 1013 2750 
Q 1425 3038 1878 3038 
Q 2478 3038 2890 2622 
Q 3303 2206 3303 1553 
Q 3303 931 2941 478 
Q 2500 -78 1738 -78 
Q 1113 -78 717 272 
Q 322 622 266 1200 
z
" transform="scale(0.015625)"/>
       </defs>
       <use xlink:href="#ArialMT-31"/>
       <use xlink:href="#ArialMT-2e" x="55.615234"/>
       <use xlink:href="#ArialMT-35" x="83.398438"/>
      </g>
     </g>
    </g>
    <g id="ytick_3">
     <g id="line2d_9">
      <path d="M 41.275 205.240312 
L 309.115 205.240312 
" clip-path="url(#p3624de6353)" style="fill: none; stroke: #ffffff; stroke-width: 0.8; stroke-linecap: round"/>
     </g>
     <g id="text_10">
      <!-- 2.0 -->
      <g style="fill: #262626" transform="translate(20.375 208.819219)scale(0.1 -0.1)">
       <use xlink:href="#ArialMT-32"/>
       <use xlink:href="#ArialMT-2e" x="55.615234"/>
       <use xlink:href="#ArialMT-30" x="83.398438"/>
      </g>
     </g>
    </g>
    <g id="ytick_4">
     <g id="line2d_10">
      <path d="M 41.275 178.060312 
L 309.115 178.060312 
" clip-path="url(#p3624de6353)" style="fill: none; stroke: #ffffff; stroke-width: 0.8; stroke-linecap: round"/>
     </g>
     <g id="text_11">
      <!-- 2.5 -->
      <g style="fill: #262626" transform="translate(20.375 181.639219)scale(0.1 -0.1)">
       <use xlink:href="#ArialMT-32"/>
       <use xlink:href="#ArialMT-2e" x="55.615234"/>
       <use xlink:href="#ArialMT-35" x="83.398438"/>
      </g>
     </g>
    </g>
    <g id="ytick_5">
     <g id="line2d_11">
      <path d="M 41.275 150.880312 
L 309.115 150.880312 
" clip-path="url(#p3624de6353)" style="fill: none; stroke: #ffffff; stroke-width: 0.8; stroke-linecap: round"/>
     </g>
     <g id="text_12">
      <!-- 3.0 -->
      <g style="fill: #262626" transform="translate(20.375 154.459219)scale(0.1 -0.1)">
       <defs>
        <path id="ArialMT-33" d="M 269 1209 
L 831 1284 
Q 928 806 1161 595 
Q 1394 384 1728 384 
Q 2125 384 2398 659 
Q 2672 934 2672 1341 
Q 2672 1728 2419 1979 
Q 2166 2231 1775 2231 
Q 1616 2231 1378 2169 
L 1441 2663 
Q 1497 2656 1531 2656 
Q 1891 2656 2178 2843 
Q 2466 3031 2466 3422 
Q 2466 3731 2256 3934 
Q 2047 4138 1716 4138 
Q 1388 4138 1169 3931 
Q 950 3725 888 3313 
L 325 3413 
Q 428 3978 793 4289 
Q 1159 4600 1703 4600 
Q 2078 4600 2393 4439 
Q 2709 4278 2876 4000 
Q 3044 3722 3044 3409 
Q 3044 3113 2884 2869 
Q 2725 2625 2413 2481 
Q 2819 2388 3044 2092 
Q 3269 1797 3269 1353 
Q 3269 753 2831 336 
Q 2394 -81 1725 -81 
Q 1122 -81 723 278 
Q 325 638 269 1209 
z
" transform="scale(0.015625)"/>
       </defs>
       <use xlink:href="#ArialMT-33"/>
       <use xlink:href="#ArialMT-2e" x="55.615234"/>
       <use xlink:href="#ArialMT-30" x="83.398438"/>
      </g>
     </g>
    </g>
    <g id="ytick_6">
     <g id="line2d_12">
      <path d="M 41.275 123.700312 
L 309.115 123.700312 
" clip-path="url(#p3624de6353)" style="fill: none; stroke: #ffffff; stroke-width: 0.8; stroke-linecap: round"/>
     </g>
     <g id="text_13">
      <!-- 3.5 -->
      <g style="fill: #262626" transform="translate(20.375 127.279219)scale(0.1 -0.1)">
       <use xlink:href="#ArialMT-33"/>
       <use xlink:href="#ArialMT-2e" x="55.615234"/>
       <use xlink:href="#ArialMT-35" x="83.398438"/>
      </g>
     </g>
    </g>
    <g id="ytick_7">
     <g id="line2d_13">
      <path d="M 41.275 96.520312 
L 309.115 96.520312 
" clip-path="url(#p3624de6353)" style="fill: none; stroke: #ffffff; stroke-width: 0.8; stroke-linecap: round"/>
     </g>
     <g id="text_14">
      <!-- 4.0 -->
      <g style="fill: #262626" transform="translate(20.375 100.099219)scale(0.1 -0.1)">
       <use xlink:href="#ArialMT-34"/>
       <use xlink:href="#ArialMT-2e" x="55.615234"/>
       <use xlink:href="#ArialMT-30" x="83.398438"/>
      </g>
     </g>
    </g>
    <g id="ytick_8">
     <g id="line2d_14">
      <path d="M 41.275 69.340312 
L 309.115 69.340312 
" clip-path="url(#p3624de6353)" style="fill: none; stroke: #ffffff; stroke-width: 0.8; stroke-linecap: round"/>
     </g>
     <g id="text_15">
      <!-- 4.5 -->
      <g style="fill: #262626" transform="translate(20.375 72.919219)scale(0.1 -0.1)">
       <use xlink:href="#ArialMT-34"/>
       <use xlink:href="#ArialMT-2e" x="55.615234"/>
       <use xlink:href="#ArialMT-35" x="83.398438"/>
      </g>
     </g>
    </g>
    <g id="ytick_9">
     <g id="line2d_15">
      <path d="M 41.275 42.160312 
L 309.115 42.160312 
" clip-path="url(#p3624de6353)" style="fill: none; stroke: #ffffff; stroke-width: 0.8; stroke-linecap: round"/>
     </g>
     <g id="text_16">
      <!-- 5.0 -->
      <g style="fill: #262626" transform="translate(20.375 45.739219)scale(0.1 -0.1)">
       <use xlink:href="#ArialMT-35"/>
       <use xlink:href="#ArialMT-2e" x="55.615234"/>
       <use xlink:href="#ArialMT-30" x="83.398438"/>
      </g>
     </g>
    </g>
    <g id="text_17">
     <!-- Predictor: dmq_cope_1 -->
     <g style="fill: #262626" transform="translate(14.3875 202.573281)rotate(-90)scale(0.1 -0.1)">
      <defs>
       <path id="ArialMT-71" d="M 2538 -1272 
L 2538 353 
Q 2406 169 2170 47 
Q 1934 -75 1669 -75 
Q 1078 -75 651 397 
Q 225 869 225 1691 
Q 225 2191 398 2587 
Q 572 2984 901 3189 
Q 1231 3394 1625 3394 
Q 2241 3394 2594 2875 
L 2594 3319 
L 3100 3319 
L 3100 -1272 
L 2538 -1272 
z
M 803 1669 
Q 803 1028 1072 708 
Q 1341 388 1716 388 
Q 2075 388 2334 692 
Q 2594 997 2594 1619 
Q 2594 2281 2320 2615 
Q 2047 2950 1678 2950 
Q 1313 2950 1058 2639 
Q 803 2328 803 1669 
z
" transform="scale(0.015625)"/>
       <path id="ArialMT-70" d="M 422 -1272 
L 422 3319 
L 934 3319 
L 934 2888 
Q 1116 3141 1344 3267 
Q 1572 3394 1897 3394 
Q 2322 3394 2647 3175 
Q 2972 2956 3137 2557 
Q 3303 2159 3303 1684 
Q 3303 1175 3120 767 
Q 2938 359 2589 142 
Q 2241 -75 1856 -75 
Q 1575 -75 1351 44 
Q 1128 163 984 344 
L 984 -1272 
L 422 -1272 
z
M 931 1641 
Q 931 1000 1190 694 
Q 1450 388 1819 388 
Q 2194 388 2461 705 
Q 2728 1022 2728 1688 
Q 2728 2322 2467 2637 
Q 2206 2953 1844 2953 
Q 1484 2953 1207 2617 
Q 931 2281 931 1641 
z
" transform="scale(0.015625)"/>
      </defs>
      <use xlink:href="#ArialMT-50"/>
      <use xlink:href="#ArialMT-72" x="66.699219"/>
      <use xlink:href="#ArialMT-65" x="100"/>
      <use xlink:href="#ArialMT-64" x="155.615234"/>
      <use xlink:href="#ArialMT-69" x="211.230469"/>
      <use xlink:href="#ArialMT-63" x="233.447266"/>
      <use xlink:href="#ArialMT-74" x="283.447266"/>
      <use xlink:href="#ArialMT-6f" x="311.230469"/>
      <use xlink:href="#ArialMT-72" x="366.845703"/>
      <use xlink:href="#ArialMT-3a" x="400.146484"/>
      <use xlink:href="#ArialMT-20" x="427.929688"/>
      <use xlink:href="#ArialMT-64" x="455.712891"/>
      <use xlink:href="#ArialMT-6d" x="511.328125"/>
      <use xlink:href="#ArialMT-71" x="594.628906"/>
      <use xlink:href="#ArialMT-5f" x="650.244141"/>
      <use xlink:href="#ArialMT-63" x="705.859375"/>
      <use xlink:href="#ArialMT-6f" x="755.859375"/>
      <use xlink:href="#ArialMT-70" x="811.474609"/>
      <use xlink:href="#ArialMT-65" x="867.089844"/>
      <use xlink:href="#ArialMT-5f" x="922.705078"/>
      <use xlink:href="#ArialMT-31" x="978.320312"/>
     </g>
    </g>
   </g>
   <g id="PathCollection_1">
    <path d="M 55.371842 259.600312 
L 69.468684 259.600312 
L 83.565526 259.600312 
L 96.336131 259.600312 
L 83.565526 256.521773 
L 69.468684 253.178401 
L 55.371842 249.891206 
L 47.834248 248.156102 
L 41.275 246.658786 
L 41.275 248.156102 
L 41.275 259.600312 
z
" clip-path="url(#p3624de6353)" style="fill: #4b64d5"/>
   </g>
   <g id="PathCollection_2">
    <path d="M 55.371842 249.891206 
L 69.468684 253.178401 
L 83.565526 256.521773 
L 96.336131 259.600312 
L 97.662368 259.600312 
L 111.759211 259.600312 
L 125.856053 259.600312 
L 139.952895 259.600312 
L 154.049737 259.600312 
L 161.390099 259.600312 
L 154.049737 257.751836 
L 139.952895 254.24968 
L 125.856053 250.80895 
L 114.81573 248.156102 
L 111.759211 247.428045 
L 97.662368 244.105417 
L 83.565526 240.839573 
L 69.468684 237.62907 
L 65.39714 236.711891 
L 55.371842 234.472512 
L 41.275 231.368551 
L 41.275 236.711891 
L 41.275 246.658786 
L 47.834248 248.156102 
z
" clip-path="url(#p3624de6353)" style="fill: #6f92f3"/>
   </g>
   <g id="PathCollection_3">
    <path d="M 125.856053 250.80895 
L 139.952895 254.24968 
L 154.049737 257.751836 
L 161.390099 259.600312 
L 168.146579 259.600312 
L 182.243421 259.600312 
L 196.340263 259.600312 
L 210.437105 259.600312 
L 224.533947 259.600312 
L 226.444066 259.600312 
L 224.533947 259.096828 
L 210.437105 255.420126 
L 196.340263 251.810869 
L 182.243421 248.267218 
L 181.797212 248.156102 
L 168.146579 244.787401 
L 154.049737 241.369709 
L 139.952895 238.012492 
L 134.423847 236.711891 
L 125.856053 234.71416 
L 111.759211 231.473176 
L 97.662368 228.288057 
L 84.06635 225.267681 
L 83.565526 225.157373 
L 69.468684 222.079738 
L 55.371842 219.053817 
L 41.275 216.078316 
L 41.275 225.267681 
L 41.275 231.368551 
L 55.371842 234.472512 
L 65.39714 236.711891 
L 69.468684 237.62907 
L 83.565526 240.839573 
L 97.662368 244.105417 
L 111.759211 247.428045 
L 114.81573 248.156102 
z
" clip-path="url(#p3624de6353)" style="fill: #97b8ff"/>
   </g>
   <g id="PathCollection_4">
    <path d="M 182.243421 248.267218 
L 196.340263 251.810869 
L 210.437105 255.420126 
L 224.533947 259.096828 
L 226.444066 259.600312 
L 238.630789 259.600312 
L 252.727632 259.600312 
L 266.824474 259.600312 
L 280.921316 259.600312 
L 291.498033 259.600312 
L 280.921316 256.704177 
L 266.824474 252.9091 
L 252.727632 249.186292 
L 248.778694 248.156102 
L 238.630789 245.533708 
L 224.533947 241.949378 
L 210.437105 238.431408 
L 203.450554 236.711891 
L 196.340263 234.977971 
L 182.243421 231.587309 
L 168.146579 228.257725 
L 155.267114 225.267681 
L 154.049737 224.987582 
L 139.952895 221.775305 
L 125.856053 218.619369 
L 111.759211 215.518307 
L 103.949811 213.82347 
L 97.662368 212.046231 
L 83.565526 208.109244 
L 69.468684 204.2369 
L 62.622989 202.37926 
L 60.253161 190.935049 
L 57.891422 179.490839 
L 55.537728 168.046628 
L 55.371842 167.238577 
L 53.192041 156.602418 
L 45.839305 145.158207 
L 41.275 140.934959 
L 41.275 145.158207 
L 41.275 156.602418 
L 41.275 168.046628 
L 41.275 179.490839 
L 41.275 190.935049 
L 41.275 202.37926 
L 41.275 213.82347 
L 41.275 216.078316 
L 55.371842 219.053817 
L 69.468684 222.079738 
L 83.565526 225.157373 
L 84.06635 225.267681 
L 97.662368 228.288057 
L 111.759211 231.473176 
L 125.856053 234.71416 
L 134.423847 236.711891 
L 139.952895 238.012492 
L 154.049737 241.369709 
L 168.146579 244.787401 
L 181.797212 248.156102 
z
" clip-path="url(#p3624de6353)" style="fill: #bcd2f7"/>
   </g>
   <g id="PathCollection_5">
    <path d="M 252.727632 249.186292 
L 266.824474 252.9091 
L 280.921316 256.704177 
L 291.498033 259.600312 
L 295.018158 259.600312 
L 309.115 259.600312 
L 309.115 248.156102 
L 309.115 246.353885 
L 295.018158 242.585862 
L 280.921316 238.890984 
L 272.477261 236.711891 
L 266.824474 235.267143 
L 252.727632 231.712309 
L 238.630789 228.224531 
L 226.467878 225.267681 
L 224.533947 224.801928 
L 210.437105 221.44269 
L 196.340263 218.145074 
L 182.243421 214.9074 
L 177.466033 213.82347 
L 168.146579 211.074461 
L 154.049737 206.975885 
L 139.952895 202.947485 
L 137.94485 202.37926 
L 135.446273 190.935049 
L 132.956223 179.490839 
L 130.474656 168.046628 
L 128.001531 156.602418 
L 125.856053 153.289288 
L 120.594448 145.158207 
L 111.759211 136.971665 
L 108.242541 133.713997 
L 97.662368 123.915806 
L 95.884543 122.269786 
L 83.565526 110.867289 
L 83.520449 110.825576 
L 71.150256 99.381365 
L 69.468684 97.785839 
L 59.093827 87.937155 
L 55.371842 84.370149 
L 47.158297 76.492944 
L 41.275 70.845767 
L 41.275 76.492944 
L 41.275 87.937155 
L 41.275 99.381365 
L 41.275 110.825576 
L 41.275 122.269786 
L 41.275 133.713997 
L 41.275 140.934959 
L 45.839305 145.158207 
L 53.192041 156.602418 
L 55.371842 167.238577 
L 55.537728 168.046628 
L 57.891422 179.490839 
L 60.253161 190.935049 
L 62.622989 202.37926 
L 69.468684 204.2369 
L 83.565526 208.109244 
L 97.662368 212.046231 
L 103.949811 213.82347 
L 111.759211 215.518307 
L 125.856053 218.619369 
L 139.952895 221.775305 
L 154.049737 224.987582 
L 155.267114 225.267681 
L 168.146579 228.257725 
L 182.243421 231.587309 
L 196.340263 234.977971 
L 203.450554 236.711891 
L 210.437105 238.431408 
L 224.533947 241.949378 
L 238.630789 245.533708 
L 248.778694 248.156102 
z
" clip-path="url(#p3624de6353)" style="fill: #dddcdc"/>
   </g>
   <g id="PathCollection_6">
    <path d="M 280.921316 238.890984 
L 295.018158 242.585862 
L 309.115 246.353885 
L 309.115 236.711891 
L 309.115 228.188052 
L 297.668643 225.267681 
L 295.018158 224.598076 
L 280.921316 221.077791 
L 266.824474 217.625185 
L 252.727632 214.238327 
L 250.982256 213.82347 
L 238.630789 210.014193 
L 224.533947 205.740244 
L 213.266711 202.37926 
L 210.639384 190.935049 
L 210.437105 190.052331 
L 208.021024 179.490839 
L 205.411585 168.046628 
L 202.811021 156.602418 
L 196.340263 146.67864 
L 195.349592 145.158207 
L 183.016111 133.713997 
L 182.243421 132.997207 
L 170.676549 122.269786 
L 168.146579 119.924086 
L 158.330901 110.825576 
L 154.049737 106.858326 
L 145.979162 99.381365 
L 139.952895 93.6794 
L 133.886958 87.937155 
L 125.856053 80.273202 
L 121.897644 76.492944 
L 111.759211 66.802602 
L 109.92556 65.048734 
L 97.97067 53.604523 
L 97.662368 53.309173 
L 86.032938 42.160312 
L 83.565526 42.160312 
L 69.468684 42.160312 
L 55.371842 42.160312 
L 41.275 42.160312 
L 41.275 53.604523 
L 41.275 65.048734 
L 41.275 70.845767 
L 47.158297 76.492944 
L 55.371842 84.370149 
L 59.093827 87.937155 
L 69.468684 97.785839 
L 71.150256 99.381365 
L 83.520449 110.825576 
L 83.565526 110.867289 
L 95.884543 122.269786 
L 97.662368 123.915806 
L 108.242541 133.713997 
L 111.759211 136.971665 
L 120.594448 145.158207 
L 125.856053 153.289288 
L 128.001531 156.602418 
L 130.474656 168.046628 
L 132.956223 179.490839 
L 135.446273 190.935049 
L 137.94485 202.37926 
L 139.952895 202.947485 
L 154.049737 206.975885 
L 168.146579 211.074461 
L 177.466033 213.82347 
L 182.243421 214.9074 
L 196.340263 218.145074 
L 210.437105 221.44269 
L 224.533947 224.801928 
L 226.467878 225.267681 
L 238.630789 228.224531 
L 252.727632 231.712309 
L 266.824474 235.267143 
L 272.477261 236.711891 
z
" clip-path="url(#p3624de6353)" style="fill: #f3c8b2"/>
   </g>
   <g id="PathCollection_7">
    <path d="M 309.115 228.188052 
L 309.115 225.267681 
L 309.115 213.82347 
L 309.115 208.852762 
L 295.018158 204.38782 
L 288.588572 202.37926 
L 285.832495 190.935049 
L 283.085825 179.490839 
L 280.921316 170.444645 
L 280.348513 168.046628 
L 277.620511 156.602418 
L 270.104735 145.158207 
L 266.824474 142.109354 
L 257.789682 133.713997 
L 252.727632 129.011538 
L 245.468556 122.269786 
L 238.630789 115.921109 
L 233.141352 110.825576 
L 224.533947 102.838061 
L 220.808067 99.381365 
L 210.437105 89.595789 
L 208.680089 87.937155 
L 196.63699 76.492944 
L 196.340263 76.210765 
L 184.611199 65.048734 
L 182.243421 62.793525 
L 172.602679 53.604523 
L 168.146579 49.353641 
L 160.611392 42.160312 
L 154.049737 42.160312 
L 139.952895 42.160312 
L 125.856053 42.160312 
L 111.759211 42.160312 
L 97.662368 42.160312 
L 86.032938 42.160312 
L 97.662368 53.309173 
L 97.97067 53.604523 
L 109.92556 65.048734 
L 111.759211 66.802602 
L 121.897644 76.492944 
L 125.856053 80.273202 
L 133.886958 87.937155 
L 139.952895 93.6794 
L 145.979162 99.381365 
L 154.049737 106.858326 
L 158.330901 110.825576 
L 168.146579 119.924086 
L 170.676549 122.269786 
L 182.243421 132.997207 
L 183.016111 133.713997 
L 195.349592 145.158207 
L 196.340263 146.67864 
L 202.811021 156.602418 
L 205.411585 168.046628 
L 208.021024 179.490839 
L 210.437105 190.052331 
L 210.639384 190.935049 
L 213.266711 202.37926 
L 224.533947 205.740244 
L 238.630789 210.014193 
L 250.982256 213.82347 
L 252.727632 214.238327 
L 266.824474 217.625185 
L 280.921316 221.077791 
L 295.018158 224.598076 
L 297.668643 225.267681 
z
" clip-path="url(#p3624de6353)" style="fill: #f6a586"/>
   </g>
   <g id="PathCollection_8">
    <path d="M 295.018158 204.38782 
L 309.115 208.852762 
L 309.115 202.37926 
L 309.115 190.935049 
L 309.115 179.490839 
L 309.115 168.046628 
L 309.115 156.602418 
L 309.115 145.158207 
L 309.115 133.713997 
L 309.115 122.269786 
L 309.115 111.906829 
L 307.951804 110.825576 
L 295.636973 99.381365 
L 295.018158 98.79942 
L 283.473221 87.937155 
L 280.921316 85.524305 
L 271.376336 76.492944 
L 266.824474 72.182406 
L 259.296837 65.048734 
L 252.727632 58.818105 
L 247.234687 53.604523 
L 238.630789 45.431345 
L 235.189847 42.160312 
L 224.533947 42.160312 
L 210.437105 42.160312 
L 196.340263 42.160312 
L 182.243421 42.160312 
L 168.146579 42.160312 
L 160.611392 42.160312 
L 168.146579 49.353641 
L 172.602679 53.604523 
L 182.243421 62.793525 
L 184.611199 65.048734 
L 196.340263 76.210765 
L 196.63699 76.492944 
L 208.680089 87.937155 
L 210.437105 89.595789 
L 220.808067 99.381365 
L 224.533947 102.838061 
L 233.141352 110.825576 
L 238.630789 115.921109 
L 245.468556 122.269786 
L 252.727632 129.011538 
L 257.789682 133.713997 
L 266.824474 142.109354 
L 270.104735 145.158207 
L 277.620511 156.602418 
L 280.348513 168.046628 
L 280.921316 170.444645 
L 283.085825 179.490839 
L 285.832495 190.935049 
L 288.588572 202.37926 
z
" clip-path="url(#p3624de6353)" style="fill: #e7745b"/>
   </g>
   <g id="PathCollection_9">
    <path d="M 309.115 111.906829 
L 309.115 110.825576 
L 309.115 99.381365 
L 309.115 87.937155 
L 309.115 76.492944 
L 309.115 65.048734 
L 309.115 53.604523 
L 309.115 42.160312 
L 295.018158 42.160312 
L 280.921316 42.160312 
L 266.824474 42.160312 
L 252.727632 42.160312 
L 238.630789 42.160312 
L 235.189847 42.160312 
L 238.630789 45.431345 
L 247.234687 53.604523 
L 252.727632 58.818105 
L 259.296837 65.048734 
L 266.824474 72.182406 
L 271.376336 76.492944 
L 280.921316 85.524305 
L 283.473221 87.937155 
L 295.018158 98.79942 
L 295.636973 99.381365 
L 307.951804 110.825576 
z
" clip-path="url(#p3624de6353)" style="fill: #c83836"/>
   </g>
   <g id="PathCollection_10"/>
   <g id="PathCollection_11">
    <path d="M 41.275 246.658786 
L 47.834248 248.156102 
L 55.371842 249.891206 
L 59.182152 250.77972 
" clip-path="url(#p3624de6353)" style="fill: none; stroke: #000000; stroke-width: 0.5"/>
    <path d="M 79.746084 255.61591 
L 83.565526 256.521773 
L 96.336131 259.600312 
" clip-path="url(#p3624de6353)" style="fill: none; stroke: #000000; stroke-width: 0.5"/>
   </g>
   <g id="PathCollection_12">
    <path d="M 41.275 231.368551 
L 55.371842 234.472512 
L 65.39714 236.711891 
L 69.468684 237.62907 
L 83.565526 240.839573 
L 87.433288 241.735625 
" clip-path="url(#p3624de6353)" style="fill: none; stroke: #000000; stroke-width: 0.5"/>
    <path d="M 107.882323 246.514262 
L 111.759211 247.428045 
L 114.81573 248.156102 
L 125.856053 250.80895 
L 139.952895 254.24968 
L 154.049737 257.751836 
L 161.390099 259.600312 
" clip-path="url(#p3624de6353)" style="fill: none; stroke: #000000; stroke-width: 0.5"/>
   </g>
   <g id="PathCollection_13">
    <path d="M 41.275 216.078316 
L 55.371842 219.053817 
L 69.468684 222.079738 
L 83.565526 225.157373 
L 84.06635 225.267681 
L 87.351238 225.997424 
" clip-path="url(#p3624de6353)" style="fill: none; stroke: #000000; stroke-width: 0.5"/>
    <path d="M 107.965156 230.615926 
L 111.759211 231.473176 
L 125.856053 234.71416 
L 134.423847 236.711891 
L 139.952895 238.012492 
L 154.049737 241.369709 
L 168.146579 244.787401 
L 181.797212 248.156102 
L 182.243421 248.267218 
L 196.340263 251.810869 
L 210.437105 255.420126 
L 224.533947 259.096828 
L 226.444066 259.600312 
" clip-path="url(#p3624de6353)" style="fill: none; stroke: #000000; stroke-width: 0.5"/>
   </g>
   <g id="PathCollection_14">
    <path d="M 41.275 140.934959 
L 45.839305 145.158207 
L 53.192041 156.602418 
L 55.371842 167.238577 
L 55.537728 168.046628 
L 57.891422 179.490839 
L 60.253161 190.935049 
L 62.622989 202.37926 
L 69.468684 204.2369 
L 83.565526 208.109244 
L 97.662368 212.046231 
L 103.949811 213.82347 
L 111.759211 215.518307 
L 125.856053 218.619369 
L 139.952895 221.775305 
L 144.969195 222.91838 
" clip-path="url(#p3624de6353)" style="fill: none; stroke: #000000; stroke-width: 0.5"/>
    <path d="M 165.555986 227.656303 
L 168.146579 228.257725 
L 182.243421 231.587309 
L 196.340263 234.977971 
L 203.450554 236.711891 
L 210.437105 238.431408 
L 224.533947 241.949378 
L 238.630789 245.533708 
L 248.778694 248.156102 
L 252.727632 249.186292 
L 266.824474 252.9091 
L 280.921316 256.704177 
L 291.498033 259.600312 
" clip-path="url(#p3624de6353)" style="fill: none; stroke: #000000; stroke-width: 0.5"/>
   </g>
   <g id="PathCollection_15">
    <path d="M 41.275 70.845767 
L 47.158297 76.492944 
L 55.371842 84.370149 
L 59.093827 87.937155 
L 63.534658 92.152764 
" clip-path="url(#p3624de6353)" style="fill: none; stroke: #000000; stroke-width: 0.5"/>
    <path d="M 78.857747 106.511904 
L 83.520449 110.825576 
L 83.565526 110.867289 
L 95.884543 122.269786 
L 97.662368 123.915806 
L 108.242541 133.713997 
L 111.759211 136.971665 
L 120.594448 145.158207 
L 125.856053 153.289288 
L 128.001531 156.602418 
L 130.474656 168.046628 
L 132.956223 179.490839 
L 135.446273 190.935049 
L 137.94485 202.37926 
L 139.952895 202.947485 
L 154.049737 206.975885 
L 168.146579 211.074461 
L 177.466033 213.82347 
L 182.243421 214.9074 
L 196.340263 218.145074 
L 210.437105 221.44269 
L 224.533947 224.801928 
L 226.467878 225.267681 
L 238.630789 228.224531 
L 252.727632 231.712309 
L 266.824474 235.267143 
L 272.477261 236.711891 
L 280.921316 238.890984 
L 295.018158 242.585862 
L 309.115 246.353885 
" clip-path="url(#p3624de6353)" style="fill: none; stroke: #000000; stroke-width: 0.5"/>
   </g>
   <g id="PathCollection_16">
    <path d="M 86.032938 42.160312 
L 97.662368 53.309173 
L 97.97067 53.604523 
L 109.92556 65.048734 
L 111.759211 66.802602 
L 114.261997 69.194772 
" clip-path="url(#p3624de6353)" style="fill: none; stroke: #000000; stroke-width: 0.5"/>
    <path d="M 129.537637 83.786565 
L 133.886958 87.937155 
L 139.952895 93.6794 
L 145.979162 99.381365 
L 154.049737 106.858326 
L 158.330901 110.825576 
L 168.146579 119.924086 
L 170.676549 122.269786 
L 182.243421 132.997207 
L 183.016111 133.713997 
L 195.349592 145.158207 
L 196.340263 146.67864 
L 202.811021 156.602418 
L 205.411585 168.046628 
L 208.021024 179.490839 
L 210.437105 190.052331 
L 210.639384 190.935049 
L 213.266711 202.37926 
L 224.533947 205.740244 
L 238.630789 210.014193 
L 250.982256 213.82347 
L 252.727632 214.238327 
L 266.824474 217.625185 
L 280.921316 221.077791 
L 295.018158 224.598076 
L 297.668643 225.267681 
L 309.115 228.188052 
" clip-path="url(#p3624de6353)" style="fill: none; stroke: #000000; stroke-width: 0.5"/>
   </g>
   <g id="PathCollection_17">
    <path d="M 160.611392 42.160312 
L 168.146579 49.353641 
L 172.602679 53.604523 
L 182.243421 62.793525 
L 184.611199 65.048734 
L 188.734061 68.972279 
" clip-path="url(#p3624de6353)" style="fill: none; stroke: #000000; stroke-width: 0.5"/>
    <path d="M 203.951623 83.443829 
L 208.680089 87.937155 
L 210.437105 89.595789 
L 220.808067 99.381365 
L 224.533947 102.838061 
L 233.141352 110.825576 
L 238.630789 115.921109 
L 245.468556 122.269786 
L 252.727632 129.011538 
L 257.789682 133.713997 
L 266.824474 142.109354 
L 270.104735 145.158207 
L 277.620511 156.602418 
L 280.348513 168.046628 
L 280.921316 170.444645 
L 283.085825 179.490839 
L 285.832495 190.935049 
L 288.588572 202.37926 
L 295.018158 204.38782 
L 309.115 208.852762 
" clip-path="url(#p3624de6353)" style="fill: none; stroke: #000000; stroke-width: 0.5"/>
   </g>
   <g id="PathCollection_18">
    <path d="M 235.189847 42.160312 
L 238.630789 45.431345 
L 247.234687 53.604523 
L 252.727632 58.818105 
L 259.203134 64.959859 
" clip-path="url(#p3624de6353)" style="fill: none; stroke: #000000; stroke-width: 0.5"/>
    <path d="M 274.44966 79.400891 
L 280.921316 85.524305 
L 283.473221 87.937155 
L 295.018158 98.79942 
L 295.636973 99.381365 
L 307.951804 110.825576 
L 309.115 111.906829 
" clip-path="url(#p3624de6353)" style="fill: none; stroke: #000000; stroke-width: 0.5"/>
   </g>
   <g id="PathCollection_19"/>
   <g id="patch_3">
    <path d="M 41.275 259.600312 
L 41.275 42.160312 
" style="fill: none; stroke: #ffffff; stroke-width: 0.8; stroke-linejoin: miter; stroke-linecap: square"/>
   </g>
   <g id="patch_4">
    <path d="M 309.115 259.600312 
L 309.115 42.160312 
" style="fill: none; stroke: #ffffff; stroke-width: 0.8; stroke-linejoin: miter; stroke-linecap: square"/>
   </g>
   <g id="patch_5">
    <path d="M 41.275 259.600312 
L 309.115 259.600312 
" style="fill: none; stroke: #ffffff; stroke-width: 0.8; stroke-linejoin: miter; stroke-linecap: square"/>
   </g>
   <g id="patch_6">
    <path d="M 41.275 42.160312 
L 309.115 42.160312 
" style="fill: none; stroke: #ffffff; stroke-width: 0.8; stroke-linejoin: miter; stroke-linecap: square"/>
   </g>
   <g id="text_18">
    <!-- GB | target: audit dependence on -->
    <g style="fill: #262626" transform="translate(101.62625 14.479687)scale(0.1 -0.1)">
     <defs>
      <path id="ArialMT-47" d="M 2638 1797 
L 2638 2334 
L 4578 2338 
L 4578 638 
Q 4131 281 3656 101 
Q 3181 -78 2681 -78 
Q 2006 -78 1454 211 
Q 903 500 622 1047 
Q 341 1594 341 2269 
Q 341 2938 620 3517 
Q 900 4097 1425 4378 
Q 1950 4659 2634 4659 
Q 3131 4659 3532 4498 
Q 3934 4338 4162 4050 
Q 4391 3763 4509 3300 
L 3963 3150 
Q 3859 3500 3706 3700 
Q 3553 3900 3268 4020 
Q 2984 4141 2638 4141 
Q 2222 4141 1919 4014 
Q 1616 3888 1430 3681 
Q 1244 3475 1141 3228 
Q 966 2803 966 2306 
Q 966 1694 1177 1281 
Q 1388 869 1791 669 
Q 2194 469 2647 469 
Q 3041 469 3416 620 
Q 3791 772 3984 944 
L 3984 1797 
L 2638 1797 
z
" transform="scale(0.015625)"/>
      <path id="ArialMT-42" d="M 469 0 
L 469 4581 
L 2188 4581 
Q 2713 4581 3030 4442 
Q 3347 4303 3526 4014 
Q 3706 3725 3706 3409 
Q 3706 3116 3547 2856 
Q 3388 2597 3066 2438 
Q 3481 2316 3704 2022 
Q 3928 1728 3928 1328 
Q 3928 1006 3792 729 
Q 3656 453 3456 303 
Q 3256 153 2954 76 
Q 2653 0 2216 0 
L 469 0 
z
M 1075 2656 
L 2066 2656 
Q 2469 2656 2644 2709 
Q 2875 2778 2992 2937 
Q 3109 3097 3109 3338 
Q 3109 3566 3000 3739 
Q 2891 3913 2687 3977 
Q 2484 4041 1991 4041 
L 1075 4041 
L 1075 2656 
z
M 1075 541 
L 2216 541 
Q 2509 541 2628 563 
Q 2838 600 2978 687 
Q 3119 775 3209 942 
Q 3300 1109 3300 1328 
Q 3300 1584 3169 1773 
Q 3038 1963 2805 2039 
Q 2572 2116 2134 2116 
L 1075 2116 
L 1075 541 
z
" transform="scale(0.015625)"/>
      <path id="ArialMT-7c" d="M 588 -1347 
L 588 4659 
L 1078 4659 
L 1078 -1347 
L 588 -1347 
z
" transform="scale(0.015625)"/>
      <path id="ArialMT-75" d="M 2597 0 
L 2597 488 
Q 2209 -75 1544 -75 
Q 1250 -75 995 37 
Q 741 150 617 320 
Q 494 491 444 738 
Q 409 903 409 1263 
L 409 3319 
L 972 3319 
L 972 1478 
Q 972 1038 1006 884 
Q 1059 663 1231 536 
Q 1403 409 1656 409 
Q 1909 409 2131 539 
Q 2353 669 2445 892 
Q 2538 1116 2538 1541 
L 2538 3319 
L 3100 3319 
L 3100 0 
L 2597 0 
z
" transform="scale(0.015625)"/>
      <path id="ArialMT-6e" d="M 422 0 
L 422 3319 
L 928 3319 
L 928 2847 
Q 1294 3394 1984 3394 
Q 2284 3394 2536 3286 
Q 2788 3178 2913 3003 
Q 3038 2828 3088 2588 
Q 3119 2431 3119 2041 
L 3119 0 
L 2556 0 
L 2556 2019 
Q 2556 2363 2490 2533 
Q 2425 2703 2258 2804 
Q 2091 2906 1866 2906 
Q 1506 2906 1245 2678 
Q 984 2450 984 1813 
L 984 0 
L 422 0 
z
" transform="scale(0.015625)"/>
     </defs>
     <use xlink:href="#ArialMT-47"/>
     <use xlink:href="#ArialMT-42" x="77.783203"/>
     <use xlink:href="#ArialMT-20" x="144.482422"/>
     <use xlink:href="#ArialMT-7c" x="172.265625"/>
     <use xlink:href="#ArialMT-20" x="198.242188"/>
     <use xlink:href="#ArialMT-74" x="226.025391"/>
     <use xlink:href="#ArialMT-61" x="253.808594"/>
     <use xlink:href="#ArialMT-72" x="309.423828"/>
     <use xlink:href="#ArialMT-67" x="342.724609"/>
     <use xlink:href="#ArialMT-65" x="398.339844"/>
     <use xlink:href="#ArialMT-74" x="453.955078"/>
     <use xlink:href="#ArialMT-3a" x="481.738281"/>
     <use xlink:href="#ArialMT-20" x="509.521484"/>
     <use xlink:href="#ArialMT-61" x="537.304688"/>
     <use xlink:href="#ArialMT-75" x="592.919922"/>
     <use xlink:href="#ArialMT-64" x="648.535156"/>
     <use xlink:href="#ArialMT-69" x="704.150391"/>
     <use xlink:href="#ArialMT-74" x="726.367188"/>
     <use xlink:href="#ArialMT-20" x="754.150391"/>
     <use xlink:href="#ArialMT-64" x="781.933594"/>
     <use xlink:href="#ArialMT-65" x="837.548828"/>
     <use xlink:href="#ArialMT-70" x="893.164062"/>
     <use xlink:href="#ArialMT-65" x="948.779297"/>
     <use xlink:href="#ArialMT-6e" x="1004.394531"/>
     <use xlink:href="#ArialMT-64" x="1060.009766"/>
     <use xlink:href="#ArialMT-65" x="1115.625"/>
     <use xlink:href="#ArialMT-6e" x="1171.240234"/>
     <use xlink:href="#ArialMT-63" x="1226.855469"/>
     <use xlink:href="#ArialMT-65" x="1276.855469"/>
     <use xlink:href="#ArialMT-20" x="1332.470703"/>
     <use xlink:href="#ArialMT-6f" x="1360.253906"/>
     <use xlink:href="#ArialMT-6e" x="1415.869141"/>
    </g>
    <!-- predictors: dmq_cope_1 &amp; geschlecht_kod_male -->
    <g style="fill: #262626" transform="translate(67.0825 25.32)scale(0.1 -0.1)">
     <defs>
      <path id="ArialMT-26" d="M 3041 541 
Q 2763 231 2434 76 
Q 2106 -78 1725 -78 
Q 1022 -78 609 397 
Q 275 784 275 1263 
Q 275 1688 548 2030 
Q 822 2372 1366 2631 
Q 1056 2988 953 3209 
Q 850 3431 850 3638 
Q 850 4050 1173 4354 
Q 1497 4659 1988 4659 
Q 2456 4659 2754 4371 
Q 3053 4084 3053 3681 
Q 3053 3028 2188 2566 
L 3009 1519 
Q 3150 1794 3228 2156 
L 3813 2031 
Q 3663 1431 3406 1044 
Q 3722 625 4122 341 
L 3744 -106 
Q 3403 113 3041 541 
z
M 1897 2928 
Q 2263 3144 2370 3306 
Q 2478 3469 2478 3666 
Q 2478 3900 2329 4048 
Q 2181 4197 1959 4197 
Q 1731 4197 1579 4050 
Q 1428 3903 1428 3691 
Q 1428 3584 1483 3467 
Q 1538 3350 1647 3219 
L 1897 2928 
z
M 2688 984 
L 1656 2263 
Q 1200 1991 1040 1758 
Q 881 1525 881 1297 
Q 881 1019 1103 719 
Q 1325 419 1731 419 
Q 1984 419 2254 576 
Q 2525 734 2688 984 
z
" transform="scale(0.015625)"/>
     </defs>
     <use xlink:href="#ArialMT-70"/>
     <use xlink:href="#ArialMT-72" x="55.615234"/>
     <use xlink:href="#ArialMT-65" x="88.916016"/>
     <use xlink:href="#ArialMT-64" x="144.53125"/>
     <use xlink:href="#ArialMT-69" x="200.146484"/>
     <use xlink:href="#ArialMT-63" x="222.363281"/>
     <use xlink:href="#ArialMT-74" x="272.363281"/>
     <use xlink:href="#ArialMT-6f" x="300.146484"/>
     <use xlink:href="#ArialMT-72" x="355.761719"/>
     <use xlink:href="#ArialMT-73" x="389.0625"/>
     <use xlink:href="#ArialMT-3a" x="439.0625"/>
     <use xlink:href="#ArialMT-20" x="466.845703"/>
     <use xlink:href="#ArialMT-64" x="494.628906"/>
     <use xlink:href="#ArialMT-6d" x="550.244141"/>
     <use xlink:href="#ArialMT-71" x="633.544922"/>
     <use xlink:href="#ArialMT-5f" x="689.160156"/>
     <use xlink:href="#ArialMT-63" x="744.775391"/>
     <use xlink:href="#ArialMT-6f" x="794.775391"/>
     <use xlink:href="#ArialMT-70" x="850.390625"/>
     <use xlink:href="#ArialMT-65" x="906.005859"/>
     <use xlink:href="#ArialMT-5f" x="961.621094"/>
     <use xlink:href="#ArialMT-31" x="1017.236328"/>
     <use xlink:href="#ArialMT-20" x="1072.851562"/>
     <use xlink:href="#ArialMT-26" x="1100.634766"/>
     <use xlink:href="#ArialMT-20" x="1167.333984"/>
     <use xlink:href="#ArialMT-67" x="1195.117188"/>
     <use xlink:href="#ArialMT-65" x="1250.732422"/>
     <use xlink:href="#ArialMT-73" x="1306.347656"/>
     <use xlink:href="#ArialMT-63" x="1356.347656"/>
     <use xlink:href="#ArialMT-68" x="1406.347656"/>
     <use xlink:href="#ArialMT-6c" x="1461.962891"/>
     <use xlink:href="#ArialMT-65" x="1484.179688"/>
     <use xlink:href="#ArialMT-63" x="1539.794922"/>
     <use xlink:href="#ArialMT-68" x="1589.794922"/>
     <use xlink:href="#ArialMT-74" x="1645.410156"/>
     <use xlink:href="#ArialMT-5f" x="1673.193359"/>
     <use xlink:href="#ArialMT-6b" x="1728.808594"/>
     <use xlink:href="#ArialMT-6f" x="1778.808594"/>
     <use xlink:href="#ArialMT-64" x="1834.423828"/>
     <use xlink:href="#ArialMT-5f" x="1890.039062"/>
     <use xlink:href="#ArialMT-6d" x="1945.654297"/>
     <use xlink:href="#ArialMT-61" x="2028.955078"/>
     <use xlink:href="#ArialMT-6c" x="2084.570312"/>
     <use xlink:href="#ArialMT-65" x="2106.787109"/>
    </g>
    <!-- Influence (% of audit range) 9.8% -->
    <g style="fill: #262626" transform="translate(100.98875 36.160312)scale(0.1 -0.1)">
     <defs>
      <path id="ArialMT-49" d="M 597 0 
L 597 4581 
L 1203 4581 
L 1203 0 
L 597 0 
z
" transform="scale(0.015625)"/>
      <path id="ArialMT-66" d="M 556 0 
L 556 2881 
L 59 2881 
L 59 3319 
L 556 3319 
L 556 3672 
Q 556 4006 616 4169 
Q 697 4388 901 4523 
Q 1106 4659 1475 4659 
Q 1713 4659 2000 4603 
L 1916 4113 
Q 1741 4144 1584 4144 
Q 1328 4144 1222 4034 
Q 1116 3925 1116 3625 
L 1116 3319 
L 1763 3319 
L 1763 2881 
L 1116 2881 
L 1116 0 
L 556 0 
z
" transform="scale(0.015625)"/>
      <path id="ArialMT-28" d="M 1497 -1347 
Q 1031 -759 709 28 
Q 388 816 388 1659 
Q 388 2403 628 3084 
Q 909 3875 1497 4659 
L 1900 4659 
Q 1522 4009 1400 3731 
Q 1209 3300 1100 2831 
Q 966 2247 966 1656 
Q 966 153 1900 -1347 
L 1497 -1347 
z
" transform="scale(0.015625)"/>
      <path id="ArialMT-25" d="M 372 3481 
Q 372 3972 619 4315 
Q 866 4659 1334 4659 
Q 1766 4659 2048 4351 
Q 2331 4044 2331 3447 
Q 2331 2866 2045 2552 
Q 1759 2238 1341 2238 
Q 925 2238 648 2547 
Q 372 2856 372 3481 
z
M 1350 4272 
Q 1141 4272 1002 4090 
Q 863 3909 863 3425 
Q 863 2984 1003 2804 
Q 1144 2625 1350 2625 
Q 1563 2625 1702 2806 
Q 1841 2988 1841 3469 
Q 1841 3913 1700 4092 
Q 1559 4272 1350 4272 
z
M 1353 -169 
L 3859 4659 
L 4316 4659 
L 1819 -169 
L 1353 -169 
z
M 3334 1075 
Q 3334 1569 3581 1911 
Q 3828 2253 4300 2253 
Q 4731 2253 5014 1945 
Q 5297 1638 5297 1041 
Q 5297 459 5011 145 
Q 4725 -169 4303 -169 
Q 3888 -169 3611 142 
Q 3334 453 3334 1075 
z
M 4316 1866 
Q 4103 1866 3964 1684 
Q 3825 1503 3825 1019 
Q 3825 581 3965 400 
Q 4106 219 4313 219 
Q 4528 219 4667 400 
Q 4806 581 4806 1063 
Q 4806 1506 4665 1686 
Q 4525 1866 4316 1866 
z
" transform="scale(0.015625)"/>
      <path id="ArialMT-29" d="M 791 -1347 
L 388 -1347 
Q 1322 153 1322 1656 
Q 1322 2244 1188 2822 
Q 1081 3291 891 3722 
Q 769 4003 388 4659 
L 791 4659 
Q 1378 3875 1659 3084 
Q 1900 2403 1900 1659 
Q 1900 816 1576 28 
Q 1253 -759 791 -1347 
z
" transform="scale(0.015625)"/>
      <path id="ArialMT-39" d="M 350 1059 
L 891 1109 
Q 959 728 1153 556 
Q 1347 384 1650 384 
Q 1909 384 2104 503 
Q 2300 622 2425 820 
Q 2550 1019 2634 1356 
Q 2719 1694 2719 2044 
Q 2719 2081 2716 2156 
Q 2547 1888 2255 1720 
Q 1963 1553 1622 1553 
Q 1053 1553 659 1965 
Q 266 2378 266 3053 
Q 266 3750 677 4175 
Q 1088 4600 1706 4600 
Q 2153 4600 2523 4359 
Q 2894 4119 3086 3673 
Q 3278 3228 3278 2384 
Q 3278 1506 3087 986 
Q 2897 466 2520 194 
Q 2144 -78 1638 -78 
Q 1100 -78 759 220 
Q 419 519 350 1059 
z
M 2653 3081 
Q 2653 3566 2395 3850 
Q 2138 4134 1775 4134 
Q 1400 4134 1122 3828 
Q 844 3522 844 3034 
Q 844 2597 1108 2323 
Q 1372 2050 1759 2050 
Q 2150 2050 2401 2323 
Q 2653 2597 2653 3081 
z
" transform="scale(0.015625)"/>
     </defs>
     <use xlink:href="#ArialMT-49"/>
     <use xlink:href="#ArialMT-6e" x="27.783203"/>
     <use xlink:href="#ArialMT-66" x="83.398438"/>
     <use xlink:href="#ArialMT-6c" x="111.181641"/>
     <use xlink:href="#ArialMT-75" x="133.398438"/>
     <use xlink:href="#ArialMT-65" x="189.013672"/>
     <use xlink:href="#ArialMT-6e" x="244.628906"/>
     <use xlink:href="#ArialMT-63" x="300.244141"/>
     <use xlink:href="#ArialMT-65" x="350.244141"/>
     <use xlink:href="#ArialMT-20" x="405.859375"/>
     <use xlink:href="#ArialMT-28" x="433.642578"/>
     <use xlink:href="#ArialMT-25" x="466.943359"/>
     <use xlink:href="#ArialMT-20" x="555.859375"/>
     <use xlink:href="#ArialMT-6f" x="583.642578"/>
     <use xlink:href="#ArialMT-66" x="639.257812"/>
     <use xlink:href="#ArialMT-20" x="667.041016"/>
     <use xlink:href="#ArialMT-61" x="694.824219"/>
     <use xlink:href="#ArialMT-75" x="750.439453"/>
     <use xlink:href="#ArialMT-64" x="806.054688"/>
     <use xlink:href="#ArialMT-69" x="861.669922"/>
     <use xlink:href="#ArialMT-74" x="883.886719"/>
     <use xlink:href="#ArialMT-20" x="911.669922"/>
     <use xlink:href="#ArialMT-72" x="939.453125"/>
     <use xlink:href="#ArialMT-61" x="972.753906"/>
     <use xlink:href="#ArialMT-6e" x="1028.369141"/>
     <use xlink:href="#ArialMT-67" x="1083.984375"/>
     <use xlink:href="#ArialMT-65" x="1139.599609"/>
     <use xlink:href="#ArialMT-29" x="1195.214844"/>
     <use xlink:href="#ArialMT-20" x="1228.515625"/>
     <use xlink:href="#ArialMT-39" x="1256.298828"/>
     <use xlink:href="#ArialMT-2e" x="1311.914062"/>
     <use xlink:href="#ArialMT-38" x="1339.697266"/>
     <use xlink:href="#ArialMT-25" x="1395.3125"/>
    </g>
   </g>
   <g id="text_19">
    <g clip-path="url(#p3624de6353)">
     <!-- 5.4 -->
     <g transform="translate(63.582884 253.918737)rotate(-346.765769)scale(0.08 -0.08)">
      <use xlink:href="#ArialMT-35"/>
      <use xlink:href="#ArialMT-2e" x="55.615234"/>
      <use xlink:href="#ArialMT-34" x="83.398438"/>
     </g>
    </g>
   </g>
   <g id="text_20">
    <g clip-path="url(#p3624de6353)">
     <!-- 5.7 -->
     <g transform="translate(91.777622 244.854082)rotate(-346.846861)scale(0.08 -0.08)">
      <defs>
       <path id="ArialMT-37" d="M 303 3981 
L 303 4522 
L 3269 4522 
L 3269 4084 
Q 2831 3619 2401 2847 
Q 1972 2075 1738 1259 
Q 1569 684 1522 0 
L 944 0 
Q 953 541 1156 1306 
Q 1359 2072 1739 2783 
Q 2119 3494 2547 3981 
L 303 3981 
z
" transform="scale(0.015625)"/>
      </defs>
      <use xlink:href="#ArialMT-35"/>
      <use xlink:href="#ArialMT-2e" x="55.615234"/>
      <use xlink:href="#ArialMT-37" x="83.398438"/>
     </g>
    </g>
   </g>
   <g id="text_21">
    <g clip-path="url(#p3624de6353)">
     <!-- 6.0 -->
     <g transform="translate(91.784725 229.090581)rotate(-347.371557)scale(0.08 -0.08)">
      <use xlink:href="#ArialMT-36"/>
      <use xlink:href="#ArialMT-2e" x="55.615234"/>
      <use xlink:href="#ArialMT-30" x="83.398438"/>
     </g>
    </g>
   </g>
   <g id="text_22">
    <g clip-path="url(#p3624de6353)">
     <!-- 6.3 -->
     <g transform="translate(149.384831 226.035461)rotate(-347.033009)scale(0.08 -0.08)">
      <use xlink:href="#ArialMT-36"/>
      <use xlink:href="#ArialMT-2e" x="55.615234"/>
      <use xlink:href="#ArialMT-33" x="83.398438"/>
     </g>
    </g>
   </g>
   <g id="text_23">
    <g clip-path="url(#p3624de6353)">
     <!-- 6.6 -->
     <g transform="translate(65.679 97.088747)rotate(-316.861434)scale(0.08 -0.08)">
      <use xlink:href="#ArialMT-36"/>
      <use xlink:href="#ArialMT-2e" x="55.615234"/>
      <use xlink:href="#ArialMT-36" x="83.398438"/>
     </g>
    </g>
   </g>
   <g id="text_24">
    <g clip-path="url(#p3624de6353)">
     <!-- 6.9 -->
     <g transform="translate(116.448836 74.147473)rotate(-316.306825)scale(0.08 -0.08)">
      <use xlink:href="#ArialMT-36"/>
      <use xlink:href="#ArialMT-2e" x="55.615234"/>
      <use xlink:href="#ArialMT-39" x="83.398438"/>
     </g>
    </g>
   </g>
   <g id="text_25">
    <g clip-path="url(#p3624de6353)">
     <!-- 7.2 -->
     <g transform="translate(190.886058 73.877872)rotate(-316.439021)scale(0.08 -0.08)">
      <use xlink:href="#ArialMT-37"/>
      <use xlink:href="#ArialMT-2e" x="55.615234"/>
      <use xlink:href="#ArialMT-32" x="83.398438"/>
     </g>
    </g>
   </g>
   <g id="text_26">
    <g clip-path="url(#p3624de6353)">
     <!-- 7.5 -->
     <g transform="translate(261.36578 69.860035)rotate(-316.549505)scale(0.08 -0.08)">
      <use xlink:href="#ArialMT-37"/>
      <use xlink:href="#ArialMT-2e" x="55.615234"/>
      <use xlink:href="#ArialMT-35" x="83.398438"/>
     </g>
    </g>
   </g>
  </g>
  <g id="axes_2">
   <g id="patch_7">
    <path d="M 325.855 259.600312 
L 336.727 259.600312 
L 336.727 42.160312 
L 325.855 42.160312 
z
" style="fill: #eaeaf2"/>
   </g>
   <g id="patch_8">
    <path clip-path="url(#p64951245ae)" style="fill: #eaeaf2; stroke: #eaeaf2; stroke-width: 0.01; stroke-linejoin: miter"/>
   </g>
   <g id="matplotlib.axis_3">
    <g id="ytick_10">
     <g id="line2d_16">
      <defs>
       <path id="m70d24f3ff0" d="M 0 0 
L 3.5 0 
" style="stroke: #262626; stroke-width: 0.8"/>
      </defs>
      <g>
       <use xlink:href="#m70d24f3ff0" x="336.727" y="259.600312" style="fill: #262626; stroke: #262626; stroke-width: 0.8"/>
      </g>
     </g>
     <g id="text_27">
      <!-- 5.1 -->
      <g style="fill: #262626" transform="translate(343.727 263.179219)scale(0.1 -0.1)">
       <use xlink:href="#ArialMT-35"/>
       <use xlink:href="#ArialMT-2e" x="55.615234"/>
       <use xlink:href="#ArialMT-31" x="83.398438"/>
      </g>
     </g>
    </g>
    <g id="ytick_11">
     <g id="line2d_17">
      <g>
       <use xlink:href="#m70d24f3ff0" x="336.727" y="235.440312" style="fill: #262626; stroke: #262626; stroke-width: 0.8"/>
      </g>
     </g>
     <g id="text_28">
      <!-- 5.4 -->
      <g style="fill: #262626" transform="translate(343.727 239.019219)scale(0.1 -0.1)">
       <use xlink:href="#ArialMT-35"/>
       <use xlink:href="#ArialMT-2e" x="55.615234"/>
       <use xlink:href="#ArialMT-34" x="83.398438"/>
      </g>
     </g>
    </g>
    <g id="ytick_12">
     <g id="line2d_18">
      <g>
       <use xlink:href="#m70d24f3ff0" x="336.727" y="211.280312" style="fill: #262626; stroke: #262626; stroke-width: 0.8"/>
      </g>
     </g>
     <g id="text_29">
      <!-- 5.7 -->
      <g style="fill: #262626" transform="translate(343.727 214.859219)scale(0.1 -0.1)">
       <use xlink:href="#ArialMT-35"/>
       <use xlink:href="#ArialMT-2e" x="55.615234"/>
       <use xlink:href="#ArialMT-37" x="83.398438"/>
      </g>
     </g>
    </g>
    <g id="ytick_13">
     <g id="line2d_19">
      <g>
       <use xlink:href="#m70d24f3ff0" x="336.727" y="187.120312" style="fill: #262626; stroke: #262626; stroke-width: 0.8"/>
      </g>
     </g>
     <g id="text_30">
      <!-- 6.0 -->
      <g style="fill: #262626" transform="translate(343.727 190.699219)scale(0.1 -0.1)">
       <use xlink:href="#ArialMT-36"/>
       <use xlink:href="#ArialMT-2e" x="55.615234"/>
       <use xlink:href="#ArialMT-30" x="83.398438"/>
      </g>
     </g>
    </g>
    <g id="ytick_14">
     <g id="line2d_20">
      <g>
       <use xlink:href="#m70d24f3ff0" x="336.727" y="162.960312" style="fill: #262626; stroke: #262626; stroke-width: 0.8"/>
      </g>
     </g>
     <g id="text_31">
      <!-- 6.3 -->
      <g style="fill: #262626" transform="translate(343.727 166.539219)scale(0.1 -0.1)">
       <use xlink:href="#ArialMT-36"/>
       <use xlink:href="#ArialMT-2e" x="55.615234"/>
       <use xlink:href="#ArialMT-33" x="83.398438"/>
      </g>
     </g>
    </g>
    <g id="ytick_15">
     <g id="line2d_21">
      <g>
       <use xlink:href="#m70d24f3ff0" x="336.727" y="138.800312" style="fill: #262626; stroke: #262626; stroke-width: 0.8"/>
      </g>
     </g>
     <g id="text_32">
      <!-- 6.6 -->
      <g style="fill: #262626" transform="translate(343.727 142.379219)scale(0.1 -0.1)">
       <use xlink:href="#ArialMT-36"/>
       <use xlink:href="#ArialMT-2e" x="55.615234"/>
       <use xlink:href="#ArialMT-36" x="83.398438"/>
      </g>
     </g>
    </g>
    <g id="ytick_16">
     <g id="line2d_22">
      <g>
       <use xlink:href="#m70d24f3ff0" x="336.727" y="114.640312" style="fill: #262626; stroke: #262626; stroke-width: 0.8"/>
      </g>
     </g>
     <g id="text_33">
      <!-- 6.9 -->
      <g style="fill: #262626" transform="translate(343.727 118.219219)scale(0.1 -0.1)">
       <use xlink:href="#ArialMT-36"/>
       <use xlink:href="#ArialMT-2e" x="55.615234"/>
       <use xlink:href="#ArialMT-39" x="83.398438"/>
      </g>
     </g>
    </g>
    <g id="ytick_17">
     <g id="line2d_23">
      <g>
       <use xlink:href="#m70d24f3ff0" x="336.727" y="90.480312" style="fill: #262626; stroke: #262626; stroke-width: 0.8"/>
      </g>
     </g>
     <g id="text_34">
      <!-- 7.2 -->
      <g style="fill: #262626" transform="translate(343.727 94.059219)scale(0.1 -0.1)">
       <use xlink:href="#ArialMT-37"/>
       <use xlink:href="#ArialMT-2e" x="55.615234"/>
       <use xlink:href="#ArialMT-32" x="83.398438"/>
      </g>
     </g>
    </g>
    <g id="ytick_18">
     <g id="line2d_24">
      <g>
       <use xlink:href="#m70d24f3ff0" x="336.727" y="66.320312" style="fill: #262626; stroke: #262626; stroke-width: 0.8"/>
      </g>
     </g>
     <g id="text_35">
      <!-- 7.5 -->
      <g style="fill: #262626" transform="translate(343.727 69.899219)scale(0.1 -0.1)">
       <use xlink:href="#ArialMT-37"/>
       <use xlink:href="#ArialMT-2e" x="55.615234"/>
       <use xlink:href="#ArialMT-35" x="83.398438"/>
      </g>
     </g>
    </g>
    <g id="ytick_19">
     <g id="line2d_25">
      <g>
       <use xlink:href="#m70d24f3ff0" x="336.727" y="42.160312" style="fill: #262626; stroke: #262626; stroke-width: 0.8"/>
      </g>
     </g>
     <g id="text_36">
      <!-- 7.8 -->
      <g style="fill: #262626" transform="translate(343.727 45.739219)scale(0.1 -0.1)">
       <use xlink:href="#ArialMT-37"/>
       <use xlink:href="#ArialMT-2e" x="55.615234"/>
       <use xlink:href="#ArialMT-38" x="83.398438"/>
      </g>
     </g>
    </g>
   </g>
   <g id="QuadMesh_1">
    <path d="M 325.855 259.600312 
L 336.727 259.600312 
L 336.727 235.440312 
L 325.855 235.440312 
L 325.855 259.600312 
" clip-path="url(#p64951245ae)" style="fill: #4b64d5"/>
    <path d="M 325.855 235.440312 
L 336.727 235.440312 
L 336.727 211.280312 
L 325.855 211.280312 
L 325.855 235.440312 
" clip-path="url(#p64951245ae)" style="fill: #6f92f3"/>
    <path d="M 325.855 211.280312 
L 336.727 211.280312 
L 336.727 187.120312 
L 325.855 187.120312 
L 325.855 211.280312 
" clip-path="url(#p64951245ae)" style="fill: #97b8ff"/>
    <path d="M 325.855 187.120312 
L 336.727 187.120312 
L 336.727 162.960312 
L 325.855 162.960312 
L 325.855 187.120312 
" clip-path="url(#p64951245ae)" style="fill: #bcd2f7"/>
    <path d="M 325.855 162.960312 
L 336.727 162.960312 
L 336.727 138.800312 
L 325.855 138.800312 
L 325.855 162.960312 
" clip-path="url(#p64951245ae)" style="fill: #dddcdc"/>
    <path d="M 325.855 138.800312 
L 336.727 138.800312 
L 336.727 114.640312 
L 325.855 114.640312 
L 325.855 138.800312 
" clip-path="url(#p64951245ae)" style="fill: #f3c8b2"/>
    <path d="M 325.855 114.640312 
L 336.727 114.640312 
L 336.727 90.480312 
L 325.855 90.480312 
L 325.855 114.640312 
" clip-path="url(#p64951245ae)" style="fill: #f6a586"/>
    <path d="M 325.855 90.480312 
L 336.727 90.480312 
L 336.727 66.320312 
L 325.855 66.320312 
L 325.855 90.480312 
" clip-path="url(#p64951245ae)" style="fill: #e7745b"/>
    <path d="M 325.855 66.320312 
L 336.727 66.320312 
L 336.727 42.160312 
L 325.855 42.160312 
L 325.855 66.320312 
" clip-path="url(#p64951245ae)" style="fill: #c83836"/>
   </g>
   <g id="LineCollection_1"/>
   <g id="patch_9">
    <path d="M 325.855 259.600312 
L 331.291 259.600312 
L 336.727 259.600312 
L 336.727 42.160312 
L 331.291 42.160312 
L 325.855 42.160312 
L 325.855 259.600312 
z
" style="fill: none; stroke: #ffffff; stroke-width: 0.8; stroke-linejoin: miter; stroke-linecap: square"/>
   </g>
  </g>
 </g>
 <defs>
  <clipPath id="p3624de6353">
   <rect x="41.275" y="42.160312" width="267.84" height="217.44"/>
  </clipPath>
  <clipPath id="p64951245ae">
   <rect x="325.855" y="42.160312" width="10.872" height="217.44"/>
  </clipPath>
 </defs>
</svg>
