<?xml version="1.0" encoding="utf-8" standalone="no"?>
<!DOCTYPE svg PUBLIC "-//W3C//DTD SVG 1.1//EN"
  "http://www.w3.org/Graphics/SVG/1.1/DTD/svg11.dtd">
<svg xmlns:xlink="http://www.w3.org/1999/xlink" width="370.480125pt" height="296.095625pt" viewBox="0 0 370.480125 296.095625" xmlns="http://www.w3.org/2000/svg" version="1.1">
 <metadata>
  <rdf:RDF xmlns:dc="http://purl.org/dc/elements/1.1/" xmlns:cc="http://creativecommons.org/ns#" xmlns:rdf="http://www.w3.org/1999/02/22-rdf-syntax-ns#">
   <cc:Work>
    <dc:type rdf:resource="http://purl.org/dc/dcmitype/StillImage"/>
    <dc:date>2022-04-26T09:14:18.579613</dc:date>
    <dc:format>image/svg+xml</dc:format>
    <dc:creator>
     <cc:Agent>
      <dc:title>Matplotlib v3.5.1, https://matplotlib.org/</dc:title>
     </cc:Agent>
    </dc:creator>
   </cc:Work>
  </rdf:RDF>
 </metadata>
 <defs>
  <style type="text/css">*{stroke-linejoin: round; stroke-linecap: butt}</style>
 </defs>
 <g id="figure_1">
  <g id="patch_1">
   <path d="M 0 296.095625 
L 370.480125 296.095625 
L 370.480125 0 
L 0 0 
z
" style="fill: #ffffff"/>
  </g>
  <g id="axes_1">
   <g id="patch_2">
    <path d="M 41.367188 259.483125 
L 309.207188 259.483125 
L 309.207188 42.043125 
L 41.367188 42.043125 
z
" style="fill: #eaeaf2"/>
   </g>
   <g id="matplotlib.axis_1">
    <g id="xtick_1">
     <g id="line2d_1">
      <path d="M 41.367188 259.483125 
L 41.367188 42.043125 
" clip-path="url(#pe4bad76195)" style="fill: none; stroke: #ffffff; stroke-width: 0.8; stroke-linecap: round"/>
     </g>
     <g id="text_1">
      <!-- 1.0 -->
      <g style="fill: #262626" transform="translate(34.417187 273.640937)scale(0.1 -0.1)">
       <defs>
        <path id="ArialMT-31" d="M 2384 0 
L 1822 0 
L 1822 3584 
Q 1619 3391 1289 3197 
Q 959 3003 697 2906 
L 697 3450 
Q 1169 3672 1522 3987 
Q 1875 4303 2022 4600 
L 2384 4600 
L 2384 0 
z
" transform="scale(0.015625)"/>
        <path id="ArialMT-2e" d="M 581 0 
L 581 641 
L 1222 641 
L 1222 0 
L 581 0 
z
" transform="scale(0.015625)"/>
        <path id="ArialMT-30" d="M 266 2259 
Q 266 3072 433 3567 
Q 600 4063 929 4331 
Q 1259 4600 1759 4600 
Q 2128 4600 2406 4451 
Q 2684 4303 2865 4023 
Q 3047 3744 3150 3342 
Q 3253 2941 3253 2259 
Q 3253 1453 3087 958 
Q 2922 463 2592 192 
Q 2263 -78 1759 -78 
Q 1097 -78 719 397 
Q 266 969 266 2259 
z
M 844 2259 
Q 844 1131 1108 757 
Q 1372 384 1759 384 
Q 2147 384 2411 759 
Q 2675 1134 2675 2259 
Q 2675 3391 2411 3762 
Q 2147 4134 1753 4134 
Q 1366 4134 1134 3806 
Q 844 3388 844 2259 
z
" transform="scale(0.015625)"/>
       </defs>
       <use xlink:href="#ArialMT-31"/>
       <use xlink:href="#ArialMT-2e" x="55.615234"/>
       <use xlink:href="#ArialMT-30" x="83.398438"/>
      </g>
     </g>
    </g>
    <g id="xtick_2">
     <g id="line2d_2">
      <path d="M 74.847188 259.483125 
L 74.847188 42.043125 
" clip-path="url(#pe4bad76195)" style="fill: none; stroke: #ffffff; stroke-width: 0.8; stroke-linecap: round"/>
     </g>
     <g id="text_2">
      <!-- 1.5 -->
      <g style="fill: #262626" transform="translate(67.897188 273.640937)scale(0.1 -0.1)">
       <defs>
        <path id="ArialMT-35" d="M 266 1200 
L 856 1250 
Q 922 819 1161 601 
Q 1400 384 1738 384 
Q 2144 384 2425 690 
Q 2706 997 2706 1503 
Q 2706 1984 2436 2262 
Q 2166 2541 1728 2541 
Q 1456 2541 1237 2417 
Q 1019 2294 894 2097 
L 366 2166 
L 809 4519 
L 3088 4519 
L 3088 3981 
L 1259 3981 
L 1013 2750 
Q 1425 3038 1878 3038 
Q 2478 3038 2890 2622 
Q 3303 2206 3303 1553 
Q 3303 931 2941 478 
Q 2500 -78 1738 -78 
Q 1113 -78 717 272 
Q 322 622 266 1200 
z
" transform="scale(0.015625)"/>
       </defs>
       <use xlink:href="#ArialMT-31"/>
       <use xlink:href="#ArialMT-2e" x="55.615234"/>
       <use xlink:href="#ArialMT-35" x="83.398438"/>
      </g>
     </g>
    </g>
    <g id="xtick_3">
     <g id="line2d_3">
      <path d="M 108.327188 259.483125 
L 108.327188 42.043125 
" clip-path="url(#pe4bad76195)" style="fill: none; stroke: #ffffff; stroke-width: 0.8; stroke-linecap: round"/>
     </g>
     <g id="text_3">
      <!-- 2.0 -->
      <g style="fill: #262626" transform="translate(101.377188 273.640937)scale(0.1 -0.1)">
       <defs>
        <path id="ArialMT-32" d="M 3222 541 
L 3222 0 
L 194 0 
Q 188 203 259 391 
Q 375 700 629 1000 
Q 884 1300 1366 1694 
Q 2113 2306 2375 2664 
Q 2638 3022 2638 3341 
Q 2638 3675 2398 3904 
Q 2159 4134 1775 4134 
Q 1369 4134 1125 3890 
Q 881 3647 878 3216 
L 300 3275 
Q 359 3922 746 4261 
Q 1134 4600 1788 4600 
Q 2447 4600 2831 4234 
Q 3216 3869 3216 3328 
Q 3216 3053 3103 2787 
Q 2991 2522 2730 2228 
Q 2469 1934 1863 1422 
Q 1356 997 1212 845 
Q 1069 694 975 541 
L 3222 541 
z
" transform="scale(0.015625)"/>
       </defs>
       <use xlink:href="#ArialMT-32"/>
       <use xlink:href="#ArialMT-2e" x="55.615234"/>
       <use xlink:href="#ArialMT-30" x="83.398438"/>
      </g>
     </g>
    </g>
    <g id="xtick_4">
     <g id="line2d_4">
      <path d="M 141.807188 259.483125 
L 141.807188 42.043125 
" clip-path="url(#pe4bad76195)" style="fill: none; stroke: #ffffff; stroke-width: 0.8; stroke-linecap: round"/>
     </g>
     <g id="text_4">
      <!-- 2.5 -->
      <g style="fill: #262626" transform="translate(134.857188 273.640937)scale(0.1 -0.1)">
       <use xlink:href="#ArialMT-32"/>
       <use xlink:href="#ArialMT-2e" x="55.615234"/>
       <use xlink:href="#ArialMT-35" x="83.398438"/>
      </g>
     </g>
    </g>
    <g id="xtick_5">
     <g id="line2d_5">
      <path d="M 175.287188 259.483125 
L 175.287188 42.043125 
" clip-path="url(#pe4bad76195)" style="fill: none; stroke: #ffffff; stroke-width: 0.8; stroke-linecap: round"/>
     </g>
     <g id="text_5">
      <!-- 3.0 -->
      <g style="fill: #262626" transform="translate(168.337188 273.640937)scale(0.1 -0.1)">
       <defs>
        <path id="ArialMT-33" d="M 269 1209 
L 831 1284 
Q 928 806 1161 595 
Q 1394 384 1728 384 
Q 2125 384 2398 659 
Q 2672 934 2672 1341 
Q 2672 1728 2419 1979 
Q 2166 2231 1775 2231 
Q 1616 2231 1378 2169 
L 1441 2663 
Q 1497 2656 1531 2656 
Q 1891 2656 2178 2843 
Q 2466 3031 2466 3422 
Q 2466 3731 2256 3934 
Q 2047 4138 1716 4138 
Q 1388 4138 1169 3931 
Q 950 3725 888 3313 
L 325 3413 
Q 428 3978 793 4289 
Q 1159 4600 1703 4600 
Q 2078 4600 2393 4439 
Q 2709 4278 2876 4000 
Q 3044 3722 3044 3409 
Q 3044 3113 2884 2869 
Q 2725 2625 2413 2481 
Q 2819 2388 3044 2092 
Q 3269 1797 3269 1353 
Q 3269 753 2831 336 
Q 2394 -81 1725 -81 
Q 1122 -81 723 278 
Q 325 638 269 1209 
z
" transform="scale(0.015625)"/>
       </defs>
       <use xlink:href="#ArialMT-33"/>
       <use xlink:href="#ArialMT-2e" x="55.615234"/>
       <use xlink:href="#ArialMT-30" x="83.398438"/>
      </g>
     </g>
    </g>
    <g id="xtick_6">
     <g id="line2d_6">
      <path d="M 208.767188 259.483125 
L 208.767188 42.043125 
" clip-path="url(#pe4bad76195)" style="fill: none; stroke: #ffffff; stroke-width: 0.8; stroke-linecap: round"/>
     </g>
     <g id="text_6">
      <!-- 3.5 -->
      <g style="fill: #262626" transform="translate(201.817188 273.640937)scale(0.1 -0.1)">
       <use xlink:href="#ArialMT-33"/>
       <use xlink:href="#ArialMT-2e" x="55.615234"/>
       <use xlink:href="#ArialMT-35" x="83.398438"/>
      </g>
     </g>
    </g>
    <g id="xtick_7">
     <g id="line2d_7">
      <path d="M 242.247188 259.483125 
L 242.247188 42.043125 
" clip-path="url(#pe4bad76195)" style="fill: none; stroke: #ffffff; stroke-width: 0.8; stroke-linecap: round"/>
     </g>
     <g id="text_7">
      <!-- 4.0 -->
      <g style="fill: #262626" transform="translate(235.297188 273.640937)scale(0.1 -0.1)">
       <defs>
        <path id="ArialMT-34" d="M 2069 0 
L 2069 1097 
L 81 1097 
L 81 1613 
L 2172 4581 
L 2631 4581 
L 2631 1613 
L 3250 1613 
L 3250 1097 
L 2631 1097 
L 2631 0 
L 2069 0 
z
M 2069 1613 
L 2069 3678 
L 634 1613 
L 2069 1613 
z
" transform="scale(0.015625)"/>
       </defs>
       <use xlink:href="#ArialMT-34"/>
       <use xlink:href="#ArialMT-2e" x="55.615234"/>
       <use xlink:href="#ArialMT-30" x="83.398438"/>
      </g>
     </g>
    </g>
    <g id="xtick_8">
     <g id="line2d_8">
      <path d="M 275.727188 259.483125 
L 275.727188 42.043125 
" clip-path="url(#pe4bad76195)" style="fill: none; stroke: #ffffff; stroke-width: 0.8; stroke-linecap: round"/>
     </g>
     <g id="text_8">
      <!-- 4.5 -->
      <g style="fill: #262626" transform="translate(268.777188 273.640937)scale(0.1 -0.1)">
       <use xlink:href="#ArialMT-34"/>
       <use xlink:href="#ArialMT-2e" x="55.615234"/>
       <use xlink:href="#ArialMT-35" x="83.398438"/>
      </g>
     </g>
    </g>
    <g id="xtick_9">
     <g id="line2d_9">
      <path d="M 309.207188 259.483125 
L 309.207188 42.043125 
" clip-path="url(#pe4bad76195)" style="fill: none; stroke: #ffffff; stroke-width: 0.8; stroke-linecap: round"/>
     </g>
     <g id="text_9">
      <!-- 5.0 -->
      <g style="fill: #262626" transform="translate(302.257188 273.640937)scale(0.1 -0.1)">
       <use xlink:href="#ArialMT-35"/>
       <use xlink:href="#ArialMT-2e" x="55.615234"/>
       <use xlink:href="#ArialMT-30" x="83.398438"/>
      </g>
     </g>
    </g>
    <g id="text_10">
     <!-- Predictor: ffmq_nr3 -->
     <g style="fill: #262626" transform="translate(132.860625 286.908125)scale(0.1 -0.1)">
      <defs>
       <path id="ArialMT-50" d="M 494 0 
L 494 4581 
L 2222 4581 
Q 2678 4581 2919 4538 
Q 3256 4481 3484 4323 
Q 3713 4166 3852 3881 
Q 3991 3597 3991 3256 
Q 3991 2672 3619 2267 
Q 3247 1863 2275 1863 
L 1100 1863 
L 1100 0 
L 494 0 
z
M 1100 2403 
L 2284 2403 
Q 2872 2403 3119 2622 
Q 3366 2841 3366 3238 
Q 3366 3525 3220 3729 
Q 3075 3934 2838 4000 
Q 2684 4041 2272 4041 
L 1100 4041 
L 1100 2403 
z
" transform="scale(0.015625)"/>
       <path id="ArialMT-72" d="M 416 0 
L 416 3319 
L 922 3319 
L 922 2816 
Q 1116 3169 1280 3281 
Q 1444 3394 1641 3394 
Q 1925 3394 2219 3213 
L 2025 2691 
Q 1819 2813 1613 2813 
Q 1428 2813 1281 2702 
Q 1134 2591 1072 2394 
Q 978 2094 978 1738 
L 978 0 
L 416 0 
z
" transform="scale(0.015625)"/>
       <path id="ArialMT-65" d="M 2694 1069 
L 3275 997 
Q 3138 488 2766 206 
Q 2394 -75 1816 -75 
Q 1088 -75 661 373 
Q 234 822 234 1631 
Q 234 2469 665 2931 
Q 1097 3394 1784 3394 
Q 2450 3394 2872 2941 
Q 3294 2488 3294 1666 
Q 3294 1616 3291 1516 
L 816 1516 
Q 847 969 1125 678 
Q 1403 388 1819 388 
Q 2128 388 2347 550 
Q 2566 713 2694 1069 
z
M 847 1978 
L 2700 1978 
Q 2663 2397 2488 2606 
Q 2219 2931 1791 2931 
Q 1403 2931 1139 2672 
Q 875 2413 847 1978 
z
" transform="scale(0.015625)"/>
       <path id="ArialMT-64" d="M 2575 0 
L 2575 419 
Q 2259 -75 1647 -75 
Q 1250 -75 917 144 
Q 584 363 401 755 
Q 219 1147 219 1656 
Q 219 2153 384 2558 
Q 550 2963 881 3178 
Q 1213 3394 1622 3394 
Q 1922 3394 2156 3267 
Q 2391 3141 2538 2938 
L 2538 4581 
L 3097 4581 
L 3097 0 
L 2575 0 
z
M 797 1656 
Q 797 1019 1065 703 
Q 1334 388 1700 388 
Q 2069 388 2326 689 
Q 2584 991 2584 1609 
Q 2584 2291 2321 2609 
Q 2059 2928 1675 2928 
Q 1300 2928 1048 2622 
Q 797 2316 797 1656 
z
" transform="scale(0.015625)"/>
       <path id="ArialMT-69" d="M 425 3934 
L 425 4581 
L 988 4581 
L 988 3934 
L 425 3934 
z
M 425 0 
L 425 3319 
L 988 3319 
L 988 0 
L 425 0 
z
" transform="scale(0.015625)"/>
       <path id="ArialMT-63" d="M 2588 1216 
L 3141 1144 
Q 3050 572 2676 248 
Q 2303 -75 1759 -75 
Q 1078 -75 664 370 
Q 250 816 250 1647 
Q 250 2184 428 2587 
Q 606 2991 970 3192 
Q 1334 3394 1763 3394 
Q 2303 3394 2647 3120 
Q 2991 2847 3088 2344 
L 2541 2259 
Q 2463 2594 2264 2762 
Q 2066 2931 1784 2931 
Q 1359 2931 1093 2626 
Q 828 2322 828 1663 
Q 828 994 1084 691 
Q 1341 388 1753 388 
Q 2084 388 2306 591 
Q 2528 794 2588 1216 
z
" transform="scale(0.015625)"/>
       <path id="ArialMT-74" d="M 1650 503 
L 1731 6 
Q 1494 -44 1306 -44 
Q 1000 -44 831 53 
Q 663 150 594 308 
Q 525 466 525 972 
L 525 2881 
L 113 2881 
L 113 3319 
L 525 3319 
L 525 4141 
L 1084 4478 
L 1084 3319 
L 1650 3319 
L 1650 2881 
L 1084 2881 
L 1084 941 
Q 1084 700 1114 631 
Q 1144 563 1211 522 
Q 1278 481 1403 481 
Q 1497 481 1650 503 
z
" transform="scale(0.015625)"/>
       <path id="ArialMT-6f" d="M 213 1659 
Q 213 2581 725 3025 
Q 1153 3394 1769 3394 
Q 2453 3394 2887 2945 
Q 3322 2497 3322 1706 
Q 3322 1066 3130 698 
Q 2938 331 2570 128 
Q 2203 -75 1769 -75 
Q 1072 -75 642 372 
Q 213 819 213 1659 
z
M 791 1659 
Q 791 1022 1069 705 
Q 1347 388 1769 388 
Q 2188 388 2466 706 
Q 2744 1025 2744 1678 
Q 2744 2294 2464 2611 
Q 2184 2928 1769 2928 
Q 1347 2928 1069 2612 
Q 791 2297 791 1659 
z
" transform="scale(0.015625)"/>
       <path id="ArialMT-3a" d="M 578 2678 
L 578 3319 
L 1219 3319 
L 1219 2678 
L 578 2678 
z
M 578 0 
L 578 641 
L 1219 641 
L 1219 0 
L 578 0 
z
" transform="scale(0.015625)"/>
       <path id="ArialMT-20" transform="scale(0.015625)"/>
       <path id="ArialMT-66" d="M 556 0 
L 556 2881 
L 59 2881 
L 59 3319 
L 556 3319 
L 556 3672 
Q 556 4006 616 4169 
Q 697 4388 901 4523 
Q 1106 4659 1475 4659 
Q 1713 4659 2000 4603 
L 1916 4113 
Q 1741 4144 1584 4144 
Q 1328 4144 1222 4034 
Q 1116 3925 1116 3625 
L 1116 3319 
L 1763 3319 
L 1763 2881 
L 1116 2881 
L 1116 0 
L 556 0 
z
" transform="scale(0.015625)"/>
       <path id="ArialMT-6d" d="M 422 0 
L 422 3319 
L 925 3319 
L 925 2853 
Q 1081 3097 1340 3245 
Q 1600 3394 1931 3394 
Q 2300 3394 2536 3241 
Q 2772 3088 2869 2813 
Q 3263 3394 3894 3394 
Q 4388 3394 4653 3120 
Q 4919 2847 4919 2278 
L 4919 0 
L 4359 0 
L 4359 2091 
Q 4359 2428 4304 2576 
Q 4250 2725 4106 2815 
Q 3963 2906 3769 2906 
Q 3419 2906 3187 2673 
Q 2956 2441 2956 1928 
L 2956 0 
L 2394 0 
L 2394 2156 
Q 2394 2531 2256 2718 
Q 2119 2906 1806 2906 
Q 1569 2906 1367 2781 
Q 1166 2656 1075 2415 
Q 984 2175 984 1722 
L 984 0 
L 422 0 
z
" transform="scale(0.015625)"/>
       <path id="ArialMT-71" d="M 2538 -1272 
L 2538 353 
Q 2406 169 2170 47 
Q 1934 -75 1669 -75 
Q 1078 -75 651 397 
Q 225 869 225 1691 
Q 225 2191 398 2587 
Q 572 2984 901 3189 
Q 1231 3394 1625 3394 
Q 2241 3394 2594 2875 
L 2594 3319 
L 3100 3319 
L 3100 -1272 
L 2538 -1272 
z
M 803 1669 
Q 803 1028 1072 708 
Q 1341 388 1716 388 
Q 2075 388 2334 692 
Q 2594 997 2594 1619 
Q 2594 2281 2320 2615 
Q 2047 2950 1678 2950 
Q 1313 2950 1058 2639 
Q 803 2328 803 1669 
z
" transform="scale(0.015625)"/>
       <path id="ArialMT-5f" d="M -97 -1272 
L -97 -866 
L 3631 -866 
L 3631 -1272 
L -97 -1272 
z
" transform="scale(0.015625)"/>
       <path id="ArialMT-6e" d="M 422 0 
L 422 3319 
L 928 3319 
L 928 2847 
Q 1294 3394 1984 3394 
Q 2284 3394 2536 3286 
Q 2788 3178 2913 3003 
Q 3038 2828 3088 2588 
Q 3119 2431 3119 2041 
L 3119 0 
L 2556 0 
L 2556 2019 
Q 2556 2363 2490 2533 
Q 2425 2703 2258 2804 
Q 2091 2906 1866 2906 
Q 1506 2906 1245 2678 
Q 984 2450 984 1813 
L 984 0 
L 422 0 
z
" transform="scale(0.015625)"/>
      </defs>
      <use xlink:href="#ArialMT-50"/>
      <use xlink:href="#ArialMT-72" x="66.699219"/>
      <use xlink:href="#ArialMT-65" x="100"/>
      <use xlink:href="#ArialMT-64" x="155.615234"/>
      <use xlink:href="#ArialMT-69" x="211.230469"/>
      <use xlink:href="#ArialMT-63" x="233.447266"/>
      <use xlink:href="#ArialMT-74" x="283.447266"/>
      <use xlink:href="#ArialMT-6f" x="311.230469"/>
      <use xlink:href="#ArialMT-72" x="366.845703"/>
      <use xlink:href="#ArialMT-3a" x="400.146484"/>
      <use xlink:href="#ArialMT-20" x="427.929688"/>
      <use xlink:href="#ArialMT-66" x="455.712891"/>
      <use xlink:href="#ArialMT-66" x="481.746094"/>
      <use xlink:href="#ArialMT-6d" x="509.529297"/>
      <use xlink:href="#ArialMT-71" x="592.830078"/>
      <use xlink:href="#ArialMT-5f" x="648.445312"/>
      <use xlink:href="#ArialMT-6e" x="704.060547"/>
      <use xlink:href="#ArialMT-72" x="759.675781"/>
      <use xlink:href="#ArialMT-33" x="792.976562"/>
     </g>
    </g>
   </g>
   <g id="matplotlib.axis_2">
    <g id="ytick_1">
     <g id="line2d_10">
      <path d="M 41.367188 259.483125 
L 309.207188 259.483125 
" clip-path="url(#pe4bad76195)" style="fill: none; stroke: #ffffff; stroke-width: 0.8; stroke-linecap: round"/>
     </g>
     <g id="text_11">
      <!-- 1.0 -->
      <g style="fill: #262626" transform="translate(20.467188 263.062031)scale(0.1 -0.1)">
       <use xlink:href="#ArialMT-31"/>
       <use xlink:href="#ArialMT-2e" x="55.615234"/>
       <use xlink:href="#ArialMT-30" x="83.398438"/>
      </g>
     </g>
    </g>
    <g id="ytick_2">
     <g id="line2d_11">
      <path d="M 41.367188 232.303125 
L 309.207188 232.303125 
" clip-path="url(#pe4bad76195)" style="fill: none; stroke: #ffffff; stroke-width: 0.8; stroke-linecap: round"/>
     </g>
     <g id="text_12">
      <!-- 1.5 -->
      <g style="fill: #262626" transform="translate(20.467188 235.882031)scale(0.1 -0.1)">
       <use xlink:href="#ArialMT-31"/>
       <use xlink:href="#ArialMT-2e" x="55.615234"/>
       <use xlink:href="#ArialMT-35" x="83.398438"/>
      </g>
     </g>
    </g>
    <g id="ytick_3">
     <g id="line2d_12">
      <path d="M 41.367188 205.123125 
L 309.207188 205.123125 
" clip-path="url(#pe4bad76195)" style="fill: none; stroke: #ffffff; stroke-width: 0.8; stroke-linecap: round"/>
     </g>
     <g id="text_13">
      <!-- 2.0 -->
      <g style="fill: #262626" transform="translate(20.467188 208.702031)scale(0.1 -0.1)">
       <use xlink:href="#ArialMT-32"/>
       <use xlink:href="#ArialMT-2e" x="55.615234"/>
       <use xlink:href="#ArialMT-30" x="83.398438"/>
      </g>
     </g>
    </g>
    <g id="ytick_4">
     <g id="line2d_13">
      <path d="M 41.367188 177.943125 
L 309.207188 177.943125 
" clip-path="url(#pe4bad76195)" style="fill: none; stroke: #ffffff; stroke-width: 0.8; stroke-linecap: round"/>
     </g>
     <g id="text_14">
      <!-- 2.5 -->
      <g style="fill: #262626" transform="translate(20.467188 181.522031)scale(0.1 -0.1)">
       <use xlink:href="#ArialMT-32"/>
       <use xlink:href="#ArialMT-2e" x="55.615234"/>
       <use xlink:href="#ArialMT-35" x="83.398438"/>
      </g>
     </g>
    </g>
    <g id="ytick_5">
     <g id="line2d_14">
      <path d="M 41.367188 150.763125 
L 309.207188 150.763125 
" clip-path="url(#pe4bad76195)" style="fill: none; stroke: #ffffff; stroke-width: 0.8; stroke-linecap: round"/>
     </g>
     <g id="text_15">
      <!-- 3.0 -->
      <g style="fill: #262626" transform="translate(20.467188 154.342031)scale(0.1 -0.1)">
       <use xlink:href="#ArialMT-33"/>
       <use xlink:href="#ArialMT-2e" x="55.615234"/>
       <use xlink:href="#ArialMT-30" x="83.398438"/>
      </g>
     </g>
    </g>
    <g id="ytick_6">
     <g id="line2d_15">
      <path d="M 41.367188 123.583125 
L 309.207188 123.583125 
" clip-path="url(#pe4bad76195)" style="fill: none; stroke: #ffffff; stroke-width: 0.8; stroke-linecap: round"/>
     </g>
     <g id="text_16">
      <!-- 3.5 -->
      <g style="fill: #262626" transform="translate(20.467188 127.162031)scale(0.1 -0.1)">
       <use xlink:href="#ArialMT-33"/>
       <use xlink:href="#ArialMT-2e" x="55.615234"/>
       <use xlink:href="#ArialMT-35" x="83.398438"/>
      </g>
     </g>
    </g>
    <g id="ytick_7">
     <g id="line2d_16">
      <path d="M 41.367188 96.403125 
L 309.207188 96.403125 
" clip-path="url(#pe4bad76195)" style="fill: none; stroke: #ffffff; stroke-width: 0.8; stroke-linecap: round"/>
     </g>
     <g id="text_17">
      <!-- 4.0 -->
      <g style="fill: #262626" transform="translate(20.467188 99.982031)scale(0.1 -0.1)">
       <use xlink:href="#ArialMT-34"/>
       <use xlink:href="#ArialMT-2e" x="55.615234"/>
       <use xlink:href="#ArialMT-30" x="83.398438"/>
      </g>
     </g>
    </g>
    <g id="ytick_8">
     <g id="line2d_17">
      <path d="M 41.367188 69.223125 
L 309.207188 69.223125 
" clip-path="url(#pe4bad76195)" style="fill: none; stroke: #ffffff; stroke-width: 0.8; stroke-linecap: round"/>
     </g>
     <g id="text_18">
      <!-- 4.5 -->
      <g style="fill: #262626" transform="translate(20.467188 72.802031)scale(0.1 -0.1)">
       <use xlink:href="#ArialMT-34"/>
       <use xlink:href="#ArialMT-2e" x="55.615234"/>
       <use xlink:href="#ArialMT-35" x="83.398438"/>
      </g>
     </g>
    </g>
    <g id="ytick_9">
     <g id="line2d_18">
      <path d="M 41.367188 42.043125 
L 309.207188 42.043125 
" clip-path="url(#pe4bad76195)" style="fill: none; stroke: #ffffff; stroke-width: 0.8; stroke-linecap: round"/>
     </g>
     <g id="text_19">
      <!-- 5.0 -->
      <g style="fill: #262626" transform="translate(20.467188 45.622031)scale(0.1 -0.1)">
       <use xlink:href="#ArialMT-35"/>
       <use xlink:href="#ArialMT-2e" x="55.615234"/>
       <use xlink:href="#ArialMT-30" x="83.398438"/>
      </g>
     </g>
    </g>
    <g id="text_20">
     <!-- Predictor: ffmq_nr2 -->
     <g style="fill: #262626" transform="translate(14.479688 193.189687)rotate(-90)scale(0.1 -0.1)">
      <use xlink:href="#ArialMT-50"/>
      <use xlink:href="#ArialMT-72" x="66.699219"/>
      <use xlink:href="#ArialMT-65" x="100"/>
      <use xlink:href="#ArialMT-64" x="155.615234"/>
      <use xlink:href="#ArialMT-69" x="211.230469"/>
      <use xlink:href="#ArialMT-63" x="233.447266"/>
      <use xlink:href="#ArialMT-74" x="283.447266"/>
      <use xlink:href="#ArialMT-6f" x="311.230469"/>
      <use xlink:href="#ArialMT-72" x="366.845703"/>
      <use xlink:href="#ArialMT-3a" x="400.146484"/>
      <use xlink:href="#ArialMT-20" x="427.929688"/>
      <use xlink:href="#ArialMT-66" x="455.712891"/>
      <use xlink:href="#ArialMT-66" x="481.746094"/>
      <use xlink:href="#ArialMT-6d" x="509.529297"/>
      <use xlink:href="#ArialMT-71" x="592.830078"/>
      <use xlink:href="#ArialMT-5f" x="648.445312"/>
      <use xlink:href="#ArialMT-6e" x="704.060547"/>
      <use xlink:href="#ArialMT-72" x="759.675781"/>
      <use xlink:href="#ArialMT-32" x="792.976562"/>
     </g>
    </g>
   </g>
   <g id="PathCollection_1">
    <path d="M 44.390524 145.04102 
L 41.367188 142.010937 
L 41.367188 145.04102 
L 41.367188 145.684361 
z
" clip-path="url(#pe4bad76195)" style="fill: #485fd1"/>
    <path d="M 210.529293 147.352308 
L 224.626135 150.448285 
L 238.722977 153.538769 
L 252.819819 154.220314 
L 266.916661 154.100022 
L 281.013503 153.97973 
L 295.110345 153.859438 
L 309.207188 153.739146 
L 309.207188 145.04102 
L 309.207188 133.596809 
L 309.207188 122.152599 
L 309.207188 110.708388 
L 309.207188 105.271174 
L 295.110345 104.721171 
L 281.013503 104.171169 
L 266.916661 103.621166 
L 252.819819 103.071164 
L 238.722977 106.347745 
L 234.521397 110.708388 
L 224.626135 120.820221 
L 223.306156 122.152599 
L 211.809815 133.596809 
L 210.529293 134.854015 
L 200.021672 145.04102 
z
" clip-path="url(#pe4bad76195)" style="fill: #485fd1"/>
   </g>
   <g id="PathCollection_2">
    <path d="M 55.46403 159.164348 
L 69.560872 157.791831 
L 83.053133 156.48523 
L 83.657714 156.356243 
L 97.754556 153.358743 
L 111.851398 151.563761 
L 125.94824 153.342627 
L 140.045082 155.148525 
L 150.343238 156.48523 
L 154.141924 156.708359 
L 168.238766 157.54157 
L 182.335609 158.654714 
L 196.432451 160.043159 
L 210.529293 161.433675 
L 224.626135 162.826267 
L 238.722977 164.220939 
L 252.819819 164.52927 
L 266.916661 164.475053 
L 281.013503 164.420836 
L 295.110345 164.366619 
L 309.207188 164.312402 
L 309.207188 156.48523 
L 309.207188 153.739146 
L 295.110345 153.859438 
L 281.013503 153.97973 
L 266.916661 154.100022 
L 252.819819 154.220314 
L 238.722977 153.538769 
L 224.626135 150.448285 
L 210.529293 147.352308 
L 200.021672 145.04102 
L 210.529293 134.854015 
L 211.809815 133.596809 
L 223.306156 122.152599 
L 224.626135 120.820221 
L 234.521397 110.708388 
L 238.722977 106.347745 
L 252.819819 103.071164 
L 266.916661 103.621166 
L 281.013503 104.171169 
L 295.110345 104.721171 
L 309.207188 105.271174 
L 309.207188 99.264178 
L 309.207188 87.819967 
L 309.207188 86.712926 
L 295.110345 86.684884 
L 281.013503 86.657049 
L 266.916661 86.629419 
L 252.819819 86.60199 
L 238.722977 87.011248 
L 232.085187 87.819967 
L 224.626135 88.985083 
L 210.529293 91.181716 
L 196.432451 93.371421 
L 182.335609 95.554231 
L 168.238766 97.165403 
L 154.141924 98.211602 
L 140.045082 99.259827 
L 139.98663 99.264178 
L 125.94824 106.371845 
L 117.650409 110.708388 
L 111.851398 113.801152 
L 106.843546 110.708388 
L 97.754556 105.073801 
L 91.965701 99.264178 
L 83.657714 98.062041 
L 69.560872 96.017677 
L 55.46403 93.967504 
L 41.367188 91.911495 
L 41.367188 99.264178 
L 41.367188 110.708388 
L 41.367188 122.152599 
L 41.367188 133.596809 
L 41.367188 142.010937 
L 44.390524 145.04102 
L 41.367188 145.684361 
L 41.367188 156.48523 
L 41.367188 160.544456 
z
" clip-path="url(#pe4bad76195)" style="fill: #6485ec"/>
   </g>
   <g id="PathCollection_3">
    <path d="M 55.46403 168.081066 
L 56.990252 167.929441 
L 69.560872 166.684026 
L 83.657714 165.294649 
L 97.754556 163.912873 
L 111.851398 163.09323 
L 125.94824 163.945332 
L 140.045082 164.805762 
L 154.141924 165.674641 
L 168.238766 166.552095 
L 182.335609 167.690887 
L 184.747432 167.929441 
L 196.432451 169.086067 
L 210.529293 170.483328 
L 224.626135 171.882674 
L 238.722977 173.284111 
L 252.819819 173.594134 
L 266.916661 173.539917 
L 281.013503 173.4857 
L 295.110345 173.431483 
L 309.207188 173.377266 
L 309.207188 167.929441 
L 309.207188 164.312402 
L 295.110345 164.366619 
L 281.013503 164.420836 
L 266.916661 164.475053 
L 252.819819 164.52927 
L 238.722977 164.220939 
L 224.626135 162.826267 
L 210.529293 161.433675 
L 196.432451 160.043159 
L 182.335609 158.654714 
L 168.238766 157.54157 
L 154.141924 156.708359 
L 150.343238 156.48523 
L 140.045082 155.148525 
L 125.94824 153.342627 
L 111.851398 151.563761 
L 97.754556 153.358743 
L 83.657714 156.356243 
L 83.053133 156.48523 
L 69.560872 157.791831 
L 55.46403 159.164348 
L 41.367188 160.544456 
L 41.367188 167.929441 
L 41.367188 169.485833 
z
" clip-path="url(#pe4bad76195)" style="fill: #85a8fc"/>
    <path d="M 111.851398 113.801152 
L 117.650409 110.708388 
L 125.94824 106.371845 
L 139.98663 99.264178 
L 140.045082 99.259827 
L 154.141924 98.211602 
L 168.238766 97.165403 
L 182.335609 95.554231 
L 196.432451 93.371421 
L 210.529293 91.181716 
L 224.626135 88.985083 
L 232.085187 87.819967 
L 238.722977 87.011248 
L 252.819819 86.60199 
L 266.916661 86.629419 
L 281.013503 86.657049 
L 295.110345 86.684884 
L 309.207188 86.712926 
L 309.207188 76.375757 
L 309.207188 75.988511 
L 295.110345 76.00016 
L 281.013503 76.011724 
L 266.916661 76.023202 
L 252.819819 76.034597 
L 241.92047 76.375757 
L 238.722977 76.475541 
L 224.626135 78.203095 
L 210.529293 79.927043 
L 196.432451 81.647396 
L 182.335609 83.364167 
L 168.238766 84.625064 
L 154.141924 85.433059 
L 140.045082 86.24144 
L 125.94824 87.050207 
L 112.537547 87.819967 
L 111.851398 87.870597 
L 111.292826 87.819967 
L 97.754556 86.864016 
L 83.657714 85.262797 
L 69.560872 83.656649 
L 55.46403 82.04555 
L 41.367188 80.429477 
L 41.367188 87.819967 
L 41.367188 91.911495 
L 55.46403 93.967504 
L 69.560872 96.017677 
L 83.657714 98.062041 
L 91.965701 99.264178 
L 97.754556 105.073801 
L 106.843546 110.708388 
z
" clip-path="url(#pe4bad76195)" style="fill: #85a8fc"/>
   </g>
   <g id="PathCollection_4">
    <path d="M 210.529293 179.53298 
L 224.626135 180.939081 
L 238.722977 182.347283 
L 252.819819 182.658999 
L 266.916661 182.604782 
L 281.013503 182.550565 
L 295.110345 182.496348 
L 309.207188 182.442131 
L 309.207188 179.373651 
L 309.207188 173.377266 
L 295.110345 173.431483 
L 281.013503 173.4857 
L 266.916661 173.539917 
L 252.819819 173.594134 
L 238.722977 173.284111 
L 224.626135 171.882674 
L 210.529293 170.483328 
L 196.432451 169.086067 
L 184.747432 167.929441 
L 182.335609 167.690887 
L 168.238766 166.552095 
L 154.141924 165.674641 
L 140.045082 164.805762 
L 125.94824 163.945332 
L 111.851398 163.09323 
L 97.754556 163.912873 
L 83.657714 165.294649 
L 69.560872 166.684026 
L 56.990252 167.929441 
L 55.46403 168.081066 
L 41.367188 169.485833 
L 41.367188 178.42721 
L 55.46403 176.997784 
L 69.560872 175.576221 
L 83.657714 174.162456 
L 97.754556 172.756424 
L 111.851398 171.929353 
L 125.94824 172.82442 
L 140.045082 173.728234 
L 154.141924 174.640923 
L 168.238766 175.562619 
L 182.335609 176.727061 
L 196.432451 178.128975 
L 208.930616 179.373651 
z
" clip-path="url(#pe4bad76195)" style="fill: #a5c3fe"/>
    <path d="M 111.851398 87.870597 
L 112.537547 87.819967 
L 125.94824 87.050207 
L 140.045082 86.24144 
L 154.141924 85.433059 
L 168.238766 84.625064 
L 182.335609 83.364167 
L 196.432451 81.647396 
L 210.529293 79.927043 
L 224.626135 78.203095 
L 238.722977 76.475541 
L 241.92047 76.375757 
L 252.819819 76.034597 
L 266.916661 76.023202 
L 281.013503 76.011724 
L 295.110345 76.00016 
L 309.207188 75.988511 
L 309.207188 65.264096 
L 295.110345 65.315436 
L 281.013503 65.366398 
L 266.916661 65.416986 
L 252.819819 65.467203 
L 238.722977 65.939834 
L 224.626135 67.678395 
L 210.529293 69.413327 
L 196.432451 71.144641 
L 182.335609 72.872349 
L 168.238766 74.137456 
L 154.141924 74.942947 
L 140.045082 75.748823 
L 129.083048 76.375757 
L 125.94824 76.555083 
L 111.851398 77.361729 
L 98.062958 76.375757 
L 97.754556 76.353677 
L 83.657714 74.736307 
L 69.560872 73.113959 
L 55.46403 71.486609 
L 41.367188 69.854235 
L 41.367188 76.375757 
L 41.367188 80.429477 
L 55.46403 82.04555 
L 69.560872 83.656649 
L 83.657714 85.262797 
L 97.754556 86.864016 
L 111.292826 87.819967 
z
" clip-path="url(#pe4bad76195)" style="fill: #a5c3fe"/>
   </g>
   <g id="PathCollection_5">
    <path d="M 238.722977 191.410455 
L 252.819819 191.723864 
L 266.916661 191.669647 
L 281.013503 191.61543 
L 295.110345 191.561213 
L 309.207188 191.506996 
L 309.207188 190.817862 
L 309.207188 182.442131 
L 295.110345 182.496348 
L 281.013503 182.550565 
L 266.916661 182.604782 
L 252.819819 182.658999 
L 238.722977 182.347283 
L 224.626135 180.939081 
L 210.529293 179.53298 
L 208.930616 179.373651 
L 196.432451 178.128975 
L 182.335609 176.727061 
L 168.238766 175.562619 
L 154.141924 174.640923 
L 140.045082 173.728234 
L 125.94824 172.82442 
L 111.851398 171.929353 
L 97.754556 172.756424 
L 83.657714 174.162456 
L 69.560872 175.576221 
L 55.46403 176.997784 
L 41.367188 178.42721 
L 41.367188 179.373651 
L 41.367188 187.368586 
L 55.46403 185.914502 
L 69.560872 184.468416 
L 83.657714 183.030262 
L 97.754556 181.599976 
L 111.851398 180.765476 
L 125.94824 181.703507 
L 140.045082 182.650705 
L 154.141924 183.607205 
L 168.238766 184.573144 
L 182.335609 185.763235 
L 196.432451 187.171883 
L 210.529293 188.582633 
L 224.626135 189.995488 
L 232.821733 190.817862 
z
" clip-path="url(#pe4bad76195)" style="fill: #c3d5f4"/>
    <path d="M 111.851398 77.361729 
L 125.94824 76.555083 
L 129.083048 76.375757 
L 140.045082 75.748823 
L 154.141924 74.942947 
L 168.238766 74.137456 
L 182.335609 72.872349 
L 196.432451 71.144641 
L 210.529293 69.413327 
L 224.626135 67.678395 
L 238.722977 65.939834 
L 252.819819 65.467203 
L 266.916661 65.416986 
L 281.013503 65.366398 
L 295.110345 65.315436 
L 309.207188 65.264096 
L 309.207188 64.931546 
L 309.207188 54.539681 
L 295.110345 54.630712 
L 281.013503 54.721073 
L 266.916661 54.810769 
L 252.819819 54.899809 
L 238.722977 55.404126 
L 224.626135 57.153694 
L 210.529293 58.89961 
L 196.432451 60.641886 
L 182.335609 62.380532 
L 168.238766 63.649848 
L 154.141924 64.452835 
L 145.741111 64.931546 
L 140.045082 65.256205 
L 125.94824 66.05996 
L 111.851398 66.864098 
L 97.754556 65.843338 
L 89.880701 64.931546 
L 83.657714 64.209817 
L 69.560872 62.571269 
L 55.46403 60.927669 
L 41.367188 59.278994 
L 41.367188 64.931546 
L 41.367188 69.854235 
L 55.46403 71.486609 
L 69.560872 73.113959 
L 83.657714 74.736307 
L 97.754556 76.353677 
L 98.062958 76.375757 
z
" clip-path="url(#pe4bad76195)" style="fill: #c3d5f4"/>
   </g>
   <g id="PathCollection_6">
    <path d="M 55.46403 194.83122 
L 69.560872 193.360611 
L 83.657714 191.898069 
L 94.119266 190.817862 
L 97.754556 190.443527 
L 111.851398 189.601599 
L 125.94824 190.582595 
L 129.308752 190.817862 
L 140.045082 191.573177 
L 154.141924 192.573487 
L 168.238766 193.583669 
L 182.335609 194.799409 
L 196.432451 196.214791 
L 210.529293 197.632286 
L 224.626135 199.051896 
L 238.722977 200.473626 
L 252.819819 200.788728 
L 266.916661 200.734511 
L 281.013503 200.680294 
L 295.110345 200.626077 
L 309.207188 200.57186 
L 309.207188 191.506996 
L 295.110345 191.561213 
L 281.013503 191.61543 
L 266.916661 191.669647 
L 252.819819 191.723864 
L 238.722977 191.410455 
L 232.821733 190.817862 
L 224.626135 189.995488 
L 210.529293 188.582633 
L 196.432451 187.171883 
L 182.335609 185.763235 
L 168.238766 184.573144 
L 154.141924 183.607205 
L 140.045082 182.650705 
L 125.94824 181.703507 
L 111.851398 180.765476 
L 97.754556 181.599976 
L 83.657714 183.030262 
L 69.560872 184.468416 
L 55.46403 185.914502 
L 41.367188 187.368586 
L 41.367188 190.817862 
L 41.367188 196.309963 
z
" clip-path="url(#pe4bad76195)" style="fill: #dddcdc"/>
    <path d="M 97.754556 65.843338 
L 111.851398 66.864098 
L 125.94824 66.05996 
L 140.045082 65.256205 
L 145.741111 64.931546 
L 154.141924 64.452835 
L 168.238766 63.649848 
L 182.335609 62.380532 
L 196.432451 60.641886 
L 210.529293 58.89961 
L 224.626135 57.153694 
L 238.722977 55.404126 
L 252.819819 54.899809 
L 266.916661 54.810769 
L 281.013503 54.721073 
L 295.110345 54.630712 
L 309.207188 54.539681 
L 309.207188 53.487336 
L 309.207187 43.815266 
L 295.110345 43.945989 
L 281.013503 44.075747 
L 266.916661 44.204553 
L 252.819819 44.332415 
L 238.722977 44.868419 
L 224.626135 46.628994 
L 210.529293 48.385894 
L 196.432451 50.139131 
L 182.335609 51.888715 
L 168.238766 53.16224 
L 162.512887 53.487336 
L 154.141924 53.962723 
L 140.045082 54.763588 
L 125.94824 55.564836 
L 111.851398 56.366467 
L 97.754556 55.332999 
L 83.657714 53.683327 
L 81.985789 53.487336 
L 69.560872 52.028578 
L 55.46403 50.368728 
L 41.367188 48.703753 
L 41.367188 53.487336 
L 41.367188 59.278994 
L 55.46403 60.927669 
L 69.560872 62.571269 
L 83.657714 64.209817 
L 89.880701 64.931546 
z
" clip-path="url(#pe4bad76195)" style="fill: #dddcdc"/>
   </g>
   <g id="PathCollection_7">
    <path d="M 238.722977 215.11329 
L 252.819819 215.831216 
L 266.916661 215.708488 
L 281.013503 215.58576 
L 295.110345 215.463032 
L 309.207188 215.340304 
L 309.207188 213.706283 
L 309.207188 202.262072 
L 309.207188 200.57186 
L 295.110345 200.626077 
L 281.013503 200.680294 
L 266.916661 200.734511 
L 252.819819 200.788728 
L 238.722977 200.473626 
L 224.626135 199.051896 
L 210.529293 197.632286 
L 196.432451 196.214791 
L 182.335609 194.799409 
L 168.238766 193.583669 
L 154.141924 192.573487 
L 140.045082 191.573177 
L 129.308752 190.817862 
L 125.94824 190.582595 
L 111.851398 189.601599 
L 97.754556 190.443527 
L 94.119266 190.817862 
L 83.657714 191.898069 
L 69.560872 193.360611 
L 55.46403 194.83122 
L 41.367188 196.309963 
L 41.367188 202.262072 
L 41.367188 207.335309 
L 55.46403 204.78636 
L 69.473263 202.262072 
L 69.560872 202.252806 
L 83.657714 200.765875 
L 97.754556 199.287078 
L 111.851398 198.437722 
L 125.94824 199.461682 
L 140.045082 200.495649 
L 154.141924 201.539769 
L 163.813517 202.262072 
L 168.238766 202.832405 
L 182.335609 204.966707 
L 196.432451 207.412071 
L 210.529293 209.861991 
L 224.626135 212.316479 
L 232.596547 213.706283 
z
" clip-path="url(#pe4bad76195)" style="fill: #f1cdba"/>
    <path d="M 83.657714 53.683327 
L 97.754556 55.332999 
L 111.851398 56.366467 
L 125.94824 55.564836 
L 140.045082 54.763588 
L 154.141924 53.962723 
L 162.512887 53.487336 
L 168.238766 53.16224 
L 182.335609 51.888715 
L 196.432451 50.139131 
L 210.529293 48.385894 
L 224.626135 46.628994 
L 238.722977 44.868419 
L 252.819819 44.332415 
L 266.916661 44.204553 
L 281.013503 44.075747 
L 295.110345 43.945989 
L 309.207187 43.815266 
L 309.207188 42.043125 
L 295.110345 42.043125 
L 281.013503 42.043125 
L 266.916661 42.043125 
L 252.819819 42.043125 
L 238.722977 42.043125 
L 224.626135 42.043125 
L 210.529293 42.043125 
L 196.432451 42.043125 
L 182.335609 42.043125 
L 175.207404 42.043125 
L 168.238766 42.674632 
L 154.141924 43.472611 
L 140.045082 44.270971 
L 125.94824 45.069712 
L 111.851398 45.868835 
L 97.754556 44.82266 
L 83.657714 43.156838 
L 74.257142 42.043125 
L 69.560872 42.043125 
L 55.46403 42.043125 
L 41.367188 42.043125 
L 41.367188 48.703753 
L 55.46403 50.368728 
L 69.560872 52.028578 
L 81.985789 53.487336 
z
" clip-path="url(#pe4bad76195)" style="fill: #f1cdba"/>
   </g>
   <g id="PathCollection_8">
    <path d="M 41.471933 225.150493 
L 55.46403 221.826267 
L 69.560872 218.483856 
L 83.657714 215.14815 
L 89.759877 213.706283 
L 97.754556 212.261968 
L 111.851398 210.811834 
L 125.94824 212.648782 
L 133.981348 213.706283 
L 140.045082 214.759553 
L 154.141924 217.235603 
L 168.238766 219.750748 
L 182.335609 222.639013 
L 193.276602 225.150493 
L 196.432451 225.875686 
L 210.529293 229.119294 
L 224.626135 232.369858 
L 238.722977 235.627402 
L 252.819819 236.350835 
L 266.916661 236.228107 
L 281.013503 236.105379 
L 295.110345 235.982651 
L 309.207188 235.859923 
L 309.207188 225.150493 
L 309.207188 215.340304 
L 295.110345 215.463032 
L 281.013503 215.58576 
L 266.916661 215.708488 
L 252.819819 215.831216 
L 238.722977 215.11329 
L 232.596547 213.706283 
L 224.626135 212.316479 
L 210.529293 209.861991 
L 196.432451 207.412071 
L 182.335609 204.966707 
L 168.238766 202.832405 
L 163.813517 202.262072 
L 154.141924 201.539769 
L 140.045082 200.495649 
L 125.94824 199.461682 
L 111.851398 198.437722 
L 97.754556 199.287078 
L 83.657714 200.765875 
L 69.560872 202.252806 
L 69.473263 202.262072 
L 55.46403 204.78636 
L 41.367188 207.335309 
L 41.367188 213.706283 
L 41.367188 225.150493 
L 41.367188 225.175404 
z
" clip-path="url(#pe4bad76195)" style="fill: #f7b396"/>
    <path d="M 83.657714 43.156838 
L 97.754556 44.82266 
L 111.851398 45.868835 
L 125.94824 45.069712 
L 140.045082 44.270971 
L 154.141924 43.472611 
L 168.238766 42.674632 
L 175.207404 42.043125 
L 168.238766 42.043125 
L 154.141924 42.043125 
L 140.045082 42.043125 
L 125.94824 42.043125 
L 111.851398 42.043125 
L 97.754556 42.043125 
L 83.657714 42.043125 
L 74.257142 42.043125 
z
" clip-path="url(#pe4bad76195)" style="fill: #f7b396"/>
   </g>
   <g id="PathCollection_9">
    <path d="M 210.529293 249.589454 
L 224.626135 252.861971 
L 238.722977 256.141514 
L 252.819819 256.870454 
L 266.916661 256.747726 
L 281.013503 256.624998 
L 295.110345 256.50227 
L 309.207188 256.379542 
L 309.207188 248.038914 
L 309.207188 236.594704 
L 309.207188 235.859923 
L 295.110345 235.982651 
L 281.013503 236.105379 
L 266.916661 236.228107 
L 252.819819 236.350835 
L 238.722977 235.627402 
L 224.626135 232.369858 
L 210.529293 229.119294 
L 196.432451 225.875686 
L 193.276602 225.150493 
L 182.335609 222.639013 
L 168.238766 219.750748 
L 154.141924 217.235603 
L 140.045082 214.759553 
L 133.981348 213.706283 
L 125.94824 212.648782 
L 111.851398 210.811834 
L 97.754556 212.261968 
L 89.759877 213.706283 
L 83.657714 215.14815 
L 69.560872 218.483856 
L 55.46403 221.826267 
L 41.471933 225.150493 
L 41.367188 225.175404 
L 41.367188 236.594704 
L 41.367188 244.944208 
L 55.46403 241.575202 
L 69.560872 238.212962 
L 76.355836 236.594704 
L 83.657714 234.857466 
L 97.754556 231.508696 
L 111.851398 229.633568 
L 125.94824 232.186134 
L 140.045082 234.778376 
L 149.793585 236.594704 
L 154.141924 237.411227 
L 168.238766 240.085647 
L 182.335609 243.06541 
L 196.432451 246.323941 
L 203.839557 248.038914 
z
" clip-path="url(#pe4bad76195)" style="fill: #f29072"/>
   </g>
   <g id="PathCollection_10">
    <path d="M 55.46403 259.483125 
L 63.134061 259.483125 
L 69.560872 257.942068 
L 83.657714 254.566782 
L 97.754556 251.198262 
L 111.851398 249.345989 
L 125.94824 252.050574 
L 140.045082 254.797199 
L 154.141924 257.58685 
L 163.599864 259.483125 
L 168.238766 259.483125 
L 182.335609 259.483125 
L 196.432451 259.483125 
L 210.529293 259.483125 
L 224.626135 259.483125 
L 238.722977 259.483125 
L 252.819819 259.483125 
L 266.916661 259.483125 
L 281.013503 259.483125 
L 295.110345 259.483125 
L 309.207188 259.483125 
L 309.207188 256.379542 
L 295.110345 256.50227 
L 281.013503 256.624998 
L 266.916661 256.747726 
L 252.819819 256.870454 
L 238.722977 256.141514 
L 224.626135 252.861971 
L 210.529293 249.589454 
L 203.839557 248.038914 
L 196.432451 246.323941 
L 182.335609 243.06541 
L 168.238766 240.085647 
L 154.141924 237.411227 
L 149.793585 236.594704 
L 140.045082 234.778376 
L 125.94824 232.186134 
L 111.851398 229.633568 
L 97.754556 231.508696 
L 83.657714 234.857466 
L 76.355836 236.594704 
L 69.560872 238.212962 
L 55.46403 241.575202 
L 41.367188 244.944208 
L 41.367188 248.038914 
L 41.367188 259.483125 
z
" clip-path="url(#pe4bad76195)" style="fill: #e0654f"/>
   </g>
   <g id="PathCollection_11">
    <path d="M 69.560872 259.483125 
L 83.657714 259.483125 
L 97.754556 259.483125 
L 111.851398 259.483125 
L 125.94824 259.483125 
L 140.045082 259.483125 
L 154.141924 259.483125 
L 163.599864 259.483125 
L 154.141924 257.58685 
L 140.045082 254.797199 
L 125.94824 252.050574 
L 111.851398 249.345989 
L 97.754556 251.198262 
L 83.657714 254.566782 
L 69.560872 257.942068 
L 63.134061 259.483125 
z
" clip-path="url(#pe4bad76195)" style="fill: #c43032"/>
   </g>
   <g id="PathCollection_12"/>
   <g id="PathCollection_13">
    <path d="M 309.207188 153.739146 
L 295.110345 153.859438 
L 281.013503 153.97973 
L 266.916661 154.100022 
L 252.819819 154.220314 
L 238.722977 153.538769 
L 224.626135 150.448285 
L 223.043542 150.100713 
" clip-path="url(#pe4bad76195)" style="fill: none; stroke: #000000; stroke-width: 0.5"/>
    <path d="M 201.496167 143.611516 
L 210.529293 134.854015 
L 211.809815 133.596809 
L 223.306156 122.152599 
L 224.626135 120.820221 
L 234.521397 110.708388 
L 238.722977 106.347745 
L 252.819819 103.071164 
L 266.916661 103.621166 
L 281.013503 104.171169 
L 295.110345 104.721171 
L 309.207188 105.271174 
" clip-path="url(#pe4bad76195)" style="fill: none; stroke: #000000; stroke-width: 0.5"/>
    <path d="M 41.367188 142.010937 
L 44.390524 145.04102 
L 41.367188 145.684361 
" clip-path="url(#pe4bad76195)" style="fill: none; stroke: #000000; stroke-width: 0.5"/>
   </g>
   <g id="PathCollection_14">
    <path d="M 296.394782 164.361679 
L 295.110345 164.366619 
L 281.013503 164.420836 
L 266.916661 164.475053 
L 252.819819 164.52927 
L 238.722977 164.220939 
L 224.626135 162.826267 
L 210.529293 161.433675 
L 196.432451 160.043159 
L 182.335609 158.654714 
L 168.238766 157.54157 
L 154.141924 156.708359 
L 150.343238 156.48523 
L 140.045082 155.148525 
L 125.94824 153.342627 
L 111.851398 151.563761 
L 97.754556 153.358743 
L 83.657714 156.356243 
L 83.053133 156.48523 
L 69.560872 157.791831 
L 55.46403 159.164348 
L 41.367188 160.544456 
" clip-path="url(#pe4bad76195)" style="fill: none; stroke: #000000; stroke-width: 0.5"/>
    <path d="M 41.367188 91.911495 
L 55.46403 93.967504 
L 69.560872 96.017677 
L 83.657714 98.062041 
L 91.965701 99.264178 
L 97.754556 105.073801 
L 106.843546 110.708388 
L 111.851398 113.801152 
L 117.650409 110.708388 
L 125.94824 106.371845 
L 139.98663 99.264178 
L 140.045082 99.259827 
L 154.141924 98.211602 
L 168.238766 97.165403 
L 182.335609 95.554231 
L 196.432451 93.371421 
L 210.529293 91.181716 
L 224.626135 88.985083 
L 232.085187 87.819967 
L 238.722977 87.011248 
L 252.819819 86.60199 
L 266.916661 86.629419 
L 268.201028 86.631936 
" clip-path="url(#pe4bad76195)" style="fill: none; stroke: #000000; stroke-width: 0.5"/>
    <path d="M 293.825978 86.682348 
L 295.110345 86.684884 
L 309.207188 86.712926 
" clip-path="url(#pe4bad76195)" style="fill: none; stroke: #000000; stroke-width: 0.5"/>
   </g>
   <g id="PathCollection_15">
    <path d="M 309.207188 173.377266 
L 295.110345 173.431483 
L 281.013503 173.4857 
L 266.916661 173.539917 
L 252.819819 173.594134 
L 238.722977 173.284111 
L 224.626135 171.882674 
L 223.216935 171.742787 
" clip-path="url(#pe4bad76195)" style="fill: none; stroke: #000000; stroke-width: 0.5"/>
    <path d="M 197.841466 169.225727 
L 196.432451 169.086067 
L 184.747432 167.929441 
L 182.335609 167.690887 
L 168.238766 166.552095 
L 154.141924 165.674641 
L 140.045082 164.805762 
L 125.94824 163.945332 
L 111.851398 163.09323 
L 97.754556 163.912873 
L 83.657714 165.294649 
L 69.560872 166.684026 
L 56.990252 167.929441 
L 55.46403 168.081066 
L 41.367188 169.485833 
" clip-path="url(#pe4bad76195)" style="fill: none; stroke: #000000; stroke-width: 0.5"/>
    <path d="M 41.367188 80.429477 
L 55.46403 82.04555 
L 69.560872 83.656649 
L 83.657714 85.262797 
L 97.754556 86.864016 
L 111.292826 87.819967 
L 111.851398 87.870597 
L 112.537547 87.819967 
L 125.94824 87.050207 
L 140.045082 86.24144 
L 154.141924 85.433059 
L 168.238766 84.625064 
L 182.335609 83.364167 
L 196.432451 81.647396 
L 210.529293 79.927043 
L 224.626135 78.203095 
L 238.722977 76.475541 
L 241.92047 76.375757 
L 252.819819 76.034597 
L 266.916661 76.023202 
L 281.013503 76.011724 
L 295.110345 76.00016 
L 296.457192 75.999047 
" clip-path="url(#pe4bad76195)" style="fill: none; stroke: #000000; stroke-width: 0.5"/>
   </g>
   <g id="PathCollection_16">
    <path d="M 309.207188 182.442131 
L 307.922751 182.447071 
" clip-path="url(#pe4bad76195)" style="fill: none; stroke: #000000; stroke-width: 0.5"/>
    <path d="M 282.29794 182.545625 
L 281.013503 182.550565 
L 266.916661 182.604782 
L 252.819819 182.658999 
L 238.722977 182.347283 
L 224.626135 180.939081 
L 210.529293 179.53298 
L 208.930616 179.373651 
L 196.432451 178.128975 
L 182.335609 176.727061 
L 168.238766 175.562619 
L 154.141924 174.640923 
L 140.045082 173.728234 
L 125.94824 172.82442 
L 111.851398 171.929353 
L 97.754556 172.756424 
L 83.657714 174.162456 
L 69.560872 175.576221 
L 55.46403 176.997784 
L 41.367188 178.42721 
" clip-path="url(#pe4bad76195)" style="fill: none; stroke: #000000; stroke-width: 0.5"/>
    <path d="M 54.094641 71.328038 
L 55.46403 71.486609 
L 69.560872 73.113959 
L 83.657714 74.736307 
L 97.754556 76.353677 
L 98.062958 76.375757 
L 111.851398 77.361729 
L 125.94824 76.555083 
L 129.083048 76.375757 
L 140.045082 75.748823 
L 154.141924 74.942947 
L 168.238766 74.137456 
L 182.335609 72.872349 
L 196.432451 71.144641 
L 210.529293 69.413327 
L 224.626135 67.678395 
L 238.722977 65.939834 
L 252.819819 65.467203 
L 266.916661 65.416986 
L 281.013503 65.366398 
L 295.110345 65.315436 
L 309.207188 65.264096 
" clip-path="url(#pe4bad76195)" style="fill: none; stroke: #000000; stroke-width: 0.5"/>
   </g>
   <g id="PathCollection_17">
    <path d="M 309.207188 191.506996 
L 295.110345 191.561213 
L 281.013503 191.61543 
L 266.916661 191.669647 
L 252.819819 191.723864 
L 238.722977 191.410455 
L 237.312394 191.268806 
" clip-path="url(#pe4bad76195)" style="fill: none; stroke: #000000; stroke-width: 0.5"/>
    <path d="M 211.939694 188.72399 
L 210.529293 188.582633 
L 196.432451 187.171883 
L 182.335609 185.763235 
L 168.238766 184.573144 
L 154.141924 183.607205 
L 140.045082 182.650705 
L 125.94824 181.703507 
L 111.851398 180.765476 
L 97.754556 181.599976 
L 83.657714 183.030262 
L 69.560872 184.468416 
L 55.46403 185.914502 
L 41.367188 187.368586 
" clip-path="url(#pe4bad76195)" style="fill: none; stroke: #000000; stroke-width: 0.5"/>
    <path d="M 41.367188 59.278994 
L 55.46403 60.927669 
L 69.560872 62.571269 
L 83.657714 64.209817 
L 89.880701 64.931546 
L 97.754556 65.843338 
L 111.851398 66.864098 
L 113.218934 66.786088 
" clip-path="url(#pe4bad76195)" style="fill: none; stroke: #000000; stroke-width: 0.5"/>
    <path d="M 138.677566 65.334177 
L 140.045082 65.256205 
L 145.741111 64.931546 
L 154.141924 64.452835 
L 168.238766 63.649848 
L 182.335609 62.380532 
L 196.432451 60.641886 
L 210.529293 58.89961 
L 224.626135 57.153694 
L 238.722977 55.404126 
L 252.819819 54.899809 
L 266.916661 54.810769 
L 281.013503 54.721073 
L 295.110345 54.630712 
L 309.207188 54.539681 
" clip-path="url(#pe4bad76195)" style="fill: none; stroke: #000000; stroke-width: 0.5"/>
   </g>
   <g id="PathCollection_18">
    <path d="M 296.394782 200.621137 
L 295.110345 200.626077 
L 281.013503 200.680294 
L 266.916661 200.734511 
L 252.819819 200.788728 
L 238.722977 200.473626 
L 224.626135 199.051896 
L 210.529293 197.632286 
L 196.432451 196.214791 
L 182.335609 194.799409 
L 168.238766 193.583669 
L 154.141924 192.573487 
L 140.045082 191.573177 
L 129.308752 190.817862 
L 125.94824 190.582595 
L 111.851398 189.601599 
L 97.754556 190.443527 
L 94.119266 190.817862 
L 83.657714 191.898069 
L 69.560872 193.360611 
L 55.46403 194.83122 
L 41.367188 196.309963 
" clip-path="url(#pe4bad76195)" style="fill: none; stroke: #000000; stroke-width: 0.5"/>
    <path d="M 54.091245 50.206589 
L 55.46403 50.368728 
L 69.560872 52.028578 
L 81.985789 53.487336 
L 83.657714 53.683327 
L 97.754556 55.332999 
L 111.851398 56.366467 
L 125.94824 55.564836 
L 140.045082 54.763588 
L 154.141924 53.962723 
L 162.512887 53.487336 
L 168.238766 53.16224 
L 182.335609 51.888715 
L 196.432451 50.139131 
L 210.529293 48.385894 
L 224.626135 46.628994 
L 238.722977 44.868419 
L 252.819819 44.332415 
L 266.916661 44.204553 
L 281.013503 44.075747 
L 295.110345 43.945989 
L 309.207187 43.815266 
" clip-path="url(#pe4bad76195)" style="fill: none; stroke: #000000; stroke-width: 0.5"/>
   </g>
   <g id="PathCollection_19">
    <path d="M 309.207188 215.340304 
L 295.110345 215.463032 
L 281.013503 215.58576 
L 266.916661 215.708488 
L 252.819819 215.831216 
L 238.722977 215.11329 
L 237.198566 214.763191 
" clip-path="url(#pe4bad76195)" style="fill: none; stroke: #000000; stroke-width: 0.5"/>
    <path d="M 212.003542 210.118682 
L 210.529293 209.861991 
L 196.432451 207.412071 
L 182.335609 204.966707 
L 168.238766 202.832405 
L 163.813517 202.262072 
L 154.141924 201.539769 
L 140.045082 200.495649 
L 125.94824 199.461682 
L 111.851398 198.437722 
L 97.754556 199.287078 
L 83.657714 200.765875 
L 69.560872 202.252806 
L 69.473263 202.262072 
L 55.46403 204.78636 
L 41.367188 207.335309 
" clip-path="url(#pe4bad76195)" style="fill: none; stroke: #000000; stroke-width: 0.5"/>
    <path d="M 74.257142 42.043125 
L 83.657714 43.156838 
L 97.754556 44.82266 
L 111.851398 45.868835 
L 113.156277 45.794864 
" clip-path="url(#pe4bad76195)" style="fill: none; stroke: #000000; stroke-width: 0.5"/>
    <path d="M 138.740222 44.344906 
L 140.045082 44.270971 
L 154.141924 43.472611 
L 168.238766 42.674632 
L 175.207404 42.043125 
" clip-path="url(#pe4bad76195)" style="fill: none; stroke: #000000; stroke-width: 0.5"/>
   </g>
   <g id="PathCollection_20">
    <path d="M 309.207188 235.859923 
L 295.110345 235.982651 
L 281.013503 236.105379 
L 266.916661 236.228107 
L 252.819819 236.350835 
L 238.722977 235.627402 
L 224.626135 232.369858 
L 222.953273 231.984116 
" clip-path="url(#pe4bad76195)" style="fill: none; stroke: #000000; stroke-width: 0.5"/>
    <path d="M 198.103971 226.260294 
L 196.432451 225.875686 
L 193.276602 225.150493 
L 182.335609 222.639013 
L 168.238766 219.750748 
L 154.141924 217.235603 
L 140.045082 214.759553 
L 133.981348 213.706283 
L 125.94824 212.648782 
L 111.851398 210.811834 
L 97.754556 212.261968 
L 89.759877 213.706283 
L 83.657714 215.14815 
L 69.560872 218.483856 
L 55.46403 221.826267 
L 41.471933 225.150493 
L 41.367188 225.175404 
" clip-path="url(#pe4bad76195)" style="fill: none; stroke: #000000; stroke-width: 0.5"/>
   </g>
   <g id="PathCollection_21">
    <path d="M 309.207188 256.379542 
L 295.110345 256.50227 
L 281.013503 256.624998 
L 266.916661 256.747726 
L 252.819819 256.870454 
L 238.722977 256.141514 
L 224.626135 252.861971 
L 223.009906 252.486771 
" clip-path="url(#pe4bad76195)" style="fill: none; stroke: #000000; stroke-width: 0.5"/>
    <path d="M 198.047357 246.697842 
L 196.432451 246.323941 
L 182.335609 243.06541 
L 168.238766 240.085647 
L 154.141924 237.411227 
L 149.793585 236.594704 
L 140.045082 234.778376 
L 125.94824 232.186134 
L 111.851398 229.633568 
L 97.754556 231.508696 
L 83.657714 234.857466 
L 76.355836 236.594704 
L 69.560872 238.212962 
L 55.46403 241.575202 
L 41.367188 244.944208 
" clip-path="url(#pe4bad76195)" style="fill: none; stroke: #000000; stroke-width: 0.5"/>
   </g>
   <g id="PathCollection_22">
    <path d="M 163.599864 259.483125 
L 154.141924 257.58685 
L 140.045082 254.797199 
L 125.94824 252.050574 
L 124.373024 251.748357 
" clip-path="url(#pe4bad76195)" style="fill: none; stroke: #000000; stroke-width: 0.5"/>
    <path d="M 99.210057 251.007014 
L 97.754556 251.198262 
L 83.657714 254.566782 
L 69.560872 257.942068 
L 63.134061 259.483125 
" clip-path="url(#pe4bad76195)" style="fill: none; stroke: #000000; stroke-width: 0.5"/>
   </g>
   <g id="PathCollection_23"/>
   <g id="patch_3">
    <path d="M 41.367188 259.483125 
L 41.367188 42.043125 
" style="fill: none; stroke: #ffffff; stroke-width: 0.8; stroke-linejoin: miter; stroke-linecap: square"/>
   </g>
   <g id="patch_4">
    <path d="M 309.207188 259.483125 
L 309.207188 42.043125 
" style="fill: none; stroke: #ffffff; stroke-width: 0.8; stroke-linejoin: miter; stroke-linecap: square"/>
   </g>
   <g id="patch_5">
    <path d="M 41.367188 259.483125 
L 309.207188 259.483125 
" style="fill: none; stroke: #ffffff; stroke-width: 0.8; stroke-linejoin: miter; stroke-linecap: square"/>
   </g>
   <g id="patch_6">
    <path d="M 41.367188 42.043125 
L 309.207188 42.043125 
" style="fill: none; stroke: #ffffff; stroke-width: 0.8; stroke-linejoin: miter; stroke-linecap: square"/>
   </g>
   <g id="text_21">
    <!-- GB | target: audit dependence on -->
    <g style="fill: #262626" transform="translate(101.718438 14.479687)scale(0.1 -0.1)">
     <defs>
      <path id="ArialMT-47" d="M 2638 1797 
L 2638 2334 
L 4578 2338 
L 4578 638 
Q 4131 281 3656 101 
Q 3181 -78 2681 -78 
Q 2006 -78 1454 211 
Q 903 500 622 1047 
Q 341 1594 341 2269 
Q 341 2938 620 3517 
Q 900 4097 1425 4378 
Q 1950 4659 2634 4659 
Q 3131 4659 3532 4498 
Q 3934 4338 4162 4050 
Q 4391 3763 4509 3300 
L 3963 3150 
Q 3859 3500 3706 3700 
Q 3553 3900 3268 4020 
Q 2984 4141 2638 4141 
Q 2222 4141 1919 4014 
Q 1616 3888 1430 3681 
Q 1244 3475 1141 3228 
Q 966 2803 966 2306 
Q 966 1694 1177 1281 
Q 1388 869 1791 669 
Q 2194 469 2647 469 
Q 3041 469 3416 620 
Q 3791 772 3984 944 
L 3984 1797 
L 2638 1797 
z
" transform="scale(0.015625)"/>
      <path id="ArialMT-42" d="M 469 0 
L 469 4581 
L 2188 4581 
Q 2713 4581 3030 4442 
Q 3347 4303 3526 4014 
Q 3706 3725 3706 3409 
Q 3706 3116 3547 2856 
Q 3388 2597 3066 2438 
Q 3481 2316 3704 2022 
Q 3928 1728 3928 1328 
Q 3928 1006 3792 729 
Q 3656 453 3456 303 
Q 3256 153 2954 76 
Q 2653 0 2216 0 
L 469 0 
z
M 1075 2656 
L 2066 2656 
Q 2469 2656 2644 2709 
Q 2875 2778 2992 2937 
Q 3109 3097 3109 3338 
Q 3109 3566 3000 3739 
Q 2891 3913 2687 3977 
Q 2484 4041 1991 4041 
L 1075 4041 
L 1075 2656 
z
M 1075 541 
L 2216 541 
Q 2509 541 2628 563 
Q 2838 600 2978 687 
Q 3119 775 3209 942 
Q 3300 1109 3300 1328 
Q 3300 1584 3169 1773 
Q 3038 1963 2805 2039 
Q 2572 2116 2134 2116 
L 1075 2116 
L 1075 541 
z
" transform="scale(0.015625)"/>
      <path id="ArialMT-7c" d="M 588 -1347 
L 588 4659 
L 1078 4659 
L 1078 -1347 
L 588 -1347 
z
" transform="scale(0.015625)"/>
      <path id="ArialMT-61" d="M 2588 409 
Q 2275 144 1986 34 
Q 1697 -75 1366 -75 
Q 819 -75 525 192 
Q 231 459 231 875 
Q 231 1119 342 1320 
Q 453 1522 633 1644 
Q 813 1766 1038 1828 
Q 1203 1872 1538 1913 
Q 2219 1994 2541 2106 
Q 2544 2222 2544 2253 
Q 2544 2597 2384 2738 
Q 2169 2928 1744 2928 
Q 1347 2928 1158 2789 
Q 969 2650 878 2297 
L 328 2372 
Q 403 2725 575 2942 
Q 747 3159 1072 3276 
Q 1397 3394 1825 3394 
Q 2250 3394 2515 3294 
Q 2781 3194 2906 3042 
Q 3031 2891 3081 2659 
Q 3109 2516 3109 2141 
L 3109 1391 
Q 3109 606 3145 398 
Q 3181 191 3288 0 
L 2700 0 
Q 2613 175 2588 409 
z
M 2541 1666 
Q 2234 1541 1622 1453 
Q 1275 1403 1131 1340 
Q 988 1278 909 1158 
Q 831 1038 831 891 
Q 831 666 1001 516 
Q 1172 366 1500 366 
Q 1825 366 2078 508 
Q 2331 650 2450 897 
Q 2541 1088 2541 1459 
L 2541 1666 
z
" transform="scale(0.015625)"/>
      <path id="ArialMT-67" d="M 319 -275 
L 866 -356 
Q 900 -609 1056 -725 
Q 1266 -881 1628 -881 
Q 2019 -881 2231 -725 
Q 2444 -569 2519 -288 
Q 2563 -116 2559 434 
Q 2191 0 1641 0 
Q 956 0 581 494 
Q 206 988 206 1678 
Q 206 2153 378 2554 
Q 550 2956 876 3175 
Q 1203 3394 1644 3394 
Q 2231 3394 2613 2919 
L 2613 3319 
L 3131 3319 
L 3131 450 
Q 3131 -325 2973 -648 
Q 2816 -972 2473 -1159 
Q 2131 -1347 1631 -1347 
Q 1038 -1347 672 -1080 
Q 306 -813 319 -275 
z
M 784 1719 
Q 784 1066 1043 766 
Q 1303 466 1694 466 
Q 2081 466 2343 764 
Q 2606 1063 2606 1700 
Q 2606 2309 2336 2618 
Q 2066 2928 1684 2928 
Q 1309 2928 1046 2623 
Q 784 2319 784 1719 
z
" transform="scale(0.015625)"/>
      <path id="ArialMT-75" d="M 2597 0 
L 2597 488 
Q 2209 -75 1544 -75 
Q 1250 -75 995 37 
Q 741 150 617 320 
Q 494 491 444 738 
Q 409 903 409 1263 
L 409 3319 
L 972 3319 
L 972 1478 
Q 972 1038 1006 884 
Q 1059 663 1231 536 
Q 1403 409 1656 409 
Q 1909 409 2131 539 
Q 2353 669 2445 892 
Q 2538 1116 2538 1541 
L 2538 3319 
L 3100 3319 
L 3100 0 
L 2597 0 
z
" transform="scale(0.015625)"/>
      <path id="ArialMT-70" d="M 422 -1272 
L 422 3319 
L 934 3319 
L 934 2888 
Q 1116 3141 1344 3267 
Q 1572 3394 1897 3394 
Q 2322 3394 2647 3175 
Q 2972 2956 3137 2557 
Q 3303 2159 3303 1684 
Q 3303 1175 3120 767 
Q 2938 359 2589 142 
Q 2241 -75 1856 -75 
Q 1575 -75 1351 44 
Q 1128 163 984 344 
L 984 -1272 
L 422 -1272 
z
M 931 1641 
Q 931 1000 1190 694 
Q 1450 388 1819 388 
Q 2194 388 2461 705 
Q 2728 1022 2728 1688 
Q 2728 2322 2467 2637 
Q 2206 2953 1844 2953 
Q 1484 2953 1207 2617 
Q 931 2281 931 1641 
z
" transform="scale(0.015625)"/>
     </defs>
     <use xlink:href="#ArialMT-47"/>
     <use xlink:href="#ArialMT-42" x="77.783203"/>
     <use xlink:href="#ArialMT-20" x="144.482422"/>
     <use xlink:href="#ArialMT-7c" x="172.265625"/>
     <use xlink:href="#ArialMT-20" x="198.242188"/>
     <use xlink:href="#ArialMT-74" x="226.025391"/>
     <use xlink:href="#ArialMT-61" x="253.808594"/>
     <use xlink:href="#ArialMT-72" x="309.423828"/>
     <use xlink:href="#ArialMT-67" x="342.724609"/>
     <use xlink:href="#ArialMT-65" x="398.339844"/>
     <use xlink:href="#ArialMT-74" x="453.955078"/>
     <use xlink:href="#ArialMT-3a" x="481.738281"/>
     <use xlink:href="#ArialMT-20" x="509.521484"/>
     <use xlink:href="#ArialMT-61" x="537.304688"/>
     <use xlink:href="#ArialMT-75" x="592.919922"/>
     <use xlink:href="#ArialMT-64" x="648.535156"/>
     <use xlink:href="#ArialMT-69" x="704.150391"/>
     <use xlink:href="#ArialMT-74" x="726.367188"/>
     <use xlink:href="#ArialMT-20" x="754.150391"/>
     <use xlink:href="#ArialMT-64" x="781.933594"/>
     <use xlink:href="#ArialMT-65" x="837.548828"/>
     <use xlink:href="#ArialMT-70" x="893.164062"/>
     <use xlink:href="#ArialMT-65" x="948.779297"/>
     <use xlink:href="#ArialMT-6e" x="1004.394531"/>
     <use xlink:href="#ArialMT-64" x="1060.009766"/>
     <use xlink:href="#ArialMT-65" x="1115.625"/>
     <use xlink:href="#ArialMT-6e" x="1171.240234"/>
     <use xlink:href="#ArialMT-63" x="1226.855469"/>
     <use xlink:href="#ArialMT-65" x="1276.855469"/>
     <use xlink:href="#ArialMT-20" x="1332.470703"/>
     <use xlink:href="#ArialMT-6f" x="1360.253906"/>
     <use xlink:href="#ArialMT-6e" x="1415.869141"/>
    </g>
    <!-- predictors: ffmq_nr2 &amp; ffmq_nr3 -->
    <g style="fill: #262626" transform="translate(105.159844 25.32)scale(0.1 -0.1)">
     <defs>
      <path id="ArialMT-73" d="M 197 991 
L 753 1078 
Q 800 744 1014 566 
Q 1228 388 1613 388 
Q 2000 388 2187 545 
Q 2375 703 2375 916 
Q 2375 1106 2209 1216 
Q 2094 1291 1634 1406 
Q 1016 1563 777 1677 
Q 538 1791 414 1992 
Q 291 2194 291 2438 
Q 291 2659 392 2848 
Q 494 3038 669 3163 
Q 800 3259 1026 3326 
Q 1253 3394 1513 3394 
Q 1903 3394 2198 3281 
Q 2494 3169 2634 2976 
Q 2775 2784 2828 2463 
L 2278 2388 
Q 2241 2644 2061 2787 
Q 1881 2931 1553 2931 
Q 1166 2931 1000 2803 
Q 834 2675 834 2503 
Q 834 2394 903 2306 
Q 972 2216 1119 2156 
Q 1203 2125 1616 2013 
Q 2213 1853 2448 1751 
Q 2684 1650 2818 1456 
Q 2953 1263 2953 975 
Q 2953 694 2789 445 
Q 2625 197 2315 61 
Q 2006 -75 1616 -75 
Q 969 -75 630 194 
Q 291 463 197 991 
z
" transform="scale(0.015625)"/>
      <path id="ArialMT-26" d="M 3041 541 
Q 2763 231 2434 76 
Q 2106 -78 1725 -78 
Q 1022 -78 609 397 
Q 275 784 275 1263 
Q 275 1688 548 2030 
Q 822 2372 1366 2631 
Q 1056 2988 953 3209 
Q 850 3431 850 3638 
Q 850 4050 1173 4354 
Q 1497 4659 1988 4659 
Q 2456 4659 2754 4371 
Q 3053 4084 3053 3681 
Q 3053 3028 2188 2566 
L 3009 1519 
Q 3150 1794 3228 2156 
L 3813 2031 
Q 3663 1431 3406 1044 
Q 3722 625 4122 341 
L 3744 -106 
Q 3403 113 3041 541 
z
M 1897 2928 
Q 2263 3144 2370 3306 
Q 2478 3469 2478 3666 
Q 2478 3900 2329 4048 
Q 2181 4197 1959 4197 
Q 1731 4197 1579 4050 
Q 1428 3903 1428 3691 
Q 1428 3584 1483 3467 
Q 1538 3350 1647 3219 
L 1897 2928 
z
M 2688 984 
L 1656 2263 
Q 1200 1991 1040 1758 
Q 881 1525 881 1297 
Q 881 1019 1103 719 
Q 1325 419 1731 419 
Q 1984 419 2254 576 
Q 2525 734 2688 984 
z
" transform="scale(0.015625)"/>
     </defs>
     <use xlink:href="#ArialMT-70"/>
     <use xlink:href="#ArialMT-72" x="55.615234"/>
     <use xlink:href="#ArialMT-65" x="88.916016"/>
     <use xlink:href="#ArialMT-64" x="144.53125"/>
     <use xlink:href="#ArialMT-69" x="200.146484"/>
     <use xlink:href="#ArialMT-63" x="222.363281"/>
     <use xlink:href="#ArialMT-74" x="272.363281"/>
     <use xlink:href="#ArialMT-6f" x="300.146484"/>
     <use xlink:href="#ArialMT-72" x="355.761719"/>
     <use xlink:href="#ArialMT-73" x="389.0625"/>
     <use xlink:href="#ArialMT-3a" x="439.0625"/>
     <use xlink:href="#ArialMT-20" x="466.845703"/>
     <use xlink:href="#ArialMT-66" x="494.628906"/>
     <use xlink:href="#ArialMT-66" x="520.662109"/>
     <use xlink:href="#ArialMT-6d" x="548.445312"/>
     <use xlink:href="#ArialMT-71" x="631.746094"/>
     <use xlink:href="#ArialMT-5f" x="687.361328"/>
     <use xlink:href="#ArialMT-6e" x="742.976562"/>
     <use xlink:href="#ArialMT-72" x="798.591797"/>
     <use xlink:href="#ArialMT-32" x="831.892578"/>
     <use xlink:href="#ArialMT-20" x="887.507812"/>
     <use xlink:href="#ArialMT-26" x="915.291016"/>
     <use xlink:href="#ArialMT-20" x="981.990234"/>
     <use xlink:href="#ArialMT-66" x="1009.773438"/>
     <use xlink:href="#ArialMT-66" x="1035.806641"/>
     <use xlink:href="#ArialMT-6d" x="1063.589844"/>
     <use xlink:href="#ArialMT-71" x="1146.890625"/>
     <use xlink:href="#ArialMT-5f" x="1202.505859"/>
     <use xlink:href="#ArialMT-6e" x="1258.121094"/>
     <use xlink:href="#ArialMT-72" x="1313.736328"/>
     <use xlink:href="#ArialMT-33" x="1347.037109"/>
    </g>
    <!-- Influence (% of audit range) 0.7% -->
    <g style="fill: #262626" transform="translate(101.080938 36.043125)scale(0.1 -0.1)">
     <defs>
      <path id="ArialMT-49" d="M 597 0 
L 597 4581 
L 1203 4581 
L 1203 0 
L 597 0 
z
" transform="scale(0.015625)"/>
      <path id="ArialMT-6c" d="M 409 0 
L 409 4581 
L 972 4581 
L 972 0 
L 409 0 
z
" transform="scale(0.015625)"/>
      <path id="ArialMT-28" d="M 1497 -1347 
Q 1031 -759 709 28 
Q 388 816 388 1659 
Q 388 2403 628 3084 
Q 909 3875 1497 4659 
L 1900 4659 
Q 1522 4009 1400 3731 
Q 1209 3300 1100 2831 
Q 966 2247 966 1656 
Q 966 153 1900 -1347 
L 1497 -1347 
z
" transform="scale(0.015625)"/>
      <path id="ArialMT-25" d="M 372 3481 
Q 372 3972 619 4315 
Q 866 4659 1334 4659 
Q 1766 4659 2048 4351 
Q 2331 4044 2331 3447 
Q 2331 2866 2045 2552 
Q 1759 2238 1341 2238 
Q 925 2238 648 2547 
Q 372 2856 372 3481 
z
M 1350 4272 
Q 1141 4272 1002 4090 
Q 863 3909 863 3425 
Q 863 2984 1003 2804 
Q 1144 2625 1350 2625 
Q 1563 2625 1702 2806 
Q 1841 2988 1841 3469 
Q 1841 3913 1700 4092 
Q 1559 4272 1350 4272 
z
M 1353 -169 
L 3859 4659 
L 4316 4659 
L 1819 -169 
L 1353 -169 
z
M 3334 1075 
Q 3334 1569 3581 1911 
Q 3828 2253 4300 2253 
Q 4731 2253 5014 1945 
Q 5297 1638 5297 1041 
Q 5297 459 5011 145 
Q 4725 -169 4303 -169 
Q 3888 -169 3611 142 
Q 3334 453 3334 1075 
z
M 4316 1866 
Q 4103 1866 3964 1684 
Q 3825 1503 3825 1019 
Q 3825 581 3965 400 
Q 4106 219 4313 219 
Q 4528 219 4667 400 
Q 4806 581 4806 1063 
Q 4806 1506 4665 1686 
Q 4525 1866 4316 1866 
z
" transform="scale(0.015625)"/>
      <path id="ArialMT-29" d="M 791 -1347 
L 388 -1347 
Q 1322 153 1322 1656 
Q 1322 2244 1188 2822 
Q 1081 3291 891 3722 
Q 769 4003 388 4659 
L 791 4659 
Q 1378 3875 1659 3084 
Q 1900 2403 1900 1659 
Q 1900 816 1576 28 
Q 1253 -759 791 -1347 
z
" transform="scale(0.015625)"/>
      <path id="ArialMT-37" d="M 303 3981 
L 303 4522 
L 3269 4522 
L 3269 4084 
Q 2831 3619 2401 2847 
Q 1972 2075 1738 1259 
Q 1569 684 1522 0 
L 944 0 
Q 953 541 1156 1306 
Q 1359 2072 1739 2783 
Q 2119 3494 2547 3981 
L 303 3981 
z
" transform="scale(0.015625)"/>
     </defs>
     <use xlink:href="#ArialMT-49"/>
     <use xlink:href="#ArialMT-6e" x="27.783203"/>
     <use xlink:href="#ArialMT-66" x="83.398438"/>
     <use xlink:href="#ArialMT-6c" x="111.181641"/>
     <use xlink:href="#ArialMT-75" x="133.398438"/>
     <use xlink:href="#ArialMT-65" x="189.013672"/>
     <use xlink:href="#ArialMT-6e" x="244.628906"/>
     <use xlink:href="#ArialMT-63" x="300.244141"/>
     <use xlink:href="#ArialMT-65" x="350.244141"/>
     <use xlink:href="#ArialMT-20" x="405.859375"/>
     <use xlink:href="#ArialMT-28" x="433.642578"/>
     <use xlink:href="#ArialMT-25" x="466.943359"/>
     <use xlink:href="#ArialMT-20" x="555.859375"/>
     <use xlink:href="#ArialMT-6f" x="583.642578"/>
     <use xlink:href="#ArialMT-66" x="639.257812"/>
     <use xlink:href="#ArialMT-20" x="667.041016"/>
     <use xlink:href="#ArialMT-61" x="694.824219"/>
     <use xlink:href="#ArialMT-75" x="750.439453"/>
     <use xlink:href="#ArialMT-64" x="806.054688"/>
     <use xlink:href="#ArialMT-69" x="861.669922"/>
     <use xlink:href="#ArialMT-74" x="883.886719"/>
     <use xlink:href="#ArialMT-20" x="911.669922"/>
     <use xlink:href="#ArialMT-72" x="939.453125"/>
     <use xlink:href="#ArialMT-61" x="972.753906"/>
     <use xlink:href="#ArialMT-6e" x="1028.369141"/>
     <use xlink:href="#ArialMT-67" x="1083.984375"/>
     <use xlink:href="#ArialMT-65" x="1139.599609"/>
     <use xlink:href="#ArialMT-29" x="1195.214844"/>
     <use xlink:href="#ArialMT-20" x="1228.515625"/>
     <use xlink:href="#ArialMT-30" x="1256.298828"/>
     <use xlink:href="#ArialMT-2e" x="1311.914062"/>
     <use xlink:href="#ArialMT-37" x="1339.697266"/>
     <use xlink:href="#ArialMT-25" x="1395.3125"/>
    </g>
   </g>
   <g id="text_22">
    <g clip-path="url(#pe4bad76195)">
     <!-- 5.98 -->
     <g transform="translate(202.482434 147.701158)rotate(-347.60392)scale(0.08 -0.08)">
      <defs>
       <path id="ArialMT-39" d="M 350 1059 
L 891 1109 
Q 959 728 1153 556 
Q 1347 384 1650 384 
Q 1909 384 2104 503 
Q 2300 622 2425 820 
Q 2550 1019 2634 1356 
Q 2719 1694 2719 2044 
Q 2719 2081 2716 2156 
Q 2547 1888 2255 1720 
Q 1963 1553 1622 1553 
Q 1053 1553 659 1965 
Q 266 2378 266 3053 
Q 266 3750 677 4175 
Q 1088 4600 1706 4600 
Q 2153 4600 2523 4359 
Q 2894 4119 3086 3673 
Q 3278 3228 3278 2384 
Q 3278 1506 3087 986 
Q 2897 466 2520 194 
Q 2144 -78 1638 -78 
Q 1100 -78 759 220 
Q 419 519 350 1059 
z
M 2653 3081 
Q 2653 3566 2395 3850 
Q 2138 4134 1775 4134 
Q 1400 4134 1122 3828 
Q 844 3522 844 3034 
Q 844 2597 1108 2323 
Q 1372 2050 1759 2050 
Q 2150 2050 2401 2323 
Q 2653 2597 2653 3081 
z
" transform="scale(0.015625)"/>
       <path id="ArialMT-38" d="M 1131 2484 
Q 781 2613 612 2850 
Q 444 3088 444 3419 
Q 444 3919 803 4259 
Q 1163 4600 1759 4600 
Q 2359 4600 2725 4251 
Q 3091 3903 3091 3403 
Q 3091 3084 2923 2848 
Q 2756 2613 2416 2484 
Q 2838 2347 3058 2040 
Q 3278 1734 3278 1309 
Q 3278 722 2862 322 
Q 2447 -78 1769 -78 
Q 1091 -78 675 323 
Q 259 725 259 1325 
Q 259 1772 486 2073 
Q 713 2375 1131 2484 
z
M 1019 3438 
Q 1019 3113 1228 2906 
Q 1438 2700 1772 2700 
Q 2097 2700 2305 2904 
Q 2513 3109 2513 3406 
Q 2513 3716 2298 3927 
Q 2084 4138 1766 4138 
Q 1444 4138 1231 3931 
Q 1019 3725 1019 3438 
z
M 838 1322 
Q 838 1081 952 856 
Q 1066 631 1291 507 
Q 1516 384 1775 384 
Q 2178 384 2440 643 
Q 2703 903 2703 1303 
Q 2703 1709 2433 1975 
Q 2163 2241 1756 2241 
Q 1359 2241 1098 1978 
Q 838 1716 838 1322 
z
" transform="scale(0.015625)"/>
      </defs>
      <use xlink:href="#ArialMT-35"/>
      <use xlink:href="#ArialMT-2e" x="55.615234"/>
      <use xlink:href="#ArialMT-39" x="83.398438"/>
      <use xlink:href="#ArialMT-38" x="139.013672"/>
     </g>
    </g>
   </g>
   <g id="text_23">
    <g clip-path="url(#pe4bad76195)">
     <!-- 6.00 -->
     <g transform="translate(301.430824 166.41045)rotate(-0.220361)scale(0.08 -0.08)">
      <defs>
       <path id="ArialMT-36" d="M 3184 3459 
L 2625 3416 
Q 2550 3747 2413 3897 
Q 2184 4138 1850 4138 
Q 1581 4138 1378 3988 
Q 1113 3794 959 3422 
Q 806 3050 800 2363 
Q 1003 2672 1297 2822 
Q 1591 2972 1913 2972 
Q 2475 2972 2870 2558 
Q 3266 2144 3266 1488 
Q 3266 1056 3080 686 
Q 2894 316 2569 119 
Q 2244 -78 1831 -78 
Q 1128 -78 684 439 
Q 241 956 241 2144 
Q 241 3472 731 4075 
Q 1159 4600 1884 4600 
Q 2425 4600 2770 4297 
Q 3116 3994 3184 3459 
z
M 888 1484 
Q 888 1194 1011 928 
Q 1134 663 1356 523 
Q 1578 384 1822 384 
Q 2178 384 2434 671 
Q 2691 959 2691 1453 
Q 2691 1928 2437 2201 
Q 2184 2475 1800 2475 
Q 1419 2475 1153 2201 
Q 888 1928 888 1484 
z
" transform="scale(0.015625)"/>
      </defs>
      <use xlink:href="#ArialMT-36"/>
      <use xlink:href="#ArialMT-2e" x="55.615234"/>
      <use xlink:href="#ArialMT-30" x="83.398438"/>
      <use xlink:href="#ArialMT-30" x="139.013672"/>
     </g>
    </g>
   </g>
   <g id="text_24">
    <g clip-path="url(#pe4bad76195)">
     <!-- 6.00 -->
     <g transform="translate(273.225075 88.709856)rotate(-359.887282)scale(0.08 -0.08)">
      <use xlink:href="#ArialMT-36"/>
      <use xlink:href="#ArialMT-2e" x="55.615234"/>
      <use xlink:href="#ArialMT-30" x="83.398438"/>
      <use xlink:href="#ArialMT-30" x="139.013672"/>
     </g>
    </g>
   </g>
   <g id="text_25">
    <g clip-path="url(#pe4bad76195)">
     <!-- 6.02 -->
     <g transform="translate(202.578792 171.772971)rotate(-354.335209)scale(0.08 -0.08)">
      <use xlink:href="#ArialMT-36"/>
      <use xlink:href="#ArialMT-2e" x="55.615234"/>
      <use xlink:href="#ArialMT-30" x="83.398438"/>
      <use xlink:href="#ArialMT-32" x="139.013672"/>
     </g>
    </g>
   </g>
   <g id="text_26">
    <g clip-path="url(#pe4bad76195)">
     <!-- 6.02 -->
     <g transform="translate(301.424524 78.063068)rotate(-0.047348)scale(0.08 -0.08)">
      <use xlink:href="#ArialMT-36"/>
      <use xlink:href="#ArialMT-2e" x="55.615234"/>
      <use xlink:href="#ArialMT-30" x="83.398438"/>
      <use xlink:href="#ArialMT-32" x="139.013672"/>
     </g>
    </g>
   </g>
   <g id="text_27">
    <g clip-path="url(#pe4bad76195)">
     <!-- 6.04 -->
     <g transform="translate(287.333982 184.594396)rotate(-0.220361)scale(0.08 -0.08)">
      <use xlink:href="#ArialMT-36"/>
      <use xlink:href="#ArialMT-2e" x="55.615234"/>
      <use xlink:href="#ArialMT-30" x="83.398438"/>
      <use xlink:href="#ArialMT-34" x="139.013672"/>
     </g>
    </g>
   </g>
   <g id="text_28">
    <g clip-path="url(#pe4bad76195)">
     <!-- 6.04 -->
     <g transform="translate(33.39659 71.013207)rotate(-353.394731)scale(0.08 -0.08)">
      <use xlink:href="#ArialMT-36"/>
      <use xlink:href="#ArialMT-2e" x="55.615234"/>
      <use xlink:href="#ArialMT-30" x="83.398438"/>
      <use xlink:href="#ArialMT-34" x="139.013672"/>
     </g>
    </g>
   </g>
   <g id="text_29">
    <g clip-path="url(#pe4bad76195)">
     <!-- 6.06 -->
     <g transform="translate(216.674245 191.276538)rotate(-354.273288)scale(0.08 -0.08)">
      <use xlink:href="#ArialMT-36"/>
      <use xlink:href="#ArialMT-2e" x="55.615234"/>
      <use xlink:href="#ArialMT-30" x="83.398438"/>
      <use xlink:href="#ArialMT-36" x="139.013672"/>
     </g>
    </g>
   </g>
   <g id="text_30">
    <g clip-path="url(#pe4bad76195)">
     <!-- 6.06 -->
     <g transform="translate(118.294248 68.567954)rotate(-3.264056)scale(0.08 -0.08)">
      <use xlink:href="#ArialMT-36"/>
      <use xlink:href="#ArialMT-2e" x="55.615234"/>
      <use xlink:href="#ArialMT-30" x="83.398438"/>
      <use xlink:href="#ArialMT-36" x="139.013672"/>
     </g>
    </g>
   </g>
   <g id="text_31">
    <g clip-path="url(#pe4bad76195)">
     <!-- 6.08 -->
     <g transform="translate(301.430824 202.669909)rotate(-0.220361)scale(0.08 -0.08)">
      <use xlink:href="#ArialMT-36"/>
      <use xlink:href="#ArialMT-2e" x="55.615234"/>
      <use xlink:href="#ArialMT-30" x="83.398438"/>
      <use xlink:href="#ArialMT-38" x="139.013672"/>
     </g>
    </g>
   </g>
   <g id="text_32">
    <g clip-path="url(#pe4bad76195)">
     <!-- 6.08 -->
     <g transform="translate(33.393967 49.844537)rotate(-353.264013)scale(0.08 -0.08)">
      <use xlink:href="#ArialMT-36"/>
      <use xlink:href="#ArialMT-2e" x="55.615234"/>
      <use xlink:href="#ArialMT-30" x="83.398438"/>
      <use xlink:href="#ArialMT-38" x="139.013672"/>
     </g>
    </g>
   </g>
   <g id="text_33">
    <g clip-path="url(#pe4bad76195)">
     <!-- 6.10 -->
     <g transform="translate(216.602297 213.017665)rotate(-350.11583)scale(0.08 -0.08)">
      <use xlink:href="#ArialMT-36"/>
      <use xlink:href="#ArialMT-2e" x="55.615234"/>
      <use xlink:href="#ArialMT-31" x="83.398438"/>
      <use xlink:href="#ArialMT-30" x="139.013672"/>
     </g>
    </g>
   </g>
   <g id="text_34">
    <g clip-path="url(#pe4bad76195)">
     <!-- 6.10 -->
     <g transform="translate(118.293359 47.574993)rotate(-3.243743)scale(0.08 -0.08)">
      <use xlink:href="#ArialMT-36"/>
      <use xlink:href="#ArialMT-2e" x="55.615234"/>
      <use xlink:href="#ArialMT-31" x="83.398438"/>
      <use xlink:href="#ArialMT-30" x="139.013672"/>
     </g>
    </g>
   </g>
   <g id="text_35">
    <g clip-path="url(#pe4bad76195)">
     <!-- 6.12 -->
     <g transform="translate(202.479337 229.387336)rotate(-347.028661)scale(0.08 -0.08)">
      <use xlink:href="#ArialMT-36"/>
      <use xlink:href="#ArialMT-2e" x="55.615234"/>
      <use xlink:href="#ArialMT-31" x="83.398438"/>
      <use xlink:href="#ArialMT-32" x="139.013672"/>
     </g>
    </g>
   </g>
   <g id="text_36">
    <g clip-path="url(#pe4bad76195)">
     <!-- 6.14 -->
     <g transform="translate(202.478938 249.845226)rotate(-346.941325)scale(0.08 -0.08)">
      <use xlink:href="#ArialMT-36"/>
      <use xlink:href="#ArialMT-2e" x="55.615234"/>
      <use xlink:href="#ArialMT-31" x="83.398438"/>
      <use xlink:href="#ArialMT-34" x="139.013672"/>
     </g>
    </g>
   </g>
   <g id="text_37">
    <g clip-path="url(#pe4bad76195)">
     <!-- 6.16 -->
     <g transform="translate(104.009495 251.183976)rotate(-358.312459)scale(0.08 -0.08)">
      <use xlink:href="#ArialMT-36"/>
      <use xlink:href="#ArialMT-2e" x="55.615234"/>
      <use xlink:href="#ArialMT-31" x="83.398438"/>
      <use xlink:href="#ArialMT-36" x="139.013672"/>
     </g>
    </g>
   </g>
  </g>
  <g id="axes_2">
   <g id="patch_7">
    <path d="M 325.947188 259.483125 
L 336.819188 259.483125 
L 336.819188 42.043125 
L 325.947188 42.043125 
z
" style="fill: #eaeaf2"/>
   </g>
   <g id="patch_8">
    <path clip-path="url(#p27967d9f46)" style="fill: #eaeaf2; stroke: #eaeaf2; stroke-width: 0.01; stroke-linejoin: miter"/>
   </g>
   <g id="matplotlib.axis_3">
    <g id="ytick_10">
     <g id="line2d_19">
      <defs>
       <path id="m89a4470aeb" d="M 0 0 
L 3.5 0 
" style="stroke: #262626; stroke-width: 0.8"/>
      </defs>
      <g>
       <use xlink:href="#m89a4470aeb" x="336.819188" y="259.483125" style="fill: #262626; stroke: #262626; stroke-width: 0.8"/>
      </g>
     </g>
     <g id="text_38">
      <!-- 5.96 -->
      <g style="fill: #262626" transform="translate(343.819188 263.062031)scale(0.1 -0.1)">
       <use xlink:href="#ArialMT-35"/>
       <use xlink:href="#ArialMT-2e" x="55.615234"/>
       <use xlink:href="#ArialMT-39" x="83.398438"/>
       <use xlink:href="#ArialMT-36" x="139.013672"/>
      </g>
     </g>
    </g>
    <g id="ytick_11">
     <g id="line2d_20">
      <g>
       <use xlink:href="#m89a4470aeb" x="336.819188" y="219.94858" style="fill: #262626; stroke: #262626; stroke-width: 0.8"/>
      </g>
     </g>
     <g id="text_39">
      <!-- 6.00 -->
      <g style="fill: #262626" transform="translate(343.819188 223.527486)scale(0.1 -0.1)">
       <use xlink:href="#ArialMT-36"/>
       <use xlink:href="#ArialMT-2e" x="55.615234"/>
       <use xlink:href="#ArialMT-30" x="83.398438"/>
       <use xlink:href="#ArialMT-30" x="139.013672"/>
      </g>
     </g>
    </g>
    <g id="ytick_12">
     <g id="line2d_21">
      <g>
       <use xlink:href="#m89a4470aeb" x="336.819188" y="180.414034" style="fill: #262626; stroke: #262626; stroke-width: 0.8"/>
      </g>
     </g>
     <g id="text_40">
      <!-- 6.04 -->
      <g style="fill: #262626" transform="translate(343.819188 183.99294)scale(0.1 -0.1)">
       <use xlink:href="#ArialMT-36"/>
       <use xlink:href="#ArialMT-2e" x="55.615234"/>
       <use xlink:href="#ArialMT-30" x="83.398438"/>
       <use xlink:href="#ArialMT-34" x="139.013672"/>
      </g>
     </g>
    </g>
    <g id="ytick_13">
     <g id="line2d_22">
      <g>
       <use xlink:href="#m89a4470aeb" x="336.819188" y="140.879489" style="fill: #262626; stroke: #262626; stroke-width: 0.8"/>
      </g>
     </g>
     <g id="text_41">
      <!-- 6.08 -->
      <g style="fill: #262626" transform="translate(343.819188 144.458395)scale(0.1 -0.1)">
       <use xlink:href="#ArialMT-36"/>
       <use xlink:href="#ArialMT-2e" x="55.615234"/>
       <use xlink:href="#ArialMT-30" x="83.398438"/>
       <use xlink:href="#ArialMT-38" x="139.013672"/>
      </g>
     </g>
    </g>
    <g id="ytick_14">
     <g id="line2d_23">
      <g>
       <use xlink:href="#m89a4470aeb" x="336.819188" y="101.344943" style="fill: #262626; stroke: #262626; stroke-width: 0.8"/>
      </g>
     </g>
     <g id="text_42">
      <!-- 6.12 -->
      <g style="fill: #262626" transform="translate(343.819188 104.923849)scale(0.1 -0.1)">
       <use xlink:href="#ArialMT-36"/>
       <use xlink:href="#ArialMT-2e" x="55.615234"/>
       <use xlink:href="#ArialMT-31" x="83.398438"/>
       <use xlink:href="#ArialMT-32" x="139.013672"/>
      </g>
     </g>
    </g>
    <g id="ytick_15">
     <g id="line2d_24">
      <g>
       <use xlink:href="#m89a4470aeb" x="336.819188" y="61.810398" style="fill: #262626; stroke: #262626; stroke-width: 0.8"/>
      </g>
     </g>
     <g id="text_43">
      <!-- 6.16 -->
      <g style="fill: #262626" transform="translate(343.819188 65.389304)scale(0.1 -0.1)">
       <use xlink:href="#ArialMT-36"/>
       <use xlink:href="#ArialMT-2e" x="55.615234"/>
       <use xlink:href="#ArialMT-31" x="83.398438"/>
       <use xlink:href="#ArialMT-36" x="139.013672"/>
      </g>
     </g>
    </g>
   </g>
   <g id="QuadMesh_1">
    <path d="M 325.947188 259.483125 
L 336.819188 259.483125 
L 336.819188 239.715852 
L 325.947188 239.715852 
L 325.947188 259.483125 
" clip-path="url(#p27967d9f46)" style="fill: #485fd1"/>
    <path d="M 325.947188 239.715852 
L 336.819188 239.715852 
L 336.819188 219.94858 
L 325.947188 219.94858 
L 325.947188 239.715852 
" clip-path="url(#p27967d9f46)" style="fill: #6485ec"/>
    <path d="M 325.947188 219.94858 
L 336.819188 219.94858 
L 336.819188 200.181307 
L 325.947188 200.181307 
L 325.947188 219.94858 
" clip-path="url(#p27967d9f46)" style="fill: #85a8fc"/>
    <path d="M 325.947188 200.181307 
L 336.819188 200.181307 
L 336.819188 180.414034 
L 325.947188 180.414034 
L 325.947188 200.181307 
" clip-path="url(#p27967d9f46)" style="fill: #a5c3fe"/>
    <path d="M 325.947188 180.414034 
L 336.819188 180.414034 
L 336.819188 160.646761 
L 325.947188 160.646761 
L 325.947188 180.414034 
" clip-path="url(#p27967d9f46)" style="fill: #c3d5f4"/>
    <path d="M 325.947188 160.646761 
L 336.819188 160.646761 
L 336.819188 140.879489 
L 325.947188 140.879489 
L 325.947188 160.646761 
" clip-path="url(#p27967d9f46)" style="fill: #dddcdc"/>
    <path d="M 325.947188 140.879489 
L 336.819188 140.879489 
L 336.819188 121.112216 
L 325.947188 121.112216 
L 325.947188 140.879489 
" clip-path="url(#p27967d9f46)" style="fill: #f1cdba"/>
    <path d="M 325.947188 121.112216 
L 336.819188 121.112216 
L 336.819188 101.344943 
L 325.947188 101.344943 
L 325.947188 121.112216 
" clip-path="url(#p27967d9f46)" style="fill: #f7b396"/>
    <path d="M 325.947188 101.344943 
L 336.819188 101.344943 
L 336.819188 81.57767 
L 325.947188 81.57767 
L 325.947188 101.344943 
" clip-path="url(#p27967d9f46)" style="fill: #f29072"/>
    <path d="M 325.947188 81.57767 
L 336.819188 81.57767 
L 336.819188 61.810398 
L 325.947188 61.810398 
L 325.947188 81.57767 
" clip-path="url(#p27967d9f46)" style="fill: #e0654f"/>
    <path d="M 325.947188 61.810398 
L 336.819188 61.810398 
L 336.819188 42.043125 
L 325.947188 42.043125 
L 325.947188 61.810398 
" clip-path="url(#p27967d9f46)" style="fill: #c43032"/>
   </g>
   <g id="LineCollection_1"/>
   <g id="patch_9">
    <path d="M 325.947188 259.483125 
L 331.383188 259.483125 
L 336.819188 259.483125 
L 336.819188 42.043125 
L 331.383188 42.043125 
L 325.947188 42.043125 
L 325.947188 259.483125 
z
" style="fill: none; stroke: #ffffff; stroke-width: 0.8; stroke-linejoin: miter; stroke-linecap: square"/>
   </g>
  </g>
 </g>
 <defs>
  <clipPath id="pe4bad76195">
   <rect x="41.367188" y="42.043125" width="267.84" height="217.44"/>
  </clipPath>
  <clipPath id="p27967d9f46">
   <rect x="325.947188" y="42.043125" width="10.872" height="217.44"/>
  </clipPath>
 </defs>
</svg>
