<?xml version="1.0" encoding="utf-8" standalone="no"?>
<!DOCTYPE svg PUBLIC "-//W3C//DTD SVG 1.1//EN"
  "http://www.w3.org/Graphics/SVG/1.1/DTD/svg11.dtd">
<svg xmlns:xlink="http://www.w3.org/1999/xlink" width="375.948875pt" height="295.97375pt" viewBox="0 0 375.948875 295.97375" xmlns="http://www.w3.org/2000/svg" version="1.1">
 <metadata>
  <rdf:RDF xmlns:dc="http://purl.org/dc/elements/1.1/" xmlns:cc="http://creativecommons.org/ns#" xmlns:rdf="http://www.w3.org/1999/02/22-rdf-syntax-ns#">
   <cc:Work>
    <dc:type rdf:resource="http://purl.org/dc/dcmitype/StillImage"/>
    <dc:date>2022-04-26T09:25:04.810754</dc:date>
    <dc:format>image/svg+xml</dc:format>
    <dc:creator>
     <cc:Agent>
      <dc:title>Matplotlib v3.5.1, https://matplotlib.org/</dc:title>
     </cc:Agent>
    </dc:creator>
   </cc:Work>
  </rdf:RDF>
 </metadata>
 <defs>
  <style type="text/css">*{stroke-linejoin: round; stroke-linecap: butt}</style>
 </defs>
 <g id="figure_1">
  <g id="patch_1">
   <path d="M 0 295.97375 
L 375.948875 295.97375 
L 375.948875 0 
L 0 0 
z
" style="fill: #ffffff"/>
  </g>
  <g id="axes_1">
   <g id="patch_2">
    <path d="M 41.275 259.483125 
L 309.115 259.483125 
L 309.115 42.043125 
L 41.275 42.043125 
z
" style="fill: #eaeaf2"/>
   </g>
   <g id="matplotlib.axis_1">
    <g id="xtick_1">
     <g id="line2d_1">
      <path d="M 41.275 259.483125 
L 41.275 42.043125 
" clip-path="url(#pa56599b98f)" style="fill: none; stroke: #ffffff; stroke-width: 0.8; stroke-linecap: round"/>
     </g>
     <g id="text_1">
      <!-- 1.0 -->
      <g style="fill: #262626" transform="translate(34.325 273.640938)scale(0.1 -0.1)">
       <defs>
        <path id="ArialMT-31" d="M 2384 0 
L 1822 0 
L 1822 3584 
Q 1619 3391 1289 3197 
Q 959 3003 697 2906 
L 697 3450 
Q 1169 3672 1522 3987 
Q 1875 4303 2022 4600 
L 2384 4600 
L 2384 0 
z
" transform="scale(0.015625)"/>
        <path id="ArialMT-2e" d="M 581 0 
L 581 641 
L 1222 641 
L 1222 0 
L 581 0 
z
" transform="scale(0.015625)"/>
        <path id="ArialMT-30" d="M 266 2259 
Q 266 3072 433 3567 
Q 600 4063 929 4331 
Q 1259 4600 1759 4600 
Q 2128 4600 2406 4451 
Q 2684 4303 2865 4023 
Q 3047 3744 3150 3342 
Q 3253 2941 3253 2259 
Q 3253 1453 3087 958 
Q 2922 463 2592 192 
Q 2263 -78 1759 -78 
Q 1097 -78 719 397 
Q 266 969 266 2259 
z
M 844 2259 
Q 844 1131 1108 757 
Q 1372 384 1759 384 
Q 2147 384 2411 759 
Q 2675 1134 2675 2259 
Q 2675 3391 2411 3762 
Q 2147 4134 1753 4134 
Q 1366 4134 1134 3806 
Q 844 3388 844 2259 
z
" transform="scale(0.015625)"/>
       </defs>
       <use xlink:href="#ArialMT-31"/>
       <use xlink:href="#ArialMT-2e" x="55.615234"/>
       <use xlink:href="#ArialMT-30" x="83.398438"/>
      </g>
     </g>
    </g>
    <g id="xtick_2">
     <g id="line2d_2">
      <path d="M 85.915 259.483125 
L 85.915 42.043125 
" clip-path="url(#pa56599b98f)" style="fill: none; stroke: #ffffff; stroke-width: 0.8; stroke-linecap: round"/>
     </g>
     <g id="text_2">
      <!-- 1.5 -->
      <g style="fill: #262626" transform="translate(78.965 273.640938)scale(0.1 -0.1)">
       <defs>
        <path id="ArialMT-35" d="M 266 1200 
L 856 1250 
Q 922 819 1161 601 
Q 1400 384 1738 384 
Q 2144 384 2425 690 
Q 2706 997 2706 1503 
Q 2706 1984 2436 2262 
Q 2166 2541 1728 2541 
Q 1456 2541 1237 2417 
Q 1019 2294 894 2097 
L 366 2166 
L 809 4519 
L 3088 4519 
L 3088 3981 
L 1259 3981 
L 1013 2750 
Q 1425 3038 1878 3038 
Q 2478 3038 2890 2622 
Q 3303 2206 3303 1553 
Q 3303 931 2941 478 
Q 2500 -78 1738 -78 
Q 1113 -78 717 272 
Q 322 622 266 1200 
z
" transform="scale(0.015625)"/>
       </defs>
       <use xlink:href="#ArialMT-31"/>
       <use xlink:href="#ArialMT-2e" x="55.615234"/>
       <use xlink:href="#ArialMT-35" x="83.398438"/>
      </g>
     </g>
    </g>
    <g id="xtick_3">
     <g id="line2d_3">
      <path d="M 130.555 259.483125 
L 130.555 42.043125 
" clip-path="url(#pa56599b98f)" style="fill: none; stroke: #ffffff; stroke-width: 0.8; stroke-linecap: round"/>
     </g>
     <g id="text_3">
      <!-- 2.0 -->
      <g style="fill: #262626" transform="translate(123.605 273.640938)scale(0.1 -0.1)">
       <defs>
        <path id="ArialMT-32" d="M 3222 541 
L 3222 0 
L 194 0 
Q 188 203 259 391 
Q 375 700 629 1000 
Q 884 1300 1366 1694 
Q 2113 2306 2375 2664 
Q 2638 3022 2638 3341 
Q 2638 3675 2398 3904 
Q 2159 4134 1775 4134 
Q 1369 4134 1125 3890 
Q 881 3647 878 3216 
L 300 3275 
Q 359 3922 746 4261 
Q 1134 4600 1788 4600 
Q 2447 4600 2831 4234 
Q 3216 3869 3216 3328 
Q 3216 3053 3103 2787 
Q 2991 2522 2730 2228 
Q 2469 1934 1863 1422 
Q 1356 997 1212 845 
Q 1069 694 975 541 
L 3222 541 
z
" transform="scale(0.015625)"/>
       </defs>
       <use xlink:href="#ArialMT-32"/>
       <use xlink:href="#ArialMT-2e" x="55.615234"/>
       <use xlink:href="#ArialMT-30" x="83.398438"/>
      </g>
     </g>
    </g>
    <g id="xtick_4">
     <g id="line2d_4">
      <path d="M 175.195 259.483125 
L 175.195 42.043125 
" clip-path="url(#pa56599b98f)" style="fill: none; stroke: #ffffff; stroke-width: 0.8; stroke-linecap: round"/>
     </g>
     <g id="text_4">
      <!-- 2.5 -->
      <g style="fill: #262626" transform="translate(168.245 273.640938)scale(0.1 -0.1)">
       <use xlink:href="#ArialMT-32"/>
       <use xlink:href="#ArialMT-2e" x="55.615234"/>
       <use xlink:href="#ArialMT-35" x="83.398438"/>
      </g>
     </g>
    </g>
    <g id="xtick_5">
     <g id="line2d_5">
      <path d="M 219.835 259.483125 
L 219.835 42.043125 
" clip-path="url(#pa56599b98f)" style="fill: none; stroke: #ffffff; stroke-width: 0.8; stroke-linecap: round"/>
     </g>
     <g id="text_5">
      <!-- 3.0 -->
      <g style="fill: #262626" transform="translate(212.885 273.640938)scale(0.1 -0.1)">
       <defs>
        <path id="ArialMT-33" d="M 269 1209 
L 831 1284 
Q 928 806 1161 595 
Q 1394 384 1728 384 
Q 2125 384 2398 659 
Q 2672 934 2672 1341 
Q 2672 1728 2419 1979 
Q 2166 2231 1775 2231 
Q 1616 2231 1378 2169 
L 1441 2663 
Q 1497 2656 1531 2656 
Q 1891 2656 2178 2843 
Q 2466 3031 2466 3422 
Q 2466 3731 2256 3934 
Q 2047 4138 1716 4138 
Q 1388 4138 1169 3931 
Q 950 3725 888 3313 
L 325 3413 
Q 428 3978 793 4289 
Q 1159 4600 1703 4600 
Q 2078 4600 2393 4439 
Q 2709 4278 2876 4000 
Q 3044 3722 3044 3409 
Q 3044 3113 2884 2869 
Q 2725 2625 2413 2481 
Q 2819 2388 3044 2092 
Q 3269 1797 3269 1353 
Q 3269 753 2831 336 
Q 2394 -81 1725 -81 
Q 1122 -81 723 278 
Q 325 638 269 1209 
z
" transform="scale(0.015625)"/>
       </defs>
       <use xlink:href="#ArialMT-33"/>
       <use xlink:href="#ArialMT-2e" x="55.615234"/>
       <use xlink:href="#ArialMT-30" x="83.398438"/>
      </g>
     </g>
    </g>
    <g id="xtick_6">
     <g id="line2d_6">
      <path d="M 264.475 259.483125 
L 264.475 42.043125 
" clip-path="url(#pa56599b98f)" style="fill: none; stroke: #ffffff; stroke-width: 0.8; stroke-linecap: round"/>
     </g>
     <g id="text_6">
      <!-- 3.5 -->
      <g style="fill: #262626" transform="translate(257.525 273.640938)scale(0.1 -0.1)">
       <use xlink:href="#ArialMT-33"/>
       <use xlink:href="#ArialMT-2e" x="55.615234"/>
       <use xlink:href="#ArialMT-35" x="83.398438"/>
      </g>
     </g>
    </g>
    <g id="xtick_7">
     <g id="line2d_7">
      <path d="M 309.115 259.483125 
L 309.115 42.043125 
" clip-path="url(#pa56599b98f)" style="fill: none; stroke: #ffffff; stroke-width: 0.8; stroke-linecap: round"/>
     </g>
     <g id="text_7">
      <!-- 4.0 -->
      <g style="fill: #262626" transform="translate(302.165 273.640938)scale(0.1 -0.1)">
       <defs>
        <path id="ArialMT-34" d="M 2069 0 
L 2069 1097 
L 81 1097 
L 81 1613 
L 2172 4581 
L 2631 4581 
L 2631 1613 
L 3250 1613 
L 3250 1097 
L 2631 1097 
L 2631 0 
L 2069 0 
z
M 2069 1613 
L 2069 3678 
L 634 1613 
L 2069 1613 
z
" transform="scale(0.015625)"/>
       </defs>
       <use xlink:href="#ArialMT-34"/>
       <use xlink:href="#ArialMT-2e" x="55.615234"/>
       <use xlink:href="#ArialMT-30" x="83.398438"/>
      </g>
     </g>
    </g>
    <g id="text_8">
     <!-- Predictor: upps_pe_4 -->
     <g style="fill: #262626" transform="translate(127.666875 286.78625)scale(0.1 -0.1)">
      <defs>
       <path id="ArialMT-50" d="M 494 0 
L 494 4581 
L 2222 4581 
Q 2678 4581 2919 4538 
Q 3256 4481 3484 4323 
Q 3713 4166 3852 3881 
Q 3991 3597 3991 3256 
Q 3991 2672 3619 2267 
Q 3247 1863 2275 1863 
L 1100 1863 
L 1100 0 
L 494 0 
z
M 1100 2403 
L 2284 2403 
Q 2872 2403 3119 2622 
Q 3366 2841 3366 3238 
Q 3366 3525 3220 3729 
Q 3075 3934 2838 4000 
Q 2684 4041 2272 4041 
L 1100 4041 
L 1100 2403 
z
" transform="scale(0.015625)"/>
       <path id="ArialMT-72" d="M 416 0 
L 416 3319 
L 922 3319 
L 922 2816 
Q 1116 3169 1280 3281 
Q 1444 3394 1641 3394 
Q 1925 3394 2219 3213 
L 2025 2691 
Q 1819 2813 1613 2813 
Q 1428 2813 1281 2702 
Q 1134 2591 1072 2394 
Q 978 2094 978 1738 
L 978 0 
L 416 0 
z
" transform="scale(0.015625)"/>
       <path id="ArialMT-65" d="M 2694 1069 
L 3275 997 
Q 3138 488 2766 206 
Q 2394 -75 1816 -75 
Q 1088 -75 661 373 
Q 234 822 234 1631 
Q 234 2469 665 2931 
Q 1097 3394 1784 3394 
Q 2450 3394 2872 2941 
Q 3294 2488 3294 1666 
Q 3294 1616 3291 1516 
L 816 1516 
Q 847 969 1125 678 
Q 1403 388 1819 388 
Q 2128 388 2347 550 
Q 2566 713 2694 1069 
z
M 847 1978 
L 2700 1978 
Q 2663 2397 2488 2606 
Q 2219 2931 1791 2931 
Q 1403 2931 1139 2672 
Q 875 2413 847 1978 
z
" transform="scale(0.015625)"/>
       <path id="ArialMT-64" d="M 2575 0 
L 2575 419 
Q 2259 -75 1647 -75 
Q 1250 -75 917 144 
Q 584 363 401 755 
Q 219 1147 219 1656 
Q 219 2153 384 2558 
Q 550 2963 881 3178 
Q 1213 3394 1622 3394 
Q 1922 3394 2156 3267 
Q 2391 3141 2538 2938 
L 2538 4581 
L 3097 4581 
L 3097 0 
L 2575 0 
z
M 797 1656 
Q 797 1019 1065 703 
Q 1334 388 1700 388 
Q 2069 388 2326 689 
Q 2584 991 2584 1609 
Q 2584 2291 2321 2609 
Q 2059 2928 1675 2928 
Q 1300 2928 1048 2622 
Q 797 2316 797 1656 
z
" transform="scale(0.015625)"/>
       <path id="ArialMT-69" d="M 425 3934 
L 425 4581 
L 988 4581 
L 988 3934 
L 425 3934 
z
M 425 0 
L 425 3319 
L 988 3319 
L 988 0 
L 425 0 
z
" transform="scale(0.015625)"/>
       <path id="ArialMT-63" d="M 2588 1216 
L 3141 1144 
Q 3050 572 2676 248 
Q 2303 -75 1759 -75 
Q 1078 -75 664 370 
Q 250 816 250 1647 
Q 250 2184 428 2587 
Q 606 2991 970 3192 
Q 1334 3394 1763 3394 
Q 2303 3394 2647 3120 
Q 2991 2847 3088 2344 
L 2541 2259 
Q 2463 2594 2264 2762 
Q 2066 2931 1784 2931 
Q 1359 2931 1093 2626 
Q 828 2322 828 1663 
Q 828 994 1084 691 
Q 1341 388 1753 388 
Q 2084 388 2306 591 
Q 2528 794 2588 1216 
z
" transform="scale(0.015625)"/>
       <path id="ArialMT-74" d="M 1650 503 
L 1731 6 
Q 1494 -44 1306 -44 
Q 1000 -44 831 53 
Q 663 150 594 308 
Q 525 466 525 972 
L 525 2881 
L 113 2881 
L 113 3319 
L 525 3319 
L 525 4141 
L 1084 4478 
L 1084 3319 
L 1650 3319 
L 1650 2881 
L 1084 2881 
L 1084 941 
Q 1084 700 1114 631 
Q 1144 563 1211 522 
Q 1278 481 1403 481 
Q 1497 481 1650 503 
z
" transform="scale(0.015625)"/>
       <path id="ArialMT-6f" d="M 213 1659 
Q 213 2581 725 3025 
Q 1153 3394 1769 3394 
Q 2453 3394 2887 2945 
Q 3322 2497 3322 1706 
Q 3322 1066 3130 698 
Q 2938 331 2570 128 
Q 2203 -75 1769 -75 
Q 1072 -75 642 372 
Q 213 819 213 1659 
z
M 791 1659 
Q 791 1022 1069 705 
Q 1347 388 1769 388 
Q 2188 388 2466 706 
Q 2744 1025 2744 1678 
Q 2744 2294 2464 2611 
Q 2184 2928 1769 2928 
Q 1347 2928 1069 2612 
Q 791 2297 791 1659 
z
" transform="scale(0.015625)"/>
       <path id="ArialMT-3a" d="M 578 2678 
L 578 3319 
L 1219 3319 
L 1219 2678 
L 578 2678 
z
M 578 0 
L 578 641 
L 1219 641 
L 1219 0 
L 578 0 
z
" transform="scale(0.015625)"/>
       <path id="ArialMT-20" transform="scale(0.015625)"/>
       <path id="ArialMT-75" d="M 2597 0 
L 2597 488 
Q 2209 -75 1544 -75 
Q 1250 -75 995 37 
Q 741 150 617 320 
Q 494 491 444 738 
Q 409 903 409 1263 
L 409 3319 
L 972 3319 
L 972 1478 
Q 972 1038 1006 884 
Q 1059 663 1231 536 
Q 1403 409 1656 409 
Q 1909 409 2131 539 
Q 2353 669 2445 892 
Q 2538 1116 2538 1541 
L 2538 3319 
L 3100 3319 
L 3100 0 
L 2597 0 
z
" transform="scale(0.015625)"/>
       <path id="ArialMT-70" d="M 422 -1272 
L 422 3319 
L 934 3319 
L 934 2888 
Q 1116 3141 1344 3267 
Q 1572 3394 1897 3394 
Q 2322 3394 2647 3175 
Q 2972 2956 3137 2557 
Q 3303 2159 3303 1684 
Q 3303 1175 3120 767 
Q 2938 359 2589 142 
Q 2241 -75 1856 -75 
Q 1575 -75 1351 44 
Q 1128 163 984 344 
L 984 -1272 
L 422 -1272 
z
M 931 1641 
Q 931 1000 1190 694 
Q 1450 388 1819 388 
Q 2194 388 2461 705 
Q 2728 1022 2728 1688 
Q 2728 2322 2467 2637 
Q 2206 2953 1844 2953 
Q 1484 2953 1207 2617 
Q 931 2281 931 1641 
z
" transform="scale(0.015625)"/>
       <path id="ArialMT-73" d="M 197 991 
L 753 1078 
Q 800 744 1014 566 
Q 1228 388 1613 388 
Q 2000 388 2187 545 
Q 2375 703 2375 916 
Q 2375 1106 2209 1216 
Q 2094 1291 1634 1406 
Q 1016 1563 777 1677 
Q 538 1791 414 1992 
Q 291 2194 291 2438 
Q 291 2659 392 2848 
Q 494 3038 669 3163 
Q 800 3259 1026 3326 
Q 1253 3394 1513 3394 
Q 1903 3394 2198 3281 
Q 2494 3169 2634 2976 
Q 2775 2784 2828 2463 
L 2278 2388 
Q 2241 2644 2061 2787 
Q 1881 2931 1553 2931 
Q 1166 2931 1000 2803 
Q 834 2675 834 2503 
Q 834 2394 903 2306 
Q 972 2216 1119 2156 
Q 1203 2125 1616 2013 
Q 2213 1853 2448 1751 
Q 2684 1650 2818 1456 
Q 2953 1263 2953 975 
Q 2953 694 2789 445 
Q 2625 197 2315 61 
Q 2006 -75 1616 -75 
Q 969 -75 630 194 
Q 291 463 197 991 
z
" transform="scale(0.015625)"/>
       <path id="ArialMT-5f" d="M -97 -1272 
L -97 -866 
L 3631 -866 
L 3631 -1272 
L -97 -1272 
z
" transform="scale(0.015625)"/>
      </defs>
      <use xlink:href="#ArialMT-50"/>
      <use xlink:href="#ArialMT-72" x="66.699219"/>
      <use xlink:href="#ArialMT-65" x="100"/>
      <use xlink:href="#ArialMT-64" x="155.615234"/>
      <use xlink:href="#ArialMT-69" x="211.230469"/>
      <use xlink:href="#ArialMT-63" x="233.447266"/>
      <use xlink:href="#ArialMT-74" x="283.447266"/>
      <use xlink:href="#ArialMT-6f" x="311.230469"/>
      <use xlink:href="#ArialMT-72" x="366.845703"/>
      <use xlink:href="#ArialMT-3a" x="400.146484"/>
      <use xlink:href="#ArialMT-20" x="427.929688"/>
      <use xlink:href="#ArialMT-75" x="455.712891"/>
      <use xlink:href="#ArialMT-70" x="511.328125"/>
      <use xlink:href="#ArialMT-70" x="566.943359"/>
      <use xlink:href="#ArialMT-73" x="622.558594"/>
      <use xlink:href="#ArialMT-5f" x="672.558594"/>
      <use xlink:href="#ArialMT-70" x="728.173828"/>
      <use xlink:href="#ArialMT-65" x="783.789062"/>
      <use xlink:href="#ArialMT-5f" x="839.404297"/>
      <use xlink:href="#ArialMT-34" x="895.019531"/>
     </g>
    </g>
   </g>
   <g id="matplotlib.axis_2">
    <g id="ytick_1">
     <g id="line2d_8">
      <path d="M 41.275 259.483125 
L 309.115 259.483125 
" clip-path="url(#pa56599b98f)" style="fill: none; stroke: #ffffff; stroke-width: 0.8; stroke-linecap: round"/>
     </g>
     <g id="text_9">
      <!-- 1.0 -->
      <g style="fill: #262626" transform="translate(20.375 263.062031)scale(0.1 -0.1)">
       <use xlink:href="#ArialMT-31"/>
       <use xlink:href="#ArialMT-2e" x="55.615234"/>
       <use xlink:href="#ArialMT-30" x="83.398438"/>
      </g>
     </g>
    </g>
    <g id="ytick_2">
     <g id="line2d_9">
      <path d="M 41.275 223.243125 
L 309.115 223.243125 
" clip-path="url(#pa56599b98f)" style="fill: none; stroke: #ffffff; stroke-width: 0.8; stroke-linecap: round"/>
     </g>
     <g id="text_10">
      <!-- 1.5 -->
      <g style="fill: #262626" transform="translate(20.375 226.822031)scale(0.1 -0.1)">
       <use xlink:href="#ArialMT-31"/>
       <use xlink:href="#ArialMT-2e" x="55.615234"/>
       <use xlink:href="#ArialMT-35" x="83.398438"/>
      </g>
     </g>
    </g>
    <g id="ytick_3">
     <g id="line2d_10">
      <path d="M 41.275 187.003125 
L 309.115 187.003125 
" clip-path="url(#pa56599b98f)" style="fill: none; stroke: #ffffff; stroke-width: 0.8; stroke-linecap: round"/>
     </g>
     <g id="text_11">
      <!-- 2.0 -->
      <g style="fill: #262626" transform="translate(20.375 190.582031)scale(0.1 -0.1)">
       <use xlink:href="#ArialMT-32"/>
       <use xlink:href="#ArialMT-2e" x="55.615234"/>
       <use xlink:href="#ArialMT-30" x="83.398438"/>
      </g>
     </g>
    </g>
    <g id="ytick_4">
     <g id="line2d_11">
      <path d="M 41.275 150.763125 
L 309.115 150.763125 
" clip-path="url(#pa56599b98f)" style="fill: none; stroke: #ffffff; stroke-width: 0.8; stroke-linecap: round"/>
     </g>
     <g id="text_12">
      <!-- 2.5 -->
      <g style="fill: #262626" transform="translate(20.375 154.342031)scale(0.1 -0.1)">
       <use xlink:href="#ArialMT-32"/>
       <use xlink:href="#ArialMT-2e" x="55.615234"/>
       <use xlink:href="#ArialMT-35" x="83.398438"/>
      </g>
     </g>
    </g>
    <g id="ytick_5">
     <g id="line2d_12">
      <path d="M 41.275 114.523125 
L 309.115 114.523125 
" clip-path="url(#pa56599b98f)" style="fill: none; stroke: #ffffff; stroke-width: 0.8; stroke-linecap: round"/>
     </g>
     <g id="text_13">
      <!-- 3.0 -->
      <g style="fill: #262626" transform="translate(20.375 118.102031)scale(0.1 -0.1)">
       <use xlink:href="#ArialMT-33"/>
       <use xlink:href="#ArialMT-2e" x="55.615234"/>
       <use xlink:href="#ArialMT-30" x="83.398438"/>
      </g>
     </g>
    </g>
    <g id="ytick_6">
     <g id="line2d_13">
      <path d="M 41.275 78.283125 
L 309.115 78.283125 
" clip-path="url(#pa56599b98f)" style="fill: none; stroke: #ffffff; stroke-width: 0.8; stroke-linecap: round"/>
     </g>
     <g id="text_14">
      <!-- 3.5 -->
      <g style="fill: #262626" transform="translate(20.375 81.862031)scale(0.1 -0.1)">
       <use xlink:href="#ArialMT-33"/>
       <use xlink:href="#ArialMT-2e" x="55.615234"/>
       <use xlink:href="#ArialMT-35" x="83.398438"/>
      </g>
     </g>
    </g>
    <g id="ytick_7">
     <g id="line2d_14">
      <path d="M 41.275 42.043125 
L 309.115 42.043125 
" clip-path="url(#pa56599b98f)" style="fill: none; stroke: #ffffff; stroke-width: 0.8; stroke-linecap: round"/>
     </g>
     <g id="text_15">
      <!-- 4.0 -->
      <g style="fill: #262626" transform="translate(20.375 45.622031)scale(0.1 -0.1)">
       <use xlink:href="#ArialMT-34"/>
       <use xlink:href="#ArialMT-2e" x="55.615234"/>
       <use xlink:href="#ArialMT-30" x="83.398438"/>
      </g>
     </g>
    </g>
    <g id="text_16">
     <!-- Predictor: upps_pm_1 -->
     <g style="fill: #262626" transform="translate(14.3875 199.675625)rotate(-90)scale(0.1 -0.1)">
      <defs>
       <path id="ArialMT-6d" d="M 422 0 
L 422 3319 
L 925 3319 
L 925 2853 
Q 1081 3097 1340 3245 
Q 1600 3394 1931 3394 
Q 2300 3394 2536 3241 
Q 2772 3088 2869 2813 
Q 3263 3394 3894 3394 
Q 4388 3394 4653 3120 
Q 4919 2847 4919 2278 
L 4919 0 
L 4359 0 
L 4359 2091 
Q 4359 2428 4304 2576 
Q 4250 2725 4106 2815 
Q 3963 2906 3769 2906 
Q 3419 2906 3187 2673 
Q 2956 2441 2956 1928 
L 2956 0 
L 2394 0 
L 2394 2156 
Q 2394 2531 2256 2718 
Q 2119 2906 1806 2906 
Q 1569 2906 1367 2781 
Q 1166 2656 1075 2415 
Q 984 2175 984 1722 
L 984 0 
L 422 0 
z
" transform="scale(0.015625)"/>
      </defs>
      <use xlink:href="#ArialMT-50"/>
      <use xlink:href="#ArialMT-72" x="66.699219"/>
      <use xlink:href="#ArialMT-65" x="100"/>
      <use xlink:href="#ArialMT-64" x="155.615234"/>
      <use xlink:href="#ArialMT-69" x="211.230469"/>
      <use xlink:href="#ArialMT-63" x="233.447266"/>
      <use xlink:href="#ArialMT-74" x="283.447266"/>
      <use xlink:href="#ArialMT-6f" x="311.230469"/>
      <use xlink:href="#ArialMT-72" x="366.845703"/>
      <use xlink:href="#ArialMT-3a" x="400.146484"/>
      <use xlink:href="#ArialMT-20" x="427.929688"/>
      <use xlink:href="#ArialMT-75" x="455.712891"/>
      <use xlink:href="#ArialMT-70" x="511.328125"/>
      <use xlink:href="#ArialMT-70" x="566.943359"/>
      <use xlink:href="#ArialMT-73" x="622.558594"/>
      <use xlink:href="#ArialMT-5f" x="672.558594"/>
      <use xlink:href="#ArialMT-70" x="728.173828"/>
      <use xlink:href="#ArialMT-6d" x="783.789062"/>
      <use xlink:href="#ArialMT-5f" x="867.089844"/>
      <use xlink:href="#ArialMT-31" x="922.705078"/>
     </g>
    </g>
   </g>
   <g id="PathCollection_1">
    <path d="M 55.371842 259.483125 
L 69.468684 259.483125 
L 83.565526 259.483125 
L 97.662368 259.483125 
L 111.759211 259.483125 
L 125.856053 259.483125 
L 139.952895 259.483125 
L 147.164446 259.483125 
L 139.952895 255.100563 
L 125.856053 249.641602 
L 111.759211 250.508016 
L 97.662368 251.376312 
L 83.565526 252.246495 
L 69.468684 253.118573 
L 55.371842 253.992551 
L 41.275 254.868436 
L 41.275 259.483125 
z
" clip-path="url(#pa56599b98f)" style="fill: #485fd1"/>
   </g>
   <g id="PathCollection_2">
    <path d="M 55.371842 253.992551 
L 69.468684 253.118573 
L 83.565526 252.246495 
L 97.662368 251.376312 
L 111.759211 250.508016 
L 125.856053 249.641602 
L 139.952895 255.100563 
L 147.164446 259.483125 
L 154.049737 259.483125 
L 168.146579 259.483125 
L 181.926176 259.483125 
L 168.146579 251.197685 
L 162.93046 248.038914 
L 154.049737 242.632331 
L 144.202326 236.594704 
L 139.952895 233.975367 
L 125.856053 228.433165 
L 111.759211 229.276572 
L 97.662368 230.121812 
L 83.565526 230.968889 
L 69.468684 231.81781 
L 55.371842 232.668581 
L 41.275 233.521207 
L 41.275 236.594704 
L 41.275 248.038914 
L 41.275 254.868436 
z
" clip-path="url(#pa56599b98f)" style="fill: #6485ec"/>
   </g>
   <g id="PathCollection_3">
    <path d="M 168.146579 251.197685 
L 181.926176 259.483125 
L 182.243421 259.483125 
L 196.340263 259.483125 
L 210.437105 259.483125 
L 219.214945 259.483125 
L 210.437105 255.783351 
L 197.445619 248.038914 
L 196.340263 247.376544 
L 182.243421 238.881242 
L 178.474387 236.594704 
L 168.146579 230.296041 
L 159.768523 225.150493 
L 154.049737 221.619505 
L 141.322499 213.706283 
L 139.952895 212.850171 
L 125.856053 207.224727 
L 111.759211 208.045128 
L 97.662368 208.867311 
L 83.565526 209.691282 
L 69.468684 210.517046 
L 55.371842 211.34461 
L 41.275 212.173979 
L 41.275 213.706283 
L 41.275 225.150493 
L 41.275 233.521207 
L 55.371842 232.668581 
L 69.468684 231.81781 
L 83.565526 230.968889 
L 97.662368 230.121812 
L 111.759211 229.276572 
L 125.856053 228.433165 
L 139.952895 233.975367 
L 144.202326 236.594704 
L 154.049737 242.632331 
L 162.93046 248.038914 
z
" clip-path="url(#pa56599b98f)" style="fill: #85a8fc"/>
   </g>
   <g id="PathCollection_4">
    <path d="M 210.437105 255.783351 
L 219.214945 259.483125 
L 224.533947 259.483125 
L 238.630789 259.483125 
L 252.727632 259.483125 
L 266.824474 259.483125 
L 280.921316 259.483125 
L 295.018158 259.483125 
L 309.115 259.483125 
L 309.115 248.038914 
L 309.115 247.959478 
L 295.018158 246.830061 
L 280.921316 245.702369 
L 266.824474 244.576399 
L 252.727632 243.452148 
L 238.630789 242.32961 
L 224.533947 241.208783 
L 213.68612 236.594704 
L 210.437105 235.208302 
L 196.340263 226.69377 
L 193.800887 225.150493 
L 182.243421 218.089609 
L 175.118494 213.706283 
L 168.146579 209.394397 
L 156.693824 202.262072 
L 154.049737 200.60668 
L 139.952895 191.724975 
L 137.70548 190.817862 
L 125.856053 186.445156 
L 111.759211 187.173941 
L 97.662368 187.903262 
L 83.565526 188.63312 
L 69.468684 189.363515 
L 55.371842 190.094449 
L 41.430269 190.817862 
L 41.275 190.82675 
L 41.275 202.262072 
L 41.275 212.173979 
L 55.371842 211.34461 
L 69.468684 210.517046 
L 83.565526 209.691282 
L 97.662368 208.867311 
L 111.759211 208.045128 
L 125.856053 207.224727 
L 139.952895 212.850171 
L 141.322499 213.706283 
L 154.049737 221.619505 
L 159.768523 225.150493 
L 168.146579 230.296041 
L 178.474387 236.594704 
L 182.243421 238.881242 
L 196.340263 247.376544 
L 197.445619 248.038914 
z
" clip-path="url(#pa56599b98f)" style="fill: #a5c3fe"/>
   </g>
   <g id="PathCollection_5">
    <path d="M 224.533947 241.208783 
L 238.630789 242.32961 
L 252.727632 243.452148 
L 266.824474 244.576399 
L 280.921316 245.702369 
L 295.018158 246.830061 
L 309.115 247.959478 
L 309.115 236.594704 
L 309.115 227.356255 
L 295.018158 226.242592 
L 281.173321 225.150493 
L 280.921316 225.13063 
L 266.824474 224.020366 
L 252.727632 222.911796 
L 238.630789 221.804917 
L 224.533947 220.699723 
L 210.437105 214.633254 
L 208.914489 213.706283 
L 196.340263 206.010996 
L 190.256712 202.262072 
L 182.243421 197.297976 
L 171.854556 190.817862 
L 168.146579 188.586404 
L 154.049737 180.256334 
L 152.531955 179.373651 
L 139.952895 172.429593 
L 126.679637 167.929441 
L 125.856053 167.654382 
L 120.270914 167.929441 
L 111.759211 168.348651 
L 97.662368 169.042998 
L 83.565526 169.737421 
L 69.468684 170.431923 
L 55.371842 171.126501 
L 41.275 171.821157 
L 41.275 179.373651 
L 41.275 190.817862 
L 41.275 190.82675 
L 41.430269 190.817862 
L 55.371842 190.094449 
L 69.468684 189.363515 
L 83.565526 188.63312 
L 97.662368 187.903262 
L 111.759211 187.173941 
L 125.856053 186.445156 
L 137.70548 190.817862 
L 139.952895 191.724975 
L 154.049737 200.60668 
L 156.693824 202.262072 
L 168.146579 209.394397 
L 175.118494 213.706283 
L 182.243421 218.089609 
L 193.800887 225.150493 
L 196.340263 226.69377 
L 210.437105 235.208302 
L 213.68612 236.594704 
z
" clip-path="url(#pa56599b98f)" style="fill: #c3d5f4"/>
   </g>
   <g id="PathCollection_6">
    <path d="M 295.018158 226.242592 
L 309.115 227.356255 
L 309.115 225.150493 
L 309.115 213.706283 
L 309.115 206.753033 
L 295.018158 205.655123 
L 280.921316 204.558891 
L 266.824474 203.464333 
L 252.727632 202.371445 
L 251.31568 202.262072 
L 238.630789 201.280223 
L 224.533947 200.190664 
L 210.437105 194.058205 
L 205.18753 190.817862 
L 196.340263 185.334289 
L 186.531097 179.373651 
L 182.243421 176.833252 
L 168.146579 168.740776 
L 166.69518 167.929441 
L 154.049737 161.025251 
L 145.43612 156.48523 
L 139.952895 153.660939 
L 125.856053 149.165913 
L 111.759211 149.859152 
L 97.662368 150.552469 
L 83.565526 151.245862 
L 69.468684 151.939333 
L 55.371842 152.632881 
L 41.275 153.326506 
L 41.275 156.48523 
L 41.275 167.929441 
L 41.275 171.821157 
L 55.371842 171.126501 
L 69.468684 170.431923 
L 83.565526 169.737421 
L 97.662368 169.042998 
L 111.759211 168.348651 
L 120.270914 167.929441 
L 125.856053 167.654382 
L 126.679637 167.929441 
L 139.952895 172.429593 
L 152.531955 179.373651 
L 154.049737 180.256334 
L 168.146579 188.586404 
L 171.854556 190.817862 
L 182.243421 197.297976 
L 190.256712 202.262072 
L 196.340263 206.010996 
L 208.914489 213.706283 
L 210.437105 214.633254 
L 224.533947 220.699723 
L 238.630789 221.804917 
L 252.727632 222.911796 
L 266.824474 224.020366 
L 280.921316 225.13063 
L 281.173321 225.150493 
z
" clip-path="url(#pa56599b98f)" style="fill: #dddcdc"/>
   </g>
   <g id="PathCollection_7">
    <path d="M 252.727632 202.371445 
L 266.824474 203.464333 
L 280.921316 204.558891 
L 295.018158 205.655123 
L 309.115 206.753033 
L 309.115 202.262072 
L 309.115 190.817862 
L 309.115 185.927025 
L 295.018158 184.806457 
L 280.921316 183.692503 
L 266.824474 182.585104 
L 252.727632 181.484202 
L 238.630789 180.389741 
L 225.46915 179.373651 
L 224.533947 179.300414 
L 210.437105 173.086414 
L 201.871731 167.929441 
L 196.340263 164.682489 
L 182.243421 156.689149 
L 181.874555 156.48523 
L 168.146579 149.077021 
L 160.389285 145.04102 
L 154.049737 141.81947 
L 139.952895 134.892285 
L 135.665088 133.596809 
L 125.856053 130.677445 
L 111.759211 131.369654 
L 97.662368 132.061939 
L 83.565526 132.754303 
L 69.468684 133.446743 
L 66.413807 133.596809 
L 55.371842 134.13926 
L 41.275 134.831855 
L 41.275 145.04102 
L 41.275 153.326506 
L 55.371842 152.632881 
L 69.468684 151.939333 
L 83.565526 151.245862 
L 97.662368 150.552469 
L 111.759211 149.859152 
L 125.856053 149.165913 
L 139.952895 153.660939 
L 145.43612 156.48523 
L 154.049737 161.025251 
L 166.69518 167.929441 
L 168.146579 168.740776 
L 182.243421 176.833252 
L 186.531097 179.373651 
L 196.340263 185.334289 
L 205.18753 190.817862 
L 210.437105 194.058205 
L 224.533947 200.190664 
L 238.630789 201.280223 
L 251.31568 202.262072 
z
" clip-path="url(#pa56599b98f)" style="fill: #f1cdba"/>
   </g>
   <g id="PathCollection_8">
    <path d="M 238.630789 180.389741 
L 252.727632 181.484202 
L 266.824474 182.585104 
L 280.921316 183.692503 
L 295.018158 184.806457 
L 309.115 185.927025 
L 309.115 179.373651 
L 309.115 167.929441 
L 309.115 163.972999 
L 295.018158 162.909899 
L 280.921316 161.855551 
L 266.824474 160.809849 
L 252.727632 159.772686 
L 238.630789 158.743958 
L 224.533947 157.723563 
L 221.576208 156.48523 
L 210.437105 151.907592 
L 198.183507 145.04102 
L 196.340263 144.033981 
L 182.243421 136.545045 
L 176.498196 133.596809 
L 168.146579 129.413266 
L 154.049737 122.613689 
L 153.069427 122.152599 
L 139.952895 112.893929 
L 134.905449 110.708388 
L 136.803509 99.264178 
L 138.688302 87.819967 
L 139.952895 80.096427 
L 140.338693 76.375757 
L 141.524269 64.931546 
L 142.708216 53.487336 
L 143.890539 42.043125 
L 139.952895 42.043125 
L 125.856053 42.043125 
L 111.759211 42.043125 
L 97.662368 42.043125 
L 83.565526 42.043125 
L 69.468684 42.043125 
L 55.371842 42.043125 
L 41.275 42.043125 
L 41.275 53.487336 
L 41.275 64.931546 
L 41.275 76.375757 
L 41.275 86.269093 
L 43.557448 87.819967 
L 55.371842 96.222528 
L 59.43208 99.264178 
L 69.468684 107.151285 
L 73.777142 110.708388 
L 69.468684 111.029756 
L 55.371842 112.083348 
L 41.275 113.14018 
L 41.275 122.152599 
L 41.275 133.596809 
L 41.275 134.831855 
L 55.371842 134.13926 
L 66.413807 133.596809 
L 69.468684 133.446743 
L 83.565526 132.754303 
L 97.662368 132.061939 
L 111.759211 131.369654 
L 125.856053 130.677445 
L 135.665088 133.596809 
L 139.952895 134.892285 
L 154.049737 141.81947 
L 160.389285 145.04102 
L 168.146579 149.077021 
L 181.874555 156.48523 
L 182.243421 156.689149 
L 196.340263 164.682489 
L 201.871731 167.929441 
L 210.437105 173.086414 
L 224.533947 179.300414 
L 225.46915 179.373651 
z
" clip-path="url(#pa56599b98f)" style="fill: #f7b396"/>
   </g>
   <g id="PathCollection_9">
    <path d="M 224.533947 157.723563 
L 238.630789 158.743958 
L 252.727632 159.772686 
L 266.824474 160.809849 
L 280.921316 161.855551 
L 295.018158 162.909899 
L 309.115 163.972999 
L 309.115 156.48523 
L 309.115 145.04102 
L 309.115 141.85877 
L 295.018158 140.887083 
L 280.921316 139.923397 
L 266.824474 138.967613 
L 252.727632 138.019634 
L 238.630789 137.079365 
L 224.533947 136.146713 
L 217.964756 133.596809 
L 210.437105 130.72877 
L 196.340263 123.385473 
L 193.902231 122.152599 
L 182.243421 113.309907 
L 178.719757 110.708388 
L 179.881352 99.264178 
L 181.041349 87.819967 
L 182.199751 76.375757 
L 182.243421 75.944015 
L 183.35656 64.931546 
L 184.511781 53.487336 
L 185.665416 42.043125 
L 182.243421 42.043125 
L 168.146579 42.043125 
L 154.049737 42.043125 
L 143.890539 42.043125 
L 142.708216 53.487336 
L 141.524269 64.931546 
L 140.338693 76.375757 
L 139.952895 80.096427 
L 138.688302 87.819967 
L 136.803509 99.264178 
L 134.905449 110.708388 
L 139.952895 112.893929 
L 153.069427 122.152599 
L 154.049737 122.613689 
L 168.146579 129.413266 
L 176.498196 133.596809 
L 182.243421 136.545045 
L 196.340263 144.033981 
L 198.183507 145.04102 
L 210.437105 151.907592 
L 221.576208 156.48523 
z
" clip-path="url(#pa56599b98f)" style="fill: #f29072"/>
    <path d="M 55.371842 112.083348 
L 69.468684 111.029756 
L 73.777142 110.708388 
L 69.468684 107.151285 
L 59.43208 99.264178 
L 55.371842 96.222528 
L 43.557448 87.819967 
L 41.275 86.269093 
L 41.275 87.819967 
L 41.275 99.264178 
L 41.275 110.708388 
L 41.275 113.14018 
z
" clip-path="url(#pa56599b98f)" style="fill: #f29072"/>
   </g>
   <g id="PathCollection_10">
    <path d="M 224.533947 136.146713 
L 238.630789 137.079365 
L 252.727632 138.019634 
L 266.824474 138.967613 
L 280.921316 139.923397 
L 295.018158 140.887083 
L 309.115 141.85877 
L 309.115 133.596809 
L 309.115 122.152599 
L 309.115 118.443424 
L 295.018158 117.088133 
L 280.921316 115.744321 
L 266.824474 114.411843 
L 252.727632 113.090557 
L 238.630789 111.780321 
L 227.009493 110.708388 
L 236.788436 99.264178 
L 238.630789 97.108664 
L 246.571781 87.819967 
L 252.727632 80.621711 
L 256.359531 76.375757 
L 266.151689 64.931546 
L 266.824474 64.145444 
L 275.948258 53.487336 
L 280.921316 47.679853 
L 285.749241 42.043125 
L 280.921316 42.043125 
L 266.824474 42.043125 
L 252.727632 42.043125 
L 238.630789 42.043125 
L 224.533947 42.043125 
L 210.437105 42.043125 
L 196.340263 42.043125 
L 185.665416 42.043125 
L 184.511781 53.487336 
L 183.35656 64.931546 
L 182.243421 75.944015 
L 182.199751 76.375757 
L 181.041349 87.819967 
L 179.881352 99.264178 
L 178.719757 110.708388 
L 182.243421 113.309907 
L 193.902231 122.152599 
L 196.340263 123.385473 
L 210.437105 130.72877 
L 217.964756 133.596809 
z
" clip-path="url(#pa56599b98f)" style="fill: #e0654f"/>
   </g>
   <g id="PathCollection_11">
    <path d="M 238.630789 111.780321 
L 252.727632 113.090557 
L 266.824474 114.411843 
L 280.921316 115.744321 
L 295.018158 117.088133 
L 309.115 118.443424 
L 309.115 110.708388 
L 309.115 99.264178 
L 309.115 87.819967 
L 309.115 76.375757 
L 309.115 64.931546 
L 309.115 53.487336 
L 309.115 42.043125 
L 295.018158 42.043125 
L 285.749241 42.043125 
L 280.921316 47.679853 
L 275.948258 53.487336 
L 266.824474 64.145444 
L 266.151689 64.931546 
L 256.359531 76.375757 
L 252.727632 80.621711 
L 246.571781 87.819967 
L 238.630789 97.108664 
L 236.788436 99.264178 
L 227.009493 110.708388 
z
" clip-path="url(#pa56599b98f)" style="fill: #c43032"/>
   </g>
   <g id="PathCollection_12"/>
   <g id="PathCollection_13">
    <path d="M 41.275 254.868436 
L 55.371842 253.992551 
L 69.468684 253.118573 
L 82.628492 252.304464 
" clip-path="url(#pa56599b98f)" style="fill: none; stroke: #000000; stroke-width: 0.5"/>
    <path d="M 112.696384 250.450416 
L 125.856053 249.641602 
L 139.952895 255.100563 
L 147.164446 259.483125 
" clip-path="url(#pa56599b98f)" style="fill: none; stroke: #000000; stroke-width: 0.5"/>
   </g>
   <g id="PathCollection_14">
    <path d="M 41.275 233.521207 
L 55.371842 232.668581 
L 69.468684 231.81781 
L 83.565526 230.968889 
L 97.662368 230.121812 
L 110.945222 229.325379 
" clip-path="url(#pa56599b98f)" style="fill: none; stroke: #000000; stroke-width: 0.5"/>
    <path d="M 139.757757 233.898648 
L 139.952895 233.975367 
L 144.202326 236.594704 
L 154.049737 242.632331 
L 162.93046 248.038914 
L 168.146579 251.197685 
L 181.926176 259.483125 
" clip-path="url(#pa56599b98f)" style="fill: none; stroke: #000000; stroke-width: 0.5"/>
   </g>
   <g id="PathCollection_15">
    <path d="M 41.275 212.173979 
L 55.371842 211.34461 
L 69.468684 210.517046 
L 83.565526 209.691282 
L 97.662368 208.867311 
L 111.759211 208.045128 
L 125.856053 207.224727 
L 139.952895 212.850171 
L 141.311235 213.699242 
" clip-path="url(#pa56599b98f)" style="fill: none; stroke: #000000; stroke-width: 0.5"/>
    <path d="M 166.823191 229.483256 
L 168.146579 230.296041 
L 178.474387 236.594704 
L 182.243421 238.881242 
L 196.340263 247.376544 
L 197.445619 248.038914 
L 210.437105 255.783351 
L 219.214945 259.483125 
" clip-path="url(#pa56599b98f)" style="fill: none; stroke: #000000; stroke-width: 0.5"/>
   </g>
   <g id="PathCollection_16">
    <path d="M 41.275 190.82675 
L 41.430269 190.817862 
L 55.371842 190.094449 
L 69.468684 189.363515 
L 83.565526 188.63312 
L 97.662368 187.903262 
L 111.759211 187.173941 
L 125.856053 186.445156 
L 125.965419 186.485515 
" clip-path="url(#pa56599b98f)" style="fill: none; stroke: #000000; stroke-width: 0.5"/>
    <path d="M 152.591106 199.687671 
L 154.049737 200.60668 
L 156.693824 202.262072 
L 168.146579 209.394397 
L 175.118494 213.706283 
L 182.243421 218.089609 
L 193.800887 225.150493 
L 196.340263 226.69377 
L 210.437105 235.208302 
L 213.68612 236.594704 
L 224.533947 241.208783 
L 238.630789 242.32961 
L 252.727632 243.452148 
L 266.824474 244.576399 
L 280.921316 245.702369 
L 295.018158 246.830061 
L 309.115 247.959478 
" clip-path="url(#pa56599b98f)" style="fill: none; stroke: #000000; stroke-width: 0.5"/>
   </g>
   <g id="PathCollection_17">
    <path d="M 41.275 171.821157 
L 55.371842 171.126501 
L 68.521273 170.478603 
" clip-path="url(#pa56599b98f)" style="fill: none; stroke: #000000; stroke-width: 0.5"/>
    <path d="M 98.609784 168.996332 
L 111.759211 168.348651 
L 120.270914 167.929441 
L 125.856053 167.654382 
L 126.679637 167.929441 
L 139.952895 172.429593 
L 152.531955 179.373651 
L 154.049737 180.256334 
L 168.146579 188.586404 
L 171.854556 190.817862 
L 182.243421 197.297976 
L 190.256712 202.262072 
L 196.340263 206.010996 
L 208.914489 213.706283 
L 210.437105 214.633254 
L 224.533947 220.699723 
L 238.630789 221.804917 
L 252.727632 222.911796 
L 266.824474 224.020366 
L 280.921316 225.13063 
L 281.173321 225.150493 
L 295.018158 226.242592 
L 309.115 227.356255 
" clip-path="url(#pa56599b98f)" style="fill: none; stroke: #000000; stroke-width: 0.5"/>
   </g>
   <g id="PathCollection_18">
    <path d="M 41.275 153.326506 
L 55.371842 152.632881 
L 69.468684 151.939333 
L 83.565526 151.245862 
L 97.662368 150.552469 
L 111.759211 149.859152 
L 125.856053 149.165913 
L 139.952895 153.660939 
L 140.812734 154.103824 
" clip-path="url(#pa56599b98f)" style="fill: none; stroke: #000000; stroke-width: 0.5"/>
    <path d="M 167.157835 168.188066 
L 168.146579 168.740776 
L 182.243421 176.833252 
L 186.531097 179.373651 
L 196.340263 185.334289 
L 205.18753 190.817862 
L 210.437105 194.058205 
L 224.533947 200.190664 
L 238.630789 201.280223 
L 251.31568 202.262072 
L 252.727632 202.371445 
L 266.824474 203.464333 
L 280.921316 204.558891 
L 295.018158 205.655123 
L 309.115 206.753033 
" clip-path="url(#pa56599b98f)" style="fill: none; stroke: #000000; stroke-width: 0.5"/>
   </g>
   <g id="PathCollection_19">
    <path d="M 41.275 134.831855 
L 55.371842 134.13926 
L 66.413807 133.596809 
L 68.58359 133.490222 
" clip-path="url(#pa56599b98f)" style="fill: none; stroke: #000000; stroke-width: 0.5"/>
    <path d="M 98.547467 132.018473 
L 111.759211 131.369654 
L 125.856053 130.677445 
L 135.665088 133.596809 
L 139.952895 134.892285 
L 154.049737 141.81947 
L 160.389285 145.04102 
L 168.146579 149.077021 
L 181.874555 156.48523 
L 182.243421 156.689149 
L 196.340263 164.682489 
L 201.871731 167.929441 
L 210.437105 173.086414 
L 224.533947 179.300414 
L 225.46915 179.373651 
L 238.630789 180.389741 
L 252.727632 181.484202 
L 266.824474 182.585104 
L 280.921316 183.692503 
L 295.018158 184.806457 
L 309.115 185.927025 
" clip-path="url(#pa56599b98f)" style="fill: none; stroke: #000000; stroke-width: 0.5"/>
   </g>
   <g id="PathCollection_20">
    <path d="M 41.275 113.14018 
L 55.371842 112.083348 
L 64.452711 111.404648 
" clip-path="url(#pa56599b98f)" style="fill: none; stroke: #000000; stroke-width: 0.5"/>
    <path d="M 57.693188 97.96152 
L 55.371842 96.222528 
L 43.557448 87.819967 
L 41.275 86.269093 
" clip-path="url(#pa56599b98f)" style="fill: none; stroke: #000000; stroke-width: 0.5"/>
    <path d="M 143.890539 42.043125 
L 142.708216 53.487336 
L 141.877442 61.517723 
" clip-path="url(#pa56599b98f)" style="fill: none; stroke: #000000; stroke-width: 0.5"/>
    <path d="M 138.14058 91.145664 
L 136.803509 99.264178 
L 134.905449 110.708388 
L 139.952895 112.893929 
L 153.069427 122.152599 
L 154.049737 122.613689 
L 168.146579 129.413266 
L 176.498196 133.596809 
L 182.243421 136.545045 
L 196.340263 144.033981 
L 198.183507 145.04102 
L 210.437105 151.907592 
L 221.576208 156.48523 
L 224.533947 157.723563 
L 238.630789 158.743958 
L 252.727632 159.772686 
L 266.824474 160.809849 
L 280.921316 161.855551 
L 295.018158 162.909899 
L 309.115 163.972999 
" clip-path="url(#pa56599b98f)" style="fill: none; stroke: #000000; stroke-width: 0.5"/>
   </g>
   <g id="PathCollection_21">
    <path d="M 185.665416 42.043125 
L 184.511781 53.487336 
L 183.35656 64.931546 
L 182.243421 75.944015 
L 182.199751 76.375757 
L 181.041349 87.819967 
L 179.881352 99.264178 
L 178.719757 110.708388 
L 182.243421 113.309907 
L 184.077872 114.701257 
" clip-path="url(#pa56599b98f)" style="fill: none; stroke: #000000; stroke-width: 0.5"/>
    <path d="M 209.698944 130.344249 
L 210.437105 130.72877 
L 217.964756 133.596809 
L 224.533947 136.146713 
L 238.630789 137.079365 
L 252.727632 138.019634 
L 266.824474 138.967613 
L 280.921316 139.923397 
L 295.018158 140.887083 
L 309.115 141.85877 
" clip-path="url(#pa56599b98f)" style="fill: none; stroke: #000000; stroke-width: 0.5"/>
   </g>
   <g id="PathCollection_22">
    <path d="M 285.749241 42.043125 
L 280.921316 47.679853 
L 275.948258 53.487336 
L 266.824474 64.145444 
L 266.151689 64.931546 
L 256.359531 76.375757 
L 252.727632 80.621711 
L 248.337688 85.755029 
" clip-path="url(#pa56599b98f)" style="fill: none; stroke: #000000; stroke-width: 0.5"/>
    <path d="M 228.926699 108.464699 
L 227.009493 110.708388 
L 238.630789 111.780321 
L 252.727632 113.090557 
L 266.824474 114.411843 
L 280.921316 115.744321 
L 295.018158 117.088133 
L 309.115 118.443424 
" clip-path="url(#pa56599b98f)" style="fill: none; stroke: #000000; stroke-width: 0.5"/>
   </g>
   <g id="PathCollection_23"/>
   <g id="patch_3">
    <path d="M 41.275 259.483125 
L 41.275 42.043125 
" style="fill: none; stroke: #ffffff; stroke-width: 0.8; stroke-linejoin: miter; stroke-linecap: square"/>
   </g>
   <g id="patch_4">
    <path d="M 309.115 259.483125 
L 309.115 42.043125 
" style="fill: none; stroke: #ffffff; stroke-width: 0.8; stroke-linejoin: miter; stroke-linecap: square"/>
   </g>
   <g id="patch_5">
    <path d="M 41.275 259.483125 
L 309.115 259.483125 
" style="fill: none; stroke: #ffffff; stroke-width: 0.8; stroke-linejoin: miter; stroke-linecap: square"/>
   </g>
   <g id="patch_6">
    <path d="M 41.275 42.043125 
L 309.115 42.043125 
" style="fill: none; stroke: #ffffff; stroke-width: 0.8; stroke-linejoin: miter; stroke-linecap: square"/>
   </g>
   <g id="text_17">
    <!-- GB | target: audit dependence on -->
    <g style="fill: #262626" transform="translate(101.62625 14.479687)scale(0.1 -0.1)">
     <defs>
      <path id="ArialMT-47" d="M 2638 1797 
L 2638 2334 
L 4578 2338 
L 4578 638 
Q 4131 281 3656 101 
Q 3181 -78 2681 -78 
Q 2006 -78 1454 211 
Q 903 500 622 1047 
Q 341 1594 341 2269 
Q 341 2938 620 3517 
Q 900 4097 1425 4378 
Q 1950 4659 2634 4659 
Q 3131 4659 3532 4498 
Q 3934 4338 4162 4050 
Q 4391 3763 4509 3300 
L 3963 3150 
Q 3859 3500 3706 3700 
Q 3553 3900 3268 4020 
Q 2984 4141 2638 4141 
Q 2222 4141 1919 4014 
Q 1616 3888 1430 3681 
Q 1244 3475 1141 3228 
Q 966 2803 966 2306 
Q 966 1694 1177 1281 
Q 1388 869 1791 669 
Q 2194 469 2647 469 
Q 3041 469 3416 620 
Q 3791 772 3984 944 
L 3984 1797 
L 2638 1797 
z
" transform="scale(0.015625)"/>
      <path id="ArialMT-42" d="M 469 0 
L 469 4581 
L 2188 4581 
Q 2713 4581 3030 4442 
Q 3347 4303 3526 4014 
Q 3706 3725 3706 3409 
Q 3706 3116 3547 2856 
Q 3388 2597 3066 2438 
Q 3481 2316 3704 2022 
Q 3928 1728 3928 1328 
Q 3928 1006 3792 729 
Q 3656 453 3456 303 
Q 3256 153 2954 76 
Q 2653 0 2216 0 
L 469 0 
z
M 1075 2656 
L 2066 2656 
Q 2469 2656 2644 2709 
Q 2875 2778 2992 2937 
Q 3109 3097 3109 3338 
Q 3109 3566 3000 3739 
Q 2891 3913 2687 3977 
Q 2484 4041 1991 4041 
L 1075 4041 
L 1075 2656 
z
M 1075 541 
L 2216 541 
Q 2509 541 2628 563 
Q 2838 600 2978 687 
Q 3119 775 3209 942 
Q 3300 1109 3300 1328 
Q 3300 1584 3169 1773 
Q 3038 1963 2805 2039 
Q 2572 2116 2134 2116 
L 1075 2116 
L 1075 541 
z
" transform="scale(0.015625)"/>
      <path id="ArialMT-7c" d="M 588 -1347 
L 588 4659 
L 1078 4659 
L 1078 -1347 
L 588 -1347 
z
" transform="scale(0.015625)"/>
      <path id="ArialMT-61" d="M 2588 409 
Q 2275 144 1986 34 
Q 1697 -75 1366 -75 
Q 819 -75 525 192 
Q 231 459 231 875 
Q 231 1119 342 1320 
Q 453 1522 633 1644 
Q 813 1766 1038 1828 
Q 1203 1872 1538 1913 
Q 2219 1994 2541 2106 
Q 2544 2222 2544 2253 
Q 2544 2597 2384 2738 
Q 2169 2928 1744 2928 
Q 1347 2928 1158 2789 
Q 969 2650 878 2297 
L 328 2372 
Q 403 2725 575 2942 
Q 747 3159 1072 3276 
Q 1397 3394 1825 3394 
Q 2250 3394 2515 3294 
Q 2781 3194 2906 3042 
Q 3031 2891 3081 2659 
Q 3109 2516 3109 2141 
L 3109 1391 
Q 3109 606 3145 398 
Q 3181 191 3288 0 
L 2700 0 
Q 2613 175 2588 409 
z
M 2541 1666 
Q 2234 1541 1622 1453 
Q 1275 1403 1131 1340 
Q 988 1278 909 1158 
Q 831 1038 831 891 
Q 831 666 1001 516 
Q 1172 366 1500 366 
Q 1825 366 2078 508 
Q 2331 650 2450 897 
Q 2541 1088 2541 1459 
L 2541 1666 
z
" transform="scale(0.015625)"/>
      <path id="ArialMT-67" d="M 319 -275 
L 866 -356 
Q 900 -609 1056 -725 
Q 1266 -881 1628 -881 
Q 2019 -881 2231 -725 
Q 2444 -569 2519 -288 
Q 2563 -116 2559 434 
Q 2191 0 1641 0 
Q 956 0 581 494 
Q 206 988 206 1678 
Q 206 2153 378 2554 
Q 550 2956 876 3175 
Q 1203 3394 1644 3394 
Q 2231 3394 2613 2919 
L 2613 3319 
L 3131 3319 
L 3131 450 
Q 3131 -325 2973 -648 
Q 2816 -972 2473 -1159 
Q 2131 -1347 1631 -1347 
Q 1038 -1347 672 -1080 
Q 306 -813 319 -275 
z
M 784 1719 
Q 784 1066 1043 766 
Q 1303 466 1694 466 
Q 2081 466 2343 764 
Q 2606 1063 2606 1700 
Q 2606 2309 2336 2618 
Q 2066 2928 1684 2928 
Q 1309 2928 1046 2623 
Q 784 2319 784 1719 
z
" transform="scale(0.015625)"/>
      <path id="ArialMT-6e" d="M 422 0 
L 422 3319 
L 928 3319 
L 928 2847 
Q 1294 3394 1984 3394 
Q 2284 3394 2536 3286 
Q 2788 3178 2913 3003 
Q 3038 2828 3088 2588 
Q 3119 2431 3119 2041 
L 3119 0 
L 2556 0 
L 2556 2019 
Q 2556 2363 2490 2533 
Q 2425 2703 2258 2804 
Q 2091 2906 1866 2906 
Q 1506 2906 1245 2678 
Q 984 2450 984 1813 
L 984 0 
L 422 0 
z
" transform="scale(0.015625)"/>
     </defs>
     <use xlink:href="#ArialMT-47"/>
     <use xlink:href="#ArialMT-42" x="77.783203"/>
     <use xlink:href="#ArialMT-20" x="144.482422"/>
     <use xlink:href="#ArialMT-7c" x="172.265625"/>
     <use xlink:href="#ArialMT-20" x="198.242188"/>
     <use xlink:href="#ArialMT-74" x="226.025391"/>
     <use xlink:href="#ArialMT-61" x="253.808594"/>
     <use xlink:href="#ArialMT-72" x="309.423828"/>
     <use xlink:href="#ArialMT-67" x="342.724609"/>
     <use xlink:href="#ArialMT-65" x="398.339844"/>
     <use xlink:href="#ArialMT-74" x="453.955078"/>
     <use xlink:href="#ArialMT-3a" x="481.738281"/>
     <use xlink:href="#ArialMT-20" x="509.521484"/>
     <use xlink:href="#ArialMT-61" x="537.304688"/>
     <use xlink:href="#ArialMT-75" x="592.919922"/>
     <use xlink:href="#ArialMT-64" x="648.535156"/>
     <use xlink:href="#ArialMT-69" x="704.150391"/>
     <use xlink:href="#ArialMT-74" x="726.367188"/>
     <use xlink:href="#ArialMT-20" x="754.150391"/>
     <use xlink:href="#ArialMT-64" x="781.933594"/>
     <use xlink:href="#ArialMT-65" x="837.548828"/>
     <use xlink:href="#ArialMT-70" x="893.164062"/>
     <use xlink:href="#ArialMT-65" x="948.779297"/>
     <use xlink:href="#ArialMT-6e" x="1004.394531"/>
     <use xlink:href="#ArialMT-64" x="1060.009766"/>
     <use xlink:href="#ArialMT-65" x="1115.625"/>
     <use xlink:href="#ArialMT-6e" x="1171.240234"/>
     <use xlink:href="#ArialMT-63" x="1226.855469"/>
     <use xlink:href="#ArialMT-65" x="1276.855469"/>
     <use xlink:href="#ArialMT-20" x="1332.470703"/>
     <use xlink:href="#ArialMT-6f" x="1360.253906"/>
     <use xlink:href="#ArialMT-6e" x="1415.869141"/>
    </g>
    <!-- predictors: upps_pm_1 &amp; upps_pe_4 -->
    <g style="fill: #262626" transform="translate(93.480156 25.32)scale(0.1 -0.1)">
     <defs>
      <path id="ArialMT-26" d="M 3041 541 
Q 2763 231 2434 76 
Q 2106 -78 1725 -78 
Q 1022 -78 609 397 
Q 275 784 275 1263 
Q 275 1688 548 2030 
Q 822 2372 1366 2631 
Q 1056 2988 953 3209 
Q 850 3431 850 3638 
Q 850 4050 1173 4354 
Q 1497 4659 1988 4659 
Q 2456 4659 2754 4371 
Q 3053 4084 3053 3681 
Q 3053 3028 2188 2566 
L 3009 1519 
Q 3150 1794 3228 2156 
L 3813 2031 
Q 3663 1431 3406 1044 
Q 3722 625 4122 341 
L 3744 -106 
Q 3403 113 3041 541 
z
M 1897 2928 
Q 2263 3144 2370 3306 
Q 2478 3469 2478 3666 
Q 2478 3900 2329 4048 
Q 2181 4197 1959 4197 
Q 1731 4197 1579 4050 
Q 1428 3903 1428 3691 
Q 1428 3584 1483 3467 
Q 1538 3350 1647 3219 
L 1897 2928 
z
M 2688 984 
L 1656 2263 
Q 1200 1991 1040 1758 
Q 881 1525 881 1297 
Q 881 1019 1103 719 
Q 1325 419 1731 419 
Q 1984 419 2254 576 
Q 2525 734 2688 984 
z
" transform="scale(0.015625)"/>
     </defs>
     <use xlink:href="#ArialMT-70"/>
     <use xlink:href="#ArialMT-72" x="55.615234"/>
     <use xlink:href="#ArialMT-65" x="88.916016"/>
     <use xlink:href="#ArialMT-64" x="144.53125"/>
     <use xlink:href="#ArialMT-69" x="200.146484"/>
     <use xlink:href="#ArialMT-63" x="222.363281"/>
     <use xlink:href="#ArialMT-74" x="272.363281"/>
     <use xlink:href="#ArialMT-6f" x="300.146484"/>
     <use xlink:href="#ArialMT-72" x="355.761719"/>
     <use xlink:href="#ArialMT-73" x="389.0625"/>
     <use xlink:href="#ArialMT-3a" x="439.0625"/>
     <use xlink:href="#ArialMT-20" x="466.845703"/>
     <use xlink:href="#ArialMT-75" x="494.628906"/>
     <use xlink:href="#ArialMT-70" x="550.244141"/>
     <use xlink:href="#ArialMT-70" x="605.859375"/>
     <use xlink:href="#ArialMT-73" x="661.474609"/>
     <use xlink:href="#ArialMT-5f" x="711.474609"/>
     <use xlink:href="#ArialMT-70" x="767.089844"/>
     <use xlink:href="#ArialMT-6d" x="822.705078"/>
     <use xlink:href="#ArialMT-5f" x="906.005859"/>
     <use xlink:href="#ArialMT-31" x="961.621094"/>
     <use xlink:href="#ArialMT-20" x="1017.236328"/>
     <use xlink:href="#ArialMT-26" x="1045.019531"/>
     <use xlink:href="#ArialMT-20" x="1111.71875"/>
     <use xlink:href="#ArialMT-75" x="1139.501953"/>
     <use xlink:href="#ArialMT-70" x="1195.117188"/>
     <use xlink:href="#ArialMT-70" x="1250.732422"/>
     <use xlink:href="#ArialMT-73" x="1306.347656"/>
     <use xlink:href="#ArialMT-5f" x="1356.347656"/>
     <use xlink:href="#ArialMT-70" x="1411.962891"/>
     <use xlink:href="#ArialMT-65" x="1467.578125"/>
     <use xlink:href="#ArialMT-5f" x="1523.193359"/>
     <use xlink:href="#ArialMT-34" x="1578.808594"/>
    </g>
    <!-- Influence (% of audit range) 0.9% -->
    <g style="fill: #262626" transform="translate(100.98875 36.043125)scale(0.1 -0.1)">
     <defs>
      <path id="ArialMT-49" d="M 597 0 
L 597 4581 
L 1203 4581 
L 1203 0 
L 597 0 
z
" transform="scale(0.015625)"/>
      <path id="ArialMT-66" d="M 556 0 
L 556 2881 
L 59 2881 
L 59 3319 
L 556 3319 
L 556 3672 
Q 556 4006 616 4169 
Q 697 4388 901 4523 
Q 1106 4659 1475 4659 
Q 1713 4659 2000 4603 
L 1916 4113 
Q 1741 4144 1584 4144 
Q 1328 4144 1222 4034 
Q 1116 3925 1116 3625 
L 1116 3319 
L 1763 3319 
L 1763 2881 
L 1116 2881 
L 1116 0 
L 556 0 
z
" transform="scale(0.015625)"/>
      <path id="ArialMT-6c" d="M 409 0 
L 409 4581 
L 972 4581 
L 972 0 
L 409 0 
z
" transform="scale(0.015625)"/>
      <path id="ArialMT-28" d="M 1497 -1347 
Q 1031 -759 709 28 
Q 388 816 388 1659 
Q 388 2403 628 3084 
Q 909 3875 1497 4659 
L 1900 4659 
Q 1522 4009 1400 3731 
Q 1209 3300 1100 2831 
Q 966 2247 966 1656 
Q 966 153 1900 -1347 
L 1497 -1347 
z
" transform="scale(0.015625)"/>
      <path id="ArialMT-25" d="M 372 3481 
Q 372 3972 619 4315 
Q 866 4659 1334 4659 
Q 1766 4659 2048 4351 
Q 2331 4044 2331 3447 
Q 2331 2866 2045 2552 
Q 1759 2238 1341 2238 
Q 925 2238 648 2547 
Q 372 2856 372 3481 
z
M 1350 4272 
Q 1141 4272 1002 4090 
Q 863 3909 863 3425 
Q 863 2984 1003 2804 
Q 1144 2625 1350 2625 
Q 1563 2625 1702 2806 
Q 1841 2988 1841 3469 
Q 1841 3913 1700 4092 
Q 1559 4272 1350 4272 
z
M 1353 -169 
L 3859 4659 
L 4316 4659 
L 1819 -169 
L 1353 -169 
z
M 3334 1075 
Q 3334 1569 3581 1911 
Q 3828 2253 4300 2253 
Q 4731 2253 5014 1945 
Q 5297 1638 5297 1041 
Q 5297 459 5011 145 
Q 4725 -169 4303 -169 
Q 3888 -169 3611 142 
Q 3334 453 3334 1075 
z
M 4316 1866 
Q 4103 1866 3964 1684 
Q 3825 1503 3825 1019 
Q 3825 581 3965 400 
Q 4106 219 4313 219 
Q 4528 219 4667 400 
Q 4806 581 4806 1063 
Q 4806 1506 4665 1686 
Q 4525 1866 4316 1866 
z
" transform="scale(0.015625)"/>
      <path id="ArialMT-29" d="M 791 -1347 
L 388 -1347 
Q 1322 153 1322 1656 
Q 1322 2244 1188 2822 
Q 1081 3291 891 3722 
Q 769 4003 388 4659 
L 791 4659 
Q 1378 3875 1659 3084 
Q 1900 2403 1900 1659 
Q 1900 816 1576 28 
Q 1253 -759 791 -1347 
z
" transform="scale(0.015625)"/>
      <path id="ArialMT-39" d="M 350 1059 
L 891 1109 
Q 959 728 1153 556 
Q 1347 384 1650 384 
Q 1909 384 2104 503 
Q 2300 622 2425 820 
Q 2550 1019 2634 1356 
Q 2719 1694 2719 2044 
Q 2719 2081 2716 2156 
Q 2547 1888 2255 1720 
Q 1963 1553 1622 1553 
Q 1053 1553 659 1965 
Q 266 2378 266 3053 
Q 266 3750 677 4175 
Q 1088 4600 1706 4600 
Q 2153 4600 2523 4359 
Q 2894 4119 3086 3673 
Q 3278 3228 3278 2384 
Q 3278 1506 3087 986 
Q 2897 466 2520 194 
Q 2144 -78 1638 -78 
Q 1100 -78 759 220 
Q 419 519 350 1059 
z
M 2653 3081 
Q 2653 3566 2395 3850 
Q 2138 4134 1775 4134 
Q 1400 4134 1122 3828 
Q 844 3522 844 3034 
Q 844 2597 1108 2323 
Q 1372 2050 1759 2050 
Q 2150 2050 2401 2323 
Q 2653 2597 2653 3081 
z
" transform="scale(0.015625)"/>
     </defs>
     <use xlink:href="#ArialMT-49"/>
     <use xlink:href="#ArialMT-6e" x="27.783203"/>
     <use xlink:href="#ArialMT-66" x="83.398438"/>
     <use xlink:href="#ArialMT-6c" x="111.181641"/>
     <use xlink:href="#ArialMT-75" x="133.398438"/>
     <use xlink:href="#ArialMT-65" x="189.013672"/>
     <use xlink:href="#ArialMT-6e" x="244.628906"/>
     <use xlink:href="#ArialMT-63" x="300.244141"/>
     <use xlink:href="#ArialMT-65" x="350.244141"/>
     <use xlink:href="#ArialMT-20" x="405.859375"/>
     <use xlink:href="#ArialMT-28" x="433.642578"/>
     <use xlink:href="#ArialMT-25" x="466.943359"/>
     <use xlink:href="#ArialMT-20" x="555.859375"/>
     <use xlink:href="#ArialMT-6f" x="583.642578"/>
     <use xlink:href="#ArialMT-66" x="639.257812"/>
     <use xlink:href="#ArialMT-20" x="667.041016"/>
     <use xlink:href="#ArialMT-61" x="694.824219"/>
     <use xlink:href="#ArialMT-75" x="750.439453"/>
     <use xlink:href="#ArialMT-64" x="806.054688"/>
     <use xlink:href="#ArialMT-69" x="861.669922"/>
     <use xlink:href="#ArialMT-74" x="883.886719"/>
     <use xlink:href="#ArialMT-20" x="911.669922"/>
     <use xlink:href="#ArialMT-72" x="939.453125"/>
     <use xlink:href="#ArialMT-61" x="972.753906"/>
     <use xlink:href="#ArialMT-6e" x="1028.369141"/>
     <use xlink:href="#ArialMT-67" x="1083.984375"/>
     <use xlink:href="#ArialMT-65" x="1139.599609"/>
     <use xlink:href="#ArialMT-29" x="1195.214844"/>
     <use xlink:href="#ArialMT-20" x="1228.515625"/>
     <use xlink:href="#ArialMT-30" x="1256.298828"/>
     <use xlink:href="#ArialMT-2e" x="1311.914062"/>
     <use xlink:href="#ArialMT-39" x="1339.697266"/>
     <use xlink:href="#ArialMT-25" x="1395.3125"/>
    </g>
   </g>
   <g id="text_18">
    <g clip-path="url(#pa56599b98f)">
     <!-- 5.900 -->
     <g transform="translate(87.799875 254.056506)rotate(-3.528506)scale(0.08 -0.08)">
      <use xlink:href="#ArialMT-35"/>
      <use xlink:href="#ArialMT-2e" x="55.615234"/>
      <use xlink:href="#ArialMT-39" x="83.398438"/>
      <use xlink:href="#ArialMT-30" x="139.013672"/>
      <use xlink:href="#ArialMT-30" x="194.628906"/>
     </g>
    </g>
   </g>
   <g id="text_19">
    <g clip-path="url(#pa56599b98f)">
     <!-- 5.925 -->
     <g transform="translate(115.646841 228.906686)rotate(-350.980763)scale(0.08 -0.08)">
      <use xlink:href="#ArialMT-35"/>
      <use xlink:href="#ArialMT-2e" x="55.615234"/>
      <use xlink:href="#ArialMT-39" x="83.398438"/>
      <use xlink:href="#ArialMT-32" x="139.013672"/>
      <use xlink:href="#ArialMT-35" x="194.628906"/>
     </g>
    </g>
   </g>
   <g id="text_20">
    <g clip-path="url(#pa56599b98f)">
     <!-- 5.950 -->
     <g transform="translate(144.451101 218.109748)rotate(-328.240158)scale(0.08 -0.08)">
      <use xlink:href="#ArialMT-35"/>
      <use xlink:href="#ArialMT-2e" x="55.615234"/>
      <use xlink:href="#ArialMT-39" x="83.398438"/>
      <use xlink:href="#ArialMT-35" x="139.013672"/>
      <use xlink:href="#ArialMT-30" x="194.628906"/>
     </g>
    </g>
   </g>
   <g id="text_21">
    <g clip-path="url(#pa56599b98f)">
     <!-- 5.975 -->
     <g transform="translate(130.070406 189.119473)rotate(-333.555344)scale(0.08 -0.08)">
      <defs>
       <path id="ArialMT-37" d="M 303 3981 
L 303 4522 
L 3269 4522 
L 3269 4084 
Q 2831 3619 2401 2847 
Q 1972 2075 1738 1259 
Q 1569 684 1522 0 
L 944 0 
Q 953 541 1156 1306 
Q 1359 2072 1739 2783 
Q 2119 3494 2547 3981 
L 303 3981 
z
" transform="scale(0.015625)"/>
      </defs>
      <use xlink:href="#ArialMT-35"/>
      <use xlink:href="#ArialMT-2e" x="55.615234"/>
      <use xlink:href="#ArialMT-39" x="83.398438"/>
      <use xlink:href="#ArialMT-37" x="139.013672"/>
      <use xlink:href="#ArialMT-35" x="194.628906"/>
     </g>
    </g>
   </g>
   <g id="text_22">
    <g clip-path="url(#pa56599b98f)">
     <!-- 6.000 -->
     <g transform="translate(73.67066 172.295512)rotate(-2.820322)scale(0.08 -0.08)">
      <defs>
       <path id="ArialMT-36" d="M 3184 3459 
L 2625 3416 
Q 2550 3747 2413 3897 
Q 2184 4138 1850 4138 
Q 1581 4138 1378 3988 
Q 1113 3794 959 3422 
Q 806 3050 800 2363 
Q 1003 2672 1297 2822 
Q 1591 2972 1913 2972 
Q 2475 2972 2870 2558 
Q 3266 2144 3266 1488 
Q 3266 1056 3080 686 
Q 2894 316 2569 119 
Q 2244 -78 1831 -78 
Q 1128 -78 684 439 
Q 241 956 241 2144 
Q 241 3472 731 4075 
Q 1159 4600 1884 4600 
Q 2425 4600 2770 4297 
Q 3116 3994 3184 3459 
z
M 888 1484 
Q 888 1194 1011 928 
Q 1134 663 1356 523 
Q 1578 384 1822 384 
Q 2178 384 2434 671 
Q 2691 959 2691 1453 
Q 2691 1928 2437 2201 
Q 2184 2475 1800 2475 
Q 1419 2475 1153 2201 
Q 888 1928 888 1484 
z
" transform="scale(0.015625)"/>
      </defs>
      <use xlink:href="#ArialMT-36"/>
      <use xlink:href="#ArialMT-2e" x="55.615234"/>
      <use xlink:href="#ArialMT-30" x="83.398438"/>
      <use xlink:href="#ArialMT-30" x="139.013672"/>
      <use xlink:href="#ArialMT-30" x="194.628906"/>
     </g>
    </g>
   </g>
   <g id="text_23">
    <g clip-path="url(#pa56599b98f)">
     <!-- 6.025 -->
     <g transform="translate(144.252089 158.116934)rotate(-331.792282)scale(0.08 -0.08)">
      <use xlink:href="#ArialMT-36"/>
      <use xlink:href="#ArialMT-2e" x="55.615234"/>
      <use xlink:href="#ArialMT-30" x="83.398438"/>
      <use xlink:href="#ArialMT-32" x="139.013672"/>
      <use xlink:href="#ArialMT-35" x="194.628906"/>
     </g>
    </g>
   </g>
   <g id="text_24">
    <g clip-path="url(#pa56599b98f)">
     <!-- 6.050 -->
     <g transform="translate(73.670287 135.31095)rotate(-2.811966)scale(0.08 -0.08)">
      <use xlink:href="#ArialMT-36"/>
      <use xlink:href="#ArialMT-2e" x="55.615234"/>
      <use xlink:href="#ArialMT-30" x="83.398438"/>
      <use xlink:href="#ArialMT-35" x="139.013672"/>
      <use xlink:href="#ArialMT-30" x="194.628906"/>
     </g>
    </g>
   </g>
   <g id="text_25">
    <g clip-path="url(#pa56599b98f)">
     <!-- 6.075 -->
     <g transform="translate(61.695685 100.515571)rotate(-307.838204)scale(0.08 -0.08)">
      <use xlink:href="#ArialMT-36"/>
      <use xlink:href="#ArialMT-2e" x="55.615234"/>
      <use xlink:href="#ArialMT-30" x="83.398438"/>
      <use xlink:href="#ArialMT-37" x="139.013672"/>
      <use xlink:href="#ArialMT-35" x="194.628906"/>
     </g>
    </g>
   </g>
   <g id="text_26">
    <g clip-path="url(#pa56599b98f)">
     <!-- 6.075 -->
     <g transform="translate(141.176884 86.561514)rotate(-83.02948)scale(0.08 -0.08)">
      <use xlink:href="#ArialMT-36"/>
      <use xlink:href="#ArialMT-2e" x="55.615234"/>
      <use xlink:href="#ArialMT-30" x="83.398438"/>
      <use xlink:href="#ArialMT-37" x="139.013672"/>
      <use xlink:href="#ArialMT-35" x="194.628906"/>
     </g>
    </g>
   </g>
   <g id="text_27">
    <g clip-path="url(#pa56599b98f)">
     <!-- 6.100 -->
     <g transform="translate(186.692315 120.013631)rotate(-329.061278)scale(0.08 -0.08)">
      <use xlink:href="#ArialMT-36"/>
      <use xlink:href="#ArialMT-2e" x="55.615234"/>
      <use xlink:href="#ArialMT-31" x="83.398438"/>
      <use xlink:href="#ArialMT-30" x="139.013672"/>
      <use xlink:href="#ArialMT-30" x="194.628906"/>
     </g>
    </g>
   </g>
   <g id="text_28">
    <g clip-path="url(#pa56599b98f)">
     <!-- 6.125 -->
     <g transform="translate(233.699874 106.060664)rotate(-49.478454)scale(0.08 -0.08)">
      <use xlink:href="#ArialMT-36"/>
      <use xlink:href="#ArialMT-2e" x="55.615234"/>
      <use xlink:href="#ArialMT-31" x="83.398438"/>
      <use xlink:href="#ArialMT-32" x="139.013672"/>
      <use xlink:href="#ArialMT-35" x="194.628906"/>
     </g>
    </g>
   </g>
  </g>
  <g id="axes_2">
   <g id="patch_7">
    <path d="M 325.855 259.483125 
L 336.727 259.483125 
L 336.727 42.043125 
L 325.855 42.043125 
z
" style="fill: #eaeaf2"/>
   </g>
   <g id="patch_8">
    <path clip-path="url(#pf2cbc2be8c)" style="fill: #eaeaf2; stroke: #eaeaf2; stroke-width: 0.01; stroke-linejoin: miter"/>
   </g>
   <g id="matplotlib.axis_3">
    <g id="ytick_8">
     <g id="line2d_15">
      <defs>
       <path id="m62f91b7c7e" d="M 0 0 
L 3.5 0 
" style="stroke: #262626; stroke-width: 0.8"/>
      </defs>
      <g>
       <use xlink:href="#m62f91b7c7e" x="336.727" y="259.483125" style="fill: #262626; stroke: #262626; stroke-width: 0.8"/>
      </g>
     </g>
     <g id="text_29">
      <!-- 5.875 -->
      <g style="fill: #262626" transform="translate(343.727 263.062031)scale(0.1 -0.1)">
       <defs>
        <path id="ArialMT-38" d="M 1131 2484 
Q 781 2613 612 2850 
Q 444 3088 444 3419 
Q 444 3919 803 4259 
Q 1163 4600 1759 4600 
Q 2359 4600 2725 4251 
Q 3091 3903 3091 3403 
Q 3091 3084 2923 2848 
Q 2756 2613 2416 2484 
Q 2838 2347 3058 2040 
Q 3278 1734 3278 1309 
Q 3278 722 2862 322 
Q 2447 -78 1769 -78 
Q 1091 -78 675 323 
Q 259 725 259 1325 
Q 259 1772 486 2073 
Q 713 2375 1131 2484 
z
M 1019 3438 
Q 1019 3113 1228 2906 
Q 1438 2700 1772 2700 
Q 2097 2700 2305 2904 
Q 2513 3109 2513 3406 
Q 2513 3716 2298 3927 
Q 2084 4138 1766 4138 
Q 1444 4138 1231 3931 
Q 1019 3725 1019 3438 
z
M 838 1322 
Q 838 1081 952 856 
Q 1066 631 1291 507 
Q 1516 384 1775 384 
Q 2178 384 2440 643 
Q 2703 903 2703 1303 
Q 2703 1709 2433 1975 
Q 2163 2241 1756 2241 
Q 1359 2241 1098 1978 
Q 838 1716 838 1322 
z
" transform="scale(0.015625)"/>
       </defs>
       <use xlink:href="#ArialMT-35"/>
       <use xlink:href="#ArialMT-2e" x="55.615234"/>
       <use xlink:href="#ArialMT-38" x="83.398438"/>
       <use xlink:href="#ArialMT-37" x="139.013672"/>
       <use xlink:href="#ArialMT-35" x="194.628906"/>
      </g>
     </g>
    </g>
    <g id="ytick_9">
     <g id="line2d_16">
      <g>
       <use xlink:href="#m62f91b7c7e" x="336.727" y="219.94858" style="fill: #262626; stroke: #262626; stroke-width: 0.8"/>
      </g>
     </g>
     <g id="text_30">
      <!-- 5.925 -->
      <g style="fill: #262626" transform="translate(343.727 223.527486)scale(0.1 -0.1)">
       <use xlink:href="#ArialMT-35"/>
       <use xlink:href="#ArialMT-2e" x="55.615234"/>
       <use xlink:href="#ArialMT-39" x="83.398438"/>
       <use xlink:href="#ArialMT-32" x="139.013672"/>
       <use xlink:href="#ArialMT-35" x="194.628906"/>
      </g>
     </g>
    </g>
    <g id="ytick_10">
     <g id="line2d_17">
      <g>
       <use xlink:href="#m62f91b7c7e" x="336.727" y="180.414034" style="fill: #262626; stroke: #262626; stroke-width: 0.8"/>
      </g>
     </g>
     <g id="text_31">
      <!-- 5.975 -->
      <g style="fill: #262626" transform="translate(343.727 183.99294)scale(0.1 -0.1)">
       <use xlink:href="#ArialMT-35"/>
       <use xlink:href="#ArialMT-2e" x="55.615234"/>
       <use xlink:href="#ArialMT-39" x="83.398438"/>
       <use xlink:href="#ArialMT-37" x="139.013672"/>
       <use xlink:href="#ArialMT-35" x="194.628906"/>
      </g>
     </g>
    </g>
    <g id="ytick_11">
     <g id="line2d_18">
      <g>
       <use xlink:href="#m62f91b7c7e" x="336.727" y="140.879489" style="fill: #262626; stroke: #262626; stroke-width: 0.8"/>
      </g>
     </g>
     <g id="text_32">
      <!-- 6.025 -->
      <g style="fill: #262626" transform="translate(343.727 144.458395)scale(0.1 -0.1)">
       <use xlink:href="#ArialMT-36"/>
       <use xlink:href="#ArialMT-2e" x="55.615234"/>
       <use xlink:href="#ArialMT-30" x="83.398438"/>
       <use xlink:href="#ArialMT-32" x="139.013672"/>
       <use xlink:href="#ArialMT-35" x="194.628906"/>
      </g>
     </g>
    </g>
    <g id="ytick_12">
     <g id="line2d_19">
      <g>
       <use xlink:href="#m62f91b7c7e" x="336.727" y="101.344943" style="fill: #262626; stroke: #262626; stroke-width: 0.8"/>
      </g>
     </g>
     <g id="text_33">
      <!-- 6.075 -->
      <g style="fill: #262626" transform="translate(343.727 104.923849)scale(0.1 -0.1)">
       <use xlink:href="#ArialMT-36"/>
       <use xlink:href="#ArialMT-2e" x="55.615234"/>
       <use xlink:href="#ArialMT-30" x="83.398438"/>
       <use xlink:href="#ArialMT-37" x="139.013672"/>
       <use xlink:href="#ArialMT-35" x="194.628906"/>
      </g>
     </g>
    </g>
    <g id="ytick_13">
     <g id="line2d_20">
      <g>
       <use xlink:href="#m62f91b7c7e" x="336.727" y="61.810398" style="fill: #262626; stroke: #262626; stroke-width: 0.8"/>
      </g>
     </g>
     <g id="text_34">
      <!-- 6.125 -->
      <g style="fill: #262626" transform="translate(343.727 65.389304)scale(0.1 -0.1)">
       <use xlink:href="#ArialMT-36"/>
       <use xlink:href="#ArialMT-2e" x="55.615234"/>
       <use xlink:href="#ArialMT-31" x="83.398438"/>
       <use xlink:href="#ArialMT-32" x="139.013672"/>
       <use xlink:href="#ArialMT-35" x="194.628906"/>
      </g>
     </g>
    </g>
   </g>
   <g id="QuadMesh_1">
    <path d="M 325.855 259.483125 
L 336.727 259.483125 
L 336.727 239.715852 
L 325.855 239.715852 
L 325.855 259.483125 
" clip-path="url(#pf2cbc2be8c)" style="fill: #485fd1"/>
    <path d="M 325.855 239.715852 
L 336.727 239.715852 
L 336.727 219.94858 
L 325.855 219.94858 
L 325.855 239.715852 
" clip-path="url(#pf2cbc2be8c)" style="fill: #6485ec"/>
    <path d="M 325.855 219.94858 
L 336.727 219.94858 
L 336.727 200.181307 
L 325.855 200.181307 
L 325.855 219.94858 
" clip-path="url(#pf2cbc2be8c)" style="fill: #85a8fc"/>
    <path d="M 325.855 200.181307 
L 336.727 200.181307 
L 336.727 180.414034 
L 325.855 180.414034 
L 325.855 200.181307 
" clip-path="url(#pf2cbc2be8c)" style="fill: #a5c3fe"/>
    <path d="M 325.855 180.414034 
L 336.727 180.414034 
L 336.727 160.646761 
L 325.855 160.646761 
L 325.855 180.414034 
" clip-path="url(#pf2cbc2be8c)" style="fill: #c3d5f4"/>
    <path d="M 325.855 160.646761 
L 336.727 160.646761 
L 336.727 140.879489 
L 325.855 140.879489 
L 325.855 160.646761 
" clip-path="url(#pf2cbc2be8c)" style="fill: #dddcdc"/>
    <path d="M 325.855 140.879489 
L 336.727 140.879489 
L 336.727 121.112216 
L 325.855 121.112216 
L 325.855 140.879489 
" clip-path="url(#pf2cbc2be8c)" style="fill: #f1cdba"/>
    <path d="M 325.855 121.112216 
L 336.727 121.112216 
L 336.727 101.344943 
L 325.855 101.344943 
L 325.855 121.112216 
" clip-path="url(#pf2cbc2be8c)" style="fill: #f7b396"/>
    <path d="M 325.855 101.344943 
L 336.727 101.344943 
L 336.727 81.57767 
L 325.855 81.57767 
L 325.855 101.344943 
" clip-path="url(#pf2cbc2be8c)" style="fill: #f29072"/>
    <path d="M 325.855 81.57767 
L 336.727 81.57767 
L 336.727 61.810398 
L 325.855 61.810398 
L 325.855 81.57767 
" clip-path="url(#pf2cbc2be8c)" style="fill: #e0654f"/>
    <path d="M 325.855 61.810398 
L 336.727 61.810398 
L 336.727 42.043125 
L 325.855 42.043125 
L 325.855 61.810398 
" clip-path="url(#pf2cbc2be8c)" style="fill: #c43032"/>
   </g>
   <g id="LineCollection_1"/>
   <g id="patch_9">
    <path d="M 325.855 259.483125 
L 331.291 259.483125 
L 336.727 259.483125 
L 336.727 42.043125 
L 331.291 42.043125 
L 325.855 42.043125 
L 325.855 259.483125 
z
" style="fill: none; stroke: #ffffff; stroke-width: 0.8; stroke-linejoin: miter; stroke-linecap: square"/>
   </g>
  </g>
 </g>
 <defs>
  <clipPath id="pa56599b98f">
   <rect x="41.275" y="42.043125" width="267.84" height="217.44"/>
  </clipPath>
  <clipPath id="pf2cbc2be8c">
   <rect x="325.855" y="42.043125" width="10.872" height="217.44"/>
  </clipPath>
 </defs>
</svg>
