<?xml version="1.0" encoding="utf-8" standalone="no"?>
<!DOCTYPE svg PUBLIC "-//W3C//DTD SVG 1.1//EN"
  "http://www.w3.org/Graphics/SVG/1.1/DTD/svg11.dtd">
<svg xmlns:xlink="http://www.w3.org/1999/xlink" width="376.15825pt" height="296.212812pt" viewBox="0 0 376.15825 296.212812" xmlns="http://www.w3.org/2000/svg" version="1.1">
 <metadata>
  <rdf:RDF xmlns:dc="http://purl.org/dc/elements/1.1/" xmlns:cc="http://creativecommons.org/ns#" xmlns:rdf="http://www.w3.org/1999/02/22-rdf-syntax-ns#">
   <cc:Work>
    <dc:type rdf:resource="http://purl.org/dc/dcmitype/StillImage"/>
    <dc:date>2022-04-26T09:15:40.548664</dc:date>
    <dc:format>image/svg+xml</dc:format>
    <dc:creator>
     <cc:Agent>
      <dc:title>Matplotlib v3.5.1, https://matplotlib.org/</dc:title>
     </cc:Agent>
    </dc:creator>
   </cc:Work>
  </rdf:RDF>
 </metadata>
 <defs>
  <style type="text/css">*{stroke-linejoin: round; stroke-linecap: butt}</style>
 </defs>
 <g id="figure_1">
  <g id="patch_1">
   <path d="M 0 296.212812 
L 376.15825 296.212812 
L 376.15825 0 
L 0 0 
z
" style="fill: #ffffff"/>
  </g>
  <g id="axes_1">
   <g id="patch_2">
    <path d="M 41.484375 259.600312 
L 309.324375 259.600312 
L 309.324375 42.160312 
L 41.484375 42.160312 
z
" style="fill: #eaeaf2"/>
   </g>
   <g id="matplotlib.axis_1">
    <g id="xtick_1">
     <g id="line2d_1">
      <path d="M 41.484375 259.600312 
L 41.484375 42.160312 
" clip-path="url(#p064842f067)" style="fill: none; stroke: #ffffff; stroke-width: 0.8; stroke-linecap: round"/>
     </g>
     <g id="text_1">
      <!-- 1.0 -->
      <g style="fill: #262626" transform="translate(34.534375 273.758125)scale(0.1 -0.1)">
       <defs>
        <path id="ArialMT-31" d="M 2384 0 
L 1822 0 
L 1822 3584 
Q 1619 3391 1289 3197 
Q 959 3003 697 2906 
L 697 3450 
Q 1169 3672 1522 3987 
Q 1875 4303 2022 4600 
L 2384 4600 
L 2384 0 
z
" transform="scale(0.015625)"/>
        <path id="ArialMT-2e" d="M 581 0 
L 581 641 
L 1222 641 
L 1222 0 
L 581 0 
z
" transform="scale(0.015625)"/>
        <path id="ArialMT-30" d="M 266 2259 
Q 266 3072 433 3567 
Q 600 4063 929 4331 
Q 1259 4600 1759 4600 
Q 2128 4600 2406 4451 
Q 2684 4303 2865 4023 
Q 3047 3744 3150 3342 
Q 3253 2941 3253 2259 
Q 3253 1453 3087 958 
Q 2922 463 2592 192 
Q 2263 -78 1759 -78 
Q 1097 -78 719 397 
Q 266 969 266 2259 
z
M 844 2259 
Q 844 1131 1108 757 
Q 1372 384 1759 384 
Q 2147 384 2411 759 
Q 2675 1134 2675 2259 
Q 2675 3391 2411 3762 
Q 2147 4134 1753 4134 
Q 1366 4134 1134 3806 
Q 844 3388 844 2259 
z
" transform="scale(0.015625)"/>
       </defs>
       <use xlink:href="#ArialMT-31"/>
       <use xlink:href="#ArialMT-2e" x="55.615234"/>
       <use xlink:href="#ArialMT-30" x="83.398438"/>
      </g>
     </g>
    </g>
    <g id="xtick_2">
     <g id="line2d_2">
      <path d="M 74.964375 259.600312 
L 74.964375 42.160312 
" clip-path="url(#p064842f067)" style="fill: none; stroke: #ffffff; stroke-width: 0.8; stroke-linecap: round"/>
     </g>
     <g id="text_2">
      <!-- 1.5 -->
      <g style="fill: #262626" transform="translate(68.014375 273.758125)scale(0.1 -0.1)">
       <defs>
        <path id="ArialMT-35" d="M 266 1200 
L 856 1250 
Q 922 819 1161 601 
Q 1400 384 1738 384 
Q 2144 384 2425 690 
Q 2706 997 2706 1503 
Q 2706 1984 2436 2262 
Q 2166 2541 1728 2541 
Q 1456 2541 1237 2417 
Q 1019 2294 894 2097 
L 366 2166 
L 809 4519 
L 3088 4519 
L 3088 3981 
L 1259 3981 
L 1013 2750 
Q 1425 3038 1878 3038 
Q 2478 3038 2890 2622 
Q 3303 2206 3303 1553 
Q 3303 931 2941 478 
Q 2500 -78 1738 -78 
Q 1113 -78 717 272 
Q 322 622 266 1200 
z
" transform="scale(0.015625)"/>
       </defs>
       <use xlink:href="#ArialMT-31"/>
       <use xlink:href="#ArialMT-2e" x="55.615234"/>
       <use xlink:href="#ArialMT-35" x="83.398438"/>
      </g>
     </g>
    </g>
    <g id="xtick_3">
     <g id="line2d_3">
      <path d="M 108.444375 259.600312 
L 108.444375 42.160312 
" clip-path="url(#p064842f067)" style="fill: none; stroke: #ffffff; stroke-width: 0.8; stroke-linecap: round"/>
     </g>
     <g id="text_3">
      <!-- 2.0 -->
      <g style="fill: #262626" transform="translate(101.494375 273.758125)scale(0.1 -0.1)">
       <defs>
        <path id="ArialMT-32" d="M 3222 541 
L 3222 0 
L 194 0 
Q 188 203 259 391 
Q 375 700 629 1000 
Q 884 1300 1366 1694 
Q 2113 2306 2375 2664 
Q 2638 3022 2638 3341 
Q 2638 3675 2398 3904 
Q 2159 4134 1775 4134 
Q 1369 4134 1125 3890 
Q 881 3647 878 3216 
L 300 3275 
Q 359 3922 746 4261 
Q 1134 4600 1788 4600 
Q 2447 4600 2831 4234 
Q 3216 3869 3216 3328 
Q 3216 3053 3103 2787 
Q 2991 2522 2730 2228 
Q 2469 1934 1863 1422 
Q 1356 997 1212 845 
Q 1069 694 975 541 
L 3222 541 
z
" transform="scale(0.015625)"/>
       </defs>
       <use xlink:href="#ArialMT-32"/>
       <use xlink:href="#ArialMT-2e" x="55.615234"/>
       <use xlink:href="#ArialMT-30" x="83.398438"/>
      </g>
     </g>
    </g>
    <g id="xtick_4">
     <g id="line2d_4">
      <path d="M 141.924375 259.600312 
L 141.924375 42.160312 
" clip-path="url(#p064842f067)" style="fill: none; stroke: #ffffff; stroke-width: 0.8; stroke-linecap: round"/>
     </g>
     <g id="text_4">
      <!-- 2.5 -->
      <g style="fill: #262626" transform="translate(134.974375 273.758125)scale(0.1 -0.1)">
       <use xlink:href="#ArialMT-32"/>
       <use xlink:href="#ArialMT-2e" x="55.615234"/>
       <use xlink:href="#ArialMT-35" x="83.398438"/>
      </g>
     </g>
    </g>
    <g id="xtick_5">
     <g id="line2d_5">
      <path d="M 175.404375 259.600312 
L 175.404375 42.160312 
" clip-path="url(#p064842f067)" style="fill: none; stroke: #ffffff; stroke-width: 0.8; stroke-linecap: round"/>
     </g>
     <g id="text_5">
      <!-- 3.0 -->
      <g style="fill: #262626" transform="translate(168.454375 273.758125)scale(0.1 -0.1)">
       <defs>
        <path id="ArialMT-33" d="M 269 1209 
L 831 1284 
Q 928 806 1161 595 
Q 1394 384 1728 384 
Q 2125 384 2398 659 
Q 2672 934 2672 1341 
Q 2672 1728 2419 1979 
Q 2166 2231 1775 2231 
Q 1616 2231 1378 2169 
L 1441 2663 
Q 1497 2656 1531 2656 
Q 1891 2656 2178 2843 
Q 2466 3031 2466 3422 
Q 2466 3731 2256 3934 
Q 2047 4138 1716 4138 
Q 1388 4138 1169 3931 
Q 950 3725 888 3313 
L 325 3413 
Q 428 3978 793 4289 
Q 1159 4600 1703 4600 
Q 2078 4600 2393 4439 
Q 2709 4278 2876 4000 
Q 3044 3722 3044 3409 
Q 3044 3113 2884 2869 
Q 2725 2625 2413 2481 
Q 2819 2388 3044 2092 
Q 3269 1797 3269 1353 
Q 3269 753 2831 336 
Q 2394 -81 1725 -81 
Q 1122 -81 723 278 
Q 325 638 269 1209 
z
" transform="scale(0.015625)"/>
       </defs>
       <use xlink:href="#ArialMT-33"/>
       <use xlink:href="#ArialMT-2e" x="55.615234"/>
       <use xlink:href="#ArialMT-30" x="83.398438"/>
      </g>
     </g>
    </g>
    <g id="xtick_6">
     <g id="line2d_6">
      <path d="M 208.884375 259.600312 
L 208.884375 42.160312 
" clip-path="url(#p064842f067)" style="fill: none; stroke: #ffffff; stroke-width: 0.8; stroke-linecap: round"/>
     </g>
     <g id="text_6">
      <!-- 3.5 -->
      <g style="fill: #262626" transform="translate(201.934375 273.758125)scale(0.1 -0.1)">
       <use xlink:href="#ArialMT-33"/>
       <use xlink:href="#ArialMT-2e" x="55.615234"/>
       <use xlink:href="#ArialMT-35" x="83.398438"/>
      </g>
     </g>
    </g>
    <g id="xtick_7">
     <g id="line2d_7">
      <path d="M 242.364375 259.600312 
L 242.364375 42.160312 
" clip-path="url(#p064842f067)" style="fill: none; stroke: #ffffff; stroke-width: 0.8; stroke-linecap: round"/>
     </g>
     <g id="text_7">
      <!-- 4.0 -->
      <g style="fill: #262626" transform="translate(235.414375 273.758125)scale(0.1 -0.1)">
       <defs>
        <path id="ArialMT-34" d="M 2069 0 
L 2069 1097 
L 81 1097 
L 81 1613 
L 2172 4581 
L 2631 4581 
L 2631 1613 
L 3250 1613 
L 3250 1097 
L 2631 1097 
L 2631 0 
L 2069 0 
z
M 2069 1613 
L 2069 3678 
L 634 1613 
L 2069 1613 
z
" transform="scale(0.015625)"/>
       </defs>
       <use xlink:href="#ArialMT-34"/>
       <use xlink:href="#ArialMT-2e" x="55.615234"/>
       <use xlink:href="#ArialMT-30" x="83.398438"/>
      </g>
     </g>
    </g>
    <g id="xtick_8">
     <g id="line2d_8">
      <path d="M 275.844375 259.600312 
L 275.844375 42.160312 
" clip-path="url(#p064842f067)" style="fill: none; stroke: #ffffff; stroke-width: 0.8; stroke-linecap: round"/>
     </g>
     <g id="text_8">
      <!-- 4.5 -->
      <g style="fill: #262626" transform="translate(268.894375 273.758125)scale(0.1 -0.1)">
       <use xlink:href="#ArialMT-34"/>
       <use xlink:href="#ArialMT-2e" x="55.615234"/>
       <use xlink:href="#ArialMT-35" x="83.398438"/>
      </g>
     </g>
    </g>
    <g id="xtick_9">
     <g id="line2d_9">
      <path d="M 309.324375 259.600312 
L 309.324375 42.160312 
" clip-path="url(#p064842f067)" style="fill: none; stroke: #ffffff; stroke-width: 0.8; stroke-linecap: round"/>
     </g>
     <g id="text_9">
      <!-- 5.0 -->
      <g style="fill: #262626" transform="translate(302.374375 273.758125)scale(0.1 -0.1)">
       <use xlink:href="#ArialMT-35"/>
       <use xlink:href="#ArialMT-2e" x="55.615234"/>
       <use xlink:href="#ArialMT-30" x="83.398438"/>
      </g>
     </g>
    </g>
    <g id="text_10">
     <!-- Predictor: ffmq_ds4 -->
     <g style="fill: #262626" transform="translate(132.142656 287.025312)scale(0.1 -0.1)">
      <defs>
       <path id="ArialMT-50" d="M 494 0 
L 494 4581 
L 2222 4581 
Q 2678 4581 2919 4538 
Q 3256 4481 3484 4323 
Q 3713 4166 3852 3881 
Q 3991 3597 3991 3256 
Q 3991 2672 3619 2267 
Q 3247 1863 2275 1863 
L 1100 1863 
L 1100 0 
L 494 0 
z
M 1100 2403 
L 2284 2403 
Q 2872 2403 3119 2622 
Q 3366 2841 3366 3238 
Q 3366 3525 3220 3729 
Q 3075 3934 2838 4000 
Q 2684 4041 2272 4041 
L 1100 4041 
L 1100 2403 
z
" transform="scale(0.015625)"/>
       <path id="ArialMT-72" d="M 416 0 
L 416 3319 
L 922 3319 
L 922 2816 
Q 1116 3169 1280 3281 
Q 1444 3394 1641 3394 
Q 1925 3394 2219 3213 
L 2025 2691 
Q 1819 2813 1613 2813 
Q 1428 2813 1281 2702 
Q 1134 2591 1072 2394 
Q 978 2094 978 1738 
L 978 0 
L 416 0 
z
" transform="scale(0.015625)"/>
       <path id="ArialMT-65" d="M 2694 1069 
L 3275 997 
Q 3138 488 2766 206 
Q 2394 -75 1816 -75 
Q 1088 -75 661 373 
Q 234 822 234 1631 
Q 234 2469 665 2931 
Q 1097 3394 1784 3394 
Q 2450 3394 2872 2941 
Q 3294 2488 3294 1666 
Q 3294 1616 3291 1516 
L 816 1516 
Q 847 969 1125 678 
Q 1403 388 1819 388 
Q 2128 388 2347 550 
Q 2566 713 2694 1069 
z
M 847 1978 
L 2700 1978 
Q 2663 2397 2488 2606 
Q 2219 2931 1791 2931 
Q 1403 2931 1139 2672 
Q 875 2413 847 1978 
z
" transform="scale(0.015625)"/>
       <path id="ArialMT-64" d="M 2575 0 
L 2575 419 
Q 2259 -75 1647 -75 
Q 1250 -75 917 144 
Q 584 363 401 755 
Q 219 1147 219 1656 
Q 219 2153 384 2558 
Q 550 2963 881 3178 
Q 1213 3394 1622 3394 
Q 1922 3394 2156 3267 
Q 2391 3141 2538 2938 
L 2538 4581 
L 3097 4581 
L 3097 0 
L 2575 0 
z
M 797 1656 
Q 797 1019 1065 703 
Q 1334 388 1700 388 
Q 2069 388 2326 689 
Q 2584 991 2584 1609 
Q 2584 2291 2321 2609 
Q 2059 2928 1675 2928 
Q 1300 2928 1048 2622 
Q 797 2316 797 1656 
z
" transform="scale(0.015625)"/>
       <path id="ArialMT-69" d="M 425 3934 
L 425 4581 
L 988 4581 
L 988 3934 
L 425 3934 
z
M 425 0 
L 425 3319 
L 988 3319 
L 988 0 
L 425 0 
z
" transform="scale(0.015625)"/>
       <path id="ArialMT-63" d="M 2588 1216 
L 3141 1144 
Q 3050 572 2676 248 
Q 2303 -75 1759 -75 
Q 1078 -75 664 370 
Q 250 816 250 1647 
Q 250 2184 428 2587 
Q 606 2991 970 3192 
Q 1334 3394 1763 3394 
Q 2303 3394 2647 3120 
Q 2991 2847 3088 2344 
L 2541 2259 
Q 2463 2594 2264 2762 
Q 2066 2931 1784 2931 
Q 1359 2931 1093 2626 
Q 828 2322 828 1663 
Q 828 994 1084 691 
Q 1341 388 1753 388 
Q 2084 388 2306 591 
Q 2528 794 2588 1216 
z
" transform="scale(0.015625)"/>
       <path id="ArialMT-74" d="M 1650 503 
L 1731 6 
Q 1494 -44 1306 -44 
Q 1000 -44 831 53 
Q 663 150 594 308 
Q 525 466 525 972 
L 525 2881 
L 113 2881 
L 113 3319 
L 525 3319 
L 525 4141 
L 1084 4478 
L 1084 3319 
L 1650 3319 
L 1650 2881 
L 1084 2881 
L 1084 941 
Q 1084 700 1114 631 
Q 1144 563 1211 522 
Q 1278 481 1403 481 
Q 1497 481 1650 503 
z
" transform="scale(0.015625)"/>
       <path id="ArialMT-6f" d="M 213 1659 
Q 213 2581 725 3025 
Q 1153 3394 1769 3394 
Q 2453 3394 2887 2945 
Q 3322 2497 3322 1706 
Q 3322 1066 3130 698 
Q 2938 331 2570 128 
Q 2203 -75 1769 -75 
Q 1072 -75 642 372 
Q 213 819 213 1659 
z
M 791 1659 
Q 791 1022 1069 705 
Q 1347 388 1769 388 
Q 2188 388 2466 706 
Q 2744 1025 2744 1678 
Q 2744 2294 2464 2611 
Q 2184 2928 1769 2928 
Q 1347 2928 1069 2612 
Q 791 2297 791 1659 
z
" transform="scale(0.015625)"/>
       <path id="ArialMT-3a" d="M 578 2678 
L 578 3319 
L 1219 3319 
L 1219 2678 
L 578 2678 
z
M 578 0 
L 578 641 
L 1219 641 
L 1219 0 
L 578 0 
z
" transform="scale(0.015625)"/>
       <path id="ArialMT-20" transform="scale(0.015625)"/>
       <path id="ArialMT-66" d="M 556 0 
L 556 2881 
L 59 2881 
L 59 3319 
L 556 3319 
L 556 3672 
Q 556 4006 616 4169 
Q 697 4388 901 4523 
Q 1106 4659 1475 4659 
Q 1713 4659 2000 4603 
L 1916 4113 
Q 1741 4144 1584 4144 
Q 1328 4144 1222 4034 
Q 1116 3925 1116 3625 
L 1116 3319 
L 1763 3319 
L 1763 2881 
L 1116 2881 
L 1116 0 
L 556 0 
z
" transform="scale(0.015625)"/>
       <path id="ArialMT-6d" d="M 422 0 
L 422 3319 
L 925 3319 
L 925 2853 
Q 1081 3097 1340 3245 
Q 1600 3394 1931 3394 
Q 2300 3394 2536 3241 
Q 2772 3088 2869 2813 
Q 3263 3394 3894 3394 
Q 4388 3394 4653 3120 
Q 4919 2847 4919 2278 
L 4919 0 
L 4359 0 
L 4359 2091 
Q 4359 2428 4304 2576 
Q 4250 2725 4106 2815 
Q 3963 2906 3769 2906 
Q 3419 2906 3187 2673 
Q 2956 2441 2956 1928 
L 2956 0 
L 2394 0 
L 2394 2156 
Q 2394 2531 2256 2718 
Q 2119 2906 1806 2906 
Q 1569 2906 1367 2781 
Q 1166 2656 1075 2415 
Q 984 2175 984 1722 
L 984 0 
L 422 0 
z
" transform="scale(0.015625)"/>
       <path id="ArialMT-71" d="M 2538 -1272 
L 2538 353 
Q 2406 169 2170 47 
Q 1934 -75 1669 -75 
Q 1078 -75 651 397 
Q 225 869 225 1691 
Q 225 2191 398 2587 
Q 572 2984 901 3189 
Q 1231 3394 1625 3394 
Q 2241 3394 2594 2875 
L 2594 3319 
L 3100 3319 
L 3100 -1272 
L 2538 -1272 
z
M 803 1669 
Q 803 1028 1072 708 
Q 1341 388 1716 388 
Q 2075 388 2334 692 
Q 2594 997 2594 1619 
Q 2594 2281 2320 2615 
Q 2047 2950 1678 2950 
Q 1313 2950 1058 2639 
Q 803 2328 803 1669 
z
" transform="scale(0.015625)"/>
       <path id="ArialMT-5f" d="M -97 -1272 
L -97 -866 
L 3631 -866 
L 3631 -1272 
L -97 -1272 
z
" transform="scale(0.015625)"/>
       <path id="ArialMT-73" d="M 197 991 
L 753 1078 
Q 800 744 1014 566 
Q 1228 388 1613 388 
Q 2000 388 2187 545 
Q 2375 703 2375 916 
Q 2375 1106 2209 1216 
Q 2094 1291 1634 1406 
Q 1016 1563 777 1677 
Q 538 1791 414 1992 
Q 291 2194 291 2438 
Q 291 2659 392 2848 
Q 494 3038 669 3163 
Q 800 3259 1026 3326 
Q 1253 3394 1513 3394 
Q 1903 3394 2198 3281 
Q 2494 3169 2634 2976 
Q 2775 2784 2828 2463 
L 2278 2388 
Q 2241 2644 2061 2787 
Q 1881 2931 1553 2931 
Q 1166 2931 1000 2803 
Q 834 2675 834 2503 
Q 834 2394 903 2306 
Q 972 2216 1119 2156 
Q 1203 2125 1616 2013 
Q 2213 1853 2448 1751 
Q 2684 1650 2818 1456 
Q 2953 1263 2953 975 
Q 2953 694 2789 445 
Q 2625 197 2315 61 
Q 2006 -75 1616 -75 
Q 969 -75 630 194 
Q 291 463 197 991 
z
" transform="scale(0.015625)"/>
      </defs>
      <use xlink:href="#ArialMT-50"/>
      <use xlink:href="#ArialMT-72" x="66.699219"/>
      <use xlink:href="#ArialMT-65" x="100"/>
      <use xlink:href="#ArialMT-64" x="155.615234"/>
      <use xlink:href="#ArialMT-69" x="211.230469"/>
      <use xlink:href="#ArialMT-63" x="233.447266"/>
      <use xlink:href="#ArialMT-74" x="283.447266"/>
      <use xlink:href="#ArialMT-6f" x="311.230469"/>
      <use xlink:href="#ArialMT-72" x="366.845703"/>
      <use xlink:href="#ArialMT-3a" x="400.146484"/>
      <use xlink:href="#ArialMT-20" x="427.929688"/>
      <use xlink:href="#ArialMT-66" x="455.712891"/>
      <use xlink:href="#ArialMT-66" x="481.746094"/>
      <use xlink:href="#ArialMT-6d" x="509.529297"/>
      <use xlink:href="#ArialMT-71" x="592.830078"/>
      <use xlink:href="#ArialMT-5f" x="648.445312"/>
      <use xlink:href="#ArialMT-64" x="704.060547"/>
      <use xlink:href="#ArialMT-73" x="759.675781"/>
      <use xlink:href="#ArialMT-34" x="809.675781"/>
     </g>
    </g>
   </g>
   <g id="matplotlib.axis_2">
    <g id="ytick_1">
     <g id="line2d_10">
      <path d="M 41.484375 259.600312 
L 309.324375 259.600312 
" clip-path="url(#p064842f067)" style="fill: none; stroke: #ffffff; stroke-width: 0.8; stroke-linecap: round"/>
     </g>
     <g id="text_11">
      <!-- 1.0 -->
      <g style="fill: #262626" transform="translate(20.584375 263.179219)scale(0.1 -0.1)">
       <use xlink:href="#ArialMT-31"/>
       <use xlink:href="#ArialMT-2e" x="55.615234"/>
       <use xlink:href="#ArialMT-30" x="83.398438"/>
      </g>
     </g>
    </g>
    <g id="ytick_2">
     <g id="line2d_11">
      <path d="M 41.484375 232.420312 
L 309.324375 232.420312 
" clip-path="url(#p064842f067)" style="fill: none; stroke: #ffffff; stroke-width: 0.8; stroke-linecap: round"/>
     </g>
     <g id="text_12">
      <!-- 1.5 -->
      <g style="fill: #262626" transform="translate(20.584375 235.999219)scale(0.1 -0.1)">
       <use xlink:href="#ArialMT-31"/>
       <use xlink:href="#ArialMT-2e" x="55.615234"/>
       <use xlink:href="#ArialMT-35" x="83.398438"/>
      </g>
     </g>
    </g>
    <g id="ytick_3">
     <g id="line2d_12">
      <path d="M 41.484375 205.240312 
L 309.324375 205.240312 
" clip-path="url(#p064842f067)" style="fill: none; stroke: #ffffff; stroke-width: 0.8; stroke-linecap: round"/>
     </g>
     <g id="text_13">
      <!-- 2.0 -->
      <g style="fill: #262626" transform="translate(20.584375 208.819219)scale(0.1 -0.1)">
       <use xlink:href="#ArialMT-32"/>
       <use xlink:href="#ArialMT-2e" x="55.615234"/>
       <use xlink:href="#ArialMT-30" x="83.398438"/>
      </g>
     </g>
    </g>
    <g id="ytick_4">
     <g id="line2d_13">
      <path d="M 41.484375 178.060312 
L 309.324375 178.060312 
" clip-path="url(#p064842f067)" style="fill: none; stroke: #ffffff; stroke-width: 0.8; stroke-linecap: round"/>
     </g>
     <g id="text_14">
      <!-- 2.5 -->
      <g style="fill: #262626" transform="translate(20.584375 181.639219)scale(0.1 -0.1)">
       <use xlink:href="#ArialMT-32"/>
       <use xlink:href="#ArialMT-2e" x="55.615234"/>
       <use xlink:href="#ArialMT-35" x="83.398438"/>
      </g>
     </g>
    </g>
    <g id="ytick_5">
     <g id="line2d_14">
      <path d="M 41.484375 150.880312 
L 309.324375 150.880312 
" clip-path="url(#p064842f067)" style="fill: none; stroke: #ffffff; stroke-width: 0.8; stroke-linecap: round"/>
     </g>
     <g id="text_15">
      <!-- 3.0 -->
      <g style="fill: #262626" transform="translate(20.584375 154.459219)scale(0.1 -0.1)">
       <use xlink:href="#ArialMT-33"/>
       <use xlink:href="#ArialMT-2e" x="55.615234"/>
       <use xlink:href="#ArialMT-30" x="83.398438"/>
      </g>
     </g>
    </g>
    <g id="ytick_6">
     <g id="line2d_15">
      <path d="M 41.484375 123.700312 
L 309.324375 123.700312 
" clip-path="url(#p064842f067)" style="fill: none; stroke: #ffffff; stroke-width: 0.8; stroke-linecap: round"/>
     </g>
     <g id="text_16">
      <!-- 3.5 -->
      <g style="fill: #262626" transform="translate(20.584375 127.279219)scale(0.1 -0.1)">
       <use xlink:href="#ArialMT-33"/>
       <use xlink:href="#ArialMT-2e" x="55.615234"/>
       <use xlink:href="#ArialMT-35" x="83.398438"/>
      </g>
     </g>
    </g>
    <g id="ytick_7">
     <g id="line2d_16">
      <path d="M 41.484375 96.520312 
L 309.324375 96.520312 
" clip-path="url(#p064842f067)" style="fill: none; stroke: #ffffff; stroke-width: 0.8; stroke-linecap: round"/>
     </g>
     <g id="text_17">
      <!-- 4.0 -->
      <g style="fill: #262626" transform="translate(20.584375 100.099219)scale(0.1 -0.1)">
       <use xlink:href="#ArialMT-34"/>
       <use xlink:href="#ArialMT-2e" x="55.615234"/>
       <use xlink:href="#ArialMT-30" x="83.398438"/>
      </g>
     </g>
    </g>
    <g id="ytick_8">
     <g id="line2d_17">
      <path d="M 41.484375 69.340312 
L 309.324375 69.340312 
" clip-path="url(#p064842f067)" style="fill: none; stroke: #ffffff; stroke-width: 0.8; stroke-linecap: round"/>
     </g>
     <g id="text_18">
      <!-- 4.5 -->
      <g style="fill: #262626" transform="translate(20.584375 72.919219)scale(0.1 -0.1)">
       <use xlink:href="#ArialMT-34"/>
       <use xlink:href="#ArialMT-2e" x="55.615234"/>
       <use xlink:href="#ArialMT-35" x="83.398438"/>
      </g>
     </g>
    </g>
    <g id="ytick_9">
     <g id="line2d_18">
      <path d="M 41.484375 42.160312 
L 309.324375 42.160312 
" clip-path="url(#p064842f067)" style="fill: none; stroke: #ffffff; stroke-width: 0.8; stroke-linecap: round"/>
     </g>
     <g id="text_19">
      <!-- 5.0 -->
      <g style="fill: #262626" transform="translate(20.584375 45.739219)scale(0.1 -0.1)">
       <use xlink:href="#ArialMT-35"/>
       <use xlink:href="#ArialMT-2e" x="55.615234"/>
       <use xlink:href="#ArialMT-30" x="83.398438"/>
      </g>
     </g>
    </g>
    <g id="text_20">
     <!-- Predictor: ffmq_nj1 -->
     <g style="fill: #262626" transform="translate(14.479687 192.752969)rotate(-90)scale(0.1 -0.1)">
      <defs>
       <path id="ArialMT-6e" d="M 422 0 
L 422 3319 
L 928 3319 
L 928 2847 
Q 1294 3394 1984 3394 
Q 2284 3394 2536 3286 
Q 2788 3178 2913 3003 
Q 3038 2828 3088 2588 
Q 3119 2431 3119 2041 
L 3119 0 
L 2556 0 
L 2556 2019 
Q 2556 2363 2490 2533 
Q 2425 2703 2258 2804 
Q 2091 2906 1866 2906 
Q 1506 2906 1245 2678 
Q 984 2450 984 1813 
L 984 0 
L 422 0 
z
" transform="scale(0.015625)"/>
       <path id="ArialMT-6a" d="M 419 3928 
L 419 4581 
L 981 4581 
L 981 3928 
L 419 3928 
z
M -294 -1288 
L -188 -809 
Q -19 -853 78 -853 
Q 250 -853 334 -739 
Q 419 -625 419 -169 
L 419 3319 
L 981 3319 
L 981 -181 
Q 981 -794 822 -1034 
Q 619 -1347 147 -1347 
Q -81 -1347 -294 -1288 
z
" transform="scale(0.015625)"/>
      </defs>
      <use xlink:href="#ArialMT-50"/>
      <use xlink:href="#ArialMT-72" x="66.699219"/>
      <use xlink:href="#ArialMT-65" x="100"/>
      <use xlink:href="#ArialMT-64" x="155.615234"/>
      <use xlink:href="#ArialMT-69" x="211.230469"/>
      <use xlink:href="#ArialMT-63" x="233.447266"/>
      <use xlink:href="#ArialMT-74" x="283.447266"/>
      <use xlink:href="#ArialMT-6f" x="311.230469"/>
      <use xlink:href="#ArialMT-72" x="366.845703"/>
      <use xlink:href="#ArialMT-3a" x="400.146484"/>
      <use xlink:href="#ArialMT-20" x="427.929688"/>
      <use xlink:href="#ArialMT-66" x="455.712891"/>
      <use xlink:href="#ArialMT-66" x="481.746094"/>
      <use xlink:href="#ArialMT-6d" x="509.529297"/>
      <use xlink:href="#ArialMT-71" x="592.830078"/>
      <use xlink:href="#ArialMT-5f" x="648.445312"/>
      <use xlink:href="#ArialMT-6e" x="704.060547"/>
      <use xlink:href="#ArialMT-6a" x="759.675781"/>
      <use xlink:href="#ArialMT-31" x="781.892578"/>
     </g>
    </g>
   </g>
   <g id="PathCollection_1">
    <path d="M 168.355954 100.312755 
L 182.452796 99.793633 
L 183.049269 99.381365 
L 184.895023 87.937155 
L 182.452796 78.892748 
L 168.355954 76.555052 
L 164.857941 87.937155 
L 166.845432 99.381365 
z
" clip-path="url(#p064842f067)" style="fill: #485fd1"/>
   </g>
   <g id="PathCollection_2">
    <path d="M 154.259112 101.371975 
L 168.355954 110.059409 
L 182.452796 109.552311 
L 196.549638 99.81099 
L 197.168221 99.381365 
L 199.085621 87.937155 
L 196.549638 78.158955 
L 196.113779 76.492944 
L 193.089517 65.048734 
L 190.011436 53.604523 
L 186.878085 42.160312 
L 182.452796 42.160312 
L 168.355954 42.160312 
L 163.201601 42.160312 
L 159.696071 53.604523 
L 156.175478 65.048734 
L 154.259112 71.257563 
L 152.639723 76.492944 
L 149.08871 87.937155 
L 151.038371 99.381365 
z
M 166.845432 99.381365 
L 164.857941 87.937155 
L 168.355954 76.555052 
L 182.452796 78.892748 
L 184.895023 87.937155 
L 183.049269 99.381365 
L 182.452796 99.793633 
L 168.355954 100.312755 
z
" clip-path="url(#p064842f067)" style="fill: #6485ec"/>
   </g>
   <g id="PathCollection_3">
    <path d="M 154.259112 111.141684 
L 168.355954 119.806063 
L 182.452796 119.31099 
L 194.799622 110.825576 
L 196.549638 109.617032 
L 210.64648 99.828516 
L 211.287173 99.381365 
L 213.27622 87.937155 
L 210.64648 77.36216 
L 210.428438 76.492944 
L 207.530424 65.048734 
L 204.580837 53.604523 
L 201.578288 42.160312 
L 196.549638 42.160312 
L 186.878085 42.160312 
L 190.011436 53.604523 
L 193.089517 65.048734 
L 196.113779 76.492944 
L 196.549638 78.158955 
L 199.085621 87.937155 
L 197.168221 99.381365 
L 196.549638 99.81099 
L 182.452796 109.552311 
L 168.355954 110.059409 
L 154.259112 101.371975 
L 151.038371 99.381365 
L 149.08871 87.937155 
L 152.639723 76.492944 
L 154.259112 71.257563 
L 156.175478 65.048734 
L 159.696071 53.604523 
L 163.201601 42.160312 
L 154.259112 42.160312 
L 147.567314 42.160312 
L 144.028265 53.604523 
L 140.474009 65.048734 
L 140.16227 66.05015 
L 136.904446 76.492944 
L 133.319479 87.937155 
L 135.23131 99.381365 
L 140.16227 102.436218 
L 153.746066 110.825576 
z
" clip-path="url(#p064842f067)" style="fill: #85a8fc"/>
    <path d="M 43.938813 87.937155 
L 41.484375 85.188245 
L 41.484375 87.937155 
L 41.484375 94.594042 
z
" clip-path="url(#p064842f067)" style="fill: #85a8fc"/>
   </g>
   <g id="PathCollection_4">
    <path d="M 168.355954 129.552718 
L 182.452796 129.069669 
L 192.40384 122.269786 
L 196.549638 119.423074 
L 208.99913 110.825576 
L 210.64648 109.682383 
L 224.743322 99.846214 
L 225.406125 99.381365 
L 227.466818 87.937155 
L 224.743322 76.493885 
L 224.743097 76.492944 
L 221.971331 65.048734 
L 219.150239 53.604523 
L 216.278492 42.160312 
L 210.64648 42.160312 
L 201.578288 42.160312 
L 204.580837 53.604523 
L 207.530424 65.048734 
L 210.428438 76.492944 
L 210.64648 77.36216 
L 213.27622 87.937155 
L 211.287173 99.381365 
L 210.64648 99.828516 
L 196.549638 109.617032 
L 194.799622 110.825576 
L 182.452796 119.31099 
L 168.355954 119.806063 
L 154.259112 111.141684 
L 153.746066 110.825576 
L 140.16227 102.436218 
L 135.23131 99.381365 
L 133.319479 87.937155 
L 136.904446 76.492944 
L 140.16227 66.05015 
L 140.474009 65.048734 
L 144.028265 53.604523 
L 147.567314 42.160312 
L 140.16227 42.160312 
L 131.933028 42.160312 
L 128.36046 53.604523 
L 126.065428 60.930533 
L 124.77254 65.048734 
L 121.169169 76.492944 
L 117.550248 87.937155 
L 119.424249 99.381365 
L 126.065428 103.50552 
L 137.889741 110.825576 
L 140.16227 112.22909 
L 154.259112 120.911392 
L 156.470691 122.269786 
z
" clip-path="url(#p064842f067)" style="fill: #a5c3fe"/>
    <path d="M 55.581217 105.378791 
L 69.678059 101.9558 
L 80.280309 99.381365 
L 83.774901 90.576198 
L 84.83123 87.937155 
L 83.774901 86.695573 
L 74.994583 76.492944 
L 69.678059 70.415411 
L 64.928669 65.048734 
L 55.581217 54.65497 
L 54.625377 53.604523 
L 44.07621 42.160312 
L 41.484375 42.160312 
L 41.484375 53.604523 
L 41.484375 65.048734 
L 41.484375 76.492944 
L 41.484375 85.188245 
L 43.938813 87.937155 
L 41.484375 94.594042 
L 41.484375 99.381365 
L 41.484375 108.801782 
z
" clip-path="url(#p064842f067)" style="fill: #a5c3fe"/>
   </g>
   <g id="PathCollection_5">
    <path d="M 168.355954 259.600312 
L 182.452796 259.600312 
L 193.39758 259.600312 
L 192.990132 248.156102 
L 192.583649 236.711891 
L 192.178127 225.267681 
L 191.773564 213.82347 
L 189.925895 202.37926 
L 183.899015 190.935049 
L 182.452796 188.119913 
L 168.355954 187.607442 
L 166.634208 190.935049 
L 160.718001 202.37926 
L 158.952838 213.82347 
L 158.569835 225.267681 
L 158.186999 236.711891 
L 157.804331 248.156102 
L 157.421829 259.600312 
z
" clip-path="url(#p064842f067)" style="fill: #c3d5f4"/>
    <path d="M 168.355954 139.299372 
L 182.452796 138.828347 
L 189.980404 133.713997 
L 196.549638 129.229116 
L 206.684829 122.269786 
L 210.64648 119.536251 
L 223.198638 110.825576 
L 224.743322 109.748375 
L 238.840164 99.864086 
L 242.27898 99.381365 
L 252.937007 88.073263 
L 267.033849 93.210104 
L 281.130691 98.269009 
L 284.259268 99.381365 
L 295.227533 99.900917 
L 309.324375 100.56566 
L 309.324375 99.381365 
L 309.324375 87.937155 
L 309.324375 76.492944 
L 309.324375 70.159044 
L 295.227533 74.617947 
L 289.272249 76.492944 
L 281.130691 79.047983 
L 267.033849 83.449432 
L 252.937007 87.822571 
L 239.94395 76.492944 
L 238.840164 75.544058 
L 236.412238 65.048734 
L 233.719641 53.604523 
L 230.978696 42.160312 
L 224.743322 42.160312 
L 216.278492 42.160312 
L 219.150239 53.604523 
L 221.971331 65.048734 
L 224.743097 76.492944 
L 224.743322 76.493885 
L 227.466818 87.937155 
L 225.406125 99.381365 
L 224.743322 99.846214 
L 210.64648 109.682383 
L 208.99913 110.825576 
L 196.549638 119.423074 
L 192.40384 122.269786 
L 182.452796 129.069669 
L 168.355954 129.552718 
L 156.470691 122.269786 
L 154.259112 120.911392 
L 140.16227 112.22909 
L 137.889741 110.825576 
L 126.065428 103.50552 
L 119.424249 99.381365 
L 117.550248 87.937155 
L 121.169169 76.492944 
L 124.77254 65.048734 
L 126.065428 60.930533 
L 128.36046 53.604523 
L 131.933028 42.160312 
L 126.065428 42.160312 
L 116.298741 42.160312 
L 112.692654 53.604523 
L 111.968586 55.896512 
L 97.871743 54.651937 
L 96.964301 53.604523 
L 86.920316 42.160312 
L 83.774901 42.160312 
L 69.678059 42.160312 
L 55.581217 42.160312 
L 44.07621 42.160312 
L 54.625377 53.604523 
L 55.581217 54.65497 
L 64.928669 65.048734 
L 69.678059 70.415411 
L 74.994583 76.492944 
L 83.774901 86.695573 
L 84.83123 87.937155 
L 83.774901 90.576198 
L 80.280309 99.381365 
L 69.678059 101.9558 
L 55.581217 105.378791 
L 41.484375 108.801782 
L 41.484375 110.825576 
L 41.484375 118.647175 
L 55.581217 115.224184 
L 69.678059 111.801193 
L 73.695926 110.825576 
L 83.774901 108.378202 
L 97.871743 104.955211 
L 111.968586 104.579916 
L 122.033417 110.825576 
L 126.065428 113.321665 
L 140.16227 122.021961 
L 140.564795 122.269786 
L 154.259112 130.6811 
L 159.212405 133.713997 
z
" clip-path="url(#p064842f067)" style="fill: #c3d5f4"/>
   </g>
   <g id="PathCollection_6">
    <path d="M 154.259112 259.600312 
L 157.421829 259.600312 
L 157.804331 248.156102 
L 158.186999 236.711891 
L 158.569835 225.267681 
L 158.952838 213.82347 
L 160.718001 202.37926 
L 166.634208 190.935049 
L 168.355954 187.607442 
L 182.452796 188.119913 
L 183.899015 190.935049 
L 189.925895 202.37926 
L 191.773564 213.82347 
L 192.178127 225.267681 
L 192.583649 236.711891 
L 192.990132 248.156102 
L 193.39758 259.600312 
L 196.549638 259.600312 
L 209.370147 259.600312 
L 208.943763 248.156102 
L 208.51839 236.711891 
L 208.094023 225.267681 
L 207.670658 213.82347 
L 205.728884 202.37926 
L 199.389777 190.935049 
L 196.549638 185.656636 
L 193.296306 179.490839 
L 187.434466 168.046628 
L 182.452796 157.966383 
L 168.355954 156.697462 
L 162.475793 168.046628 
L 156.554388 179.490839 
L 154.259112 183.931057 
L 150.640999 190.935049 
L 144.735611 202.37926 
L 142.975771 213.82347 
L 142.59626 225.267681 
L 142.216916 236.711891 
L 141.837737 248.156102 
L 141.458724 259.600312 
z
" clip-path="url(#p064842f067)" style="fill: #dddcdc"/>
    <path d="M 168.355954 156.514873 
L 182.452796 155.297137 
L 187.528833 145.158207 
L 196.549638 139.035158 
L 204.343814 133.713997 
L 210.64648 129.390118 
L 220.965817 122.269786 
L 224.743322 119.650537 
L 237.398146 110.825576 
L 238.840164 109.815018 
L 252.937007 107.830363 
L 267.033849 108.479959 
L 281.130691 109.126248 
L 295.227533 109.769255 
L 309.324375 110.409004 
L 309.324375 100.56566 
L 295.227533 99.900917 
L 284.259268 99.381365 
L 281.130691 98.269009 
L 267.033849 93.210104 
L 252.937007 88.073263 
L 242.27898 99.381365 
L 238.840164 99.864086 
L 224.743322 109.748375 
L 223.198638 110.825576 
L 210.64648 119.536251 
L 206.684829 122.269786 
L 196.549638 129.229116 
L 189.980404 133.713997 
L 182.452796 138.828347 
L 168.355954 139.299372 
L 159.212405 133.713997 
L 154.259112 130.6811 
L 140.564795 122.269786 
L 140.16227 122.021961 
L 126.065428 113.321665 
L 122.033417 110.825576 
L 111.968586 104.579916 
L 97.871743 104.955211 
L 83.774901 108.378202 
L 73.695926 110.825576 
L 69.678059 111.801193 
L 55.581217 115.224184 
L 41.484375 118.647175 
L 41.484375 122.269786 
L 41.484375 128.492567 
L 55.581217 125.069576 
L 67.111543 122.269786 
L 69.678059 121.646585 
L 83.774901 118.223594 
L 97.871743 114.800603 
L 111.968586 114.419445 
L 124.658898 122.269786 
L 126.065428 123.13781 
L 140.16227 131.814833 
L 143.256626 133.713997 
L 154.259112 140.450808 
L 161.97137 145.158207 
z
" clip-path="url(#p064842f067)" style="fill: #dddcdc"/>
    <path d="M 252.937007 87.822571 
L 267.033849 83.449432 
L 281.130691 79.047983 
L 289.272249 76.492944 
L 295.227533 74.617947 
L 309.324375 70.159044 
L 309.324375 65.048734 
L 309.324375 53.604523 
L 309.324375 42.160312 
L 295.227533 42.160312 
L 281.130691 42.160312 
L 267.033849 42.160312 
L 252.937007 42.160312 
L 238.840164 42.160312 
L 230.978696 42.160312 
L 233.719641 53.604523 
L 236.412238 65.048734 
L 238.840164 75.544058 
L 239.94395 76.492944 
z
" clip-path="url(#p064842f067)" style="fill: #dddcdc"/>
    <path d="M 97.871743 54.651937 
L 111.968586 55.896512 
L 112.692654 53.604523 
L 116.298741 42.160312 
L 111.968586 42.160312 
L 97.871743 42.160312 
L 86.920316 42.160312 
L 96.964301 53.604523 
z
" clip-path="url(#p064842f067)" style="fill: #dddcdc"/>
   </g>
   <g id="PathCollection_7">
    <path d="M 55.581217 259.600312 
L 64.984373 259.600312 
L 64.069308 248.156102 
L 63.155576 236.711891 
L 62.243173 225.267681 
L 61.332098 213.82347 
L 56.922385 202.37926 
L 55.581217 201.349781 
L 42.013284 190.935049 
L 41.484375 190.529059 
L 41.484375 190.935049 
L 41.484375 202.37926 
L 41.484375 213.82347 
L 41.484375 225.267681 
L 41.484375 236.711891 
L 41.484375 248.156102 
L 41.484375 259.600312 
z
" clip-path="url(#p064842f067)" style="fill: #f1cdba"/>
    <path d="M 126.065428 259.600312 
L 140.16227 259.600312 
L 141.458724 259.600312 
L 141.837737 248.156102 
L 142.216916 236.711891 
L 142.59626 225.267681 
L 142.975771 213.82347 
L 144.735611 202.37926 
L 150.640999 190.935049 
L 154.259112 183.931057 
L 156.554388 179.490839 
L 162.475793 168.046628 
L 168.355954 156.697462 
L 182.452796 157.966383 
L 187.434466 168.046628 
L 193.296306 179.490839 
L 196.549638 185.656636 
L 199.389777 190.935049 
L 205.728884 202.37926 
L 207.670658 213.82347 
L 208.094023 225.267681 
L 208.51839 236.711891 
L 208.943763 248.156102 
L 209.370147 259.600312 
L 210.64648 259.600312 
L 224.743322 259.600312 
L 225.342714 259.600312 
L 224.897395 248.156102 
L 224.743322 244.190268 
L 224.453131 236.711891 
L 224.009918 225.267681 
L 223.567753 213.82347 
L 221.531873 202.37926 
L 214.880538 190.935049 
L 210.64648 183.406547 
L 208.486938 179.490839 
L 202.336378 168.046628 
L 196.549638 156.866967 
L 196.415258 156.602418 
L 196.549638 156.32911 
L 201.97562 145.158207 
L 210.64648 139.243985 
L 218.707223 133.713997 
L 224.743322 129.552698 
L 235.246805 122.269786 
L 238.840164 119.765949 
L 252.937007 117.774444 
L 267.033849 118.398663 
L 281.130691 119.019704 
L 295.227533 119.637592 
L 309.324375 120.252349 
L 309.324375 110.825576 
L 309.324375 110.409004 
L 295.227533 109.769255 
L 281.130691 109.126248 
L 267.033849 108.479959 
L 252.937007 107.830363 
L 238.840164 109.815018 
L 237.398146 110.825576 
L 224.743322 119.650537 
L 220.965817 122.269786 
L 210.64648 129.390118 
L 204.343814 133.713997 
L 196.549638 139.035158 
L 187.528833 145.158207 
L 182.452796 155.297137 
L 168.355954 156.514873 
L 161.97137 145.158207 
L 154.259112 140.450808 
L 143.256626 133.713997 
L 140.16227 131.814833 
L 126.065428 123.13781 
L 124.658898 122.269786 
L 111.968586 114.419445 
L 97.871743 114.800603 
L 83.774901 118.223594 
L 69.678059 121.646585 
L 67.111543 122.269786 
L 55.581217 125.069576 
L 41.484375 128.492567 
L 41.484375 133.713997 
L 41.484375 138.33796 
L 55.581217 134.914969 
L 60.52716 133.713997 
L 69.678059 131.491978 
L 83.774901 128.068987 
L 97.871743 124.645996 
L 111.968586 124.258975 
L 126.065428 132.953955 
L 127.300848 133.713997 
L 140.16227 141.607705 
L 145.965395 145.158207 
L 152.379477 156.602418 
L 146.460901 168.046628 
L 140.550344 179.490839 
L 140.16227 180.242784 
L 134.64779 190.935049 
L 128.753221 202.37926 
L 126.998704 213.82347 
L 126.622686 225.267681 
L 126.246833 236.711891 
L 126.065428 242.237226 
L 125.871144 248.156102 
L 125.495619 259.600312 
z
" clip-path="url(#p064842f067)" style="fill: #f1cdba"/>
   </g>
   <g id="PathCollection_8">
    <path d="M 69.678059 259.600312 
L 83.774901 259.600312 
L 97.871743 259.600312 
L 111.968586 259.600312 
L 125.495619 259.600312 
L 125.871144 248.156102 
L 126.065428 242.237226 
L 126.246833 236.711891 
L 126.622686 225.267681 
L 126.998704 213.82347 
L 128.753221 202.37926 
L 134.64779 190.935049 
L 140.16227 180.242784 
L 140.550344 179.490839 
L 146.460901 168.046628 
L 152.379477 156.602418 
L 145.965395 145.158207 
L 140.16227 141.607705 
L 127.300848 133.713997 
L 126.065428 132.953955 
L 111.968586 124.258975 
L 97.871743 124.645996 
L 83.774901 128.068987 
L 69.678059 131.491978 
L 60.52716 133.713997 
L 55.581217 134.914969 
L 41.484375 138.33796 
L 41.484375 145.158207 
L 41.484375 154.008017 
L 53.942776 145.158207 
L 55.581217 144.760362 
L 69.678059 141.337371 
L 83.774901 137.91438 
L 97.871743 134.491389 
L 111.968586 134.098504 
L 126.065428 142.7701 
L 129.95942 145.158207 
L 136.353722 156.602418 
L 130.44601 168.046628 
L 126.065428 176.542566 
L 124.546301 179.490839 
L 118.65458 190.935049 
L 112.770831 202.37926 
L 111.968586 207.627051 
L 97.871743 203.421094 
L 97.468488 202.37926 
L 83.774901 191.868077 
L 82.559387 190.935049 
L 69.678059 181.047356 
L 67.650286 179.490839 
L 55.581217 170.226634 
L 52.741185 168.046628 
L 41.484375 159.405913 
L 41.484375 168.046628 
L 41.484375 179.490839 
L 41.484375 190.529059 
L 42.013284 190.935049 
L 55.581217 201.349781 
L 56.922385 202.37926 
L 61.332098 213.82347 
L 62.243173 225.267681 
L 63.155576 236.711891 
L 64.069308 248.156102 
L 64.984373 259.600312 
z
" clip-path="url(#p064842f067)" style="fill: #f7b396"/>
    <path d="M 238.840164 259.600312 
L 251.140632 259.600312 
L 248.813478 248.156102 
L 246.501086 236.711891 
L 244.203317 225.267681 
L 241.920032 213.82347 
L 238.840164 210.481177 
L 237.334862 202.37926 
L 230.371299 190.935049 
L 224.743322 181.343118 
L 223.677571 179.490839 
L 217.238291 168.046628 
L 211.039221 156.602418 
L 216.422407 145.158207 
L 224.743322 139.45486 
L 233.070632 133.713997 
L 238.840164 129.71688 
L 252.937007 127.718525 
L 267.033849 128.317367 
L 281.130691 128.913161 
L 295.227533 129.505929 
L 309.324375 130.095694 
L 309.324375 122.269786 
L 309.324375 120.252349 
L 295.227533 119.637592 
L 281.130691 119.019704 
L 267.033849 118.398663 
L 252.937007 117.774444 
L 238.840164 119.765949 
L 235.246805 122.269786 
L 224.743322 129.552698 
L 218.707223 133.713997 
L 210.64648 139.243985 
L 201.97562 145.158207 
L 196.549638 156.32911 
L 196.415258 156.602418 
L 196.549638 156.866967 
L 202.336378 168.046628 
L 208.486938 179.490839 
L 210.64648 183.406547 
L 214.880538 190.935049 
L 221.531873 202.37926 
L 223.567753 213.82347 
L 224.009918 225.267681 
L 224.453131 236.711891 
L 224.743322 244.190268 
L 224.897395 248.156102 
L 225.342714 259.600312 
z
" clip-path="url(#p064842f067)" style="fill: #f7b396"/>
    <path d="M 267.033849 259.600312 
L 281.130691 259.600312 
L 295.227533 259.600312 
L 309.324375 259.600312 
L 309.324375 248.156102 
L 309.324375 236.711891 
L 309.324375 225.267681 
L 309.324375 213.82347 
L 309.324375 206.958359 
L 295.227533 211.591841 
L 288.464373 213.82347 
L 281.130691 224.783807 
L 280.809269 225.267681 
L 273.264196 236.711891 
L 267.033849 246.2876 
L 265.8268 248.156102 
L 258.494791 259.600312 
z
" clip-path="url(#p064842f067)" style="fill: #f7b396"/>
   </g>
   <g id="PathCollection_9">
    <path d="M 252.937007 259.600312 
L 258.494791 259.600312 
L 265.8268 248.156102 
L 267.033849 246.2876 
L 273.264196 236.711891 
L 280.809269 225.267681 
L 281.130691 224.783807 
L 288.464373 213.82347 
L 295.227533 211.591841 
L 309.324375 206.958359 
L 309.324375 202.37926 
L 309.324375 190.935049 
L 309.324375 179.490839 
L 309.324375 178.715672 
L 301.386223 179.490839 
L 295.227533 180.092532 
L 281.130691 181.470728 
L 267.033849 182.850264 
L 252.937007 184.231141 
L 238.976558 179.490839 
L 238.840164 179.444048 
L 232.140203 168.046628 
L 225.663183 156.602418 
L 230.869194 145.158207 
L 238.840164 139.667812 
L 252.937007 137.662606 
L 267.033849 138.236071 
L 281.130691 138.806617 
L 295.227533 139.374266 
L 309.324375 139.939039 
L 309.324375 133.713997 
L 309.324375 130.095694 
L 295.227533 129.505929 
L 281.130691 128.913161 
L 267.033849 128.317367 
L 252.937007 127.718525 
L 238.840164 129.71688 
L 233.070632 133.713997 
L 224.743322 139.45486 
L 216.422407 145.158207 
L 211.039221 156.602418 
L 217.238291 168.046628 
L 223.677571 179.490839 
L 224.743322 181.343118 
L 230.371299 190.935049 
L 237.334862 202.37926 
L 238.840164 210.481177 
L 241.920032 213.82347 
L 244.203317 225.267681 
L 246.501086 236.711891 
L 248.813478 248.156102 
L 251.140632 259.600312 
z
" clip-path="url(#p064842f067)" style="fill: #f29072"/>
    <path d="M 97.871743 203.421094 
L 111.968586 207.627051 
L 112.770831 202.37926 
L 118.65458 190.935049 
L 124.546301 179.490839 
L 126.065428 176.542566 
L 130.44601 168.046628 
L 136.353722 156.602418 
L 129.95942 145.158207 
L 126.065428 142.7701 
L 111.968586 134.098504 
L 97.871743 134.491389 
L 83.774901 137.91438 
L 69.678059 141.337371 
L 55.581217 144.760362 
L 53.942776 145.158207 
L 41.484375 154.008017 
L 41.484375 156.602418 
L 41.484375 159.405913 
L 52.741185 168.046628 
L 55.581217 170.226634 
L 67.650286 179.490839 
L 69.678059 181.047356 
L 82.559387 190.935049 
L 83.774901 191.868077 
L 97.468488 202.37926 
z
M 93.287288 168.046628 
L 83.774901 160.74493 
L 78.378187 156.602418 
L 83.774901 152.768868 
L 94.488879 145.158207 
L 97.871743 144.336781 
L 111.968586 143.938033 
L 113.953445 145.158207 
L 120.327967 156.602418 
L 114.431118 168.046628 
L 111.968586 172.830344 
L 97.871743 171.565652 
z
" clip-path="url(#p064842f067)" style="fill: #f29072"/>
   </g>
   <g id="PathCollection_10">
    <path d="M 252.937007 184.231141 
L 267.033849 182.850264 
L 281.130691 181.470728 
L 295.227533 180.092532 
L 301.386223 179.490839 
L 309.324375 178.715672 
L 309.324375 168.046628 
L 309.324375 156.602418 
L 309.324375 145.158207 
L 309.324375 139.939039 
L 295.227533 139.374266 
L 281.130691 138.806617 
L 267.033849 138.236071 
L 252.937007 137.662606 
L 238.840164 139.667812 
L 230.869194 145.158207 
L 225.663183 156.602418 
L 232.140203 168.046628 
L 238.840164 179.444048 
L 238.976558 179.490839 
z
M 245.811022 156.602418 
L 252.937007 153.270097 
L 267.033849 155.072476 
L 279.086888 156.602418 
L 267.033849 157.771615 
L 252.937007 159.140302 
z
" clip-path="url(#p064842f067)" style="fill: #e0654f"/>
    <path d="M 97.871743 171.565652 
L 111.968586 172.830344 
L 114.431118 168.046628 
L 120.327967 156.602418 
L 113.953445 145.158207 
L 111.968586 143.938033 
L 97.871743 144.336781 
L 94.488879 145.158207 
L 83.774901 152.768868 
L 78.378187 156.602418 
L 83.774901 160.74493 
L 93.287288 168.046628 
z
" clip-path="url(#p064842f067)" style="fill: #e0654f"/>
   </g>
   <g id="PathCollection_11">
    <path d="M 252.937007 159.140302 
L 267.033849 157.771615 
L 279.086888 156.602418 
L 267.033849 155.072476 
L 252.937007 153.270097 
L 245.811022 156.602418 
z
" clip-path="url(#p064842f067)" style="fill: #c43032"/>
   </g>
   <g id="PathCollection_12"/>
   <g id="PathCollection_13">
    <path d="M 168.355954 100.312755 
L 166.845432 99.381365 
L 164.857941 87.937155 
L 168.355954 76.555052 
L 182.452796 78.892748 
L 184.895023 87.937155 
L 183.049269 99.381365 
L 182.452796 99.793633 
L 168.355954 100.312755 
z
" clip-path="url(#p064842f067)" style="fill: none; stroke: #000000; stroke-width: 0.5"/>
   </g>
   <g id="PathCollection_14">
    <path d="M 186.878085 42.160312 
L 190.011436 53.604523 
L 193.089517 65.048734 
L 196.113779 76.492944 
L 196.549638 78.158955 
L 199.085621 87.937155 
L 197.168221 99.381365 
L 196.549638 99.81099 
L 183.136891 109.079582 
" clip-path="url(#p064842f067)" style="fill: none; stroke: #000000; stroke-width: 0.5"/>
    <path d="M 155.639325 102.222557 
L 154.259112 101.371975 
L 151.038371 99.381365 
L 149.08871 87.937155 
L 152.639723 76.492944 
L 154.259112 71.257563 
L 156.175478 65.048734 
L 159.696071 53.604523 
L 163.201601 42.160312 
" clip-path="url(#p064842f067)" style="fill: none; stroke: #000000; stroke-width: 0.5"/>
   </g>
   <g id="PathCollection_15">
    <path d="M 41.484375 85.188245 
L 43.938813 87.937155 
L 41.484375 94.594042 
" clip-path="url(#p064842f067)" style="fill: none; stroke: #000000; stroke-width: 0.5"/>
    <path d="M 201.578288 42.160312 
L 204.580837 53.604523 
L 207.530424 65.048734 
L 210.428438 76.492944 
L 210.64648 77.36216 
L 213.27622 87.937155 
L 211.287173 99.381365 
L 210.64648 99.828516 
L 208.87058 101.061659 
" clip-path="url(#p064842f067)" style="fill: none; stroke: #000000; stroke-width: 0.5"/>
    <path d="M 184.190323 118.116866 
L 182.452796 119.31099 
L 168.355954 119.806063 
L 154.259112 111.141684 
L 153.746066 110.825576 
L 140.16227 102.436218 
L 135.23131 99.381365 
L 133.319479 87.937155 
L 136.904446 76.492944 
L 140.16227 66.05015 
L 140.474009 65.048734 
L 144.028265 53.604523 
L 147.567314 42.160312 
" clip-path="url(#p064842f067)" style="fill: none; stroke: #000000; stroke-width: 0.5"/>
   </g>
   <g id="PathCollection_16">
    <path d="M 44.07621 42.160312 
L 54.625377 53.604523 
L 55.581217 54.65497 
L 64.928669 65.048734 
L 69.678059 70.415411 
L 73.98102 75.334299 
" clip-path="url(#p064842f067)" style="fill: none; stroke: #000000; stroke-width: 0.5"/>
    <path d="M 79.256097 99.630064 
L 69.678059 101.9558 
L 55.581217 105.378791 
L 41.484375 108.801782 
" clip-path="url(#p064842f067)" style="fill: none; stroke: #000000; stroke-width: 0.5"/>
    <path d="M 216.278492 42.160312 
L 219.150239 53.604523 
L 221.1997 61.918491 
" clip-path="url(#p064842f067)" style="fill: none; stroke: #000000; stroke-width: 0.5"/>
    <path d="M 226.893158 91.123017 
L 225.406125 99.381365 
L 224.743322 99.846214 
L 210.64648 109.682383 
L 208.99913 110.825576 
L 196.549638 119.423074 
L 192.40384 122.269786 
L 182.452796 129.069669 
L 168.355954 129.552718 
L 156.470691 122.269786 
L 154.259112 120.911392 
L 140.16227 112.22909 
L 137.889741 110.825576 
L 126.065428 103.50552 
L 119.424249 99.381365 
L 117.550248 87.937155 
L 121.169169 76.492944 
L 124.77254 65.048734 
L 126.065428 60.930533 
L 128.36046 53.604523 
L 131.933028 42.160312 
" clip-path="url(#p064842f067)" style="fill: none; stroke: #000000; stroke-width: 0.5"/>
   </g>
   <g id="PathCollection_17">
    <path d="M 157.421829 259.600312 
L 157.804331 248.156102 
L 158.186999 236.711891 
L 158.569835 225.267681 
L 158.952838 213.82347 
L 160.718001 202.37926 
L 166.634208 190.935049 
L 167.916472 188.456826 
" clip-path="url(#p064842f067)" style="fill: none; stroke: #000000; stroke-width: 0.5"/>
    <path d="M 189.442884 201.46209 
L 189.925895 202.37926 
L 191.773564 213.82347 
L 192.178127 225.267681 
L 192.583649 236.711891 
L 192.990132 248.156102 
L 193.39758 259.600312 
" clip-path="url(#p064842f067)" style="fill: none; stroke: #000000; stroke-width: 0.5"/>
    <path d="M 280.413951 98.011794 
L 267.033849 93.210104 
L 252.937007 88.073263 
L 242.27898 99.381365 
L 238.840164 99.864086 
L 224.743322 109.748375 
L 223.198638 110.825576 
L 210.64648 119.536251 
L 206.684829 122.269786 
L 196.549638 129.229116 
L 189.980404 133.713997 
L 182.452796 138.828347 
L 168.355954 139.299372 
L 159.212405 133.713997 
L 154.259112 130.6811 
L 140.564795 122.269786 
L 140.16227 122.021961 
L 126.065428 113.321665 
L 122.033417 110.825576 
L 111.968586 104.579916 
L 97.871743 104.955211 
L 83.774901 108.378202 
L 73.695926 110.825576 
L 69.678059 111.801193 
L 55.581217 115.224184 
L 41.484375 118.647175 
" clip-path="url(#p064842f067)" style="fill: none; stroke: #000000; stroke-width: 0.5"/>
    <path d="M 86.920316 42.160312 
L 96.964301 53.604523 
L 97.275336 53.963534 
" clip-path="url(#p064842f067)" style="fill: none; stroke: #000000; stroke-width: 0.5"/>
    <path d="M 230.978696 42.160312 
L 233.719641 53.604523 
L 236.412238 65.048734 
L 238.840164 75.544058 
L 239.94395 76.492944 
L 241.584321 77.923307 
" clip-path="url(#p064842f067)" style="fill: none; stroke: #000000; stroke-width: 0.5"/>
    <path d="M 267.322999 83.359151 
L 281.130691 79.047983 
L 289.272249 76.492944 
L 295.227533 74.617947 
L 309.324375 70.159044 
" clip-path="url(#p064842f067)" style="fill: none; stroke: #000000; stroke-width: 0.5"/>
   </g>
   <g id="PathCollection_18">
    <path d="M 141.458724 259.600312 
L 141.837737 248.156102 
L 142.216916 236.711891 
L 142.59626 225.267681 
L 142.975771 213.82347 
L 144.735611 202.37926 
L 149.669623 192.817504 
" clip-path="url(#p064842f067)" style="fill: none; stroke: #000000; stroke-width: 0.5"/>
    <path d="M 163.44859 166.169054 
L 168.355954 156.697462 
L 182.452796 157.966383 
L 187.434466 168.046628 
L 193.296306 179.490839 
L 196.549638 185.656636 
L 199.389777 190.935049 
L 205.728884 202.37926 
L 207.670658 213.82347 
L 208.094023 225.267681 
L 208.51839 236.711891 
L 208.943763 248.156102 
L 209.370147 259.600312 
" clip-path="url(#p064842f067)" style="fill: none; stroke: #000000; stroke-width: 0.5"/>
    <path d="M 309.324375 110.409004 
L 295.227533 109.769255 
L 281.130691 109.126248 
L 267.033849 108.479959 
L 252.937007 107.830363 
L 238.840164 109.815018 
L 237.398146 110.825576 
L 224.743322 119.650537 
L 220.965817 122.269786 
L 216.701664 125.212048 
" clip-path="url(#p064842f067)" style="fill: none; stroke: #000000; stroke-width: 0.5"/>
    <path d="M 191.947119 142.159208 
L 187.528833 145.158207 
L 182.452796 155.297137 
L 168.355954 156.514873 
L 161.97137 145.158207 
L 154.259112 140.450808 
L 143.256626 133.713997 
L 140.16227 131.814833 
L 126.065428 123.13781 
L 124.658898 122.269786 
L 111.968586 114.419445 
L 97.871743 114.800603 
L 83.774901 118.223594 
L 69.678059 121.646585 
L 67.111543 122.269786 
L 55.581217 125.069576 
L 41.484375 128.492567 
" clip-path="url(#p064842f067)" style="fill: none; stroke: #000000; stroke-width: 0.5"/>
   </g>
   <g id="PathCollection_19">
    <path d="M 125.495619 259.600312 
L 125.871144 248.156102 
L 126.065428 242.237226 
L 126.246833 236.711891 
L 126.622686 225.267681 
L 126.998704 213.82347 
L 128.421435 204.543406 
" clip-path="url(#p064842f067)" style="fill: none; stroke: #000000; stroke-width: 0.5"/>
    <path d="M 141.553352 177.548784 
L 146.460901 168.046628 
L 152.379477 156.602418 
L 145.965395 145.158207 
L 140.16227 141.607705 
L 127.300848 133.713997 
L 126.065428 132.953955 
L 111.968586 124.258975 
L 97.871743 124.645996 
L 83.774901 128.068987 
L 69.678059 131.491978 
L 60.52716 133.713997 
L 55.581217 134.914969 
L 41.484375 138.33796 
" clip-path="url(#p064842f067)" style="fill: none; stroke: #000000; stroke-width: 0.5"/>
    <path d="M 41.484375 190.529059 
L 42.013284 190.935049 
L 54.702795 200.675505 
" clip-path="url(#p064842f067)" style="fill: none; stroke: #000000; stroke-width: 0.5"/>
    <path d="M 62.527855 228.838432 
L 63.155576 236.711891 
L 64.069308 248.156102 
L 64.984373 259.600312 
" clip-path="url(#p064842f067)" style="fill: none; stroke: #000000; stroke-width: 0.5"/>
    <path d="M 309.324375 120.252349 
L 295.227533 119.637592 
L 281.130691 119.019704 
L 267.033849 118.398663 
L 253.761878 117.81097 
" clip-path="url(#p064842f067)" style="fill: none; stroke: #000000; stroke-width: 0.5"/>
    <path d="M 226.467869 128.356931 
L 224.743322 129.552698 
L 218.707223 133.713997 
L 210.64648 139.243985 
L 201.97562 145.158207 
L 196.549638 156.32911 
L 196.415258 156.602418 
L 196.549638 156.866967 
L 202.336378 168.046628 
L 208.486938 179.490839 
L 210.64648 183.406547 
L 214.880538 190.935049 
L 221.531873 202.37926 
L 223.567753 213.82347 
L 224.009918 225.267681 
L 224.453131 236.711891 
L 224.743322 244.190268 
L 224.897395 248.156102 
L 225.342714 259.600312 
" clip-path="url(#p064842f067)" style="fill: none; stroke: #000000; stroke-width: 0.5"/>
   </g>
   <g id="PathCollection_20">
    <path d="M 258.494791 259.600312 
L 265.8268 248.156102 
L 267.033849 246.2876 
L 272.559361 237.795185 
" clip-path="url(#p064842f067)" style="fill: none; stroke: #000000; stroke-width: 0.5"/>
    <path d="M 289.633884 213.437569 
L 295.227533 211.591841 
L 309.324375 206.958359 
" clip-path="url(#p064842f067)" style="fill: none; stroke: #000000; stroke-width: 0.5"/>
    <path d="M 41.484375 159.405913 
L 52.741185 168.046628 
L 55.581217 170.226634 
L 67.650286 179.490839 
L 69.678059 181.047356 
L 70.66065 181.801591 
" clip-path="url(#p064842f067)" style="fill: none; stroke: #000000; stroke-width: 0.5"/>
    <path d="M 94.458124 200.068508 
L 97.468488 202.37926 
L 97.871743 203.421094 
L 111.968586 207.627051 
L 112.770831 202.37926 
L 118.65458 190.935049 
L 124.546301 179.490839 
L 126.065428 176.542566 
L 130.44601 168.046628 
L 136.353722 156.602418 
L 129.95942 145.158207 
L 126.065428 142.7701 
L 111.968586 134.098504 
L 97.871743 134.491389 
L 83.774901 137.91438 
L 69.678059 141.337371 
L 55.581217 144.760362 
L 53.942776 145.158207 
L 41.484375 154.008017 
" clip-path="url(#p064842f067)" style="fill: none; stroke: #000000; stroke-width: 0.5"/>
    <path d="M 309.324375 130.095694 
L 295.227533 129.505929 
L 281.130691 128.913161 
L 267.033849 128.317367 
L 252.937007 127.718525 
L 238.840164 129.71688 
L 233.070632 133.713997 
L 224.743322 139.45486 
L 216.422407 145.158207 
L 211.883995 154.806497 
" clip-path="url(#p064842f067)" style="fill: none; stroke: #000000; stroke-width: 0.5"/>
    <path d="M 224.609456 181.110458 
L 224.743322 181.343118 
L 230.371299 190.935049 
L 237.334862 202.37926 
L 238.840164 210.481177 
L 241.920032 213.82347 
L 244.203317 225.267681 
L 246.501086 236.711891 
L 248.813478 248.156102 
L 251.140632 259.600312 
" clip-path="url(#p064842f067)" style="fill: none; stroke: #000000; stroke-width: 0.5"/>
   </g>
   <g id="PathCollection_21">
    <path d="M 309.324375 139.939039 
L 295.227533 139.374266 
L 281.130691 138.806617 
L 267.033849 138.236071 
L 252.937007 137.662606 
L 238.840164 139.667812 
L 230.869194 145.158207 
L 226.42923 154.918441 
" clip-path="url(#p064842f067)" style="fill: none; stroke: #000000; stroke-width: 0.5"/>
    <path d="M 240.524707 180.016516 
L 252.937007 184.231141 
L 267.033849 182.850264 
L 281.130691 181.470728 
L 295.227533 180.092532 
L 301.386223 179.490839 
L 309.324375 178.715672 
" clip-path="url(#p064842f067)" style="fill: none; stroke: #000000; stroke-width: 0.5"/>
    <path d="M 85.098164 151.828891 
L 83.774901 152.768868 
L 78.378187 156.602418 
L 83.774901 160.74493 
L 93.287288 168.046628 
L 97.871743 171.565652 
L 111.968586 172.830344 
L 114.431118 168.046628 
L 120.327967 156.602418 
L 113.953445 145.158207 
L 112.733185 144.408063 
" clip-path="url(#p064842f067)" style="fill: none; stroke: #000000; stroke-width: 0.5"/>
   </g>
   <g id="PathCollection_22">
    <path d="M 252.27945 153.57759 
L 245.811022 156.602418 
L 252.937007 159.140302 
L 267.033849 157.771615 
L 276.312164 156.871578 
" clip-path="url(#p064842f067)" style="fill: none; stroke: #000000; stroke-width: 0.5"/>
   </g>
   <g id="PathCollection_23"/>
   <g id="patch_3">
    <path d="M 41.484375 259.600312 
L 41.484375 42.160312 
" style="fill: none; stroke: #ffffff; stroke-width: 0.8; stroke-linejoin: miter; stroke-linecap: square"/>
   </g>
   <g id="patch_4">
    <path d="M 309.324375 259.600312 
L 309.324375 42.160312 
" style="fill: none; stroke: #ffffff; stroke-width: 0.8; stroke-linejoin: miter; stroke-linecap: square"/>
   </g>
   <g id="patch_5">
    <path d="M 41.484375 259.600312 
L 309.324375 259.600312 
" style="fill: none; stroke: #ffffff; stroke-width: 0.8; stroke-linejoin: miter; stroke-linecap: square"/>
   </g>
   <g id="patch_6">
    <path d="M 41.484375 42.160312 
L 309.324375 42.160312 
" style="fill: none; stroke: #ffffff; stroke-width: 0.8; stroke-linejoin: miter; stroke-linecap: square"/>
   </g>
   <g id="text_21">
    <!-- GB | target: audit dependence on -->
    <g style="fill: #262626" transform="translate(101.835625 14.479687)scale(0.1 -0.1)">
     <defs>
      <path id="ArialMT-47" d="M 2638 1797 
L 2638 2334 
L 4578 2338 
L 4578 638 
Q 4131 281 3656 101 
Q 3181 -78 2681 -78 
Q 2006 -78 1454 211 
Q 903 500 622 1047 
Q 341 1594 341 2269 
Q 341 2938 620 3517 
Q 900 4097 1425 4378 
Q 1950 4659 2634 4659 
Q 3131 4659 3532 4498 
Q 3934 4338 4162 4050 
Q 4391 3763 4509 3300 
L 3963 3150 
Q 3859 3500 3706 3700 
Q 3553 3900 3268 4020 
Q 2984 4141 2638 4141 
Q 2222 4141 1919 4014 
Q 1616 3888 1430 3681 
Q 1244 3475 1141 3228 
Q 966 2803 966 2306 
Q 966 1694 1177 1281 
Q 1388 869 1791 669 
Q 2194 469 2647 469 
Q 3041 469 3416 620 
Q 3791 772 3984 944 
L 3984 1797 
L 2638 1797 
z
" transform="scale(0.015625)"/>
      <path id="ArialMT-42" d="M 469 0 
L 469 4581 
L 2188 4581 
Q 2713 4581 3030 4442 
Q 3347 4303 3526 4014 
Q 3706 3725 3706 3409 
Q 3706 3116 3547 2856 
Q 3388 2597 3066 2438 
Q 3481 2316 3704 2022 
Q 3928 1728 3928 1328 
Q 3928 1006 3792 729 
Q 3656 453 3456 303 
Q 3256 153 2954 76 
Q 2653 0 2216 0 
L 469 0 
z
M 1075 2656 
L 2066 2656 
Q 2469 2656 2644 2709 
Q 2875 2778 2992 2937 
Q 3109 3097 3109 3338 
Q 3109 3566 3000 3739 
Q 2891 3913 2687 3977 
Q 2484 4041 1991 4041 
L 1075 4041 
L 1075 2656 
z
M 1075 541 
L 2216 541 
Q 2509 541 2628 563 
Q 2838 600 2978 687 
Q 3119 775 3209 942 
Q 3300 1109 3300 1328 
Q 3300 1584 3169 1773 
Q 3038 1963 2805 2039 
Q 2572 2116 2134 2116 
L 1075 2116 
L 1075 541 
z
" transform="scale(0.015625)"/>
      <path id="ArialMT-7c" d="M 588 -1347 
L 588 4659 
L 1078 4659 
L 1078 -1347 
L 588 -1347 
z
" transform="scale(0.015625)"/>
      <path id="ArialMT-61" d="M 2588 409 
Q 2275 144 1986 34 
Q 1697 -75 1366 -75 
Q 819 -75 525 192 
Q 231 459 231 875 
Q 231 1119 342 1320 
Q 453 1522 633 1644 
Q 813 1766 1038 1828 
Q 1203 1872 1538 1913 
Q 2219 1994 2541 2106 
Q 2544 2222 2544 2253 
Q 2544 2597 2384 2738 
Q 2169 2928 1744 2928 
Q 1347 2928 1158 2789 
Q 969 2650 878 2297 
L 328 2372 
Q 403 2725 575 2942 
Q 747 3159 1072 3276 
Q 1397 3394 1825 3394 
Q 2250 3394 2515 3294 
Q 2781 3194 2906 3042 
Q 3031 2891 3081 2659 
Q 3109 2516 3109 2141 
L 3109 1391 
Q 3109 606 3145 398 
Q 3181 191 3288 0 
L 2700 0 
Q 2613 175 2588 409 
z
M 2541 1666 
Q 2234 1541 1622 1453 
Q 1275 1403 1131 1340 
Q 988 1278 909 1158 
Q 831 1038 831 891 
Q 831 666 1001 516 
Q 1172 366 1500 366 
Q 1825 366 2078 508 
Q 2331 650 2450 897 
Q 2541 1088 2541 1459 
L 2541 1666 
z
" transform="scale(0.015625)"/>
      <path id="ArialMT-67" d="M 319 -275 
L 866 -356 
Q 900 -609 1056 -725 
Q 1266 -881 1628 -881 
Q 2019 -881 2231 -725 
Q 2444 -569 2519 -288 
Q 2563 -116 2559 434 
Q 2191 0 1641 0 
Q 956 0 581 494 
Q 206 988 206 1678 
Q 206 2153 378 2554 
Q 550 2956 876 3175 
Q 1203 3394 1644 3394 
Q 2231 3394 2613 2919 
L 2613 3319 
L 3131 3319 
L 3131 450 
Q 3131 -325 2973 -648 
Q 2816 -972 2473 -1159 
Q 2131 -1347 1631 -1347 
Q 1038 -1347 672 -1080 
Q 306 -813 319 -275 
z
M 784 1719 
Q 784 1066 1043 766 
Q 1303 466 1694 466 
Q 2081 466 2343 764 
Q 2606 1063 2606 1700 
Q 2606 2309 2336 2618 
Q 2066 2928 1684 2928 
Q 1309 2928 1046 2623 
Q 784 2319 784 1719 
z
" transform="scale(0.015625)"/>
      <path id="ArialMT-75" d="M 2597 0 
L 2597 488 
Q 2209 -75 1544 -75 
Q 1250 -75 995 37 
Q 741 150 617 320 
Q 494 491 444 738 
Q 409 903 409 1263 
L 409 3319 
L 972 3319 
L 972 1478 
Q 972 1038 1006 884 
Q 1059 663 1231 536 
Q 1403 409 1656 409 
Q 1909 409 2131 539 
Q 2353 669 2445 892 
Q 2538 1116 2538 1541 
L 2538 3319 
L 3100 3319 
L 3100 0 
L 2597 0 
z
" transform="scale(0.015625)"/>
      <path id="ArialMT-70" d="M 422 -1272 
L 422 3319 
L 934 3319 
L 934 2888 
Q 1116 3141 1344 3267 
Q 1572 3394 1897 3394 
Q 2322 3394 2647 3175 
Q 2972 2956 3137 2557 
Q 3303 2159 3303 1684 
Q 3303 1175 3120 767 
Q 2938 359 2589 142 
Q 2241 -75 1856 -75 
Q 1575 -75 1351 44 
Q 1128 163 984 344 
L 984 -1272 
L 422 -1272 
z
M 931 1641 
Q 931 1000 1190 694 
Q 1450 388 1819 388 
Q 2194 388 2461 705 
Q 2728 1022 2728 1688 
Q 2728 2322 2467 2637 
Q 2206 2953 1844 2953 
Q 1484 2953 1207 2617 
Q 931 2281 931 1641 
z
" transform="scale(0.015625)"/>
     </defs>
     <use xlink:href="#ArialMT-47"/>
     <use xlink:href="#ArialMT-42" x="77.783203"/>
     <use xlink:href="#ArialMT-20" x="144.482422"/>
     <use xlink:href="#ArialMT-7c" x="172.265625"/>
     <use xlink:href="#ArialMT-20" x="198.242188"/>
     <use xlink:href="#ArialMT-74" x="226.025391"/>
     <use xlink:href="#ArialMT-61" x="253.808594"/>
     <use xlink:href="#ArialMT-72" x="309.423828"/>
     <use xlink:href="#ArialMT-67" x="342.724609"/>
     <use xlink:href="#ArialMT-65" x="398.339844"/>
     <use xlink:href="#ArialMT-74" x="453.955078"/>
     <use xlink:href="#ArialMT-3a" x="481.738281"/>
     <use xlink:href="#ArialMT-20" x="509.521484"/>
     <use xlink:href="#ArialMT-61" x="537.304688"/>
     <use xlink:href="#ArialMT-75" x="592.919922"/>
     <use xlink:href="#ArialMT-64" x="648.535156"/>
     <use xlink:href="#ArialMT-69" x="704.150391"/>
     <use xlink:href="#ArialMT-74" x="726.367188"/>
     <use xlink:href="#ArialMT-20" x="754.150391"/>
     <use xlink:href="#ArialMT-64" x="781.933594"/>
     <use xlink:href="#ArialMT-65" x="837.548828"/>
     <use xlink:href="#ArialMT-70" x="893.164062"/>
     <use xlink:href="#ArialMT-65" x="948.779297"/>
     <use xlink:href="#ArialMT-6e" x="1004.394531"/>
     <use xlink:href="#ArialMT-64" x="1060.009766"/>
     <use xlink:href="#ArialMT-65" x="1115.625"/>
     <use xlink:href="#ArialMT-6e" x="1171.240234"/>
     <use xlink:href="#ArialMT-63" x="1226.855469"/>
     <use xlink:href="#ArialMT-65" x="1276.855469"/>
     <use xlink:href="#ArialMT-20" x="1332.470703"/>
     <use xlink:href="#ArialMT-6f" x="1360.253906"/>
     <use xlink:href="#ArialMT-6e" x="1415.869141"/>
    </g>
    <!-- predictors: ffmq_nj1 &amp; ffmq_ds4 -->
    <g style="fill: #262626" transform="translate(104.995781 25.32)scale(0.1 -0.1)">
     <defs>
      <path id="ArialMT-26" d="M 3041 541 
Q 2763 231 2434 76 
Q 2106 -78 1725 -78 
Q 1022 -78 609 397 
Q 275 784 275 1263 
Q 275 1688 548 2030 
Q 822 2372 1366 2631 
Q 1056 2988 953 3209 
Q 850 3431 850 3638 
Q 850 4050 1173 4354 
Q 1497 4659 1988 4659 
Q 2456 4659 2754 4371 
Q 3053 4084 3053 3681 
Q 3053 3028 2188 2566 
L 3009 1519 
Q 3150 1794 3228 2156 
L 3813 2031 
Q 3663 1431 3406 1044 
Q 3722 625 4122 341 
L 3744 -106 
Q 3403 113 3041 541 
z
M 1897 2928 
Q 2263 3144 2370 3306 
Q 2478 3469 2478 3666 
Q 2478 3900 2329 4048 
Q 2181 4197 1959 4197 
Q 1731 4197 1579 4050 
Q 1428 3903 1428 3691 
Q 1428 3584 1483 3467 
Q 1538 3350 1647 3219 
L 1897 2928 
z
M 2688 984 
L 1656 2263 
Q 1200 1991 1040 1758 
Q 881 1525 881 1297 
Q 881 1019 1103 719 
Q 1325 419 1731 419 
Q 1984 419 2254 576 
Q 2525 734 2688 984 
z
" transform="scale(0.015625)"/>
     </defs>
     <use xlink:href="#ArialMT-70"/>
     <use xlink:href="#ArialMT-72" x="55.615234"/>
     <use xlink:href="#ArialMT-65" x="88.916016"/>
     <use xlink:href="#ArialMT-64" x="144.53125"/>
     <use xlink:href="#ArialMT-69" x="200.146484"/>
     <use xlink:href="#ArialMT-63" x="222.363281"/>
     <use xlink:href="#ArialMT-74" x="272.363281"/>
     <use xlink:href="#ArialMT-6f" x="300.146484"/>
     <use xlink:href="#ArialMT-72" x="355.761719"/>
     <use xlink:href="#ArialMT-73" x="389.0625"/>
     <use xlink:href="#ArialMT-3a" x="439.0625"/>
     <use xlink:href="#ArialMT-20" x="466.845703"/>
     <use xlink:href="#ArialMT-66" x="494.628906"/>
     <use xlink:href="#ArialMT-66" x="520.662109"/>
     <use xlink:href="#ArialMT-6d" x="548.445312"/>
     <use xlink:href="#ArialMT-71" x="631.746094"/>
     <use xlink:href="#ArialMT-5f" x="687.361328"/>
     <use xlink:href="#ArialMT-6e" x="742.976562"/>
     <use xlink:href="#ArialMT-6a" x="798.591797"/>
     <use xlink:href="#ArialMT-31" x="820.808594"/>
     <use xlink:href="#ArialMT-20" x="876.423828"/>
     <use xlink:href="#ArialMT-26" x="904.207031"/>
     <use xlink:href="#ArialMT-20" x="970.90625"/>
     <use xlink:href="#ArialMT-66" x="998.689453"/>
     <use xlink:href="#ArialMT-66" x="1024.722656"/>
     <use xlink:href="#ArialMT-6d" x="1052.505859"/>
     <use xlink:href="#ArialMT-71" x="1135.806641"/>
     <use xlink:href="#ArialMT-5f" x="1191.421875"/>
     <use xlink:href="#ArialMT-64" x="1247.037109"/>
     <use xlink:href="#ArialMT-73" x="1302.652344"/>
     <use xlink:href="#ArialMT-34" x="1352.652344"/>
    </g>
    <!-- Influence (% of audit range) 0.5% -->
    <g style="fill: #262626" transform="translate(101.198125 36.160312)scale(0.1 -0.1)">
     <defs>
      <path id="ArialMT-49" d="M 597 0 
L 597 4581 
L 1203 4581 
L 1203 0 
L 597 0 
z
" transform="scale(0.015625)"/>
      <path id="ArialMT-6c" d="M 409 0 
L 409 4581 
L 972 4581 
L 972 0 
L 409 0 
z
" transform="scale(0.015625)"/>
      <path id="ArialMT-28" d="M 1497 -1347 
Q 1031 -759 709 28 
Q 388 816 388 1659 
Q 388 2403 628 3084 
Q 909 3875 1497 4659 
L 1900 4659 
Q 1522 4009 1400 3731 
Q 1209 3300 1100 2831 
Q 966 2247 966 1656 
Q 966 153 1900 -1347 
L 1497 -1347 
z
" transform="scale(0.015625)"/>
      <path id="ArialMT-25" d="M 372 3481 
Q 372 3972 619 4315 
Q 866 4659 1334 4659 
Q 1766 4659 2048 4351 
Q 2331 4044 2331 3447 
Q 2331 2866 2045 2552 
Q 1759 2238 1341 2238 
Q 925 2238 648 2547 
Q 372 2856 372 3481 
z
M 1350 4272 
Q 1141 4272 1002 4090 
Q 863 3909 863 3425 
Q 863 2984 1003 2804 
Q 1144 2625 1350 2625 
Q 1563 2625 1702 2806 
Q 1841 2988 1841 3469 
Q 1841 3913 1700 4092 
Q 1559 4272 1350 4272 
z
M 1353 -169 
L 3859 4659 
L 4316 4659 
L 1819 -169 
L 1353 -169 
z
M 3334 1075 
Q 3334 1569 3581 1911 
Q 3828 2253 4300 2253 
Q 4731 2253 5014 1945 
Q 5297 1638 5297 1041 
Q 5297 459 5011 145 
Q 4725 -169 4303 -169 
Q 3888 -169 3611 142 
Q 3334 453 3334 1075 
z
M 4316 1866 
Q 4103 1866 3964 1684 
Q 3825 1503 3825 1019 
Q 3825 581 3965 400 
Q 4106 219 4313 219 
Q 4528 219 4667 400 
Q 4806 581 4806 1063 
Q 4806 1506 4665 1686 
Q 4525 1866 4316 1866 
z
" transform="scale(0.015625)"/>
      <path id="ArialMT-29" d="M 791 -1347 
L 388 -1347 
Q 1322 153 1322 1656 
Q 1322 2244 1188 2822 
Q 1081 3291 891 3722 
Q 769 4003 388 4659 
L 791 4659 
Q 1378 3875 1659 3084 
Q 1900 2403 1900 1659 
Q 1900 816 1576 28 
Q 1253 -759 791 -1347 
z
" transform="scale(0.015625)"/>
     </defs>
     <use xlink:href="#ArialMT-49"/>
     <use xlink:href="#ArialMT-6e" x="27.783203"/>
     <use xlink:href="#ArialMT-66" x="83.398438"/>
     <use xlink:href="#ArialMT-6c" x="111.181641"/>
     <use xlink:href="#ArialMT-75" x="133.398438"/>
     <use xlink:href="#ArialMT-65" x="189.013672"/>
     <use xlink:href="#ArialMT-6e" x="244.628906"/>
     <use xlink:href="#ArialMT-63" x="300.244141"/>
     <use xlink:href="#ArialMT-65" x="350.244141"/>
     <use xlink:href="#ArialMT-20" x="405.859375"/>
     <use xlink:href="#ArialMT-28" x="433.642578"/>
     <use xlink:href="#ArialMT-25" x="466.943359"/>
     <use xlink:href="#ArialMT-20" x="555.859375"/>
     <use xlink:href="#ArialMT-6f" x="583.642578"/>
     <use xlink:href="#ArialMT-66" x="639.257812"/>
     <use xlink:href="#ArialMT-20" x="667.041016"/>
     <use xlink:href="#ArialMT-61" x="694.824219"/>
     <use xlink:href="#ArialMT-75" x="750.439453"/>
     <use xlink:href="#ArialMT-64" x="806.054688"/>
     <use xlink:href="#ArialMT-69" x="861.669922"/>
     <use xlink:href="#ArialMT-74" x="883.886719"/>
     <use xlink:href="#ArialMT-20" x="911.669922"/>
     <use xlink:href="#ArialMT-72" x="939.453125"/>
     <use xlink:href="#ArialMT-61" x="972.753906"/>
     <use xlink:href="#ArialMT-6e" x="1028.369141"/>
     <use xlink:href="#ArialMT-67" x="1083.984375"/>
     <use xlink:href="#ArialMT-65" x="1139.599609"/>
     <use xlink:href="#ArialMT-29" x="1195.214844"/>
     <use xlink:href="#ArialMT-20" x="1228.515625"/>
     <use xlink:href="#ArialMT-30" x="1256.298828"/>
     <use xlink:href="#ArialMT-2e" x="1311.914062"/>
     <use xlink:href="#ArialMT-35" x="1339.697266"/>
     <use xlink:href="#ArialMT-25" x="1395.3125"/>
    </g>
   </g>
   <g id="text_22">
    <g clip-path="url(#p064842f067)">
     <!-- 5.955 -->
     <g transform="translate(158.150889 109.503651)rotate(-345.207989)scale(0.08 -0.08)">
      <defs>
       <path id="ArialMT-39" d="M 350 1059 
L 891 1109 
Q 959 728 1153 556 
Q 1347 384 1650 384 
Q 1909 384 2104 503 
Q 2300 622 2425 820 
Q 2550 1019 2634 1356 
Q 2719 1694 2719 2044 
Q 2719 2081 2716 2156 
Q 2547 1888 2255 1720 
Q 1963 1553 1622 1553 
Q 1053 1553 659 1965 
Q 266 2378 266 3053 
Q 266 3750 677 4175 
Q 1088 4600 1706 4600 
Q 2153 4600 2523 4359 
Q 2894 4119 3086 3673 
Q 3278 3228 3278 2384 
Q 3278 1506 3087 986 
Q 2897 466 2520 194 
Q 2144 -78 1638 -78 
Q 1100 -78 759 220 
Q 419 519 350 1059 
z
M 2653 3081 
Q 2653 3566 2395 3850 
Q 2138 4134 1775 4134 
Q 1400 4134 1122 3828 
Q 844 3522 844 3034 
Q 844 2597 1108 2323 
Q 1372 2050 1759 2050 
Q 2150 2050 2401 2323 
Q 2653 2597 2653 3081 
z
" transform="scale(0.015625)"/>
      </defs>
      <use xlink:href="#ArialMT-35"/>
      <use xlink:href="#ArialMT-2e" x="55.615234"/>
      <use xlink:href="#ArialMT-39" x="83.398438"/>
      <use xlink:href="#ArialMT-35" x="139.013672"/>
      <use xlink:href="#ArialMT-35" x="194.628906"/>
     </g>
    </g>
   </g>
   <g id="text_23">
    <g clip-path="url(#p064842f067)">
     <!-- 5.970 -->
     <g transform="translate(189.492004 117.009056)rotate(-34.650873)scale(0.08 -0.08)">
      <defs>
       <path id="ArialMT-37" d="M 303 3981 
L 303 4522 
L 3269 4522 
L 3269 4084 
Q 2831 3619 2401 2847 
Q 1972 2075 1738 1259 
Q 1569 684 1522 0 
L 944 0 
Q 953 541 1156 1306 
Q 1359 2072 1739 2783 
Q 2119 3494 2547 3981 
L 303 3981 
z
" transform="scale(0.015625)"/>
      </defs>
      <use xlink:href="#ArialMT-35"/>
      <use xlink:href="#ArialMT-2e" x="55.615234"/>
      <use xlink:href="#ArialMT-39" x="83.398438"/>
      <use xlink:href="#ArialMT-37" x="139.013672"/>
      <use xlink:href="#ArialMT-30" x="194.628906"/>
     </g>
    </g>
   </g>
   <g id="text_24">
    <g clip-path="url(#p064842f067)">
     <!-- 5.985 -->
     <g transform="translate(79.167973 77.572611)rotate(-285.11812)scale(0.08 -0.08)">
      <defs>
       <path id="ArialMT-38" d="M 1131 2484 
Q 781 2613 612 2850 
Q 444 3088 444 3419 
Q 444 3919 803 4259 
Q 1163 4600 1759 4600 
Q 2359 4600 2725 4251 
Q 3091 3903 3091 3403 
Q 3091 3084 2923 2848 
Q 2756 2613 2416 2484 
Q 2838 2347 3058 2040 
Q 3278 1734 3278 1309 
Q 3278 722 2862 322 
Q 2447 -78 1769 -78 
Q 1091 -78 675 323 
Q 259 725 259 1325 
Q 259 1772 486 2073 
Q 713 2375 1131 2484 
z
M 1019 3438 
Q 1019 3113 1228 2906 
Q 1438 2700 1772 2700 
Q 2097 2700 2305 2904 
Q 2513 3109 2513 3406 
Q 2513 3716 2298 3927 
Q 2084 4138 1766 4138 
Q 1444 4138 1231 3931 
Q 1019 3725 1019 3438 
z
M 838 1322 
Q 838 1081 952 856 
Q 1066 631 1291 507 
Q 1516 384 1775 384 
Q 2178 384 2440 643 
Q 2703 903 2703 1303 
Q 2703 1709 2433 1975 
Q 2163 2241 1756 2241 
Q 1359 2241 1098 1978 
Q 838 1716 838 1322 
z
" transform="scale(0.015625)"/>
      </defs>
      <use xlink:href="#ArialMT-35"/>
      <use xlink:href="#ArialMT-2e" x="55.615234"/>
      <use xlink:href="#ArialMT-39" x="83.398438"/>
      <use xlink:href="#ArialMT-38" x="139.013672"/>
      <use xlink:href="#ArialMT-35" x="194.628906"/>
     </g>
    </g>
   </g>
   <g id="text_25">
    <g clip-path="url(#p064842f067)">
     <!-- 5.985 -->
     <g transform="translate(220.395677 67.24455)rotate(-283.501033)scale(0.08 -0.08)">
      <use xlink:href="#ArialMT-35"/>
      <use xlink:href="#ArialMT-2e" x="55.615234"/>
      <use xlink:href="#ArialMT-39" x="83.398438"/>
      <use xlink:href="#ArialMT-38" x="139.013672"/>
      <use xlink:href="#ArialMT-35" x="194.628906"/>
     </g>
    </g>
   </g>
   <g id="text_26">
    <g clip-path="url(#p064842f067)">
     <!-- 6.000 -->
     <g transform="translate(172.884283 184.528845)rotate(-327.754046)scale(0.08 -0.08)">
      <defs>
       <path id="ArialMT-36" d="M 3184 3459 
L 2625 3416 
Q 2550 3747 2413 3897 
Q 2184 4138 1850 4138 
Q 1581 4138 1378 3988 
Q 1113 3794 959 3422 
Q 806 3050 800 2363 
Q 1003 2672 1297 2822 
Q 1591 2972 1913 2972 
Q 2475 2972 2870 2558 
Q 3266 2144 3266 1488 
Q 3266 1056 3080 686 
Q 2894 316 2569 119 
Q 2244 -78 1831 -78 
Q 1128 -78 684 439 
Q 241 956 241 2144 
Q 241 3472 731 4075 
Q 1159 4600 1884 4600 
Q 2425 4600 2770 4297 
Q 3116 3994 3184 3459 
z
M 888 1484 
Q 888 1194 1011 928 
Q 1134 663 1356 523 
Q 1578 384 1822 384 
Q 2178 384 2434 671 
Q 2691 959 2691 1453 
Q 2691 1928 2437 2201 
Q 2184 2475 1800 2475 
Q 1419 2475 1153 2201 
Q 888 1928 888 1484 
z
" transform="scale(0.015625)"/>
      </defs>
      <use xlink:href="#ArialMT-36"/>
      <use xlink:href="#ArialMT-2e" x="55.615234"/>
      <use xlink:href="#ArialMT-30" x="83.398438"/>
      <use xlink:href="#ArialMT-30" x="139.013672"/>
      <use xlink:href="#ArialMT-30" x="194.628906"/>
     </g>
    </g>
   </g>
   <g id="text_27">
    <g clip-path="url(#p064842f067)">
     <!-- 6.000 -->
     <g transform="translate(285.132308 101.49423)rotate(-357.294098)scale(0.08 -0.08)">
      <use xlink:href="#ArialMT-36"/>
      <use xlink:href="#ArialMT-2e" x="55.615234"/>
      <use xlink:href="#ArialMT-30" x="83.398438"/>
      <use xlink:href="#ArialMT-30" x="139.013672"/>
      <use xlink:href="#ArialMT-30" x="194.628906"/>
     </g>
    </g>
   </g>
   <g id="text_28">
    <g clip-path="url(#p064842f067)">
     <!-- 6.000 -->
     <g transform="translate(104.792729 63.173827)rotate(-33.727382)scale(0.08 -0.08)">
      <use xlink:href="#ArialMT-36"/>
      <use xlink:href="#ArialMT-2e" x="55.615234"/>
      <use xlink:href="#ArialMT-30" x="83.398438"/>
      <use xlink:href="#ArialMT-30" x="139.013672"/>
      <use xlink:href="#ArialMT-30" x="194.628906"/>
     </g>
    </g>
   </g>
   <g id="text_29">
    <g clip-path="url(#p064842f067)">
     <!-- 6.000 -->
     <g transform="translate(242.716918 87.777709)rotate(-348.073682)scale(0.08 -0.08)">
      <use xlink:href="#ArialMT-36"/>
      <use xlink:href="#ArialMT-2e" x="55.615234"/>
      <use xlink:href="#ArialMT-30" x="83.398438"/>
      <use xlink:href="#ArialMT-30" x="139.013672"/>
      <use xlink:href="#ArialMT-30" x="194.628906"/>
     </g>
    </g>
   </g>
   <g id="text_30">
    <g clip-path="url(#p064842f067)">
     <!-- 6.015 -->
     <g transform="translate(153.794304 189.331274)rotate(-62.65723)scale(0.08 -0.08)">
      <use xlink:href="#ArialMT-36"/>
      <use xlink:href="#ArialMT-2e" x="55.615234"/>
      <use xlink:href="#ArialMT-30" x="83.398438"/>
      <use xlink:href="#ArialMT-31" x="139.013672"/>
      <use xlink:href="#ArialMT-35" x="194.628906"/>
     </g>
    </g>
   </g>
   <g id="text_31">
    <g clip-path="url(#p064842f067)">
     <!-- 6.015 -->
     <g transform="translate(197.253946 141.075111)rotate(-34.400506)scale(0.08 -0.08)">
      <use xlink:href="#ArialMT-36"/>
      <use xlink:href="#ArialMT-2e" x="55.615234"/>
      <use xlink:href="#ArialMT-30" x="83.398438"/>
      <use xlink:href="#ArialMT-31" x="139.013672"/>
      <use xlink:href="#ArialMT-35" x="194.628906"/>
     </g>
    </g>
   </g>
   <g id="text_32">
    <g clip-path="url(#p064842f067)">
     <!-- 6.030 -->
     <g transform="translate(131.900737 200.77913)rotate(-62.73309)scale(0.08 -0.08)">
      <use xlink:href="#ArialMT-36"/>
      <use xlink:href="#ArialMT-2e" x="55.615234"/>
      <use xlink:href="#ArialMT-30" x="83.398438"/>
      <use xlink:href="#ArialMT-33" x="139.013672"/>
      <use xlink:href="#ArialMT-30" x="194.628906"/>
     </g>
    </g>
   </g>
   <g id="text_33">
    <g clip-path="url(#p064842f067)">
     <!-- 6.030 -->
     <g transform="translate(57.095953 204.522541)rotate(-282.812264)scale(0.08 -0.08)">
      <use xlink:href="#ArialMT-36"/>
      <use xlink:href="#ArialMT-2e" x="55.615234"/>
      <use xlink:href="#ArialMT-30" x="83.398438"/>
      <use xlink:href="#ArialMT-33" x="139.013672"/>
      <use xlink:href="#ArialMT-30" x="194.628906"/>
     </g>
    </g>
   </g>
   <g id="text_34">
    <g clip-path="url(#p064842f067)">
     <!-- 6.030 -->
     <g transform="translate(230.277786 125.346083)rotate(-21.417621)scale(0.08 -0.08)">
      <use xlink:href="#ArialMT-36"/>
      <use xlink:href="#ArialMT-2e" x="55.615234"/>
      <use xlink:href="#ArialMT-30" x="83.398438"/>
      <use xlink:href="#ArialMT-33" x="139.013672"/>
      <use xlink:href="#ArialMT-30" x="194.628906"/>
     </g>
    </g>
   </g>
   <g id="text_35">
    <g clip-path="url(#p064842f067)">
     <!-- 6.045 -->
     <g transform="translate(276.995389 234.749587)rotate(-56.413854)scale(0.08 -0.08)">
      <use xlink:href="#ArialMT-36"/>
      <use xlink:href="#ArialMT-2e" x="55.615234"/>
      <use xlink:href="#ArialMT-30" x="83.398438"/>
      <use xlink:href="#ArialMT-34" x="139.013672"/>
      <use xlink:href="#ArialMT-35" x="194.628906"/>
     </g>
    </g>
   </g>
   <g id="text_36">
    <g clip-path="url(#p064842f067)">
     <!-- 6.045 -->
     <g transform="translate(73.360679 186.481288)rotate(-322.490193)scale(0.08 -0.08)">
      <use xlink:href="#ArialMT-36"/>
      <use xlink:href="#ArialMT-2e" x="55.615234"/>
      <use xlink:href="#ArialMT-30" x="83.398438"/>
      <use xlink:href="#ArialMT-34" x="139.013672"/>
      <use xlink:href="#ArialMT-35" x="194.628906"/>
     </g>
    </g>
   </g>
   <g id="text_37">
    <g clip-path="url(#p064842f067)">
     <!-- 6.045 -->
     <g transform="translate(210.590097 160.2843)rotate(-298.904214)scale(0.08 -0.08)">
      <use xlink:href="#ArialMT-36"/>
      <use xlink:href="#ArialMT-2e" x="55.615234"/>
      <use xlink:href="#ArialMT-30" x="83.398438"/>
      <use xlink:href="#ArialMT-34" x="139.013672"/>
      <use xlink:href="#ArialMT-35" x="194.628906"/>
     </g>
    </g>
   </g>
   <g id="text_38">
    <g clip-path="url(#p064842f067)">
     <!-- 6.060 -->
     <g transform="translate(225.347616 160.410335)rotate(-299.978715)scale(0.08 -0.08)">
      <use xlink:href="#ArialMT-36"/>
      <use xlink:href="#ArialMT-2e" x="55.615234"/>
      <use xlink:href="#ArialMT-30" x="83.398438"/>
      <use xlink:href="#ArialMT-36" x="139.013672"/>
      <use xlink:href="#ArialMT-30" x="194.628906"/>
     </g>
    </g>
   </g>
   <g id="text_39">
    <g clip-path="url(#p064842f067)">
     <!-- 6.060 -->
     <g transform="translate(88.709775 148.865639)rotate(-14.628858)scale(0.08 -0.08)">
      <use xlink:href="#ArialMT-36"/>
      <use xlink:href="#ArialMT-2e" x="55.615234"/>
      <use xlink:href="#ArialMT-30" x="83.398438"/>
      <use xlink:href="#ArialMT-36" x="139.013672"/>
      <use xlink:href="#ArialMT-30" x="194.628906"/>
     </g>
    </g>
   </g>
   <g id="text_40">
    <g clip-path="url(#p064842f067)">
     <!-- 6.075 -->
     <g transform="translate(256.843985 155.859173)rotate(-352.739884)scale(0.08 -0.08)">
      <use xlink:href="#ArialMT-36"/>
      <use xlink:href="#ArialMT-2e" x="55.615234"/>
      <use xlink:href="#ArialMT-30" x="83.398438"/>
      <use xlink:href="#ArialMT-37" x="139.013672"/>
      <use xlink:href="#ArialMT-35" x="194.628906"/>
     </g>
    </g>
   </g>
  </g>
  <g id="axes_2">
   <g id="patch_7">
    <path d="M 326.064375 259.600312 
L 336.936375 259.600312 
L 336.936375 42.160312 
L 326.064375 42.160312 
z
" style="fill: #eaeaf2"/>
   </g>
   <g id="patch_8">
    <path clip-path="url(#p0f2f0e9b70)" style="fill: #eaeaf2; stroke: #eaeaf2; stroke-width: 0.01; stroke-linejoin: miter"/>
   </g>
   <g id="matplotlib.axis_3">
    <g id="ytick_10">
     <g id="line2d_19">
      <defs>
       <path id="mca915248a6" d="M 0 0 
L 3.5 0 
" style="stroke: #262626; stroke-width: 0.8"/>
      </defs>
      <g>
       <use xlink:href="#mca915248a6" x="336.936375" y="259.600312" style="fill: #262626; stroke: #262626; stroke-width: 0.8"/>
      </g>
     </g>
     <g id="text_41">
      <!-- 5.925 -->
      <g style="fill: #262626" transform="translate(343.936375 263.179219)scale(0.1 -0.1)">
       <use xlink:href="#ArialMT-35"/>
       <use xlink:href="#ArialMT-2e" x="55.615234"/>
       <use xlink:href="#ArialMT-39" x="83.398438"/>
       <use xlink:href="#ArialMT-32" x="139.013672"/>
       <use xlink:href="#ArialMT-35" x="194.628906"/>
      </g>
     </g>
    </g>
    <g id="ytick_11">
     <g id="line2d_20">
      <g>
       <use xlink:href="#mca915248a6" x="336.936375" y="220.065767" style="fill: #262626; stroke: #262626; stroke-width: 0.8"/>
      </g>
     </g>
     <g id="text_42">
      <!-- 5.955 -->
      <g style="fill: #262626" transform="translate(343.936375 223.644673)scale(0.1 -0.1)">
       <use xlink:href="#ArialMT-35"/>
       <use xlink:href="#ArialMT-2e" x="55.615234"/>
       <use xlink:href="#ArialMT-39" x="83.398438"/>
       <use xlink:href="#ArialMT-35" x="139.013672"/>
       <use xlink:href="#ArialMT-35" x="194.628906"/>
      </g>
     </g>
    </g>
    <g id="ytick_12">
     <g id="line2d_21">
      <g>
       <use xlink:href="#mca915248a6" x="336.936375" y="180.531222" style="fill: #262626; stroke: #262626; stroke-width: 0.8"/>
      </g>
     </g>
     <g id="text_43">
      <!-- 5.985 -->
      <g style="fill: #262626" transform="translate(343.936375 184.110128)scale(0.1 -0.1)">
       <use xlink:href="#ArialMT-35"/>
       <use xlink:href="#ArialMT-2e" x="55.615234"/>
       <use xlink:href="#ArialMT-39" x="83.398438"/>
       <use xlink:href="#ArialMT-38" x="139.013672"/>
       <use xlink:href="#ArialMT-35" x="194.628906"/>
      </g>
     </g>
    </g>
    <g id="ytick_13">
     <g id="line2d_22">
      <g>
       <use xlink:href="#mca915248a6" x="336.936375" y="140.996676" style="fill: #262626; stroke: #262626; stroke-width: 0.8"/>
      </g>
     </g>
     <g id="text_44">
      <!-- 6.015 -->
      <g style="fill: #262626" transform="translate(343.936375 144.575582)scale(0.1 -0.1)">
       <use xlink:href="#ArialMT-36"/>
       <use xlink:href="#ArialMT-2e" x="55.615234"/>
       <use xlink:href="#ArialMT-30" x="83.398438"/>
       <use xlink:href="#ArialMT-31" x="139.013672"/>
       <use xlink:href="#ArialMT-35" x="194.628906"/>
      </g>
     </g>
    </g>
    <g id="ytick_14">
     <g id="line2d_23">
      <g>
       <use xlink:href="#mca915248a6" x="336.936375" y="101.462131" style="fill: #262626; stroke: #262626; stroke-width: 0.8"/>
      </g>
     </g>
     <g id="text_45">
      <!-- 6.045 -->
      <g style="fill: #262626" transform="translate(343.936375 105.041037)scale(0.1 -0.1)">
       <use xlink:href="#ArialMT-36"/>
       <use xlink:href="#ArialMT-2e" x="55.615234"/>
       <use xlink:href="#ArialMT-30" x="83.398438"/>
       <use xlink:href="#ArialMT-34" x="139.013672"/>
       <use xlink:href="#ArialMT-35" x="194.628906"/>
      </g>
     </g>
    </g>
    <g id="ytick_15">
     <g id="line2d_24">
      <g>
       <use xlink:href="#mca915248a6" x="336.936375" y="61.927585" style="fill: #262626; stroke: #262626; stroke-width: 0.8"/>
      </g>
     </g>
     <g id="text_46">
      <!-- 6.075 -->
      <g style="fill: #262626" transform="translate(343.936375 65.506491)scale(0.1 -0.1)">
       <use xlink:href="#ArialMT-36"/>
       <use xlink:href="#ArialMT-2e" x="55.615234"/>
       <use xlink:href="#ArialMT-30" x="83.398438"/>
       <use xlink:href="#ArialMT-37" x="139.013672"/>
       <use xlink:href="#ArialMT-35" x="194.628906"/>
      </g>
     </g>
    </g>
   </g>
   <g id="QuadMesh_1">
    <path d="M 326.064375 259.600312 
L 336.936375 259.600312 
L 336.936375 239.83304 
L 326.064375 239.83304 
L 326.064375 259.600312 
" clip-path="url(#p0f2f0e9b70)" style="fill: #485fd1"/>
    <path d="M 326.064375 239.83304 
L 336.936375 239.83304 
L 336.936375 220.065767 
L 326.064375 220.065767 
L 326.064375 239.83304 
" clip-path="url(#p0f2f0e9b70)" style="fill: #6485ec"/>
    <path d="M 326.064375 220.065767 
L 336.936375 220.065767 
L 336.936375 200.298494 
L 326.064375 200.298494 
L 326.064375 220.065767 
" clip-path="url(#p0f2f0e9b70)" style="fill: #85a8fc"/>
    <path d="M 326.064375 200.298494 
L 336.936375 200.298494 
L 336.936375 180.531222 
L 326.064375 180.531222 
L 326.064375 200.298494 
" clip-path="url(#p0f2f0e9b70)" style="fill: #a5c3fe"/>
    <path d="M 326.064375 180.531222 
L 336.936375 180.531222 
L 336.936375 160.763949 
L 326.064375 160.763949 
L 326.064375 180.531222 
" clip-path="url(#p0f2f0e9b70)" style="fill: #c3d5f4"/>
    <path d="M 326.064375 160.763949 
L 336.936375 160.763949 
L 336.936375 140.996676 
L 326.064375 140.996676 
L 326.064375 160.763949 
" clip-path="url(#p0f2f0e9b70)" style="fill: #dddcdc"/>
    <path d="M 326.064375 140.996676 
L 336.936375 140.996676 
L 336.936375 121.229403 
L 326.064375 121.229403 
L 326.064375 140.996676 
" clip-path="url(#p0f2f0e9b70)" style="fill: #f1cdba"/>
    <path d="M 326.064375 121.229403 
L 336.936375 121.229403 
L 336.936375 101.462131 
L 326.064375 101.462131 
L 326.064375 121.229403 
" clip-path="url(#p0f2f0e9b70)" style="fill: #f7b396"/>
    <path d="M 326.064375 101.462131 
L 336.936375 101.462131 
L 336.936375 81.694858 
L 326.064375 81.694858 
L 326.064375 101.462131 
" clip-path="url(#p0f2f0e9b70)" style="fill: #f29072"/>
    <path d="M 326.064375 81.694858 
L 336.936375 81.694858 
L 336.936375 61.927585 
L 326.064375 61.927585 
L 326.064375 81.694858 
" clip-path="url(#p0f2f0e9b70)" style="fill: #e0654f"/>
    <path d="M 326.064375 61.927585 
L 336.936375 61.927585 
L 336.936375 42.160312 
L 326.064375 42.160312 
L 326.064375 61.927585 
" clip-path="url(#p0f2f0e9b70)" style="fill: #c43032"/>
   </g>
   <g id="LineCollection_1"/>
   <g id="patch_9">
    <path d="M 326.064375 259.600312 
L 331.500375 259.600312 
L 336.936375 259.600312 
L 336.936375 42.160312 
L 331.500375 42.160312 
L 326.064375 42.160312 
L 326.064375 259.600312 
z
" style="fill: none; stroke: #ffffff; stroke-width: 0.8; stroke-linejoin: miter; stroke-linecap: square"/>
   </g>
  </g>
 </g>
 <defs>
  <clipPath id="p064842f067">
   <rect x="41.484375" y="42.160312" width="267.84" height="217.44"/>
  </clipPath>
  <clipPath id="p0f2f0e9b70">
   <rect x="326.064375" y="42.160312" width="10.872" height="217.44"/>
  </clipPath>
 </defs>
</svg>
