<?xml version="1.0" encoding="utf-8" standalone="no"?>
<!DOCTYPE svg PUBLIC "-//W3C//DTD SVG 1.1//EN"
  "http://www.w3.org/Graphics/SVG/1.1/DTD/svg11.dtd">
<svg xmlns:xlink="http://www.w3.org/1999/xlink" width="376.041063pt" height="296.095625pt" viewBox="0 0 376.041063 296.095625" xmlns="http://www.w3.org/2000/svg" version="1.1">
 <metadata>
  <rdf:RDF xmlns:dc="http://purl.org/dc/elements/1.1/" xmlns:cc="http://creativecommons.org/ns#" xmlns:rdf="http://www.w3.org/1999/02/22-rdf-syntax-ns#">
   <cc:Work>
    <dc:type rdf:resource="http://purl.org/dc/dcmitype/StillImage"/>
    <dc:date>2022-04-26T09:17:17.178148</dc:date>
    <dc:format>image/svg+xml</dc:format>
    <dc:creator>
     <cc:Agent>
      <dc:title>Matplotlib v3.5.1, https://matplotlib.org/</dc:title>
     </cc:Agent>
    </dc:creator>
   </cc:Work>
  </rdf:RDF>
 </metadata>
 <defs>
  <style type="text/css">*{stroke-linejoin: round; stroke-linecap: butt}</style>
 </defs>
 <g id="figure_1">
  <g id="patch_1">
   <path d="M 0 296.095625 
L 376.041063 296.095625 
L 376.041063 0 
L 0 0 
z
" style="fill: #ffffff"/>
  </g>
  <g id="axes_1">
   <g id="patch_2">
    <path d="M 41.367188 259.483125 
L 309.207188 259.483125 
L 309.207188 42.043125 
L 41.367188 42.043125 
z
" style="fill: #eaeaf2"/>
   </g>
   <g id="matplotlib.axis_1">
    <g id="xtick_1">
     <g id="line2d_1">
      <path d="M 41.367188 259.483125 
L 41.367188 42.043125 
" clip-path="url(#p2fbff9e8b6)" style="fill: none; stroke: #ffffff; stroke-width: 0.8; stroke-linecap: round"/>
     </g>
     <g id="text_1">
      <!-- 1.0 -->
      <g style="fill: #262626" transform="translate(34.417187 273.640937)scale(0.1 -0.1)">
       <defs>
        <path id="ArialMT-31" d="M 2384 0 
L 1822 0 
L 1822 3584 
Q 1619 3391 1289 3197 
Q 959 3003 697 2906 
L 697 3450 
Q 1169 3672 1522 3987 
Q 1875 4303 2022 4600 
L 2384 4600 
L 2384 0 
z
" transform="scale(0.015625)"/>
        <path id="ArialMT-2e" d="M 581 0 
L 581 641 
L 1222 641 
L 1222 0 
L 581 0 
z
" transform="scale(0.015625)"/>
        <path id="ArialMT-30" d="M 266 2259 
Q 266 3072 433 3567 
Q 600 4063 929 4331 
Q 1259 4600 1759 4600 
Q 2128 4600 2406 4451 
Q 2684 4303 2865 4023 
Q 3047 3744 3150 3342 
Q 3253 2941 3253 2259 
Q 3253 1453 3087 958 
Q 2922 463 2592 192 
Q 2263 -78 1759 -78 
Q 1097 -78 719 397 
Q 266 969 266 2259 
z
M 844 2259 
Q 844 1131 1108 757 
Q 1372 384 1759 384 
Q 2147 384 2411 759 
Q 2675 1134 2675 2259 
Q 2675 3391 2411 3762 
Q 2147 4134 1753 4134 
Q 1366 4134 1134 3806 
Q 844 3388 844 2259 
z
" transform="scale(0.015625)"/>
       </defs>
       <use xlink:href="#ArialMT-31"/>
       <use xlink:href="#ArialMT-2e" x="55.615234"/>
       <use xlink:href="#ArialMT-30" x="83.398438"/>
      </g>
     </g>
    </g>
    <g id="xtick_2">
     <g id="line2d_2">
      <path d="M 74.847188 259.483125 
L 74.847188 42.043125 
" clip-path="url(#p2fbff9e8b6)" style="fill: none; stroke: #ffffff; stroke-width: 0.8; stroke-linecap: round"/>
     </g>
     <g id="text_2">
      <!-- 1.5 -->
      <g style="fill: #262626" transform="translate(67.897188 273.640937)scale(0.1 -0.1)">
       <defs>
        <path id="ArialMT-35" d="M 266 1200 
L 856 1250 
Q 922 819 1161 601 
Q 1400 384 1738 384 
Q 2144 384 2425 690 
Q 2706 997 2706 1503 
Q 2706 1984 2436 2262 
Q 2166 2541 1728 2541 
Q 1456 2541 1237 2417 
Q 1019 2294 894 2097 
L 366 2166 
L 809 4519 
L 3088 4519 
L 3088 3981 
L 1259 3981 
L 1013 2750 
Q 1425 3038 1878 3038 
Q 2478 3038 2890 2622 
Q 3303 2206 3303 1553 
Q 3303 931 2941 478 
Q 2500 -78 1738 -78 
Q 1113 -78 717 272 
Q 322 622 266 1200 
z
" transform="scale(0.015625)"/>
       </defs>
       <use xlink:href="#ArialMT-31"/>
       <use xlink:href="#ArialMT-2e" x="55.615234"/>
       <use xlink:href="#ArialMT-35" x="83.398438"/>
      </g>
     </g>
    </g>
    <g id="xtick_3">
     <g id="line2d_3">
      <path d="M 108.327188 259.483125 
L 108.327188 42.043125 
" clip-path="url(#p2fbff9e8b6)" style="fill: none; stroke: #ffffff; stroke-width: 0.8; stroke-linecap: round"/>
     </g>
     <g id="text_3">
      <!-- 2.0 -->
      <g style="fill: #262626" transform="translate(101.377188 273.640937)scale(0.1 -0.1)">
       <defs>
        <path id="ArialMT-32" d="M 3222 541 
L 3222 0 
L 194 0 
Q 188 203 259 391 
Q 375 700 629 1000 
Q 884 1300 1366 1694 
Q 2113 2306 2375 2664 
Q 2638 3022 2638 3341 
Q 2638 3675 2398 3904 
Q 2159 4134 1775 4134 
Q 1369 4134 1125 3890 
Q 881 3647 878 3216 
L 300 3275 
Q 359 3922 746 4261 
Q 1134 4600 1788 4600 
Q 2447 4600 2831 4234 
Q 3216 3869 3216 3328 
Q 3216 3053 3103 2787 
Q 2991 2522 2730 2228 
Q 2469 1934 1863 1422 
Q 1356 997 1212 845 
Q 1069 694 975 541 
L 3222 541 
z
" transform="scale(0.015625)"/>
       </defs>
       <use xlink:href="#ArialMT-32"/>
       <use xlink:href="#ArialMT-2e" x="55.615234"/>
       <use xlink:href="#ArialMT-30" x="83.398438"/>
      </g>
     </g>
    </g>
    <g id="xtick_4">
     <g id="line2d_4">
      <path d="M 141.807188 259.483125 
L 141.807188 42.043125 
" clip-path="url(#p2fbff9e8b6)" style="fill: none; stroke: #ffffff; stroke-width: 0.8; stroke-linecap: round"/>
     </g>
     <g id="text_4">
      <!-- 2.5 -->
      <g style="fill: #262626" transform="translate(134.857188 273.640937)scale(0.1 -0.1)">
       <use xlink:href="#ArialMT-32"/>
       <use xlink:href="#ArialMT-2e" x="55.615234"/>
       <use xlink:href="#ArialMT-35" x="83.398438"/>
      </g>
     </g>
    </g>
    <g id="xtick_5">
     <g id="line2d_5">
      <path d="M 175.287188 259.483125 
L 175.287188 42.043125 
" clip-path="url(#p2fbff9e8b6)" style="fill: none; stroke: #ffffff; stroke-width: 0.8; stroke-linecap: round"/>
     </g>
     <g id="text_5">
      <!-- 3.0 -->
      <g style="fill: #262626" transform="translate(168.337188 273.640937)scale(0.1 -0.1)">
       <defs>
        <path id="ArialMT-33" d="M 269 1209 
L 831 1284 
Q 928 806 1161 595 
Q 1394 384 1728 384 
Q 2125 384 2398 659 
Q 2672 934 2672 1341 
Q 2672 1728 2419 1979 
Q 2166 2231 1775 2231 
Q 1616 2231 1378 2169 
L 1441 2663 
Q 1497 2656 1531 2656 
Q 1891 2656 2178 2843 
Q 2466 3031 2466 3422 
Q 2466 3731 2256 3934 
Q 2047 4138 1716 4138 
Q 1388 4138 1169 3931 
Q 950 3725 888 3313 
L 325 3413 
Q 428 3978 793 4289 
Q 1159 4600 1703 4600 
Q 2078 4600 2393 4439 
Q 2709 4278 2876 4000 
Q 3044 3722 3044 3409 
Q 3044 3113 2884 2869 
Q 2725 2625 2413 2481 
Q 2819 2388 3044 2092 
Q 3269 1797 3269 1353 
Q 3269 753 2831 336 
Q 2394 -81 1725 -81 
Q 1122 -81 723 278 
Q 325 638 269 1209 
z
" transform="scale(0.015625)"/>
       </defs>
       <use xlink:href="#ArialMT-33"/>
       <use xlink:href="#ArialMT-2e" x="55.615234"/>
       <use xlink:href="#ArialMT-30" x="83.398438"/>
      </g>
     </g>
    </g>
    <g id="xtick_6">
     <g id="line2d_6">
      <path d="M 208.767188 259.483125 
L 208.767188 42.043125 
" clip-path="url(#p2fbff9e8b6)" style="fill: none; stroke: #ffffff; stroke-width: 0.8; stroke-linecap: round"/>
     </g>
     <g id="text_6">
      <!-- 3.5 -->
      <g style="fill: #262626" transform="translate(201.817188 273.640937)scale(0.1 -0.1)">
       <use xlink:href="#ArialMT-33"/>
       <use xlink:href="#ArialMT-2e" x="55.615234"/>
       <use xlink:href="#ArialMT-35" x="83.398438"/>
      </g>
     </g>
    </g>
    <g id="xtick_7">
     <g id="line2d_7">
      <path d="M 242.247188 259.483125 
L 242.247188 42.043125 
" clip-path="url(#p2fbff9e8b6)" style="fill: none; stroke: #ffffff; stroke-width: 0.8; stroke-linecap: round"/>
     </g>
     <g id="text_7">
      <!-- 4.0 -->
      <g style="fill: #262626" transform="translate(235.297188 273.640937)scale(0.1 -0.1)">
       <defs>
        <path id="ArialMT-34" d="M 2069 0 
L 2069 1097 
L 81 1097 
L 81 1613 
L 2172 4581 
L 2631 4581 
L 2631 1613 
L 3250 1613 
L 3250 1097 
L 2631 1097 
L 2631 0 
L 2069 0 
z
M 2069 1613 
L 2069 3678 
L 634 1613 
L 2069 1613 
z
" transform="scale(0.015625)"/>
       </defs>
       <use xlink:href="#ArialMT-34"/>
       <use xlink:href="#ArialMT-2e" x="55.615234"/>
       <use xlink:href="#ArialMT-30" x="83.398438"/>
      </g>
     </g>
    </g>
    <g id="xtick_8">
     <g id="line2d_8">
      <path d="M 275.727188 259.483125 
L 275.727188 42.043125 
" clip-path="url(#p2fbff9e8b6)" style="fill: none; stroke: #ffffff; stroke-width: 0.8; stroke-linecap: round"/>
     </g>
     <g id="text_8">
      <!-- 4.5 -->
      <g style="fill: #262626" transform="translate(268.777188 273.640937)scale(0.1 -0.1)">
       <use xlink:href="#ArialMT-34"/>
       <use xlink:href="#ArialMT-2e" x="55.615234"/>
       <use xlink:href="#ArialMT-35" x="83.398438"/>
      </g>
     </g>
    </g>
    <g id="xtick_9">
     <g id="line2d_9">
      <path d="M 309.207188 259.483125 
L 309.207188 42.043125 
" clip-path="url(#p2fbff9e8b6)" style="fill: none; stroke: #ffffff; stroke-width: 0.8; stroke-linecap: round"/>
     </g>
     <g id="text_9">
      <!-- 5.0 -->
      <g style="fill: #262626" transform="translate(302.257188 273.640937)scale(0.1 -0.1)">
       <use xlink:href="#ArialMT-35"/>
       <use xlink:href="#ArialMT-2e" x="55.615234"/>
       <use xlink:href="#ArialMT-30" x="83.398438"/>
      </g>
     </g>
    </g>
    <g id="text_10">
     <!-- Predictor: ffmq_ds3 -->
     <g style="fill: #262626" transform="translate(132.025469 286.908125)scale(0.1 -0.1)">
      <defs>
       <path id="ArialMT-50" d="M 494 0 
L 494 4581 
L 2222 4581 
Q 2678 4581 2919 4538 
Q 3256 4481 3484 4323 
Q 3713 4166 3852 3881 
Q 3991 3597 3991 3256 
Q 3991 2672 3619 2267 
Q 3247 1863 2275 1863 
L 1100 1863 
L 1100 0 
L 494 0 
z
M 1100 2403 
L 2284 2403 
Q 2872 2403 3119 2622 
Q 3366 2841 3366 3238 
Q 3366 3525 3220 3729 
Q 3075 3934 2838 4000 
Q 2684 4041 2272 4041 
L 1100 4041 
L 1100 2403 
z
" transform="scale(0.015625)"/>
       <path id="ArialMT-72" d="M 416 0 
L 416 3319 
L 922 3319 
L 922 2816 
Q 1116 3169 1280 3281 
Q 1444 3394 1641 3394 
Q 1925 3394 2219 3213 
L 2025 2691 
Q 1819 2813 1613 2813 
Q 1428 2813 1281 2702 
Q 1134 2591 1072 2394 
Q 978 2094 978 1738 
L 978 0 
L 416 0 
z
" transform="scale(0.015625)"/>
       <path id="ArialMT-65" d="M 2694 1069 
L 3275 997 
Q 3138 488 2766 206 
Q 2394 -75 1816 -75 
Q 1088 -75 661 373 
Q 234 822 234 1631 
Q 234 2469 665 2931 
Q 1097 3394 1784 3394 
Q 2450 3394 2872 2941 
Q 3294 2488 3294 1666 
Q 3294 1616 3291 1516 
L 816 1516 
Q 847 969 1125 678 
Q 1403 388 1819 388 
Q 2128 388 2347 550 
Q 2566 713 2694 1069 
z
M 847 1978 
L 2700 1978 
Q 2663 2397 2488 2606 
Q 2219 2931 1791 2931 
Q 1403 2931 1139 2672 
Q 875 2413 847 1978 
z
" transform="scale(0.015625)"/>
       <path id="ArialMT-64" d="M 2575 0 
L 2575 419 
Q 2259 -75 1647 -75 
Q 1250 -75 917 144 
Q 584 363 401 755 
Q 219 1147 219 1656 
Q 219 2153 384 2558 
Q 550 2963 881 3178 
Q 1213 3394 1622 3394 
Q 1922 3394 2156 3267 
Q 2391 3141 2538 2938 
L 2538 4581 
L 3097 4581 
L 3097 0 
L 2575 0 
z
M 797 1656 
Q 797 1019 1065 703 
Q 1334 388 1700 388 
Q 2069 388 2326 689 
Q 2584 991 2584 1609 
Q 2584 2291 2321 2609 
Q 2059 2928 1675 2928 
Q 1300 2928 1048 2622 
Q 797 2316 797 1656 
z
" transform="scale(0.015625)"/>
       <path id="ArialMT-69" d="M 425 3934 
L 425 4581 
L 988 4581 
L 988 3934 
L 425 3934 
z
M 425 0 
L 425 3319 
L 988 3319 
L 988 0 
L 425 0 
z
" transform="scale(0.015625)"/>
       <path id="ArialMT-63" d="M 2588 1216 
L 3141 1144 
Q 3050 572 2676 248 
Q 2303 -75 1759 -75 
Q 1078 -75 664 370 
Q 250 816 250 1647 
Q 250 2184 428 2587 
Q 606 2991 970 3192 
Q 1334 3394 1763 3394 
Q 2303 3394 2647 3120 
Q 2991 2847 3088 2344 
L 2541 2259 
Q 2463 2594 2264 2762 
Q 2066 2931 1784 2931 
Q 1359 2931 1093 2626 
Q 828 2322 828 1663 
Q 828 994 1084 691 
Q 1341 388 1753 388 
Q 2084 388 2306 591 
Q 2528 794 2588 1216 
z
" transform="scale(0.015625)"/>
       <path id="ArialMT-74" d="M 1650 503 
L 1731 6 
Q 1494 -44 1306 -44 
Q 1000 -44 831 53 
Q 663 150 594 308 
Q 525 466 525 972 
L 525 2881 
L 113 2881 
L 113 3319 
L 525 3319 
L 525 4141 
L 1084 4478 
L 1084 3319 
L 1650 3319 
L 1650 2881 
L 1084 2881 
L 1084 941 
Q 1084 700 1114 631 
Q 1144 563 1211 522 
Q 1278 481 1403 481 
Q 1497 481 1650 503 
z
" transform="scale(0.015625)"/>
       <path id="ArialMT-6f" d="M 213 1659 
Q 213 2581 725 3025 
Q 1153 3394 1769 3394 
Q 2453 3394 2887 2945 
Q 3322 2497 3322 1706 
Q 3322 1066 3130 698 
Q 2938 331 2570 128 
Q 2203 -75 1769 -75 
Q 1072 -75 642 372 
Q 213 819 213 1659 
z
M 791 1659 
Q 791 1022 1069 705 
Q 1347 388 1769 388 
Q 2188 388 2466 706 
Q 2744 1025 2744 1678 
Q 2744 2294 2464 2611 
Q 2184 2928 1769 2928 
Q 1347 2928 1069 2612 
Q 791 2297 791 1659 
z
" transform="scale(0.015625)"/>
       <path id="ArialMT-3a" d="M 578 2678 
L 578 3319 
L 1219 3319 
L 1219 2678 
L 578 2678 
z
M 578 0 
L 578 641 
L 1219 641 
L 1219 0 
L 578 0 
z
" transform="scale(0.015625)"/>
       <path id="ArialMT-20" transform="scale(0.015625)"/>
       <path id="ArialMT-66" d="M 556 0 
L 556 2881 
L 59 2881 
L 59 3319 
L 556 3319 
L 556 3672 
Q 556 4006 616 4169 
Q 697 4388 901 4523 
Q 1106 4659 1475 4659 
Q 1713 4659 2000 4603 
L 1916 4113 
Q 1741 4144 1584 4144 
Q 1328 4144 1222 4034 
Q 1116 3925 1116 3625 
L 1116 3319 
L 1763 3319 
L 1763 2881 
L 1116 2881 
L 1116 0 
L 556 0 
z
" transform="scale(0.015625)"/>
       <path id="ArialMT-6d" d="M 422 0 
L 422 3319 
L 925 3319 
L 925 2853 
Q 1081 3097 1340 3245 
Q 1600 3394 1931 3394 
Q 2300 3394 2536 3241 
Q 2772 3088 2869 2813 
Q 3263 3394 3894 3394 
Q 4388 3394 4653 3120 
Q 4919 2847 4919 2278 
L 4919 0 
L 4359 0 
L 4359 2091 
Q 4359 2428 4304 2576 
Q 4250 2725 4106 2815 
Q 3963 2906 3769 2906 
Q 3419 2906 3187 2673 
Q 2956 2441 2956 1928 
L 2956 0 
L 2394 0 
L 2394 2156 
Q 2394 2531 2256 2718 
Q 2119 2906 1806 2906 
Q 1569 2906 1367 2781 
Q 1166 2656 1075 2415 
Q 984 2175 984 1722 
L 984 0 
L 422 0 
z
" transform="scale(0.015625)"/>
       <path id="ArialMT-71" d="M 2538 -1272 
L 2538 353 
Q 2406 169 2170 47 
Q 1934 -75 1669 -75 
Q 1078 -75 651 397 
Q 225 869 225 1691 
Q 225 2191 398 2587 
Q 572 2984 901 3189 
Q 1231 3394 1625 3394 
Q 2241 3394 2594 2875 
L 2594 3319 
L 3100 3319 
L 3100 -1272 
L 2538 -1272 
z
M 803 1669 
Q 803 1028 1072 708 
Q 1341 388 1716 388 
Q 2075 388 2334 692 
Q 2594 997 2594 1619 
Q 2594 2281 2320 2615 
Q 2047 2950 1678 2950 
Q 1313 2950 1058 2639 
Q 803 2328 803 1669 
z
" transform="scale(0.015625)"/>
       <path id="ArialMT-5f" d="M -97 -1272 
L -97 -866 
L 3631 -866 
L 3631 -1272 
L -97 -1272 
z
" transform="scale(0.015625)"/>
       <path id="ArialMT-73" d="M 197 991 
L 753 1078 
Q 800 744 1014 566 
Q 1228 388 1613 388 
Q 2000 388 2187 545 
Q 2375 703 2375 916 
Q 2375 1106 2209 1216 
Q 2094 1291 1634 1406 
Q 1016 1563 777 1677 
Q 538 1791 414 1992 
Q 291 2194 291 2438 
Q 291 2659 392 2848 
Q 494 3038 669 3163 
Q 800 3259 1026 3326 
Q 1253 3394 1513 3394 
Q 1903 3394 2198 3281 
Q 2494 3169 2634 2976 
Q 2775 2784 2828 2463 
L 2278 2388 
Q 2241 2644 2061 2787 
Q 1881 2931 1553 2931 
Q 1166 2931 1000 2803 
Q 834 2675 834 2503 
Q 834 2394 903 2306 
Q 972 2216 1119 2156 
Q 1203 2125 1616 2013 
Q 2213 1853 2448 1751 
Q 2684 1650 2818 1456 
Q 2953 1263 2953 975 
Q 2953 694 2789 445 
Q 2625 197 2315 61 
Q 2006 -75 1616 -75 
Q 969 -75 630 194 
Q 291 463 197 991 
z
" transform="scale(0.015625)"/>
      </defs>
      <use xlink:href="#ArialMT-50"/>
      <use xlink:href="#ArialMT-72" x="66.699219"/>
      <use xlink:href="#ArialMT-65" x="100"/>
      <use xlink:href="#ArialMT-64" x="155.615234"/>
      <use xlink:href="#ArialMT-69" x="211.230469"/>
      <use xlink:href="#ArialMT-63" x="233.447266"/>
      <use xlink:href="#ArialMT-74" x="283.447266"/>
      <use xlink:href="#ArialMT-6f" x="311.230469"/>
      <use xlink:href="#ArialMT-72" x="366.845703"/>
      <use xlink:href="#ArialMT-3a" x="400.146484"/>
      <use xlink:href="#ArialMT-20" x="427.929688"/>
      <use xlink:href="#ArialMT-66" x="455.712891"/>
      <use xlink:href="#ArialMT-66" x="481.746094"/>
      <use xlink:href="#ArialMT-6d" x="509.529297"/>
      <use xlink:href="#ArialMT-71" x="592.830078"/>
      <use xlink:href="#ArialMT-5f" x="648.445312"/>
      <use xlink:href="#ArialMT-64" x="704.060547"/>
      <use xlink:href="#ArialMT-73" x="759.675781"/>
      <use xlink:href="#ArialMT-33" x="809.675781"/>
     </g>
    </g>
   </g>
   <g id="matplotlib.axis_2">
    <g id="ytick_1">
     <g id="line2d_10">
      <path d="M 41.367188 259.483125 
L 309.207188 259.483125 
" clip-path="url(#p2fbff9e8b6)" style="fill: none; stroke: #ffffff; stroke-width: 0.8; stroke-linecap: round"/>
     </g>
     <g id="text_11">
      <!-- 1.0 -->
      <g style="fill: #262626" transform="translate(20.467188 263.062031)scale(0.1 -0.1)">
       <use xlink:href="#ArialMT-31"/>
       <use xlink:href="#ArialMT-2e" x="55.615234"/>
       <use xlink:href="#ArialMT-30" x="83.398438"/>
      </g>
     </g>
    </g>
    <g id="ytick_2">
     <g id="line2d_11">
      <path d="M 41.367188 232.303125 
L 309.207188 232.303125 
" clip-path="url(#p2fbff9e8b6)" style="fill: none; stroke: #ffffff; stroke-width: 0.8; stroke-linecap: round"/>
     </g>
     <g id="text_12">
      <!-- 1.5 -->
      <g style="fill: #262626" transform="translate(20.467188 235.882031)scale(0.1 -0.1)">
       <use xlink:href="#ArialMT-31"/>
       <use xlink:href="#ArialMT-2e" x="55.615234"/>
       <use xlink:href="#ArialMT-35" x="83.398438"/>
      </g>
     </g>
    </g>
    <g id="ytick_3">
     <g id="line2d_12">
      <path d="M 41.367188 205.123125 
L 309.207188 205.123125 
" clip-path="url(#p2fbff9e8b6)" style="fill: none; stroke: #ffffff; stroke-width: 0.8; stroke-linecap: round"/>
     </g>
     <g id="text_13">
      <!-- 2.0 -->
      <g style="fill: #262626" transform="translate(20.467188 208.702031)scale(0.1 -0.1)">
       <use xlink:href="#ArialMT-32"/>
       <use xlink:href="#ArialMT-2e" x="55.615234"/>
       <use xlink:href="#ArialMT-30" x="83.398438"/>
      </g>
     </g>
    </g>
    <g id="ytick_4">
     <g id="line2d_13">
      <path d="M 41.367188 177.943125 
L 309.207188 177.943125 
" clip-path="url(#p2fbff9e8b6)" style="fill: none; stroke: #ffffff; stroke-width: 0.8; stroke-linecap: round"/>
     </g>
     <g id="text_14">
      <!-- 2.5 -->
      <g style="fill: #262626" transform="translate(20.467188 181.522031)scale(0.1 -0.1)">
       <use xlink:href="#ArialMT-32"/>
       <use xlink:href="#ArialMT-2e" x="55.615234"/>
       <use xlink:href="#ArialMT-35" x="83.398438"/>
      </g>
     </g>
    </g>
    <g id="ytick_5">
     <g id="line2d_14">
      <path d="M 41.367188 150.763125 
L 309.207188 150.763125 
" clip-path="url(#p2fbff9e8b6)" style="fill: none; stroke: #ffffff; stroke-width: 0.8; stroke-linecap: round"/>
     </g>
     <g id="text_15">
      <!-- 3.0 -->
      <g style="fill: #262626" transform="translate(20.467188 154.342031)scale(0.1 -0.1)">
       <use xlink:href="#ArialMT-33"/>
       <use xlink:href="#ArialMT-2e" x="55.615234"/>
       <use xlink:href="#ArialMT-30" x="83.398438"/>
      </g>
     </g>
    </g>
    <g id="ytick_6">
     <g id="line2d_15">
      <path d="M 41.367188 123.583125 
L 309.207188 123.583125 
" clip-path="url(#p2fbff9e8b6)" style="fill: none; stroke: #ffffff; stroke-width: 0.8; stroke-linecap: round"/>
     </g>
     <g id="text_16">
      <!-- 3.5 -->
      <g style="fill: #262626" transform="translate(20.467188 127.162031)scale(0.1 -0.1)">
       <use xlink:href="#ArialMT-33"/>
       <use xlink:href="#ArialMT-2e" x="55.615234"/>
       <use xlink:href="#ArialMT-35" x="83.398438"/>
      </g>
     </g>
    </g>
    <g id="ytick_7">
     <g id="line2d_16">
      <path d="M 41.367188 96.403125 
L 309.207188 96.403125 
" clip-path="url(#p2fbff9e8b6)" style="fill: none; stroke: #ffffff; stroke-width: 0.8; stroke-linecap: round"/>
     </g>
     <g id="text_17">
      <!-- 4.0 -->
      <g style="fill: #262626" transform="translate(20.467188 99.982031)scale(0.1 -0.1)">
       <use xlink:href="#ArialMT-34"/>
       <use xlink:href="#ArialMT-2e" x="55.615234"/>
       <use xlink:href="#ArialMT-30" x="83.398438"/>
      </g>
     </g>
    </g>
    <g id="ytick_8">
     <g id="line2d_17">
      <path d="M 41.367188 69.223125 
L 309.207188 69.223125 
" clip-path="url(#p2fbff9e8b6)" style="fill: none; stroke: #ffffff; stroke-width: 0.8; stroke-linecap: round"/>
     </g>
     <g id="text_18">
      <!-- 4.5 -->
      <g style="fill: #262626" transform="translate(20.467188 72.802031)scale(0.1 -0.1)">
       <use xlink:href="#ArialMT-34"/>
       <use xlink:href="#ArialMT-2e" x="55.615234"/>
       <use xlink:href="#ArialMT-35" x="83.398438"/>
      </g>
     </g>
    </g>
    <g id="ytick_9">
     <g id="line2d_18">
      <path d="M 41.367188 42.043125 
L 309.207188 42.043125 
" clip-path="url(#p2fbff9e8b6)" style="fill: none; stroke: #ffffff; stroke-width: 0.8; stroke-linecap: round"/>
     </g>
     <g id="text_19">
      <!-- 5.0 -->
      <g style="fill: #262626" transform="translate(20.467188 45.622031)scale(0.1 -0.1)">
       <use xlink:href="#ArialMT-35"/>
       <use xlink:href="#ArialMT-2e" x="55.615234"/>
       <use xlink:href="#ArialMT-30" x="83.398438"/>
      </g>
     </g>
    </g>
    <g id="text_20">
     <!-- Predictor: ffmq_nr3 -->
     <g style="fill: #262626" transform="translate(14.479688 193.189687)rotate(-90)scale(0.1 -0.1)">
      <defs>
       <path id="ArialMT-6e" d="M 422 0 
L 422 3319 
L 928 3319 
L 928 2847 
Q 1294 3394 1984 3394 
Q 2284 3394 2536 3286 
Q 2788 3178 2913 3003 
Q 3038 2828 3088 2588 
Q 3119 2431 3119 2041 
L 3119 0 
L 2556 0 
L 2556 2019 
Q 2556 2363 2490 2533 
Q 2425 2703 2258 2804 
Q 2091 2906 1866 2906 
Q 1506 2906 1245 2678 
Q 984 2450 984 1813 
L 984 0 
L 422 0 
z
" transform="scale(0.015625)"/>
      </defs>
      <use xlink:href="#ArialMT-50"/>
      <use xlink:href="#ArialMT-72" x="66.699219"/>
      <use xlink:href="#ArialMT-65" x="100"/>
      <use xlink:href="#ArialMT-64" x="155.615234"/>
      <use xlink:href="#ArialMT-69" x="211.230469"/>
      <use xlink:href="#ArialMT-63" x="233.447266"/>
      <use xlink:href="#ArialMT-74" x="283.447266"/>
      <use xlink:href="#ArialMT-6f" x="311.230469"/>
      <use xlink:href="#ArialMT-72" x="366.845703"/>
      <use xlink:href="#ArialMT-3a" x="400.146484"/>
      <use xlink:href="#ArialMT-20" x="427.929688"/>
      <use xlink:href="#ArialMT-66" x="455.712891"/>
      <use xlink:href="#ArialMT-66" x="481.746094"/>
      <use xlink:href="#ArialMT-6d" x="509.529297"/>
      <use xlink:href="#ArialMT-71" x="592.830078"/>
      <use xlink:href="#ArialMT-5f" x="648.445312"/>
      <use xlink:href="#ArialMT-6e" x="704.060547"/>
      <use xlink:href="#ArialMT-72" x="759.675781"/>
      <use xlink:href="#ArialMT-33" x="792.976562"/>
     </g>
    </g>
   </g>
   <g id="PathCollection_1">
    <path d="M 168.238766 101.378043 
L 182.335609 100.378891 
L 183.636805 99.264178 
L 186.847083 87.819967 
L 186.649085 76.375757 
L 186.452851 64.931546 
L 186.258359 53.487336 
L 186.065584 42.043125 
L 182.335609 42.043125 
L 168.238766 42.043125 
L 162.025381 42.043125 
L 161.923535 53.487336 
L 161.82283 64.931546 
L 161.723248 76.375757 
L 161.62477 87.819967 
L 165.375929 99.264178 
z
" clip-path="url(#p2fbff9e8b6)" style="fill: #4961d2"/>
   </g>
   <g id="PathCollection_2">
    <path d="M 168.238766 116.304002 
L 182.335609 114.967685 
L 187.222489 110.708388 
L 196.432451 102.825815 
L 200.666204 99.264178 
L 203.89316 87.819967 
L 203.618877 76.375757 
L 203.347038 64.931546 
L 203.077611 53.487336 
L 202.810563 42.043125 
L 196.432451 42.043125 
L 186.065584 42.043125 
L 186.258359 53.487336 
L 186.452851 64.931546 
L 186.649085 76.375757 
L 186.847083 87.819967 
L 183.636805 99.264178 
L 182.335609 100.378891 
L 168.238766 101.378043 
L 165.375929 99.264178 
L 161.62477 87.819967 
L 161.723248 76.375757 
L 161.82283 64.931546 
L 161.923535 53.487336 
L 162.025381 42.043125 
L 154.141924 42.043125 
L 141.422253 42.043125 
L 141.436512 53.487336 
L 141.45061 64.931546 
L 141.464552 76.375757 
L 141.478338 87.819967 
L 145.1615 99.264178 
L 154.141924 106.082322 
L 160.424709 110.708388 
z
" clip-path="url(#p2fbff9e8b6)" style="fill: #6a8bef"/>
    <path d="M 47.527626 99.264178 
L 53.236801 87.819967 
L 53.950604 76.375757 
L 54.654423 64.931546 
L 55.348464 53.487336 
L 55.46403 51.56618 
L 56.03293 42.043125 
L 55.46403 42.043125 
L 41.367188 42.043125 
L 41.367188 53.487336 
L 41.367188 64.931546 
L 41.367188 76.375757 
L 41.367188 87.819967 
L 41.367188 99.264178 
L 41.367188 102.741326 
z
" clip-path="url(#p2fbff9e8b6)" style="fill: #6a8bef"/>
    <path d="M 309.207188 106.608652 
L 309.207188 99.264178 
L 309.207188 87.819967 
L 309.207188 76.375757 
L 309.207188 64.931546 
L 309.207188 53.487336 
L 309.207188 42.043125 
L 298.816571 42.043125 
L 297.716191 53.487336 
L 296.634116 64.931546 
L 295.569895 76.375757 
L 295.110345 81.376641 
L 294.523089 87.819967 
L 295.110345 89.63933 
L 298.173046 99.264178 
z
" clip-path="url(#p2fbff9e8b6)" style="fill: #6a8bef"/>
   </g>
   <g id="PathCollection_3">
    <path d="M 168.238766 259.483125 
L 182.335609 259.483125 
L 185.717329 259.483125 
L 182.335609 256.279148 
L 168.238766 254.585059 
L 161.427801 259.483125 
z
" clip-path="url(#p2fbff9e8b6)" style="fill: #8caffe"/>
    <path d="M 168.238766 131.229961 
L 182.335609 129.556478 
L 190.687677 122.152599 
L 196.432451 117.151766 
L 203.960864 110.708388 
L 210.529293 105.186129 
L 217.695603 99.264178 
L 220.939237 87.819967 
L 220.588669 76.375757 
L 220.241225 64.931546 
L 219.896863 53.487336 
L 219.555542 42.043125 
L 210.529293 42.043125 
L 202.810563 42.043125 
L 203.077611 53.487336 
L 203.347038 64.931546 
L 203.618877 76.375757 
L 203.89316 87.819967 
L 200.666204 99.264178 
L 196.432451 102.825815 
L 187.222489 110.708388 
L 182.335609 114.967685 
L 168.238766 116.304002 
L 160.424709 110.708388 
L 154.141924 106.082322 
L 145.1615 99.264178 
L 141.478338 87.819967 
L 141.464552 76.375757 
L 141.45061 64.931546 
L 141.436512 53.487336 
L 141.422253 42.043125 
L 140.045082 42.043125 
L 125.94824 42.043125 
L 120.819126 42.043125 
L 120.949488 53.487336 
L 121.07839 64.931546 
L 121.205855 76.375757 
L 121.331907 87.819967 
L 124.947071 99.264178 
L 125.94824 100.069765 
L 139.581187 110.708388 
L 140.045082 111.059879 
L 154.141924 121.42958 
L 155.155417 122.152599 
z
" clip-path="url(#p2fbff9e8b6)" style="fill: #8caffe"/>
    <path d="M 55.46403 113.279661 
L 59.972992 110.708388 
L 69.560872 105.366619 
L 80.894027 99.264178 
L 83.657714 93.822004 
L 86.716021 87.819967 
L 87.194006 76.375757 
L 87.665304 64.931546 
L 88.130055 53.487336 
L 88.588395 42.043125 
L 83.657714 42.043125 
L 69.560872 42.043125 
L 56.03293 42.043125 
L 55.46403 51.56618 
L 55.348464 53.487336 
L 54.654423 64.931546 
L 53.950604 76.375757 
L 53.236801 87.819967 
L 47.527626 99.264178 
L 41.367188 102.741326 
L 41.367188 110.708388 
L 41.367188 121.57439 
z
" clip-path="url(#p2fbff9e8b6)" style="fill: #8caffe"/>
    <path d="M 295.110345 112.128441 
L 309.207188 121.854071 
L 309.207188 110.708388 
L 309.207188 106.608652 
L 298.173046 99.264178 
L 295.110345 89.63933 
L 294.523089 87.819967 
L 295.110345 81.376641 
L 295.569895 76.375757 
L 296.634116 64.931546 
L 297.716191 53.487336 
L 298.816571 42.043125 
L 295.110345 42.043125 
L 281.013503 42.043125 
L 274.796941 42.043125 
L 273.898034 53.487336 
L 273.014081 64.931546 
L 272.144712 76.375757 
L 271.289569 87.819967 
L 275.268736 99.264178 
L 281.013503 102.894613 
L 292.988984 110.708388 
z
" clip-path="url(#p2fbff9e8b6)" style="fill: #8caffe"/>
   </g>
   <g id="PathCollection_4">
    <path d="M 55.46403 259.483125 
L 64.777148 259.483125 
L 55.46403 254.255446 
L 44.389271 248.038914 
L 41.367188 246.342546 
L 41.367188 248.038914 
L 41.367188 259.483125 
z
" clip-path="url(#p2fbff9e8b6)" style="fill: #afcafc"/>
    <path d="M 154.141924 259.483125 
L 161.427801 259.483125 
L 168.238766 254.585059 
L 182.335609 256.279148 
L 185.717329 259.483125 
L 196.432451 259.483125 
L 201.485103 259.483125 
L 196.432451 254.716981 
L 189.379497 248.038914 
L 182.335609 241.340129 
L 168.238766 239.517594 
L 156.216274 248.038914 
L 154.141924 249.528185 
L 140.475861 259.483125 
z
" clip-path="url(#p2fbff9e8b6)" style="fill: #afcafc"/>
    <path d="M 295.110345 259.483125 
L 309.207188 259.483125 
L 309.207188 248.038914 
L 309.207188 246.460662 
L 307.132356 248.038914 
L 295.110345 257.183645 
L 292.087362 259.483125 
z
" clip-path="url(#p2fbff9e8b6)" style="fill: #afcafc"/>
    <path d="M 168.238766 146.487044 
L 175.975774 145.04102 
L 182.335609 144.145272 
L 194.038342 133.596809 
L 196.432451 131.477718 
L 207.144807 122.152599 
L 210.529293 119.258541 
L 220.699238 110.708388 
L 224.626135 107.46435 
L 234.725001 99.264178 
L 237.985314 87.819967 
L 237.558461 76.375757 
L 237.135411 64.931546 
L 236.716114 53.487336 
L 236.300521 42.043125 
L 224.626135 42.043125 
L 219.555542 42.043125 
L 219.896863 53.487336 
L 220.241225 64.931546 
L 220.588669 76.375757 
L 220.939237 87.819967 
L 217.695603 99.264178 
L 210.529293 105.186129 
L 203.960864 110.708388 
L 196.432451 117.151766 
L 190.687677 122.152599 
L 182.335609 129.556478 
L 168.238766 131.229961 
L 155.155417 122.152599 
L 154.141924 121.42958 
L 140.045082 111.059879 
L 139.581187 110.708388 
L 125.94824 100.069765 
L 124.947071 99.264178 
L 121.331907 87.819967 
L 121.205855 76.375757 
L 121.07839 64.931546 
L 120.949488 53.487336 
L 120.819126 42.043125 
L 111.851398 42.043125 
L 97.754556 42.043125 
L 88.588395 42.043125 
L 88.130055 53.487336 
L 87.665304 64.931546 
L 87.194006 76.375757 
L 86.716021 87.819967 
L 83.657714 93.822004 
L 80.894027 99.264178 
L 69.560872 105.366619 
L 59.972992 110.708388 
L 55.46403 113.279661 
L 41.367188 121.57439 
L 41.367188 122.152599 
L 41.367188 133.596809 
L 41.367188 140.407454 
L 52.296216 133.596809 
L 55.46403 131.669211 
L 69.560872 123.333065 
L 71.610947 122.152599 
L 83.657714 115.371886 
L 92.22076 110.708388 
L 97.754556 107.760932 
L 111.851398 105.1689 
L 118.737665 110.708388 
L 125.94824 116.335241 
L 133.642389 122.152599 
L 140.045082 126.852911 
L 149.536385 133.596809 
L 154.141924 136.776838 
L 166.521526 145.04102 
z
" clip-path="url(#p2fbff9e8b6)" style="fill: #afcafc"/>
    <path d="M 309.207188 137.099491 
L 309.207188 133.596809 
L 309.207188 122.152599 
L 309.207188 121.854071 
L 295.110345 112.128441 
L 292.988984 110.708388 
L 281.013503 102.894613 
L 275.268736 99.264178 
L 271.289569 87.819967 
L 272.144712 76.375757 
L 273.014081 64.931546 
L 273.898034 53.487336 
L 274.796941 42.043125 
L 266.916661 42.043125 
L 252.819819 42.043125 
L 247.601225 42.043125 
L 245.900227 53.487336 
L 244.265455 64.931546 
L 242.693114 76.375757 
L 241.179695 87.819967 
L 251.719181 99.264178 
L 252.819819 99.538113 
L 266.916661 108.233752 
L 270.805209 110.708388 
L 281.013503 117.369108 
L 288.121139 122.152599 
L 295.110345 126.9784 
L 304.412091 133.596809 
z
" clip-path="url(#p2fbff9e8b6)" style="fill: #afcafc"/>
   </g>
   <g id="PathCollection_5">
    <path d="M 55.46403 254.255446 
L 64.777148 259.483125 
L 69.560872 259.483125 
L 83.657714 259.483125 
L 93.159587 259.483125 
L 83.657714 254.149493 
L 72.77171 248.038914 
L 69.560872 246.236593 
L 55.46403 238.323693 
L 52.383833 236.594704 
L 41.367188 230.410793 
L 41.367188 236.594704 
L 41.367188 246.342546 
L 44.389271 248.038914 
z
" clip-path="url(#p2fbff9e8b6)" style="fill: #cfdaea"/>
    <path d="M 125.94824 259.483125 
L 140.045082 259.483125 
L 140.475861 259.483125 
L 154.141924 249.528185 
L 156.216274 248.038914 
L 168.238766 239.517594 
L 182.335609 241.340129 
L 189.379497 248.038914 
L 196.432451 254.716981 
L 201.485103 259.483125 
L 210.529293 259.483125 
L 217.252877 259.483125 
L 210.529293 253.168421 
L 205.088132 248.038914 
L 196.432451 239.843311 
L 193.014297 236.594704 
L 182.335609 226.401109 
L 173.271524 225.150493 
L 168.238766 224.450129 
L 167.220878 225.150493 
L 154.141924 234.265904 
L 150.850098 236.594704 
L 140.045082 244.338832 
L 134.95801 248.038914 
L 125.94824 254.679152 
L 119.523922 259.483125 
z
" clip-path="url(#p2fbff9e8b6)" style="fill: #cfdaea"/>
    <path d="M 281.013503 259.483125 
L 292.087362 259.483125 
L 295.110345 257.183645 
L 307.132356 248.038914 
L 309.207188 246.460662 
L 309.207188 236.594704 
L 309.207188 231.795483 
L 302.897949 236.594704 
L 295.110345 242.518466 
L 287.852954 248.038914 
L 281.013503 253.24145 
L 272.80796 259.483125 
z
" clip-path="url(#p2fbff9e8b6)" style="fill: #cfdaea"/>
    <path d="M 168.238766 169.800686 
L 174.895406 167.929441 
L 182.335609 165.834394 
L 187.677609 156.48523 
L 196.432451 146.041902 
L 197.28007 145.04102 
L 210.223523 133.596809 
L 210.529293 133.330953 
L 223.601936 122.152599 
L 224.626135 121.292042 
L 237.437612 110.708388 
L 238.722977 109.664689 
L 242.791886 110.708388 
L 252.819819 113.315899 
L 266.613949 122.152599 
L 266.916661 122.351302 
L 281.013503 131.843603 
L 283.541436 133.596809 
L 295.110345 141.828359 
L 299.49574 145.04102 
L 309.207188 154.531687 
L 309.207188 145.04102 
L 309.207188 137.099491 
L 304.412091 133.596809 
L 295.110345 126.9784 
L 288.121139 122.152599 
L 281.013503 117.369108 
L 270.805209 110.708388 
L 266.916661 108.233752 
L 252.819819 99.538113 
L 251.719181 99.264178 
L 241.179695 87.819967 
L 242.693114 76.375757 
L 244.265455 64.931546 
L 245.900227 53.487336 
L 247.601225 42.043125 
L 238.722977 42.043125 
L 236.300521 42.043125 
L 236.716114 53.487336 
L 237.135411 64.931546 
L 237.558461 76.375757 
L 237.985314 87.819967 
L 234.725001 99.264178 
L 224.626135 107.46435 
L 220.699238 110.708388 
L 210.529293 119.258541 
L 207.144807 122.152599 
L 196.432451 131.477718 
L 194.038342 133.596809 
L 182.335609 144.145272 
L 175.975774 145.04102 
L 168.238766 146.487044 
L 166.521526 145.04102 
L 154.141924 136.776838 
L 149.536385 133.596809 
L 140.045082 126.852911 
L 133.642389 122.152599 
L 125.94824 116.335241 
L 118.737665 110.708388 
L 111.851398 105.1689 
L 97.754556 107.760932 
L 92.22076 110.708388 
L 83.657714 115.371886 
L 71.610947 122.152599 
L 69.560872 123.333065 
L 55.46403 131.669211 
L 52.296216 133.596809 
L 41.367188 140.407454 
L 41.367188 145.04102 
L 41.367188 156.48523 
L 41.367188 162.773266 
L 48.156911 156.48523 
L 55.46403 150.972096 
L 63.458991 145.04102 
L 69.560872 141.299511 
L 82.517595 133.596809 
L 83.657714 132.934259 
L 97.754556 124.937007 
L 110.810775 122.152599 
L 111.851398 121.935957 
L 112.129361 122.152599 
L 125.94824 132.600716 
L 127.309414 133.596809 
L 140.045082 142.645942 
L 143.531598 145.04102 
L 154.141924 154.09792 
L 156.975606 156.48523 
L 166.669102 167.929441 
z
" clip-path="url(#p2fbff9e8b6)" style="fill: #cfdaea"/>
   </g>
   <g id="PathCollection_6">
    <path d="M 83.657714 254.149493 
L 93.159587 259.483125 
L 97.754556 259.483125 
L 111.851398 259.483125 
L 119.523922 259.483125 
L 125.94824 254.679152 
L 134.95801 248.038914 
L 140.045082 244.338832 
L 150.850098 236.594704 
L 154.141924 234.265904 
L 167.220878 225.150493 
L 168.238766 224.450129 
L 173.271524 225.150493 
L 182.335609 226.401109 
L 193.014297 236.594704 
L 196.432451 239.843311 
L 205.088132 248.038914 
L 210.529293 253.168421 
L 217.252877 259.483125 
L 224.626135 259.483125 
L 233.020651 259.483125 
L 224.626135 251.633292 
L 220.796767 248.038914 
L 210.529293 238.359531 
L 208.664235 236.594704 
L 196.622034 225.150493 
L 196.432451 224.96964 
L 184.669159 213.706283 
L 182.335609 210.054843 
L 168.238766 206.655489 
L 161.858865 213.706283 
L 154.141924 219.003623 
L 145.322285 225.150493 
L 140.045082 228.876631 
L 129.27642 236.594704 
L 125.94824 239.011724 
L 113.699747 248.038914 
L 111.851398 249.419479 
L 105.922361 248.038914 
L 97.754556 246.13064 
L 83.657714 238.21774 
L 80.766272 236.594704 
L 69.560872 230.30484 
L 60.378395 225.150493 
L 55.46403 222.391941 
L 41.367188 214.479041 
L 41.367188 225.150493 
L 41.367188 230.410793 
L 52.383833 236.594704 
L 55.46403 238.323693 
L 69.560872 246.236593 
L 72.77171 248.038914 
z
" clip-path="url(#p2fbff9e8b6)" style="fill: #e9d5cb"/>
    <path d="M 266.916661 259.483125 
L 272.80796 259.483125 
L 281.013503 253.24145 
L 287.852954 248.038914 
L 295.110345 242.518466 
L 302.897949 236.594704 
L 309.207188 231.795483 
L 309.207188 225.150493 
L 309.207188 217.130304 
L 298.663541 225.150493 
L 295.110345 227.853288 
L 283.618547 236.594704 
L 281.013503 238.576271 
L 268.573553 248.038914 
L 266.916661 249.299255 
L 253.528558 259.483125 
z
" clip-path="url(#p2fbff9e8b6)" style="fill: #e9d5cb"/>
    <path d="M 168.238766 197.338302 
L 182.335609 193.418544 
L 183.803514 190.817862 
L 190.295287 179.373651 
L 196.432451 168.639668 
L 196.840185 167.929441 
L 203.438864 156.48523 
L 210.529293 148.151006 
L 213.202142 145.04102 
L 224.626135 135.119733 
L 226.408703 133.596809 
L 238.722977 123.256025 
L 252.819819 127.093685 
L 262.670782 133.596809 
L 266.916661 136.468852 
L 279.225026 145.04102 
L 281.013503 146.715188 
L 291.263337 156.48523 
L 295.110345 161.877206 
L 299.395606 167.929441 
L 307.405184 179.373651 
L 309.207188 181.972397 
L 309.207188 179.373651 
L 309.207188 167.929441 
L 309.207188 156.48523 
L 309.207188 154.531687 
L 299.49574 145.04102 
L 295.110345 141.828359 
L 283.541436 133.596809 
L 281.013503 131.843603 
L 266.916661 122.351302 
L 266.613949 122.152599 
L 252.819819 113.315899 
L 242.791886 110.708388 
L 238.722977 109.664689 
L 237.437612 110.708388 
L 224.626135 121.292042 
L 223.601936 122.152599 
L 210.529293 133.330953 
L 210.223523 133.596809 
L 197.28007 145.04102 
L 196.432451 146.041902 
L 187.677609 156.48523 
L 182.335609 165.834394 
L 174.895406 167.929441 
L 168.238766 169.800686 
L 166.669102 167.929441 
L 156.975606 156.48523 
L 154.141924 154.09792 
L 143.531598 145.04102 
L 140.045082 142.645942 
L 127.309414 133.596809 
L 125.94824 132.600716 
L 112.129361 122.152599 
L 111.851398 121.935957 
L 110.810775 122.152599 
L 97.754556 124.937007 
L 83.657714 132.934259 
L 82.517595 133.596809 
L 69.560872 141.299511 
L 63.458991 145.04102 
L 55.46403 150.972096 
L 48.156911 156.48523 
L 41.367188 162.773266 
L 41.367188 167.929441 
L 41.367188 179.373651 
L 41.367188 189.45455 
L 52.175757 179.373651 
L 55.46403 176.319109 
L 64.527568 167.929441 
L 69.560872 163.28905 
L 76.966949 156.48523 
L 83.657714 151.589534 
L 92.759768 145.04102 
L 97.754556 142.113082 
L 111.851398 138.703014 
L 120.541671 145.04102 
L 125.94824 149.785974 
L 133.682331 156.48523 
L 140.045082 163.827955 
L 143.569609 167.929441 
L 153.293735 179.373651 
L 154.141924 180.380911 
L 162.858714 190.817862 
z
" clip-path="url(#p2fbff9e8b6)" style="fill: #e9d5cb"/>
   </g>
   <g id="PathCollection_7">
    <path d="M 111.851398 249.419479 
L 113.699747 248.038914 
L 125.94824 239.011724 
L 129.27642 236.594704 
L 140.045082 228.876631 
L 145.322285 225.150493 
L 154.141924 219.003623 
L 161.858865 213.706283 
L 168.238766 206.655489 
L 182.335609 210.054843 
L 184.669159 213.706283 
L 196.432451 224.96964 
L 196.622034 225.150493 
L 208.664235 236.594704 
L 210.529293 238.359531 
L 220.796767 248.038914 
L 224.626135 251.633292 
L 233.020651 259.483125 
L 238.722977 259.483125 
L 252.819819 259.483125 
L 253.528558 259.483125 
L 266.916661 249.299255 
L 268.573553 248.038914 
L 281.013503 238.576271 
L 283.618547 236.594704 
L 295.110345 227.853288 
L 298.663541 225.150493 
L 309.207188 217.130304 
L 309.207188 213.706283 
L 309.207188 202.262072 
L 309.207188 190.817862 
L 309.207188 181.972397 
L 307.405184 179.373651 
L 299.395606 167.929441 
L 295.110345 161.877206 
L 291.263337 156.48523 
L 281.013503 146.715188 
L 279.225026 145.04102 
L 266.916661 136.468852 
L 262.670782 133.596809 
L 252.819819 127.093685 
L 238.722977 123.256025 
L 226.408703 133.596809 
L 224.626135 135.119733 
L 213.202142 145.04102 
L 210.529293 148.151006 
L 203.438864 156.48523 
L 196.840185 167.929441 
L 196.432451 168.639668 
L 190.295287 179.373651 
L 183.803514 190.817862 
L 182.335609 193.418544 
L 168.238766 197.338302 
L 162.858714 190.817862 
L 154.141924 180.380911 
L 153.293735 179.373651 
L 143.569609 167.929441 
L 140.045082 163.827955 
L 133.682331 156.48523 
L 125.94824 149.785974 
L 120.541671 145.04102 
L 111.851398 138.703014 
L 97.754556 142.113082 
L 92.759768 145.04102 
L 83.657714 151.589534 
L 76.966949 156.48523 
L 69.560872 163.28905 
L 64.527568 167.929441 
L 55.46403 176.319109 
L 52.175757 179.373651 
L 41.367188 189.45455 
L 41.367188 190.817862 
L 41.367188 202.262072 
L 41.367188 213.706283 
L 41.367188 214.479041 
L 55.46403 222.391941 
L 60.378395 225.150493 
L 69.560872 230.30484 
L 80.766272 236.594704 
L 83.657714 238.21774 
L 97.754556 246.13064 
L 105.922361 248.038914 
z
M 236.505403 248.038914 
L 224.626135 236.88862 
L 224.314174 236.594704 
L 212.213713 225.150493 
L 210.529293 223.55064 
L 200.20301 213.706283 
L 196.432451 207.826326 
L 192.870639 202.262072 
L 196.432451 195.981642 
L 199.372864 190.817862 
L 205.928083 179.373651 
L 210.529293 171.396112 
L 212.536948 167.929441 
L 219.200119 156.48523 
L 224.626135 150.199313 
L 229.124215 145.04102 
L 238.722977 136.847362 
L 252.819819 140.871471 
L 258.954312 145.04102 
L 266.916661 152.340666 
L 271.356369 156.48523 
L 279.639949 167.929441 
L 281.013503 169.844046 
L 287.798554 179.373651 
L 295.110345 189.77886 
L 295.834991 190.817862 
L 303.751983 202.262072 
L 295.110345 212.868626 
L 294.429134 213.706283 
L 281.013503 223.911092 
L 279.38414 225.150493 
L 266.916661 234.634076 
L 264.339145 236.594704 
L 252.819819 245.35706 
L 244.864287 248.038914 
L 238.722977 250.11142 
z
M 88.760835 225.150493 
L 83.657714 222.285988 
L 69.560872 214.373088 
L 68.372958 213.706283 
L 56.138415 202.262072 
L 68.417476 190.817862 
L 69.560872 189.756275 
L 80.782979 179.373651 
L 83.657714 176.724591 
L 93.23584 167.929441 
L 97.754556 163.796625 
L 111.851398 158.133488 
L 120.470116 167.929441 
L 125.94824 174.2292 
L 130.384826 179.373651 
L 140.045082 190.708797 
L 140.137271 190.817862 
L 149.731402 202.262072 
L 140.045082 213.224833 
L 139.62542 213.706283 
L 125.94824 223.344296 
L 123.423691 225.150493 
L 111.851398 233.541302 
L 97.754556 230.198888 
z
" clip-path="url(#p2fbff9e8b6)" style="fill: #f6bda2"/>
   </g>
   <g id="PathCollection_8">
    <path d="M 238.722977 250.11142 
L 244.864287 248.038914 
L 252.819819 245.35706 
L 264.339145 236.594704 
L 266.916661 234.634076 
L 279.38414 225.150493 
L 281.013503 223.911092 
L 294.429134 213.706283 
L 295.110345 212.868626 
L 303.751983 202.262072 
L 295.834991 190.817862 
L 295.110345 189.77886 
L 287.798554 179.373651 
L 281.013503 169.844046 
L 279.639949 167.929441 
L 271.356369 156.48523 
L 266.916661 152.340666 
L 258.954312 145.04102 
L 252.819819 140.871471 
L 238.722977 136.847362 
L 229.124215 145.04102 
L 224.626135 150.199313 
L 219.200119 156.48523 
L 212.536948 167.929441 
L 210.529293 171.396112 
L 205.928083 179.373651 
L 199.372864 190.817862 
L 196.432451 195.981642 
L 192.870639 202.262072 
L 196.432451 207.826326 
L 200.20301 213.706283 
L 210.529293 223.55064 
L 212.213713 225.150493 
L 224.314174 236.594704 
L 224.626135 236.88862 
L 236.505403 248.038914 
z
M 227.805392 225.150493 
L 224.626135 222.143947 
L 215.736861 213.706283 
L 210.529293 205.612906 
L 208.377054 202.262072 
L 210.529293 198.500126 
L 214.942213 190.817862 
L 221.56088 179.373651 
L 224.626135 174.104991 
L 228.233711 167.929441 
L 234.961374 156.48523 
L 238.722977 152.189414 
L 249.663935 156.48523 
L 252.819819 158.332721 
L 259.884292 167.929441 
L 266.916661 177.605619 
L 268.191924 179.373651 
L 276.375156 190.817862 
L 281.013503 197.381565 
L 284.436763 202.262072 
L 281.013503 206.47554 
L 275.149732 213.706283 
L 266.916661 219.968897 
L 260.104738 225.150493 
L 252.819819 230.691881 
L 238.722977 235.430411 
z
" clip-path="url(#p2fbff9e8b6)" style="fill: #f4987a"/>
    <path d="M 97.754556 230.198888 
L 111.851398 233.541302 
L 123.423691 225.150493 
L 125.94824 223.344296 
L 139.62542 213.706283 
L 140.045082 213.224833 
L 149.731402 202.262072 
L 140.137271 190.817862 
L 140.045082 190.708797 
L 130.384826 179.373651 
L 125.94824 174.2292 
L 120.470116 167.929441 
L 111.851398 158.133488 
L 97.754556 163.796625 
L 93.23584 167.929441 
L 83.657714 176.724591 
L 80.782979 179.373651 
L 69.560872 189.756275 
L 68.417476 190.817862 
L 56.138415 202.262072 
L 68.372958 213.706283 
L 69.560872 214.373088 
L 83.657714 222.285988 
L 88.760835 225.150493 
z
M 96.755397 213.706283 
L 84.545655 202.262072 
L 96.924356 190.817862 
L 97.754556 190.053197 
L 111.851398 184.388154 
L 117.415828 190.817862 
L 125.94824 200.793264 
L 127.194381 202.262072 
L 125.94824 203.699794 
L 117.391975 213.706283 
L 111.851398 217.663126 
L 97.754556 214.267135 
z
" clip-path="url(#p2fbff9e8b6)" style="fill: #f4987a"/>
   </g>
   <g id="PathCollection_9">
    <path d="M 238.722977 235.430411 
L 252.819819 230.691881 
L 260.104738 225.150493 
L 266.916661 219.968897 
L 275.149732 213.706283 
L 281.013503 206.47554 
L 284.436763 202.262072 
L 281.013503 197.381565 
L 276.375156 190.817862 
L 268.191924 179.373651 
L 266.916661 177.605619 
L 259.884292 167.929441 
L 252.819819 158.332721 
L 249.663935 156.48523 
L 238.722977 152.189414 
L 234.961374 156.48523 
L 228.233711 167.929441 
L 224.626135 174.104991 
L 221.56088 179.373651 
L 214.942213 190.817862 
L 210.529293 198.500126 
L 208.377054 202.262072 
L 210.529293 205.612906 
L 215.736861 213.706283 
L 224.626135 222.143947 
L 227.805392 225.150493 
z
M 231.270712 213.706283 
L 224.626135 203.414429 
L 223.88347 202.262072 
L 224.626135 200.975151 
L 230.511563 190.817862 
L 237.193676 179.373651 
L 238.722977 176.767525 
L 243.117627 179.373651 
L 252.819819 185.169758 
L 256.915322 190.817862 
L 265.121543 202.262072 
L 255.87033 213.706283 
L 252.819819 216.026702 
L 238.722977 220.749402 
z
" clip-path="url(#p2fbff9e8b6)" style="fill: #e36c55"/>
    <path d="M 97.754556 214.267135 
L 111.851398 217.663126 
L 117.391975 213.706283 
L 125.94824 203.699794 
L 127.194381 202.262072 
L 125.94824 200.793264 
L 117.415828 190.817862 
L 111.851398 184.388154 
L 97.754556 190.053197 
L 96.924356 190.817862 
L 84.545655 202.262072 
L 96.755397 213.706283 
z
" clip-path="url(#p2fbff9e8b6)" style="fill: #e36c55"/>
   </g>
   <g id="PathCollection_10">
    <path d="M 238.722977 220.749402 
L 252.819819 216.026702 
L 255.87033 213.706283 
L 265.121543 202.262072 
L 256.915322 190.817862 
L 252.819819 185.169758 
L 243.117627 179.373651 
L 238.722977 176.767525 
L 237.193676 179.373651 
L 230.511563 190.817862 
L 224.626135 200.975151 
L 223.88347 202.262072 
L 224.626135 203.414429 
L 231.270712 213.706283 
z
" clip-path="url(#p2fbff9e8b6)" style="fill: #c53334"/>
   </g>
   <g id="PathCollection_11"/>
   <g id="PathCollection_12">
    <path d="M 186.065584 42.043125 
L 186.258359 53.487336 
L 186.452851 64.931546 
L 186.649085 76.375757 
L 186.847083 87.819967 
L 183.636805 99.264178 
L 182.994636 99.814313 
" clip-path="url(#p2fbff9e8b6)" style="fill: none; stroke: #000000; stroke-width: 0.5"/>
    <path d="M 161.812274 88.392013 
L 161.62477 87.819967 
L 161.723248 76.375757 
L 161.82283 64.931546 
L 161.923535 53.487336 
L 162.025381 42.043125 
" clip-path="url(#p2fbff9e8b6)" style="fill: none; stroke: #000000; stroke-width: 0.5"/>
   </g>
   <g id="PathCollection_13">
    <path d="M 309.207188 106.608652 
L 298.173046 99.264178 
L 297.1361 96.005469 
" clip-path="url(#p2fbff9e8b6)" style="fill: none; stroke: #000000; stroke-width: 0.5"/>
    <path d="M 296.499576 66.378345 
L 296.634116 64.931546 
L 297.716191 53.487336 
L 298.816571 42.043125 
" clip-path="url(#p2fbff9e8b6)" style="fill: none; stroke: #000000; stroke-width: 0.5"/>
    <path d="M 56.03293 42.043125 
L 55.46403 51.56618 
L 55.348464 53.487336 
L 54.872145 61.341474 
" clip-path="url(#p2fbff9e8b6)" style="fill: none; stroke: #000000; stroke-width: 0.5"/>
    <path d="M 51.631507 91.037825 
L 47.527626 99.264178 
L 41.367188 102.741326 
" clip-path="url(#p2fbff9e8b6)" style="fill: none; stroke: #000000; stroke-width: 0.5"/>
    <path d="M 202.810563 42.043125 
L 203.077611 53.487336 
L 203.347038 64.931546 
L 203.618877 76.375757 
L 203.89316 87.819967 
L 200.666204 99.264178 
L 196.432451 102.825815 
L 187.222489 110.708388 
L 183.015932 114.37473 
" clip-path="url(#p2fbff9e8b6)" style="fill: none; stroke: #000000; stroke-width: 0.5"/>
    <path d="M 156.034789 107.476054 
L 154.141924 106.082322 
L 145.1615 99.264178 
L 141.478338 87.819967 
L 141.464552 76.375757 
L 141.45061 64.931546 
L 141.436512 53.487336 
L 141.422253 42.043125 
" clip-path="url(#p2fbff9e8b6)" style="fill: none; stroke: #000000; stroke-width: 0.5"/>
   </g>
   <g id="PathCollection_14">
    <path d="M 161.427801 259.483125 
L 167.53713 255.089636 
" clip-path="url(#p2fbff9e8b6)" style="fill: none; stroke: #000000; stroke-width: 0.5"/>
    <path d="M 309.207188 121.854071 
L 295.110345 112.128441 
L 292.988984 110.708388 
L 281.013503 102.894613 
L 277.759327 100.83812 
" clip-path="url(#p2fbff9e8b6)" style="fill: none; stroke: #000000; stroke-width: 0.5"/>
    <path d="M 272.416372 72.799676 
L 273.014081 64.931546 
L 273.898034 53.487336 
L 274.796941 42.043125 
" clip-path="url(#p2fbff9e8b6)" style="fill: none; stroke: #000000; stroke-width: 0.5"/>
    <path d="M 88.588395 42.043125 
L 88.130055 53.487336 
L 87.665304 64.931546 
L 87.194006 76.375757 
L 87.063475 79.501017 
" clip-path="url(#p2fbff9e8b6)" style="fill: none; stroke: #000000; stroke-width: 0.5"/>
    <path d="M 73.006059 103.511526 
L 69.560872 105.366619 
L 59.972992 110.708388 
L 55.46403 113.279661 
L 41.367188 121.57439 
" clip-path="url(#p2fbff9e8b6)" style="fill: none; stroke: #000000; stroke-width: 0.5"/>
    <path d="M 219.555542 42.043125 
L 219.896863 53.487336 
L 220.241225 64.931546 
L 220.588669 76.375757 
L 220.939237 87.819967 
L 217.695603 99.264178 
L 215.52534 101.057596 
" clip-path="url(#p2fbff9e8b6)" style="fill: none; stroke: #000000; stroke-width: 0.5"/>
    <path d="M 192.545616 120.535261 
L 190.687677 122.152599 
L 182.335609 129.556478 
L 168.238766 131.229961 
L 155.155417 122.152599 
L 154.141924 121.42958 
L 140.045082 111.059879 
L 139.581187 110.708388 
L 125.94824 100.069765 
L 124.947071 99.264178 
L 121.331907 87.819967 
L 121.205855 76.375757 
L 121.07839 64.931546 
L 120.949488 53.487336 
L 120.819126 42.043125 
" clip-path="url(#p2fbff9e8b6)" style="fill: none; stroke: #000000; stroke-width: 0.5"/>
   </g>
   <g id="PathCollection_15">
    <path d="M 140.475861 259.483125 
L 154.141924 249.528185 
L 156.216274 248.038914 
L 167.546654 240.008151 
" clip-path="url(#p2fbff9e8b6)" style="fill: none; stroke: #000000; stroke-width: 0.5"/>
    <path d="M 193.258473 251.71171 
L 196.432451 254.716981 
L 201.485103 259.483125 
" clip-path="url(#p2fbff9e8b6)" style="fill: none; stroke: #000000; stroke-width: 0.5"/>
    <path d="M 292.087362 259.483125 
L 295.110345 257.183645 
L 307.132356 248.038914 
L 309.207188 246.460662 
" clip-path="url(#p2fbff9e8b6)" style="fill: none; stroke: #000000; stroke-width: 0.5"/>
    <path d="M 41.367188 246.342546 
L 44.389271 248.038914 
L 55.46403 254.255446 
L 64.777148 259.483125 
" clip-path="url(#p2fbff9e8b6)" style="fill: none; stroke: #000000; stroke-width: 0.5"/>
    <path d="M 309.207188 137.099491 
L 304.412091 133.596809 
L 295.110345 126.9784 
L 288.121139 122.152599 
L 281.013503 117.369108 
L 270.805209 110.708388 
L 266.916661 108.233752 
L 265.63953 107.445953 
" clip-path="url(#p2fbff9e8b6)" style="fill: none; stroke: #000000; stroke-width: 0.5"/>
    <path d="M 242.283704 89.018746 
L 241.179695 87.819967 
L 242.693114 76.375757 
L 244.265455 64.931546 
L 245.900227 53.487336 
L 247.601225 42.043125 
" clip-path="url(#p2fbff9e8b6)" style="fill: none; stroke: #000000; stroke-width: 0.5"/>
    <path d="M 236.300521 42.043125 
L 236.716114 53.487336 
L 237.135411 64.931546 
L 237.558461 76.375757 
L 237.985314 87.819967 
L 234.725001 99.264178 
L 224.626135 107.46435 
L 220.699238 110.708388 
L 210.529293 119.258541 
L 207.144807 122.152599 
L 196.432451 131.477718 
L 194.038342 133.596809 
L 182.335609 144.145272 
L 175.975774 145.04102 
L 168.238766 146.487044 
L 166.521526 145.04102 
L 154.141924 136.776838 
L 149.536385 133.596809 
L 140.045082 126.852911 
L 133.642389 122.152599 
L 125.94824 116.335241 
L 118.737665 110.708388 
L 111.851398 105.1689 
L 97.754556 107.760932 
L 92.22076 110.708388 
L 83.657714 115.371886 
L 71.610947 122.152599 
L 69.560872 123.333065 
L 55.46403 131.669211 
L 54.162855 132.460969 
" clip-path="url(#p2fbff9e8b6)" style="fill: none; stroke: #000000; stroke-width: 0.5"/>
   </g>
   <g id="PathCollection_16">
    <path d="M 119.523922 259.483125 
L 125.94824 254.679152 
L 134.95801 248.038914 
L 140.045082 244.338832 
L 150.850098 236.594704 
L 154.141924 234.265904 
L 155.928466 233.020769 
" clip-path="url(#p2fbff9e8b6)" style="fill: none; stroke: #000000; stroke-width: 0.5"/>
    <path d="M 182.891709 226.931948 
L 193.014297 236.594704 
L 196.432451 239.843311 
L 205.088132 248.038914 
L 210.529293 253.168421 
L 217.252877 259.483125 
" clip-path="url(#p2fbff9e8b6)" style="fill: none; stroke: #000000; stroke-width: 0.5"/>
    <path d="M 272.80796 259.483125 
L 281.013503 253.24145 
L 283.171742 251.599752 
" clip-path="url(#p2fbff9e8b6)" style="fill: none; stroke: #000000; stroke-width: 0.5"/>
    <path d="M 307.048949 233.437181 
L 309.207188 231.795483 
" clip-path="url(#p2fbff9e8b6)" style="fill: none; stroke: #000000; stroke-width: 0.5"/>
    <path d="M 41.367188 230.410793 
L 52.383833 236.594704 
L 55.46403 238.323693 
L 56.480673 238.894359 
" clip-path="url(#p2fbff9e8b6)" style="fill: none; stroke: #000000; stroke-width: 0.5"/>
    <path d="M 82.641071 253.578826 
L 83.657714 254.149493 
L 93.159587 259.483125 
" clip-path="url(#p2fbff9e8b6)" style="fill: none; stroke: #000000; stroke-width: 0.5"/>
    <path d="M 309.207188 154.531687 
L 299.49574 145.04102 
L 295.110345 141.828359 
L 283.541436 133.596809 
L 281.013503 131.843603 
L 266.916661 122.351302 
L 266.613949 122.152599 
L 252.819819 113.315899 
L 242.791886 110.708388 
L 238.722977 109.664689 
L 237.437612 110.708388 
L 224.626135 121.292042 
L 223.601936 122.152599 
L 210.529293 133.330953 
L 210.223523 133.596809 
L 197.28007 145.04102 
L 196.432451 146.041902 
L 187.677609 156.48523 
L 182.335609 165.834394 
L 174.895406 167.929441 
L 168.238766 169.800686 
L 166.669102 167.929441 
L 156.975606 156.48523 
L 154.141924 154.09792 
L 143.531598 145.04102 
L 140.045082 142.645942 
L 127.309414 133.596809 
L 125.94824 132.600716 
L 122.965398 130.345462 
" clip-path="url(#p2fbff9e8b6)" style="fill: none; stroke: #000000; stroke-width: 0.5"/>
    <path d="M 96.319261 125.751261 
L 83.657714 132.934259 
L 82.517595 133.596809 
L 69.560872 141.299511 
L 63.458991 145.04102 
L 55.46403 150.972096 
L 48.156911 156.48523 
L 41.367188 162.773266 
" clip-path="url(#p2fbff9e8b6)" style="fill: none; stroke: #000000; stroke-width: 0.5"/>
   </g>
   <g id="PathCollection_17">
    <path d="M 253.528558 259.483125 
L 266.916661 249.299255 
L 268.573553 248.038914 
L 271.679944 245.67599 
" clip-path="url(#p2fbff9e8b6)" style="fill: none; stroke: #000000; stroke-width: 0.5"/>
    <path d="M 295.55715 227.513418 
L 298.663541 225.150493 
L 309.207188 217.130304 
" clip-path="url(#p2fbff9e8b6)" style="fill: none; stroke: #000000; stroke-width: 0.5"/>
    <path d="M 41.367188 214.479041 
L 55.46403 222.391941 
L 60.378395 225.150493 
L 69.560872 230.30484 
L 80.766272 236.594704 
L 83.657714 238.21774 
L 97.754556 246.13064 
L 105.922361 248.038914 
L 111.851398 249.419479 
L 113.699747 248.038914 
L 113.873337 247.910978 
" clip-path="url(#p2fbff9e8b6)" style="fill: none; stroke: #000000; stroke-width: 0.5"/>
    <path d="M 138.125156 230.252673 
L 140.045082 228.876631 
L 145.322285 225.150493 
L 154.141924 219.003623 
L 161.858865 213.706283 
L 168.238766 206.655489 
L 182.335609 210.054843 
L 184.669159 213.706283 
L 196.432451 224.96964 
L 196.622034 225.150493 
L 208.664235 236.594704 
L 210.529293 238.359531 
L 220.796767 248.038914 
L 224.626135 251.633292 
L 233.020651 259.483125 
" clip-path="url(#p2fbff9e8b6)" style="fill: none; stroke: #000000; stroke-width: 0.5"/>
    <path d="M 309.207188 181.972397 
L 307.405184 179.373651 
L 299.395606 167.929441 
L 295.110345 161.877206 
L 291.263337 156.48523 
L 281.013503 146.715188 
L 279.225026 145.04102 
L 266.916661 136.468852 
L 262.670782 133.596809 
L 253.145394 127.308614 
" clip-path="url(#p2fbff9e8b6)" style="fill: none; stroke: #000000; stroke-width: 0.5"/>
    <path d="M 227.235931 132.902153 
L 226.408703 133.596809 
L 224.626135 135.119733 
L 213.202142 145.04102 
L 210.529293 148.151006 
L 203.438864 156.48523 
L 196.840185 167.929441 
L 196.432451 168.639668 
L 190.295287 179.373651 
L 183.803514 190.817862 
L 182.335609 193.418544 
L 168.238766 197.338302 
L 162.858714 190.817862 
L 154.141924 180.380911 
L 153.293735 179.373651 
L 143.569609 167.929441 
L 140.045082 163.827955 
L 133.682331 156.48523 
L 125.94824 149.785974 
L 120.541671 145.04102 
L 111.851398 138.703014 
L 97.754556 142.113082 
L 92.759768 145.04102 
L 83.657714 151.589534 
L 76.966949 156.48523 
L 69.560872 163.28905 
L 64.527568 167.929441 
L 55.46403 176.319109 
L 52.175757 179.373651 
L 41.367188 189.45455 
" clip-path="url(#p2fbff9e8b6)" style="fill: none; stroke: #000000; stroke-width: 0.5"/>
   </g>
   <g id="PathCollection_18">
    <path d="M 211.060869 224.055528 
L 212.213713 225.150493 
L 224.314174 236.594704 
L 224.626135 236.88862 
L 236.505403 248.038914 
L 238.722977 250.11142 
L 244.864287 248.038914 
L 252.819819 245.35706 
L 264.339145 236.594704 
L 266.916661 234.634076 
L 279.38414 225.150493 
L 281.013503 223.911092 
L 294.429134 213.706283 
L 295.110345 212.868626 
L 303.751983 202.262072 
L 295.834991 190.817862 
L 295.110345 189.77886 
L 287.798554 179.373651 
L 281.013503 169.844046 
L 279.639949 167.929441 
L 271.356369 156.48523 
L 266.916661 152.340666 
L 258.954312 145.04102 
L 252.819819 140.871471 
L 238.722977 136.847362 
L 229.124215 145.04102 
L 224.626135 150.199313 
L 219.200119 156.48523 
L 212.536948 167.929441 
L 210.529293 171.396112 
L 205.928083 179.373651 
L 199.372864 190.817862 
L 196.432451 195.981642 
L 193.565389 201.037042 
" clip-path="url(#p2fbff9e8b6)" style="fill: none; stroke: #000000; stroke-width: 0.5"/>
    <path d="M 149.493038 201.977744 
L 140.137271 190.817862 
L 140.045082 190.708797 
L 130.384826 179.373651 
L 125.94824 174.2292 
L 120.470116 167.929441 
L 111.851398 158.133488 
L 97.754556 163.796625 
L 93.23584 167.929441 
L 83.657714 176.724591 
L 80.782979 179.373651 
L 69.560872 189.756275 
L 68.417476 190.817862 
L 56.138415 202.262072 
L 68.372958 213.706283 
L 69.560872 214.373088 
L 83.657714 222.285988 
L 88.760835 225.150493 
L 97.754556 230.198888 
L 111.851398 233.541302 
L 123.423691 225.150493 
L 125.94824 223.344296 
L 127.886027 221.97878 
" clip-path="url(#p2fbff9e8b6)" style="fill: none; stroke: #000000; stroke-width: 0.5"/>
   </g>
   <g id="PathCollection_19">
    <path d="M 258.083107 165.482625 
L 252.819819 158.332721 
L 249.663935 156.48523 
L 238.722977 152.189414 
L 234.961374 156.48523 
L 228.233711 167.929441 
L 224.626135 174.104991 
L 221.56088 179.373651 
L 214.942213 190.817862 
L 210.529293 198.500126 
L 208.377054 202.262072 
L 210.529293 205.612906 
L 215.736861 213.706283 
L 224.626135 222.143947 
L 227.805392 225.150493 
L 238.722977 235.430411 
L 252.819819 230.691881 
L 260.104738 225.150493 
L 266.916661 219.968897 
L 275.149732 213.706283 
L 281.013503 206.47554 
L 284.436763 202.262072 
L 281.013503 197.381565 
L 276.375156 190.817862 
L 275.648726 189.801953 
" clip-path="url(#p2fbff9e8b6)" style="fill: none; stroke: #000000; stroke-width: 0.5"/>
    <path d="M 105.823137 186.810708 
L 97.754556 190.053197 
L 96.924356 190.817862 
L 84.545655 202.262072 
L 96.755397 213.706283 
L 97.754556 214.267135 
L 111.851398 217.663126 
L 117.391975 213.706283 
L 125.94824 203.699794 
L 127.194381 202.262072 
L 127.160143 202.221717 
" clip-path="url(#p2fbff9e8b6)" style="fill: none; stroke: #000000; stroke-width: 0.5"/>
   </g>
   <g id="PathCollection_20">
    <path d="M 231.153892 189.717768 
L 230.511563 190.817862 
L 224.626135 200.975151 
L 223.88347 202.262072 
L 224.626135 203.414429 
L 231.270712 213.706283 
L 238.722977 220.749402 
L 252.819819 216.026702 
L 255.87033 213.706283 
L 265.121543 202.262072 
L 256.915322 190.817862 
L 252.819819 185.169758 
L 251.608559 184.446149 
" clip-path="url(#p2fbff9e8b6)" style="fill: none; stroke: #000000; stroke-width: 0.5"/>
   </g>
   <g id="PathCollection_21"/>
   <g id="patch_3">
    <path d="M 41.367188 259.483125 
L 41.367188 42.043125 
" style="fill: none; stroke: #ffffff; stroke-width: 0.8; stroke-linejoin: miter; stroke-linecap: square"/>
   </g>
   <g id="patch_4">
    <path d="M 309.207188 259.483125 
L 309.207188 42.043125 
" style="fill: none; stroke: #ffffff; stroke-width: 0.8; stroke-linejoin: miter; stroke-linecap: square"/>
   </g>
   <g id="patch_5">
    <path d="M 41.367188 259.483125 
L 309.207188 259.483125 
" style="fill: none; stroke: #ffffff; stroke-width: 0.8; stroke-linejoin: miter; stroke-linecap: square"/>
   </g>
   <g id="patch_6">
    <path d="M 41.367188 42.043125 
L 309.207188 42.043125 
" style="fill: none; stroke: #ffffff; stroke-width: 0.8; stroke-linejoin: miter; stroke-linecap: square"/>
   </g>
   <g id="text_21">
    <!-- GB | target: audit dependence on -->
    <g style="fill: #262626" transform="translate(101.718438 14.479687)scale(0.1 -0.1)">
     <defs>
      <path id="ArialMT-47" d="M 2638 1797 
L 2638 2334 
L 4578 2338 
L 4578 638 
Q 4131 281 3656 101 
Q 3181 -78 2681 -78 
Q 2006 -78 1454 211 
Q 903 500 622 1047 
Q 341 1594 341 2269 
Q 341 2938 620 3517 
Q 900 4097 1425 4378 
Q 1950 4659 2634 4659 
Q 3131 4659 3532 4498 
Q 3934 4338 4162 4050 
Q 4391 3763 4509 3300 
L 3963 3150 
Q 3859 3500 3706 3700 
Q 3553 3900 3268 4020 
Q 2984 4141 2638 4141 
Q 2222 4141 1919 4014 
Q 1616 3888 1430 3681 
Q 1244 3475 1141 3228 
Q 966 2803 966 2306 
Q 966 1694 1177 1281 
Q 1388 869 1791 669 
Q 2194 469 2647 469 
Q 3041 469 3416 620 
Q 3791 772 3984 944 
L 3984 1797 
L 2638 1797 
z
" transform="scale(0.015625)"/>
      <path id="ArialMT-42" d="M 469 0 
L 469 4581 
L 2188 4581 
Q 2713 4581 3030 4442 
Q 3347 4303 3526 4014 
Q 3706 3725 3706 3409 
Q 3706 3116 3547 2856 
Q 3388 2597 3066 2438 
Q 3481 2316 3704 2022 
Q 3928 1728 3928 1328 
Q 3928 1006 3792 729 
Q 3656 453 3456 303 
Q 3256 153 2954 76 
Q 2653 0 2216 0 
L 469 0 
z
M 1075 2656 
L 2066 2656 
Q 2469 2656 2644 2709 
Q 2875 2778 2992 2937 
Q 3109 3097 3109 3338 
Q 3109 3566 3000 3739 
Q 2891 3913 2687 3977 
Q 2484 4041 1991 4041 
L 1075 4041 
L 1075 2656 
z
M 1075 541 
L 2216 541 
Q 2509 541 2628 563 
Q 2838 600 2978 687 
Q 3119 775 3209 942 
Q 3300 1109 3300 1328 
Q 3300 1584 3169 1773 
Q 3038 1963 2805 2039 
Q 2572 2116 2134 2116 
L 1075 2116 
L 1075 541 
z
" transform="scale(0.015625)"/>
      <path id="ArialMT-7c" d="M 588 -1347 
L 588 4659 
L 1078 4659 
L 1078 -1347 
L 588 -1347 
z
" transform="scale(0.015625)"/>
      <path id="ArialMT-61" d="M 2588 409 
Q 2275 144 1986 34 
Q 1697 -75 1366 -75 
Q 819 -75 525 192 
Q 231 459 231 875 
Q 231 1119 342 1320 
Q 453 1522 633 1644 
Q 813 1766 1038 1828 
Q 1203 1872 1538 1913 
Q 2219 1994 2541 2106 
Q 2544 2222 2544 2253 
Q 2544 2597 2384 2738 
Q 2169 2928 1744 2928 
Q 1347 2928 1158 2789 
Q 969 2650 878 2297 
L 328 2372 
Q 403 2725 575 2942 
Q 747 3159 1072 3276 
Q 1397 3394 1825 3394 
Q 2250 3394 2515 3294 
Q 2781 3194 2906 3042 
Q 3031 2891 3081 2659 
Q 3109 2516 3109 2141 
L 3109 1391 
Q 3109 606 3145 398 
Q 3181 191 3288 0 
L 2700 0 
Q 2613 175 2588 409 
z
M 2541 1666 
Q 2234 1541 1622 1453 
Q 1275 1403 1131 1340 
Q 988 1278 909 1158 
Q 831 1038 831 891 
Q 831 666 1001 516 
Q 1172 366 1500 366 
Q 1825 366 2078 508 
Q 2331 650 2450 897 
Q 2541 1088 2541 1459 
L 2541 1666 
z
" transform="scale(0.015625)"/>
      <path id="ArialMT-67" d="M 319 -275 
L 866 -356 
Q 900 -609 1056 -725 
Q 1266 -881 1628 -881 
Q 2019 -881 2231 -725 
Q 2444 -569 2519 -288 
Q 2563 -116 2559 434 
Q 2191 0 1641 0 
Q 956 0 581 494 
Q 206 988 206 1678 
Q 206 2153 378 2554 
Q 550 2956 876 3175 
Q 1203 3394 1644 3394 
Q 2231 3394 2613 2919 
L 2613 3319 
L 3131 3319 
L 3131 450 
Q 3131 -325 2973 -648 
Q 2816 -972 2473 -1159 
Q 2131 -1347 1631 -1347 
Q 1038 -1347 672 -1080 
Q 306 -813 319 -275 
z
M 784 1719 
Q 784 1066 1043 766 
Q 1303 466 1694 466 
Q 2081 466 2343 764 
Q 2606 1063 2606 1700 
Q 2606 2309 2336 2618 
Q 2066 2928 1684 2928 
Q 1309 2928 1046 2623 
Q 784 2319 784 1719 
z
" transform="scale(0.015625)"/>
      <path id="ArialMT-75" d="M 2597 0 
L 2597 488 
Q 2209 -75 1544 -75 
Q 1250 -75 995 37 
Q 741 150 617 320 
Q 494 491 444 738 
Q 409 903 409 1263 
L 409 3319 
L 972 3319 
L 972 1478 
Q 972 1038 1006 884 
Q 1059 663 1231 536 
Q 1403 409 1656 409 
Q 1909 409 2131 539 
Q 2353 669 2445 892 
Q 2538 1116 2538 1541 
L 2538 3319 
L 3100 3319 
L 3100 0 
L 2597 0 
z
" transform="scale(0.015625)"/>
      <path id="ArialMT-70" d="M 422 -1272 
L 422 3319 
L 934 3319 
L 934 2888 
Q 1116 3141 1344 3267 
Q 1572 3394 1897 3394 
Q 2322 3394 2647 3175 
Q 2972 2956 3137 2557 
Q 3303 2159 3303 1684 
Q 3303 1175 3120 767 
Q 2938 359 2589 142 
Q 2241 -75 1856 -75 
Q 1575 -75 1351 44 
Q 1128 163 984 344 
L 984 -1272 
L 422 -1272 
z
M 931 1641 
Q 931 1000 1190 694 
Q 1450 388 1819 388 
Q 2194 388 2461 705 
Q 2728 1022 2728 1688 
Q 2728 2322 2467 2637 
Q 2206 2953 1844 2953 
Q 1484 2953 1207 2617 
Q 931 2281 931 1641 
z
" transform="scale(0.015625)"/>
     </defs>
     <use xlink:href="#ArialMT-47"/>
     <use xlink:href="#ArialMT-42" x="77.783203"/>
     <use xlink:href="#ArialMT-20" x="144.482422"/>
     <use xlink:href="#ArialMT-7c" x="172.265625"/>
     <use xlink:href="#ArialMT-20" x="198.242188"/>
     <use xlink:href="#ArialMT-74" x="226.025391"/>
     <use xlink:href="#ArialMT-61" x="253.808594"/>
     <use xlink:href="#ArialMT-72" x="309.423828"/>
     <use xlink:href="#ArialMT-67" x="342.724609"/>
     <use xlink:href="#ArialMT-65" x="398.339844"/>
     <use xlink:href="#ArialMT-74" x="453.955078"/>
     <use xlink:href="#ArialMT-3a" x="481.738281"/>
     <use xlink:href="#ArialMT-20" x="509.521484"/>
     <use xlink:href="#ArialMT-61" x="537.304688"/>
     <use xlink:href="#ArialMT-75" x="592.919922"/>
     <use xlink:href="#ArialMT-64" x="648.535156"/>
     <use xlink:href="#ArialMT-69" x="704.150391"/>
     <use xlink:href="#ArialMT-74" x="726.367188"/>
     <use xlink:href="#ArialMT-20" x="754.150391"/>
     <use xlink:href="#ArialMT-64" x="781.933594"/>
     <use xlink:href="#ArialMT-65" x="837.548828"/>
     <use xlink:href="#ArialMT-70" x="893.164062"/>
     <use xlink:href="#ArialMT-65" x="948.779297"/>
     <use xlink:href="#ArialMT-6e" x="1004.394531"/>
     <use xlink:href="#ArialMT-64" x="1060.009766"/>
     <use xlink:href="#ArialMT-65" x="1115.625"/>
     <use xlink:href="#ArialMT-6e" x="1171.240234"/>
     <use xlink:href="#ArialMT-63" x="1226.855469"/>
     <use xlink:href="#ArialMT-65" x="1276.855469"/>
     <use xlink:href="#ArialMT-20" x="1332.470703"/>
     <use xlink:href="#ArialMT-6f" x="1360.253906"/>
     <use xlink:href="#ArialMT-6e" x="1415.869141"/>
    </g>
    <!-- predictors: ffmq_nr3 &amp; ffmq_ds3 -->
    <g style="fill: #262626" transform="translate(104.324688 25.32)scale(0.1 -0.1)">
     <defs>
      <path id="ArialMT-26" d="M 3041 541 
Q 2763 231 2434 76 
Q 2106 -78 1725 -78 
Q 1022 -78 609 397 
Q 275 784 275 1263 
Q 275 1688 548 2030 
Q 822 2372 1366 2631 
Q 1056 2988 953 3209 
Q 850 3431 850 3638 
Q 850 4050 1173 4354 
Q 1497 4659 1988 4659 
Q 2456 4659 2754 4371 
Q 3053 4084 3053 3681 
Q 3053 3028 2188 2566 
L 3009 1519 
Q 3150 1794 3228 2156 
L 3813 2031 
Q 3663 1431 3406 1044 
Q 3722 625 4122 341 
L 3744 -106 
Q 3403 113 3041 541 
z
M 1897 2928 
Q 2263 3144 2370 3306 
Q 2478 3469 2478 3666 
Q 2478 3900 2329 4048 
Q 2181 4197 1959 4197 
Q 1731 4197 1579 4050 
Q 1428 3903 1428 3691 
Q 1428 3584 1483 3467 
Q 1538 3350 1647 3219 
L 1897 2928 
z
M 2688 984 
L 1656 2263 
Q 1200 1991 1040 1758 
Q 881 1525 881 1297 
Q 881 1019 1103 719 
Q 1325 419 1731 419 
Q 1984 419 2254 576 
Q 2525 734 2688 984 
z
" transform="scale(0.015625)"/>
     </defs>
     <use xlink:href="#ArialMT-70"/>
     <use xlink:href="#ArialMT-72" x="55.615234"/>
     <use xlink:href="#ArialMT-65" x="88.916016"/>
     <use xlink:href="#ArialMT-64" x="144.53125"/>
     <use xlink:href="#ArialMT-69" x="200.146484"/>
     <use xlink:href="#ArialMT-63" x="222.363281"/>
     <use xlink:href="#ArialMT-74" x="272.363281"/>
     <use xlink:href="#ArialMT-6f" x="300.146484"/>
     <use xlink:href="#ArialMT-72" x="355.761719"/>
     <use xlink:href="#ArialMT-73" x="389.0625"/>
     <use xlink:href="#ArialMT-3a" x="439.0625"/>
     <use xlink:href="#ArialMT-20" x="466.845703"/>
     <use xlink:href="#ArialMT-66" x="494.628906"/>
     <use xlink:href="#ArialMT-66" x="520.662109"/>
     <use xlink:href="#ArialMT-6d" x="548.445312"/>
     <use xlink:href="#ArialMT-71" x="631.746094"/>
     <use xlink:href="#ArialMT-5f" x="687.361328"/>
     <use xlink:href="#ArialMT-6e" x="742.976562"/>
     <use xlink:href="#ArialMT-72" x="798.591797"/>
     <use xlink:href="#ArialMT-33" x="831.892578"/>
     <use xlink:href="#ArialMT-20" x="887.507812"/>
     <use xlink:href="#ArialMT-26" x="915.291016"/>
     <use xlink:href="#ArialMT-20" x="981.990234"/>
     <use xlink:href="#ArialMT-66" x="1009.773438"/>
     <use xlink:href="#ArialMT-66" x="1035.806641"/>
     <use xlink:href="#ArialMT-6d" x="1063.589844"/>
     <use xlink:href="#ArialMT-71" x="1146.890625"/>
     <use xlink:href="#ArialMT-5f" x="1202.505859"/>
     <use xlink:href="#ArialMT-64" x="1258.121094"/>
     <use xlink:href="#ArialMT-73" x="1313.736328"/>
     <use xlink:href="#ArialMT-33" x="1363.736328"/>
    </g>
    <!-- Influence (% of audit range) 0.1% -->
    <g style="fill: #262626" transform="translate(101.080938 36.043125)scale(0.1 -0.1)">
     <defs>
      <path id="ArialMT-49" d="M 597 0 
L 597 4581 
L 1203 4581 
L 1203 0 
L 597 0 
z
" transform="scale(0.015625)"/>
      <path id="ArialMT-6c" d="M 409 0 
L 409 4581 
L 972 4581 
L 972 0 
L 409 0 
z
" transform="scale(0.015625)"/>
      <path id="ArialMT-28" d="M 1497 -1347 
Q 1031 -759 709 28 
Q 388 816 388 1659 
Q 388 2403 628 3084 
Q 909 3875 1497 4659 
L 1900 4659 
Q 1522 4009 1400 3731 
Q 1209 3300 1100 2831 
Q 966 2247 966 1656 
Q 966 153 1900 -1347 
L 1497 -1347 
z
" transform="scale(0.015625)"/>
      <path id="ArialMT-25" d="M 372 3481 
Q 372 3972 619 4315 
Q 866 4659 1334 4659 
Q 1766 4659 2048 4351 
Q 2331 4044 2331 3447 
Q 2331 2866 2045 2552 
Q 1759 2238 1341 2238 
Q 925 2238 648 2547 
Q 372 2856 372 3481 
z
M 1350 4272 
Q 1141 4272 1002 4090 
Q 863 3909 863 3425 
Q 863 2984 1003 2804 
Q 1144 2625 1350 2625 
Q 1563 2625 1702 2806 
Q 1841 2988 1841 3469 
Q 1841 3913 1700 4092 
Q 1559 4272 1350 4272 
z
M 1353 -169 
L 3859 4659 
L 4316 4659 
L 1819 -169 
L 1353 -169 
z
M 3334 1075 
Q 3334 1569 3581 1911 
Q 3828 2253 4300 2253 
Q 4731 2253 5014 1945 
Q 5297 1638 5297 1041 
Q 5297 459 5011 145 
Q 4725 -169 4303 -169 
Q 3888 -169 3611 142 
Q 3334 453 3334 1075 
z
M 4316 1866 
Q 4103 1866 3964 1684 
Q 3825 1503 3825 1019 
Q 3825 581 3965 400 
Q 4106 219 4313 219 
Q 4528 219 4667 400 
Q 4806 581 4806 1063 
Q 4806 1506 4665 1686 
Q 4525 1866 4316 1866 
z
" transform="scale(0.015625)"/>
      <path id="ArialMT-29" d="M 791 -1347 
L 388 -1347 
Q 1322 153 1322 1656 
Q 1322 2244 1188 2822 
Q 1081 3291 891 3722 
Q 769 4003 388 4659 
L 791 4659 
Q 1378 3875 1659 3084 
Q 1900 2403 1900 1659 
Q 1900 816 1576 28 
Q 1253 -759 791 -1347 
z
" transform="scale(0.015625)"/>
     </defs>
     <use xlink:href="#ArialMT-49"/>
     <use xlink:href="#ArialMT-6e" x="27.783203"/>
     <use xlink:href="#ArialMT-66" x="83.398438"/>
     <use xlink:href="#ArialMT-6c" x="111.181641"/>
     <use xlink:href="#ArialMT-75" x="133.398438"/>
     <use xlink:href="#ArialMT-65" x="189.013672"/>
     <use xlink:href="#ArialMT-6e" x="244.628906"/>
     <use xlink:href="#ArialMT-63" x="300.244141"/>
     <use xlink:href="#ArialMT-65" x="350.244141"/>
     <use xlink:href="#ArialMT-20" x="405.859375"/>
     <use xlink:href="#ArialMT-28" x="433.642578"/>
     <use xlink:href="#ArialMT-25" x="466.943359"/>
     <use xlink:href="#ArialMT-20" x="555.859375"/>
     <use xlink:href="#ArialMT-6f" x="583.642578"/>
     <use xlink:href="#ArialMT-66" x="639.257812"/>
     <use xlink:href="#ArialMT-20" x="667.041016"/>
     <use xlink:href="#ArialMT-61" x="694.824219"/>
     <use xlink:href="#ArialMT-75" x="750.439453"/>
     <use xlink:href="#ArialMT-64" x="806.054688"/>
     <use xlink:href="#ArialMT-69" x="861.669922"/>
     <use xlink:href="#ArialMT-74" x="883.886719"/>
     <use xlink:href="#ArialMT-20" x="911.669922"/>
     <use xlink:href="#ArialMT-72" x="939.453125"/>
     <use xlink:href="#ArialMT-61" x="972.753906"/>
     <use xlink:href="#ArialMT-6e" x="1028.369141"/>
     <use xlink:href="#ArialMT-67" x="1083.984375"/>
     <use xlink:href="#ArialMT-65" x="1139.599609"/>
     <use xlink:href="#ArialMT-29" x="1195.214844"/>
     <use xlink:href="#ArialMT-20" x="1228.515625"/>
     <use xlink:href="#ArialMT-30" x="1256.298828"/>
     <use xlink:href="#ArialMT-2e" x="1311.914062"/>
     <use xlink:href="#ArialMT-31" x="1339.697266"/>
     <use xlink:href="#ArialMT-25" x="1395.3125"/>
    </g>
   </g>
   <g id="text_22">
    <g clip-path="url(#p2fbff9e8b6)">
     <!-- 5.996 -->
     <g transform="translate(158.376852 98.695721)rotate(-333.109497)scale(0.08 -0.08)">
      <defs>
       <path id="ArialMT-39" d="M 350 1059 
L 891 1109 
Q 959 728 1153 556 
Q 1347 384 1650 384 
Q 1909 384 2104 503 
Q 2300 622 2425 820 
Q 2550 1019 2634 1356 
Q 2719 1694 2719 2044 
Q 2719 2081 2716 2156 
Q 2547 1888 2255 1720 
Q 1963 1553 1622 1553 
Q 1053 1553 659 1965 
Q 266 2378 266 3053 
Q 266 3750 677 4175 
Q 1088 4600 1706 4600 
Q 2153 4600 2523 4359 
Q 2894 4119 3086 3673 
Q 3278 3228 3278 2384 
Q 3278 1506 3087 986 
Q 2897 466 2520 194 
Q 2144 -78 1638 -78 
Q 1100 -78 759 220 
Q 419 519 350 1059 
z
M 2653 3081 
Q 2653 3566 2395 3850 
Q 2138 4134 1775 4134 
Q 1400 4134 1122 3828 
Q 844 3522 844 3034 
Q 844 2597 1108 2323 
Q 1372 2050 1759 2050 
Q 2150 2050 2401 2323 
Q 2653 2597 2653 3081 
z
" transform="scale(0.015625)"/>
       <path id="ArialMT-36" d="M 3184 3459 
L 2625 3416 
Q 2550 3747 2413 3897 
Q 2184 4138 1850 4138 
Q 1581 4138 1378 3988 
Q 1113 3794 959 3422 
Q 806 3050 800 2363 
Q 1003 2672 1297 2822 
Q 1591 2972 1913 2972 
Q 2475 2972 2870 2558 
Q 3266 2144 3266 1488 
Q 3266 1056 3080 686 
Q 2894 316 2569 119 
Q 2244 -78 1831 -78 
Q 1128 -78 684 439 
Q 241 956 241 2144 
Q 241 3472 731 4075 
Q 1159 4600 1884 4600 
Q 2425 4600 2770 4297 
Q 3116 3994 3184 3459 
z
M 888 1484 
Q 888 1194 1011 928 
Q 1134 663 1356 523 
Q 1578 384 1822 384 
Q 2178 384 2434 671 
Q 2691 959 2691 1453 
Q 2691 1928 2437 2201 
Q 2184 2475 1800 2475 
Q 1419 2475 1153 2201 
Q 888 1928 888 1484 
z
" transform="scale(0.015625)"/>
      </defs>
      <use xlink:href="#ArialMT-35"/>
      <use xlink:href="#ArialMT-2e" x="55.615234"/>
      <use xlink:href="#ArialMT-39" x="83.398438"/>
      <use xlink:href="#ArialMT-39" x="139.013672"/>
      <use xlink:href="#ArialMT-36" x="194.628906"/>
     </g>
    </g>
   </g>
   <g id="text_23">
    <g clip-path="url(#p2fbff9e8b6)">
     <!-- 6.000 -->
     <g transform="translate(296.968343 91.42652)rotate(-88.799619)scale(0.08 -0.08)">
      <use xlink:href="#ArialMT-36"/>
      <use xlink:href="#ArialMT-2e" x="55.615234"/>
      <use xlink:href="#ArialMT-30" x="83.398438"/>
      <use xlink:href="#ArialMT-30" x="139.013672"/>
      <use xlink:href="#ArialMT-30" x="194.628906"/>
     </g>
    </g>
   </g>
   <g id="text_24">
    <g clip-path="url(#p2fbff9e8b6)">
     <!-- 6.000 -->
     <g transform="translate(55.396056 86.493211)rotate(-86.455844)scale(0.08 -0.08)">
      <use xlink:href="#ArialMT-36"/>
      <use xlink:href="#ArialMT-2e" x="55.615234"/>
      <use xlink:href="#ArialMT-30" x="83.398438"/>
      <use xlink:href="#ArialMT-30" x="139.013672"/>
      <use xlink:href="#ArialMT-30" x="194.628906"/>
     </g>
    </g>
   </g>
   <g id="text_25">
    <g clip-path="url(#p2fbff9e8b6)">
     <!-- 6.000 -->
     <g transform="translate(158.03697 115.691167)rotate(-344.887482)scale(0.08 -0.08)">
      <use xlink:href="#ArialMT-36"/>
      <use xlink:href="#ArialMT-2e" x="55.615234"/>
      <use xlink:href="#ArialMT-30" x="83.398438"/>
      <use xlink:href="#ArialMT-30" x="139.013672"/>
      <use xlink:href="#ArialMT-30" x="194.628906"/>
     </g>
    </g>
   </g>
   <g id="text_26">
    <g clip-path="url(#p2fbff9e8b6)">
     <!-- 6.004 -->
     <g transform="translate(172.182257 255.112246)rotate(-341.769073)scale(0.08 -0.08)">
      <use xlink:href="#ArialMT-36"/>
      <use xlink:href="#ArialMT-2e" x="55.615234"/>
      <use xlink:href="#ArialMT-30" x="83.398438"/>
      <use xlink:href="#ArialMT-30" x="139.013672"/>
      <use xlink:href="#ArialMT-34" x="194.628906"/>
     </g>
    </g>
   </g>
   <g id="text_27">
    <g clip-path="url(#p2fbff9e8b6)">
     <!-- 6.004 -->
     <g transform="translate(267.94122 78.163841)rotate(-277.449637)scale(0.08 -0.08)">
      <use xlink:href="#ArialMT-36"/>
      <use xlink:href="#ArialMT-2e" x="55.615234"/>
      <use xlink:href="#ArialMT-30" x="83.398438"/>
      <use xlink:href="#ArialMT-30" x="139.013672"/>
      <use xlink:href="#ArialMT-34" x="194.628906"/>
     </g>
    </g>
   </g>
   <g id="text_28">
    <g clip-path="url(#p2fbff9e8b6)">
     <!-- 6.004 -->
     <g transform="translate(80.516136 103.547368)rotate(-60.423208)scale(0.08 -0.08)">
      <use xlink:href="#ArialMT-36"/>
      <use xlink:href="#ArialMT-2e" x="55.615234"/>
      <use xlink:href="#ArialMT-30" x="83.398438"/>
      <use xlink:href="#ArialMT-30" x="139.013672"/>
      <use xlink:href="#ArialMT-34" x="194.628906"/>
     </g>
    </g>
   </g>
   <g id="text_29">
    <g clip-path="url(#p2fbff9e8b6)">
     <!-- 6.004 -->
     <g transform="translate(197.661629 118.756485)rotate(-40.274945)scale(0.08 -0.08)">
      <use xlink:href="#ArialMT-36"/>
      <use xlink:href="#ArialMT-2e" x="55.615234"/>
      <use xlink:href="#ArialMT-30" x="83.398438"/>
      <use xlink:href="#ArialMT-30" x="139.013672"/>
      <use xlink:href="#ArialMT-34" x="194.628906"/>
     </g>
    </g>
   </g>
   <g id="text_30">
    <g clip-path="url(#p2fbff9e8b6)">
     <!-- 6.008 -->
     <g transform="translate(172.409889 238.904496)rotate(-334.538018)scale(0.08 -0.08)">
      <defs>
       <path id="ArialMT-38" d="M 1131 2484 
Q 781 2613 612 2850 
Q 444 3088 444 3419 
Q 444 3919 803 4259 
Q 1163 4600 1759 4600 
Q 2359 4600 2725 4251 
Q 3091 3903 3091 3403 
Q 3091 3084 2923 2848 
Q 2756 2613 2416 2484 
Q 2838 2347 3058 2040 
Q 3278 1734 3278 1309 
Q 3278 722 2862 322 
Q 2447 -78 1769 -78 
Q 1091 -78 675 323 
Q 259 725 259 1325 
Q 259 1772 486 2073 
Q 713 2375 1131 2484 
z
M 1019 3438 
Q 1019 3113 1228 2906 
Q 1438 2700 1772 2700 
Q 2097 2700 2305 2904 
Q 2513 3109 2513 3406 
Q 2513 3716 2298 3927 
Q 2084 4138 1766 4138 
Q 1444 4138 1231 3931 
Q 1019 3725 1019 3438 
z
M 838 1322 
Q 838 1081 952 856 
Q 1066 631 1291 507 
Q 1516 384 1775 384 
Q 2178 384 2440 643 
Q 2703 903 2703 1303 
Q 2703 1709 2433 1975 
Q 2163 2241 1756 2241 
Q 1359 2241 1098 1978 
Q 838 1716 838 1322 
z
" transform="scale(0.015625)"/>
      </defs>
      <use xlink:href="#ArialMT-36"/>
      <use xlink:href="#ArialMT-2e" x="55.615234"/>
      <use xlink:href="#ArialMT-30" x="83.398438"/>
      <use xlink:href="#ArialMT-30" x="139.013672"/>
      <use xlink:href="#ArialMT-38" x="194.628906"/>
     </g>
    </g>
   </g>
   <g id="text_31">
    <g clip-path="url(#p2fbff9e8b6)">
     <!-- 6.008 -->
     <g transform="translate(243.632332 95.06125)rotate(-322.346213)scale(0.08 -0.08)">
      <use xlink:href="#ArialMT-36"/>
      <use xlink:href="#ArialMT-2e" x="55.615234"/>
      <use xlink:href="#ArialMT-30" x="83.398438"/>
      <use xlink:href="#ArialMT-30" x="139.013672"/>
      <use xlink:href="#ArialMT-38" x="194.628906"/>
     </g>
    </g>
   </g>
   <g id="text_32">
    <g clip-path="url(#p2fbff9e8b6)">
     <!-- 6.008 -->
     <g transform="translate(33.9666 147.456108)rotate(-31.929932)scale(0.08 -0.08)">
      <use xlink:href="#ArialMT-36"/>
      <use xlink:href="#ArialMT-2e" x="55.615234"/>
      <use xlink:href="#ArialMT-30" x="83.398438"/>
      <use xlink:href="#ArialMT-30" x="139.013672"/>
      <use xlink:href="#ArialMT-38" x="194.628906"/>
     </g>
    </g>
   </g>
   <g id="text_33">
    <g clip-path="url(#p2fbff9e8b6)">
     <!-- 6.012 -->
     <g transform="translate(158.987169 228.792958)rotate(-13.471199)scale(0.08 -0.08)">
      <use xlink:href="#ArialMT-36"/>
      <use xlink:href="#ArialMT-2e" x="55.615234"/>
      <use xlink:href="#ArialMT-30" x="83.398438"/>
      <use xlink:href="#ArialMT-31" x="139.013672"/>
      <use xlink:href="#ArialMT-32" x="194.628906"/>
     </g>
    </g>
   </g>
   <g id="text_34">
    <g clip-path="url(#p2fbff9e8b6)">
     <!-- 6.012 -->
     <g transform="translate(288.396395 250.223989)rotate(-37.259002)scale(0.08 -0.08)">
      <use xlink:href="#ArialMT-36"/>
      <use xlink:href="#ArialMT-2e" x="55.615234"/>
      <use xlink:href="#ArialMT-30" x="83.398438"/>
      <use xlink:href="#ArialMT-31" x="139.013672"/>
      <use xlink:href="#ArialMT-32" x="194.628906"/>
     </g>
    </g>
   </g>
   <g id="text_35">
    <g clip-path="url(#p2fbff9e8b6)">
     <!-- 6.012 -->
     <g transform="translate(59.820798 243.14092)rotate(-330.693444)scale(0.08 -0.08)">
      <use xlink:href="#ArialMT-36"/>
      <use xlink:href="#ArialMT-2e" x="55.615234"/>
      <use xlink:href="#ArialMT-30" x="83.398438"/>
      <use xlink:href="#ArialMT-31" x="139.013672"/>
      <use xlink:href="#ArialMT-32" x="194.628906"/>
     </g>
    </g>
   </g>
   <g id="text_36">
    <g clip-path="url(#p2fbff9e8b6)">
     <!-- 6.012 -->
     <g transform="translate(100.596209 122.491506)rotate(-350.225492)scale(0.08 -0.08)">
      <use xlink:href="#ArialMT-36"/>
      <use xlink:href="#ArialMT-2e" x="55.615234"/>
      <use xlink:href="#ArialMT-30" x="83.398438"/>
      <use xlink:href="#ArialMT-31" x="139.013672"/>
      <use xlink:href="#ArialMT-32" x="194.628906"/>
     </g>
    </g>
   </g>
   <g id="text_37">
    <g clip-path="url(#p2fbff9e8b6)">
     <!-- 6.016 -->
     <g transform="translate(276.904596 244.300227)rotate(-37.259002)scale(0.08 -0.08)">
      <use xlink:href="#ArialMT-36"/>
      <use xlink:href="#ArialMT-2e" x="55.615234"/>
      <use xlink:href="#ArialMT-30" x="83.398438"/>
      <use xlink:href="#ArialMT-31" x="139.013672"/>
      <use xlink:href="#ArialMT-36" x="194.628906"/>
     </g>
    </g>
   </g>
   <g id="text_38">
    <g clip-path="url(#p2fbff9e8b6)">
     <!-- 6.016 -->
     <g transform="translate(119.077663 246.577924)rotate(-36.083795)scale(0.08 -0.08)">
      <use xlink:href="#ArialMT-36"/>
      <use xlink:href="#ArialMT-2e" x="55.615234"/>
      <use xlink:href="#ArialMT-30" x="83.398438"/>
      <use xlink:href="#ArialMT-31" x="139.013672"/>
      <use xlink:href="#ArialMT-36" x="194.628906"/>
     </g>
    </g>
   </g>
   <g id="text_39">
    <g clip-path="url(#p2fbff9e8b6)">
     <!-- 6.016 -->
     <g transform="translate(229.391539 127.424537)rotate(-12.396312)scale(0.08 -0.08)">
      <use xlink:href="#ArialMT-36"/>
      <use xlink:href="#ArialMT-2e" x="55.615234"/>
      <use xlink:href="#ArialMT-30" x="83.398438"/>
      <use xlink:href="#ArialMT-31" x="139.013672"/>
      <use xlink:href="#ArialMT-36" x="194.628906"/>
     </g>
    </g>
   </g>
   <g id="text_40">
    <g clip-path="url(#p2fbff9e8b6)">
     <!-- 6.020 -->
     <g transform="translate(192.239444 207.300518)rotate(-309.512542)scale(0.08 -0.08)">
      <use xlink:href="#ArialMT-36"/>
      <use xlink:href="#ArialMT-2e" x="55.615234"/>
      <use xlink:href="#ArialMT-30" x="83.398438"/>
      <use xlink:href="#ArialMT-32" x="139.013672"/>
      <use xlink:href="#ArialMT-30" x="194.628906"/>
     </g>
    </g>
   </g>
   <g id="text_41">
    <g clip-path="url(#p2fbff9e8b6)">
     <!-- 6.020 -->
     <g transform="translate(134.033521 221.490022)rotate(-42.295474)scale(0.08 -0.08)">
      <use xlink:href="#ArialMT-36"/>
      <use xlink:href="#ArialMT-2e" x="55.615234"/>
      <use xlink:href="#ArialMT-30" x="83.398438"/>
      <use xlink:href="#ArialMT-32" x="139.013672"/>
      <use xlink:href="#ArialMT-30" x="194.628906"/>
     </g>
    </g>
   </g>
   <g id="text_42">
    <g clip-path="url(#p2fbff9e8b6)">
     <!-- 6.024 -->
     <g transform="translate(259.38297 170.69941)rotate(-305.813394)scale(0.08 -0.08)">
      <use xlink:href="#ArialMT-36"/>
      <use xlink:href="#ArialMT-2e" x="55.615234"/>
      <use xlink:href="#ArialMT-30" x="83.398438"/>
      <use xlink:href="#ArialMT-32" x="139.013672"/>
      <use xlink:href="#ArialMT-34" x="194.628906"/>
     </g>
    </g>
   </g>
   <g id="text_43">
    <g clip-path="url(#p2fbff9e8b6)">
     <!-- 6.024 -->
     <g transform="translate(108.879849 185.197428)rotate(-314.962659)scale(0.08 -0.08)">
      <use xlink:href="#ArialMT-36"/>
      <use xlink:href="#ArialMT-2e" x="55.615234"/>
      <use xlink:href="#ArialMT-30" x="83.398438"/>
      <use xlink:href="#ArialMT-32" x="139.013672"/>
      <use xlink:href="#ArialMT-34" x="194.628906"/>
     </g>
    </g>
   </g>
   <g id="text_44">
    <g clip-path="url(#p2fbff9e8b6)">
     <!-- 6.028 -->
     <g transform="translate(229.547811 181.269585)rotate(-14.461391)scale(0.08 -0.08)">
      <use xlink:href="#ArialMT-36"/>
      <use xlink:href="#ArialMT-2e" x="55.615234"/>
      <use xlink:href="#ArialMT-30" x="83.398438"/>
      <use xlink:href="#ArialMT-32" x="139.013672"/>
      <use xlink:href="#ArialMT-38" x="194.628906"/>
     </g>
    </g>
   </g>
  </g>
  <g id="axes_2">
   <g id="patch_7">
    <path d="M 325.947188 259.483125 
L 336.819188 259.483125 
L 336.819188 42.043125 
L 325.947188 42.043125 
z
" style="fill: #eaeaf2"/>
   </g>
   <g id="patch_8">
    <path clip-path="url(#p996fcbdf7e)" style="fill: #eaeaf2; stroke: #eaeaf2; stroke-width: 0.01; stroke-linejoin: miter"/>
   </g>
   <g id="matplotlib.axis_3">
    <g id="ytick_10">
     <g id="line2d_19">
      <defs>
       <path id="mdba325d4f2" d="M 0 0 
L 3.5 0 
" style="stroke: #262626; stroke-width: 0.8"/>
      </defs>
      <g>
       <use xlink:href="#mdba325d4f2" x="336.819188" y="259.483125" style="fill: #262626; stroke: #262626; stroke-width: 0.8"/>
      </g>
     </g>
     <g id="text_45">
      <!-- 5.992 -->
      <g style="fill: #262626" transform="translate(343.819188 263.062031)scale(0.1 -0.1)">
       <use xlink:href="#ArialMT-35"/>
       <use xlink:href="#ArialMT-2e" x="55.615234"/>
       <use xlink:href="#ArialMT-39" x="83.398438"/>
       <use xlink:href="#ArialMT-39" x="139.013672"/>
       <use xlink:href="#ArialMT-32" x="194.628906"/>
      </g>
     </g>
    </g>
    <g id="ytick_11">
     <g id="line2d_20">
      <g>
       <use xlink:href="#mdba325d4f2" x="336.819188" y="215.995125" style="fill: #262626; stroke: #262626; stroke-width: 0.8"/>
      </g>
     </g>
     <g id="text_46">
      <!-- 6.000 -->
      <g style="fill: #262626" transform="translate(343.819188 219.574031)scale(0.1 -0.1)">
       <use xlink:href="#ArialMT-36"/>
       <use xlink:href="#ArialMT-2e" x="55.615234"/>
       <use xlink:href="#ArialMT-30" x="83.398438"/>
       <use xlink:href="#ArialMT-30" x="139.013672"/>
       <use xlink:href="#ArialMT-30" x="194.628906"/>
      </g>
     </g>
    </g>
    <g id="ytick_12">
     <g id="line2d_21">
      <g>
       <use xlink:href="#mdba325d4f2" x="336.819188" y="172.507125" style="fill: #262626; stroke: #262626; stroke-width: 0.8"/>
      </g>
     </g>
     <g id="text_47">
      <!-- 6.008 -->
      <g style="fill: #262626" transform="translate(343.819188 176.086031)scale(0.1 -0.1)">
       <use xlink:href="#ArialMT-36"/>
       <use xlink:href="#ArialMT-2e" x="55.615234"/>
       <use xlink:href="#ArialMT-30" x="83.398438"/>
       <use xlink:href="#ArialMT-30" x="139.013672"/>
       <use xlink:href="#ArialMT-38" x="194.628906"/>
      </g>
     </g>
    </g>
    <g id="ytick_13">
     <g id="line2d_22">
      <g>
       <use xlink:href="#mdba325d4f2" x="336.819188" y="129.019125" style="fill: #262626; stroke: #262626; stroke-width: 0.8"/>
      </g>
     </g>
     <g id="text_48">
      <!-- 6.016 -->
      <g style="fill: #262626" transform="translate(343.819188 132.598031)scale(0.1 -0.1)">
       <use xlink:href="#ArialMT-36"/>
       <use xlink:href="#ArialMT-2e" x="55.615234"/>
       <use xlink:href="#ArialMT-30" x="83.398438"/>
       <use xlink:href="#ArialMT-31" x="139.013672"/>
       <use xlink:href="#ArialMT-36" x="194.628906"/>
      </g>
     </g>
    </g>
    <g id="ytick_14">
     <g id="line2d_23">
      <g>
       <use xlink:href="#mdba325d4f2" x="336.819188" y="85.531125" style="fill: #262626; stroke: #262626; stroke-width: 0.8"/>
      </g>
     </g>
     <g id="text_49">
      <!-- 6.024 -->
      <g style="fill: #262626" transform="translate(343.819188 89.110031)scale(0.1 -0.1)">
       <use xlink:href="#ArialMT-36"/>
       <use xlink:href="#ArialMT-2e" x="55.615234"/>
       <use xlink:href="#ArialMT-30" x="83.398438"/>
       <use xlink:href="#ArialMT-32" x="139.013672"/>
       <use xlink:href="#ArialMT-34" x="194.628906"/>
      </g>
     </g>
    </g>
    <g id="ytick_15">
     <g id="line2d_24">
      <g>
       <use xlink:href="#mdba325d4f2" x="336.819188" y="42.043125" style="fill: #262626; stroke: #262626; stroke-width: 0.8"/>
      </g>
     </g>
     <g id="text_50">
      <!-- 6.032 -->
      <g style="fill: #262626" transform="translate(343.819188 45.622031)scale(0.1 -0.1)">
       <use xlink:href="#ArialMT-36"/>
       <use xlink:href="#ArialMT-2e" x="55.615234"/>
       <use xlink:href="#ArialMT-30" x="83.398438"/>
       <use xlink:href="#ArialMT-33" x="139.013672"/>
       <use xlink:href="#ArialMT-32" x="194.628906"/>
      </g>
     </g>
    </g>
   </g>
   <g id="QuadMesh_1">
    <path d="M 325.947188 259.483125 
L 336.819188 259.483125 
L 336.819188 237.739125 
L 325.947188 237.739125 
L 325.947188 259.483125 
" clip-path="url(#p996fcbdf7e)" style="fill: #4961d2"/>
    <path d="M 325.947188 237.739125 
L 336.819188 237.739125 
L 336.819188 215.995125 
L 325.947188 215.995125 
L 325.947188 237.739125 
" clip-path="url(#p996fcbdf7e)" style="fill: #6a8bef"/>
    <path d="M 325.947188 215.995125 
L 336.819188 215.995125 
L 336.819188 194.251125 
L 325.947188 194.251125 
L 325.947188 215.995125 
" clip-path="url(#p996fcbdf7e)" style="fill: #8caffe"/>
    <path d="M 325.947188 194.251125 
L 336.819188 194.251125 
L 336.819188 172.507125 
L 325.947188 172.507125 
L 325.947188 194.251125 
" clip-path="url(#p996fcbdf7e)" style="fill: #afcafc"/>
    <path d="M 325.947188 172.507125 
L 336.819188 172.507125 
L 336.819188 150.763125 
L 325.947188 150.763125 
L 325.947188 172.507125 
" clip-path="url(#p996fcbdf7e)" style="fill: #cfdaea"/>
    <path d="M 325.947188 150.763125 
L 336.819188 150.763125 
L 336.819188 129.019125 
L 325.947188 129.019125 
L 325.947188 150.763125 
" clip-path="url(#p996fcbdf7e)" style="fill: #e9d5cb"/>
    <path d="M 325.947188 129.019125 
L 336.819188 129.019125 
L 336.819188 107.275125 
L 325.947188 107.275125 
L 325.947188 129.019125 
" clip-path="url(#p996fcbdf7e)" style="fill: #f6bda2"/>
    <path d="M 325.947188 107.275125 
L 336.819188 107.275125 
L 336.819188 85.531125 
L 325.947188 85.531125 
L 325.947188 107.275125 
" clip-path="url(#p996fcbdf7e)" style="fill: #f4987a"/>
    <path d="M 325.947188 85.531125 
L 336.819188 85.531125 
L 336.819188 63.787125 
L 325.947188 63.787125 
L 325.947188 85.531125 
" clip-path="url(#p996fcbdf7e)" style="fill: #e36c55"/>
    <path d="M 325.947188 63.787125 
L 336.819188 63.787125 
L 336.819188 42.043125 
L 325.947188 42.043125 
L 325.947188 63.787125 
" clip-path="url(#p996fcbdf7e)" style="fill: #c53334"/>
   </g>
   <g id="LineCollection_1"/>
   <g id="patch_9">
    <path d="M 325.947188 259.483125 
L 331.383188 259.483125 
L 336.819188 259.483125 
L 336.819188 42.043125 
L 331.383188 42.043125 
L 325.947188 42.043125 
L 325.947188 259.483125 
z
" style="fill: none; stroke: #ffffff; stroke-width: 0.8; stroke-linejoin: miter; stroke-linecap: square"/>
   </g>
  </g>
 </g>
 <defs>
  <clipPath id="p2fbff9e8b6">
   <rect x="41.367188" y="42.043125" width="267.84" height="217.44"/>
  </clipPath>
  <clipPath id="p996fcbdf7e">
   <rect x="325.947188" y="42.043125" width="10.872" height="217.44"/>
  </clipPath>
 </defs>
</svg>
