<?xml version="1.0" encoding="utf-8" standalone="no"?>
<!DOCTYPE svg PUBLIC "-//W3C//DTD SVG 1.1//EN"
  "http://www.w3.org/Graphics/SVG/1.1/DTD/svg11.dtd">
<svg xmlns:xlink="http://www.w3.org/1999/xlink" width="376.041063pt" height="296.003437pt" viewBox="0 0 376.041063 296.003437" xmlns="http://www.w3.org/2000/svg" version="1.1">
 <metadata>
  <rdf:RDF xmlns:dc="http://purl.org/dc/elements/1.1/" xmlns:cc="http://creativecommons.org/ns#" xmlns:rdf="http://www.w3.org/1999/02/22-rdf-syntax-ns#">
   <cc:Work>
    <dc:type rdf:resource="http://purl.org/dc/dcmitype/StillImage"/>
    <dc:date>2022-04-26T09:22:14.585578</dc:date>
    <dc:format>image/svg+xml</dc:format>
    <dc:creator>
     <cc:Agent>
      <dc:title>Matplotlib v3.5.1, https://matplotlib.org/</dc:title>
     </cc:Agent>
    </dc:creator>
   </cc:Work>
  </rdf:RDF>
 </metadata>
 <defs>
  <style type="text/css">*{stroke-linejoin: round; stroke-linecap: butt}</style>
 </defs>
 <g id="figure_1">
  <g id="patch_1">
   <path d="M 0 296.003437 
L 376.041063 296.003437 
L 376.041063 0 
L 0 0 
z
" style="fill: #ffffff"/>
  </g>
  <g id="axes_1">
   <g id="patch_2">
    <path d="M 41.367188 259.483125 
L 309.207188 259.483125 
L 309.207188 42.043125 
L 41.367188 42.043125 
z
" style="fill: #eaeaf2"/>
   </g>
   <g id="matplotlib.axis_1">
    <g id="xtick_1">
     <g id="line2d_1">
      <path d="M 41.367188 259.483125 
L 41.367188 42.043125 
" clip-path="url(#pd2f3dce0ac)" style="fill: none; stroke: #ffffff; stroke-width: 0.8; stroke-linecap: round"/>
     </g>
     <g id="text_1">
      <!-- 1.0 -->
      <g style="fill: #262626" transform="translate(34.417187 273.640937)scale(0.1 -0.1)">
       <defs>
        <path id="ArialMT-31" d="M 2384 0 
L 1822 0 
L 1822 3584 
Q 1619 3391 1289 3197 
Q 959 3003 697 2906 
L 697 3450 
Q 1169 3672 1522 3987 
Q 1875 4303 2022 4600 
L 2384 4600 
L 2384 0 
z
" transform="scale(0.015625)"/>
        <path id="ArialMT-2e" d="M 581 0 
L 581 641 
L 1222 641 
L 1222 0 
L 581 0 
z
" transform="scale(0.015625)"/>
        <path id="ArialMT-30" d="M 266 2259 
Q 266 3072 433 3567 
Q 600 4063 929 4331 
Q 1259 4600 1759 4600 
Q 2128 4600 2406 4451 
Q 2684 4303 2865 4023 
Q 3047 3744 3150 3342 
Q 3253 2941 3253 2259 
Q 3253 1453 3087 958 
Q 2922 463 2592 192 
Q 2263 -78 1759 -78 
Q 1097 -78 719 397 
Q 266 969 266 2259 
z
M 844 2259 
Q 844 1131 1108 757 
Q 1372 384 1759 384 
Q 2147 384 2411 759 
Q 2675 1134 2675 2259 
Q 2675 3391 2411 3762 
Q 2147 4134 1753 4134 
Q 1366 4134 1134 3806 
Q 844 3388 844 2259 
z
" transform="scale(0.015625)"/>
       </defs>
       <use xlink:href="#ArialMT-31"/>
       <use xlink:href="#ArialMT-2e" x="55.615234"/>
       <use xlink:href="#ArialMT-30" x="83.398438"/>
      </g>
     </g>
    </g>
    <g id="xtick_2">
     <g id="line2d_2">
      <path d="M 86.007188 259.483125 
L 86.007188 42.043125 
" clip-path="url(#pd2f3dce0ac)" style="fill: none; stroke: #ffffff; stroke-width: 0.8; stroke-linecap: round"/>
     </g>
     <g id="text_2">
      <!-- 1.5 -->
      <g style="fill: #262626" transform="translate(79.057188 273.640937)scale(0.1 -0.1)">
       <defs>
        <path id="ArialMT-35" d="M 266 1200 
L 856 1250 
Q 922 819 1161 601 
Q 1400 384 1738 384 
Q 2144 384 2425 690 
Q 2706 997 2706 1503 
Q 2706 1984 2436 2262 
Q 2166 2541 1728 2541 
Q 1456 2541 1237 2417 
Q 1019 2294 894 2097 
L 366 2166 
L 809 4519 
L 3088 4519 
L 3088 3981 
L 1259 3981 
L 1013 2750 
Q 1425 3038 1878 3038 
Q 2478 3038 2890 2622 
Q 3303 2206 3303 1553 
Q 3303 931 2941 478 
Q 2500 -78 1738 -78 
Q 1113 -78 717 272 
Q 322 622 266 1200 
z
" transform="scale(0.015625)"/>
       </defs>
       <use xlink:href="#ArialMT-31"/>
       <use xlink:href="#ArialMT-2e" x="55.615234"/>
       <use xlink:href="#ArialMT-35" x="83.398438"/>
      </g>
     </g>
    </g>
    <g id="xtick_3">
     <g id="line2d_3">
      <path d="M 130.647188 259.483125 
L 130.647188 42.043125 
" clip-path="url(#pd2f3dce0ac)" style="fill: none; stroke: #ffffff; stroke-width: 0.8; stroke-linecap: round"/>
     </g>
     <g id="text_3">
      <!-- 2.0 -->
      <g style="fill: #262626" transform="translate(123.697187 273.640937)scale(0.1 -0.1)">
       <defs>
        <path id="ArialMT-32" d="M 3222 541 
L 3222 0 
L 194 0 
Q 188 203 259 391 
Q 375 700 629 1000 
Q 884 1300 1366 1694 
Q 2113 2306 2375 2664 
Q 2638 3022 2638 3341 
Q 2638 3675 2398 3904 
Q 2159 4134 1775 4134 
Q 1369 4134 1125 3890 
Q 881 3647 878 3216 
L 300 3275 
Q 359 3922 746 4261 
Q 1134 4600 1788 4600 
Q 2447 4600 2831 4234 
Q 3216 3869 3216 3328 
Q 3216 3053 3103 2787 
Q 2991 2522 2730 2228 
Q 2469 1934 1863 1422 
Q 1356 997 1212 845 
Q 1069 694 975 541 
L 3222 541 
z
" transform="scale(0.015625)"/>
       </defs>
       <use xlink:href="#ArialMT-32"/>
       <use xlink:href="#ArialMT-2e" x="55.615234"/>
       <use xlink:href="#ArialMT-30" x="83.398438"/>
      </g>
     </g>
    </g>
    <g id="xtick_4">
     <g id="line2d_4">
      <path d="M 175.287187 259.483125 
L 175.287187 42.043125 
" clip-path="url(#pd2f3dce0ac)" style="fill: none; stroke: #ffffff; stroke-width: 0.8; stroke-linecap: round"/>
     </g>
     <g id="text_4">
      <!-- 2.5 -->
      <g style="fill: #262626" transform="translate(168.337187 273.640937)scale(0.1 -0.1)">
       <use xlink:href="#ArialMT-32"/>
       <use xlink:href="#ArialMT-2e" x="55.615234"/>
       <use xlink:href="#ArialMT-35" x="83.398438"/>
      </g>
     </g>
    </g>
    <g id="xtick_5">
     <g id="line2d_5">
      <path d="M 219.927188 259.483125 
L 219.927188 42.043125 
" clip-path="url(#pd2f3dce0ac)" style="fill: none; stroke: #ffffff; stroke-width: 0.8; stroke-linecap: round"/>
     </g>
     <g id="text_5">
      <!-- 3.0 -->
      <g style="fill: #262626" transform="translate(212.977188 273.640937)scale(0.1 -0.1)">
       <defs>
        <path id="ArialMT-33" d="M 269 1209 
L 831 1284 
Q 928 806 1161 595 
Q 1394 384 1728 384 
Q 2125 384 2398 659 
Q 2672 934 2672 1341 
Q 2672 1728 2419 1979 
Q 2166 2231 1775 2231 
Q 1616 2231 1378 2169 
L 1441 2663 
Q 1497 2656 1531 2656 
Q 1891 2656 2178 2843 
Q 2466 3031 2466 3422 
Q 2466 3731 2256 3934 
Q 2047 4138 1716 4138 
Q 1388 4138 1169 3931 
Q 950 3725 888 3313 
L 325 3413 
Q 428 3978 793 4289 
Q 1159 4600 1703 4600 
Q 2078 4600 2393 4439 
Q 2709 4278 2876 4000 
Q 3044 3722 3044 3409 
Q 3044 3113 2884 2869 
Q 2725 2625 2413 2481 
Q 2819 2388 3044 2092 
Q 3269 1797 3269 1353 
Q 3269 753 2831 336 
Q 2394 -81 1725 -81 
Q 1122 -81 723 278 
Q 325 638 269 1209 
z
" transform="scale(0.015625)"/>
       </defs>
       <use xlink:href="#ArialMT-33"/>
       <use xlink:href="#ArialMT-2e" x="55.615234"/>
       <use xlink:href="#ArialMT-30" x="83.398438"/>
      </g>
     </g>
    </g>
    <g id="xtick_6">
     <g id="line2d_6">
      <path d="M 264.567188 259.483125 
L 264.567188 42.043125 
" clip-path="url(#pd2f3dce0ac)" style="fill: none; stroke: #ffffff; stroke-width: 0.8; stroke-linecap: round"/>
     </g>
     <g id="text_6">
      <!-- 3.5 -->
      <g style="fill: #262626" transform="translate(257.617188 273.640937)scale(0.1 -0.1)">
       <use xlink:href="#ArialMT-33"/>
       <use xlink:href="#ArialMT-2e" x="55.615234"/>
       <use xlink:href="#ArialMT-35" x="83.398438"/>
      </g>
     </g>
    </g>
    <g id="xtick_7">
     <g id="line2d_7">
      <path d="M 309.207188 259.483125 
L 309.207188 42.043125 
" clip-path="url(#pd2f3dce0ac)" style="fill: none; stroke: #ffffff; stroke-width: 0.8; stroke-linecap: round"/>
     </g>
     <g id="text_7">
      <!-- 4.0 -->
      <g style="fill: #262626" transform="translate(302.257188 273.640937)scale(0.1 -0.1)">
       <defs>
        <path id="ArialMT-34" d="M 2069 0 
L 2069 1097 
L 81 1097 
L 81 1613 
L 2172 4581 
L 2631 4581 
L 2631 1613 
L 3250 1613 
L 3250 1097 
L 2631 1097 
L 2631 0 
L 2069 0 
z
M 2069 1613 
L 2069 3678 
L 634 1613 
L 2069 1613 
z
" transform="scale(0.015625)"/>
       </defs>
       <use xlink:href="#ArialMT-34"/>
       <use xlink:href="#ArialMT-2e" x="55.615234"/>
       <use xlink:href="#ArialMT-30" x="83.398438"/>
      </g>
     </g>
    </g>
    <g id="text_8">
     <!-- Predictor: upps_ur_1 -->
     <g style="fill: #262626" transform="translate(128.874688 286.815937)scale(0.1 -0.1)">
      <defs>
       <path id="ArialMT-50" d="M 494 0 
L 494 4581 
L 2222 4581 
Q 2678 4581 2919 4538 
Q 3256 4481 3484 4323 
Q 3713 4166 3852 3881 
Q 3991 3597 3991 3256 
Q 3991 2672 3619 2267 
Q 3247 1863 2275 1863 
L 1100 1863 
L 1100 0 
L 494 0 
z
M 1100 2403 
L 2284 2403 
Q 2872 2403 3119 2622 
Q 3366 2841 3366 3238 
Q 3366 3525 3220 3729 
Q 3075 3934 2838 4000 
Q 2684 4041 2272 4041 
L 1100 4041 
L 1100 2403 
z
" transform="scale(0.015625)"/>
       <path id="ArialMT-72" d="M 416 0 
L 416 3319 
L 922 3319 
L 922 2816 
Q 1116 3169 1280 3281 
Q 1444 3394 1641 3394 
Q 1925 3394 2219 3213 
L 2025 2691 
Q 1819 2813 1613 2813 
Q 1428 2813 1281 2702 
Q 1134 2591 1072 2394 
Q 978 2094 978 1738 
L 978 0 
L 416 0 
z
" transform="scale(0.015625)"/>
       <path id="ArialMT-65" d="M 2694 1069 
L 3275 997 
Q 3138 488 2766 206 
Q 2394 -75 1816 -75 
Q 1088 -75 661 373 
Q 234 822 234 1631 
Q 234 2469 665 2931 
Q 1097 3394 1784 3394 
Q 2450 3394 2872 2941 
Q 3294 2488 3294 1666 
Q 3294 1616 3291 1516 
L 816 1516 
Q 847 969 1125 678 
Q 1403 388 1819 388 
Q 2128 388 2347 550 
Q 2566 713 2694 1069 
z
M 847 1978 
L 2700 1978 
Q 2663 2397 2488 2606 
Q 2219 2931 1791 2931 
Q 1403 2931 1139 2672 
Q 875 2413 847 1978 
z
" transform="scale(0.015625)"/>
       <path id="ArialMT-64" d="M 2575 0 
L 2575 419 
Q 2259 -75 1647 -75 
Q 1250 -75 917 144 
Q 584 363 401 755 
Q 219 1147 219 1656 
Q 219 2153 384 2558 
Q 550 2963 881 3178 
Q 1213 3394 1622 3394 
Q 1922 3394 2156 3267 
Q 2391 3141 2538 2938 
L 2538 4581 
L 3097 4581 
L 3097 0 
L 2575 0 
z
M 797 1656 
Q 797 1019 1065 703 
Q 1334 388 1700 388 
Q 2069 388 2326 689 
Q 2584 991 2584 1609 
Q 2584 2291 2321 2609 
Q 2059 2928 1675 2928 
Q 1300 2928 1048 2622 
Q 797 2316 797 1656 
z
" transform="scale(0.015625)"/>
       <path id="ArialMT-69" d="M 425 3934 
L 425 4581 
L 988 4581 
L 988 3934 
L 425 3934 
z
M 425 0 
L 425 3319 
L 988 3319 
L 988 0 
L 425 0 
z
" transform="scale(0.015625)"/>
       <path id="ArialMT-63" d="M 2588 1216 
L 3141 1144 
Q 3050 572 2676 248 
Q 2303 -75 1759 -75 
Q 1078 -75 664 370 
Q 250 816 250 1647 
Q 250 2184 428 2587 
Q 606 2991 970 3192 
Q 1334 3394 1763 3394 
Q 2303 3394 2647 3120 
Q 2991 2847 3088 2344 
L 2541 2259 
Q 2463 2594 2264 2762 
Q 2066 2931 1784 2931 
Q 1359 2931 1093 2626 
Q 828 2322 828 1663 
Q 828 994 1084 691 
Q 1341 388 1753 388 
Q 2084 388 2306 591 
Q 2528 794 2588 1216 
z
" transform="scale(0.015625)"/>
       <path id="ArialMT-74" d="M 1650 503 
L 1731 6 
Q 1494 -44 1306 -44 
Q 1000 -44 831 53 
Q 663 150 594 308 
Q 525 466 525 972 
L 525 2881 
L 113 2881 
L 113 3319 
L 525 3319 
L 525 4141 
L 1084 4478 
L 1084 3319 
L 1650 3319 
L 1650 2881 
L 1084 2881 
L 1084 941 
Q 1084 700 1114 631 
Q 1144 563 1211 522 
Q 1278 481 1403 481 
Q 1497 481 1650 503 
z
" transform="scale(0.015625)"/>
       <path id="ArialMT-6f" d="M 213 1659 
Q 213 2581 725 3025 
Q 1153 3394 1769 3394 
Q 2453 3394 2887 2945 
Q 3322 2497 3322 1706 
Q 3322 1066 3130 698 
Q 2938 331 2570 128 
Q 2203 -75 1769 -75 
Q 1072 -75 642 372 
Q 213 819 213 1659 
z
M 791 1659 
Q 791 1022 1069 705 
Q 1347 388 1769 388 
Q 2188 388 2466 706 
Q 2744 1025 2744 1678 
Q 2744 2294 2464 2611 
Q 2184 2928 1769 2928 
Q 1347 2928 1069 2612 
Q 791 2297 791 1659 
z
" transform="scale(0.015625)"/>
       <path id="ArialMT-3a" d="M 578 2678 
L 578 3319 
L 1219 3319 
L 1219 2678 
L 578 2678 
z
M 578 0 
L 578 641 
L 1219 641 
L 1219 0 
L 578 0 
z
" transform="scale(0.015625)"/>
       <path id="ArialMT-20" transform="scale(0.015625)"/>
       <path id="ArialMT-75" d="M 2597 0 
L 2597 488 
Q 2209 -75 1544 -75 
Q 1250 -75 995 37 
Q 741 150 617 320 
Q 494 491 444 738 
Q 409 903 409 1263 
L 409 3319 
L 972 3319 
L 972 1478 
Q 972 1038 1006 884 
Q 1059 663 1231 536 
Q 1403 409 1656 409 
Q 1909 409 2131 539 
Q 2353 669 2445 892 
Q 2538 1116 2538 1541 
L 2538 3319 
L 3100 3319 
L 3100 0 
L 2597 0 
z
" transform="scale(0.015625)"/>
       <path id="ArialMT-70" d="M 422 -1272 
L 422 3319 
L 934 3319 
L 934 2888 
Q 1116 3141 1344 3267 
Q 1572 3394 1897 3394 
Q 2322 3394 2647 3175 
Q 2972 2956 3137 2557 
Q 3303 2159 3303 1684 
Q 3303 1175 3120 767 
Q 2938 359 2589 142 
Q 2241 -75 1856 -75 
Q 1575 -75 1351 44 
Q 1128 163 984 344 
L 984 -1272 
L 422 -1272 
z
M 931 1641 
Q 931 1000 1190 694 
Q 1450 388 1819 388 
Q 2194 388 2461 705 
Q 2728 1022 2728 1688 
Q 2728 2322 2467 2637 
Q 2206 2953 1844 2953 
Q 1484 2953 1207 2617 
Q 931 2281 931 1641 
z
" transform="scale(0.015625)"/>
       <path id="ArialMT-73" d="M 197 991 
L 753 1078 
Q 800 744 1014 566 
Q 1228 388 1613 388 
Q 2000 388 2187 545 
Q 2375 703 2375 916 
Q 2375 1106 2209 1216 
Q 2094 1291 1634 1406 
Q 1016 1563 777 1677 
Q 538 1791 414 1992 
Q 291 2194 291 2438 
Q 291 2659 392 2848 
Q 494 3038 669 3163 
Q 800 3259 1026 3326 
Q 1253 3394 1513 3394 
Q 1903 3394 2198 3281 
Q 2494 3169 2634 2976 
Q 2775 2784 2828 2463 
L 2278 2388 
Q 2241 2644 2061 2787 
Q 1881 2931 1553 2931 
Q 1166 2931 1000 2803 
Q 834 2675 834 2503 
Q 834 2394 903 2306 
Q 972 2216 1119 2156 
Q 1203 2125 1616 2013 
Q 2213 1853 2448 1751 
Q 2684 1650 2818 1456 
Q 2953 1263 2953 975 
Q 2953 694 2789 445 
Q 2625 197 2315 61 
Q 2006 -75 1616 -75 
Q 969 -75 630 194 
Q 291 463 197 991 
z
" transform="scale(0.015625)"/>
       <path id="ArialMT-5f" d="M -97 -1272 
L -97 -866 
L 3631 -866 
L 3631 -1272 
L -97 -1272 
z
" transform="scale(0.015625)"/>
      </defs>
      <use xlink:href="#ArialMT-50"/>
      <use xlink:href="#ArialMT-72" x="66.699219"/>
      <use xlink:href="#ArialMT-65" x="100"/>
      <use xlink:href="#ArialMT-64" x="155.615234"/>
      <use xlink:href="#ArialMT-69" x="211.230469"/>
      <use xlink:href="#ArialMT-63" x="233.447266"/>
      <use xlink:href="#ArialMT-74" x="283.447266"/>
      <use xlink:href="#ArialMT-6f" x="311.230469"/>
      <use xlink:href="#ArialMT-72" x="366.845703"/>
      <use xlink:href="#ArialMT-3a" x="400.146484"/>
      <use xlink:href="#ArialMT-20" x="427.929688"/>
      <use xlink:href="#ArialMT-75" x="455.712891"/>
      <use xlink:href="#ArialMT-70" x="511.328125"/>
      <use xlink:href="#ArialMT-70" x="566.943359"/>
      <use xlink:href="#ArialMT-73" x="622.558594"/>
      <use xlink:href="#ArialMT-5f" x="672.558594"/>
      <use xlink:href="#ArialMT-75" x="728.173828"/>
      <use xlink:href="#ArialMT-72" x="783.789062"/>
      <use xlink:href="#ArialMT-5f" x="817.089844"/>
      <use xlink:href="#ArialMT-31" x="872.705078"/>
     </g>
    </g>
   </g>
   <g id="matplotlib.axis_2">
    <g id="ytick_1">
     <g id="line2d_8">
      <path d="M 41.367188 259.483125 
L 309.207188 259.483125 
" clip-path="url(#pd2f3dce0ac)" style="fill: none; stroke: #ffffff; stroke-width: 0.8; stroke-linecap: round"/>
     </g>
     <g id="text_9">
      <!-- 1.0 -->
      <g style="fill: #262626" transform="translate(20.467188 263.062031)scale(0.1 -0.1)">
       <use xlink:href="#ArialMT-31"/>
       <use xlink:href="#ArialMT-2e" x="55.615234"/>
       <use xlink:href="#ArialMT-30" x="83.398438"/>
      </g>
     </g>
    </g>
    <g id="ytick_2">
     <g id="line2d_9">
      <path d="M 41.367188 232.303125 
L 309.207188 232.303125 
" clip-path="url(#pd2f3dce0ac)" style="fill: none; stroke: #ffffff; stroke-width: 0.8; stroke-linecap: round"/>
     </g>
     <g id="text_10">
      <!-- 1.5 -->
      <g style="fill: #262626" transform="translate(20.467188 235.882031)scale(0.1 -0.1)">
       <use xlink:href="#ArialMT-31"/>
       <use xlink:href="#ArialMT-2e" x="55.615234"/>
       <use xlink:href="#ArialMT-35" x="83.398438"/>
      </g>
     </g>
    </g>
    <g id="ytick_3">
     <g id="line2d_10">
      <path d="M 41.367188 205.123125 
L 309.207188 205.123125 
" clip-path="url(#pd2f3dce0ac)" style="fill: none; stroke: #ffffff; stroke-width: 0.8; stroke-linecap: round"/>
     </g>
     <g id="text_11">
      <!-- 2.0 -->
      <g style="fill: #262626" transform="translate(20.467188 208.702031)scale(0.1 -0.1)">
       <use xlink:href="#ArialMT-32"/>
       <use xlink:href="#ArialMT-2e" x="55.615234"/>
       <use xlink:href="#ArialMT-30" x="83.398438"/>
      </g>
     </g>
    </g>
    <g id="ytick_4">
     <g id="line2d_11">
      <path d="M 41.367188 177.943125 
L 309.207188 177.943125 
" clip-path="url(#pd2f3dce0ac)" style="fill: none; stroke: #ffffff; stroke-width: 0.8; stroke-linecap: round"/>
     </g>
     <g id="text_12">
      <!-- 2.5 -->
      <g style="fill: #262626" transform="translate(20.467188 181.522031)scale(0.1 -0.1)">
       <use xlink:href="#ArialMT-32"/>
       <use xlink:href="#ArialMT-2e" x="55.615234"/>
       <use xlink:href="#ArialMT-35" x="83.398438"/>
      </g>
     </g>
    </g>
    <g id="ytick_5">
     <g id="line2d_12">
      <path d="M 41.367188 150.763125 
L 309.207188 150.763125 
" clip-path="url(#pd2f3dce0ac)" style="fill: none; stroke: #ffffff; stroke-width: 0.8; stroke-linecap: round"/>
     </g>
     <g id="text_13">
      <!-- 3.0 -->
      <g style="fill: #262626" transform="translate(20.467188 154.342031)scale(0.1 -0.1)">
       <use xlink:href="#ArialMT-33"/>
       <use xlink:href="#ArialMT-2e" x="55.615234"/>
       <use xlink:href="#ArialMT-30" x="83.398438"/>
      </g>
     </g>
    </g>
    <g id="ytick_6">
     <g id="line2d_13">
      <path d="M 41.367188 123.583125 
L 309.207188 123.583125 
" clip-path="url(#pd2f3dce0ac)" style="fill: none; stroke: #ffffff; stroke-width: 0.8; stroke-linecap: round"/>
     </g>
     <g id="text_14">
      <!-- 3.5 -->
      <g style="fill: #262626" transform="translate(20.467188 127.162031)scale(0.1 -0.1)">
       <use xlink:href="#ArialMT-33"/>
       <use xlink:href="#ArialMT-2e" x="55.615234"/>
       <use xlink:href="#ArialMT-35" x="83.398438"/>
      </g>
     </g>
    </g>
    <g id="ytick_7">
     <g id="line2d_14">
      <path d="M 41.367188 96.403125 
L 309.207188 96.403125 
" clip-path="url(#pd2f3dce0ac)" style="fill: none; stroke: #ffffff; stroke-width: 0.8; stroke-linecap: round"/>
     </g>
     <g id="text_15">
      <!-- 4.0 -->
      <g style="fill: #262626" transform="translate(20.467188 99.982031)scale(0.1 -0.1)">
       <use xlink:href="#ArialMT-34"/>
       <use xlink:href="#ArialMT-2e" x="55.615234"/>
       <use xlink:href="#ArialMT-30" x="83.398438"/>
      </g>
     </g>
    </g>
    <g id="ytick_8">
     <g id="line2d_15">
      <path d="M 41.367188 69.223125 
L 309.207188 69.223125 
" clip-path="url(#pd2f3dce0ac)" style="fill: none; stroke: #ffffff; stroke-width: 0.8; stroke-linecap: round"/>
     </g>
     <g id="text_16">
      <!-- 4.5 -->
      <g style="fill: #262626" transform="translate(20.467188 72.802031)scale(0.1 -0.1)">
       <use xlink:href="#ArialMT-34"/>
       <use xlink:href="#ArialMT-2e" x="55.615234"/>
       <use xlink:href="#ArialMT-35" x="83.398438"/>
      </g>
     </g>
    </g>
    <g id="ytick_9">
     <g id="line2d_16">
      <path d="M 41.367188 42.043125 
L 309.207188 42.043125 
" clip-path="url(#pd2f3dce0ac)" style="fill: none; stroke: #ffffff; stroke-width: 0.8; stroke-linecap: round"/>
     </g>
     <g id="text_17">
      <!-- 5.0 -->
      <g style="fill: #262626" transform="translate(20.467188 45.622031)scale(0.1 -0.1)">
       <use xlink:href="#ArialMT-35"/>
       <use xlink:href="#ArialMT-2e" x="55.615234"/>
       <use xlink:href="#ArialMT-30" x="83.398438"/>
      </g>
     </g>
    </g>
    <g id="text_18">
     <!-- Predictor: ffmq_ds4 -->
     <g style="fill: #262626" transform="translate(14.479688 194.024844)rotate(-90)scale(0.1 -0.1)">
      <defs>
       <path id="ArialMT-66" d="M 556 0 
L 556 2881 
L 59 2881 
L 59 3319 
L 556 3319 
L 556 3672 
Q 556 4006 616 4169 
Q 697 4388 901 4523 
Q 1106 4659 1475 4659 
Q 1713 4659 2000 4603 
L 1916 4113 
Q 1741 4144 1584 4144 
Q 1328 4144 1222 4034 
Q 1116 3925 1116 3625 
L 1116 3319 
L 1763 3319 
L 1763 2881 
L 1116 2881 
L 1116 0 
L 556 0 
z
" transform="scale(0.015625)"/>
       <path id="ArialMT-6d" d="M 422 0 
L 422 3319 
L 925 3319 
L 925 2853 
Q 1081 3097 1340 3245 
Q 1600 3394 1931 3394 
Q 2300 3394 2536 3241 
Q 2772 3088 2869 2813 
Q 3263 3394 3894 3394 
Q 4388 3394 4653 3120 
Q 4919 2847 4919 2278 
L 4919 0 
L 4359 0 
L 4359 2091 
Q 4359 2428 4304 2576 
Q 4250 2725 4106 2815 
Q 3963 2906 3769 2906 
Q 3419 2906 3187 2673 
Q 2956 2441 2956 1928 
L 2956 0 
L 2394 0 
L 2394 2156 
Q 2394 2531 2256 2718 
Q 2119 2906 1806 2906 
Q 1569 2906 1367 2781 
Q 1166 2656 1075 2415 
Q 984 2175 984 1722 
L 984 0 
L 422 0 
z
" transform="scale(0.015625)"/>
       <path id="ArialMT-71" d="M 2538 -1272 
L 2538 353 
Q 2406 169 2170 47 
Q 1934 -75 1669 -75 
Q 1078 -75 651 397 
Q 225 869 225 1691 
Q 225 2191 398 2587 
Q 572 2984 901 3189 
Q 1231 3394 1625 3394 
Q 2241 3394 2594 2875 
L 2594 3319 
L 3100 3319 
L 3100 -1272 
L 2538 -1272 
z
M 803 1669 
Q 803 1028 1072 708 
Q 1341 388 1716 388 
Q 2075 388 2334 692 
Q 2594 997 2594 1619 
Q 2594 2281 2320 2615 
Q 2047 2950 1678 2950 
Q 1313 2950 1058 2639 
Q 803 2328 803 1669 
z
" transform="scale(0.015625)"/>
      </defs>
      <use xlink:href="#ArialMT-50"/>
      <use xlink:href="#ArialMT-72" x="66.699219"/>
      <use xlink:href="#ArialMT-65" x="100"/>
      <use xlink:href="#ArialMT-64" x="155.615234"/>
      <use xlink:href="#ArialMT-69" x="211.230469"/>
      <use xlink:href="#ArialMT-63" x="233.447266"/>
      <use xlink:href="#ArialMT-74" x="283.447266"/>
      <use xlink:href="#ArialMT-6f" x="311.230469"/>
      <use xlink:href="#ArialMT-72" x="366.845703"/>
      <use xlink:href="#ArialMT-3a" x="400.146484"/>
      <use xlink:href="#ArialMT-20" x="427.929688"/>
      <use xlink:href="#ArialMT-66" x="455.712891"/>
      <use xlink:href="#ArialMT-66" x="481.746094"/>
      <use xlink:href="#ArialMT-6d" x="509.529297"/>
      <use xlink:href="#ArialMT-71" x="592.830078"/>
      <use xlink:href="#ArialMT-5f" x="648.445312"/>
      <use xlink:href="#ArialMT-64" x="704.060547"/>
      <use xlink:href="#ArialMT-73" x="759.675781"/>
      <use xlink:href="#ArialMT-34" x="809.675781"/>
     </g>
    </g>
   </g>
   <g id="PathCollection_1">
    <path d="M 125.94824 156.90947 
L 140.045082 159.578368 
L 154.141924 159.78394 
L 168.238766 159.99023 
L 182.335609 160.197242 
L 196.432451 160.404978 
L 210.529293 160.613443 
L 224.626135 159.514272 
L 236.118002 156.48523 
L 234.363834 145.04102 
L 224.626135 142.666235 
L 210.529293 141.643995 
L 196.432451 141.829296 
L 182.335609 142.014266 
L 168.238766 142.198908 
L 154.141924 142.383221 
L 140.045082 142.567206 
L 126.053507 145.04102 
L 125.94824 145.557592 
L 125.163726 156.48523 
z
" clip-path="url(#pd2f3dce0ac)" style="fill: #4b64d5"/>
   </g>
   <g id="PathCollection_2">
    <path d="M 125.94824 169.620103 
L 140.045082 172.266035 
L 154.141924 172.493715 
L 168.238766 172.722189 
L 182.335609 172.951463 
L 196.432451 173.18154 
L 210.529293 173.412424 
L 224.626135 172.328242 
L 238.722977 168.612577 
L 241.314725 167.929441 
L 252.819819 164.896912 
L 266.916661 161.181247 
L 281.013503 157.465583 
L 284.732857 156.48523 
L 282.978689 145.04102 
L 281.013503 144.561759 
L 266.916661 141.123887 
L 252.819819 137.686014 
L 238.722977 134.248141 
L 236.05222 133.596809 
L 224.626135 130.810268 
L 210.529293 129.795082 
L 196.432451 129.990946 
L 182.335609 130.186462 
L 168.238766 130.38163 
L 154.141924 130.57645 
L 140.045082 130.770925 
L 125.94824 133.264807 
L 125.288787 133.596809 
L 111.851398 140.371392 
L 102.610134 145.04102 
L 101.658882 156.48523 
L 111.851398 162.046584 
L 122.779409 167.929441 
z
M 125.163726 156.48523 
L 125.94824 145.557592 
L 126.053507 145.04102 
L 140.045082 142.567206 
L 154.141924 142.383221 
L 168.238766 142.198908 
L 182.335609 142.014266 
L 196.432451 141.829296 
L 210.529293 141.643995 
L 224.626135 142.666235 
L 234.363834 145.04102 
L 236.118002 156.48523 
L 224.626135 159.514272 
L 210.529293 160.613443 
L 196.432451 160.404978 
L 182.335609 160.197242 
L 168.238766 159.99023 
L 154.141924 159.78394 
L 140.045082 159.578368 
L 125.94824 156.90947 
z
" clip-path="url(#pd2f3dce0ac)" style="fill: #6f92f3"/>
   </g>
   <g id="PathCollection_3">
    <path d="M 140.045082 259.483125 
L 154.141924 259.483125 
L 168.238766 259.483125 
L 182.335609 259.483125 
L 196.432451 259.483125 
L 210.529293 259.483125 
L 224.626135 259.483125 
L 228.437292 259.483125 
L 224.626135 256.880974 
L 210.529293 254.16875 
L 196.432451 254.912876 
L 182.335609 255.657002 
L 168.238766 256.401129 
L 154.141924 257.145255 
L 140.045082 257.889381 
L 136.717401 259.483125 
z
" clip-path="url(#pd2f3dce0ac)" style="fill: #97b8ff"/>
    <path d="M 125.94824 182.330736 
L 140.045082 184.953702 
L 154.141924 185.203489 
L 168.238766 185.454149 
L 182.335609 185.705684 
L 196.432451 185.958101 
L 210.529293 186.211404 
L 224.626135 185.142212 
L 238.722977 181.426547 
L 246.511448 179.373651 
L 252.819819 177.710882 
L 266.916661 173.995217 
L 281.013503 170.279552 
L 289.92958 167.929441 
L 295.110345 166.563888 
L 309.207188 162.848223 
L 309.207188 156.48523 
L 309.207188 145.04102 
L 309.207188 139.581539 
L 295.110345 136.143666 
L 284.667074 133.596809 
L 281.013503 132.705793 
L 266.916661 129.26792 
L 252.819819 125.830048 
L 238.722977 122.392175 
L 237.740605 122.152599 
L 224.626135 118.954302 
L 210.529293 117.946168 
L 196.432451 118.152597 
L 182.335609 118.358658 
L 168.238766 118.564352 
L 154.141924 118.76968 
L 140.045082 118.974643 
L 125.94824 121.469985 
L 124.58929 122.152599 
L 111.851398 128.559969 
L 101.860824 133.596809 
L 97.754556 135.66994 
L 83.657714 142.79998 
L 79.235146 145.04102 
L 78.154039 156.48523 
L 83.657714 159.543225 
L 97.754556 167.276963 
L 98.955698 167.929441 
L 111.851398 174.871559 
L 120.329512 179.373651 
z
M 122.779409 167.929441 
L 111.851398 162.046584 
L 101.658882 156.48523 
L 102.610134 145.04102 
L 111.851398 140.371392 
L 125.288787 133.596809 
L 125.94824 133.264807 
L 140.045082 130.770925 
L 154.141924 130.57645 
L 168.238766 130.38163 
L 182.335609 130.186462 
L 196.432451 129.990946 
L 210.529293 129.795082 
L 224.626135 130.810268 
L 236.05222 133.596809 
L 238.722977 134.248141 
L 252.819819 137.686014 
L 266.916661 141.123887 
L 281.013503 144.561759 
L 282.978689 145.04102 
L 284.732857 156.48523 
L 281.013503 157.465583 
L 266.916661 161.181247 
L 252.819819 164.896912 
L 241.314725 167.929441 
L 238.722977 168.612577 
L 224.626135 172.328242 
L 210.529293 173.412424 
L 196.432451 173.18154 
L 182.335609 172.951463 
L 168.238766 172.722189 
L 154.141924 172.493715 
L 140.045082 172.266035 
L 125.94824 169.620103 
z
" clip-path="url(#pd2f3dce0ac)" style="fill: #97b8ff"/>
   </g>
   <g id="PathCollection_4">
    <path d="M 111.851398 259.483125 
L 125.94824 259.483125 
L 136.717401 259.483125 
L 140.045082 257.889381 
L 154.141924 257.145255 
L 168.238766 256.401129 
L 182.335609 255.657002 
L 196.432451 254.912876 
L 210.529293 254.16875 
L 224.626135 256.880974 
L 228.437292 259.483125 
L 238.722977 259.483125 
L 252.819819 259.483125 
L 266.916661 259.483125 
L 277.052147 259.483125 
L 266.916661 252.562901 
L 260.290748 248.038914 
L 252.819819 242.937974 
L 243.52935 236.594704 
L 238.722977 233.313048 
L 226.767952 225.150493 
L 224.626135 223.688121 
L 210.529293 220.975896 
L 196.432451 221.720023 
L 182.335609 222.464149 
L 168.238766 223.208275 
L 154.141924 223.952402 
L 140.045082 224.696528 
L 139.097472 225.150493 
L 125.94824 231.449476 
L 122.083769 236.594704 
L 113.487064 248.038914 
L 111.851398 250.216117 
L 104.888704 259.483125 
z
" clip-path="url(#pd2f3dce0ac)" style="fill: #bcd2f7"/>
    <path d="M 125.94824 195.04137 
L 140.045082 197.641369 
L 154.141924 197.913264 
L 168.238766 198.186108 
L 182.335609 198.459906 
L 196.432451 198.734663 
L 210.529293 199.010384 
L 224.626135 197.956182 
L 238.722977 194.240517 
L 251.70817 190.817862 
L 252.819819 190.524852 
L 266.916661 186.809187 
L 281.013503 183.093522 
L 295.110345 179.377857 
L 295.126302 179.373651 
L 309.207188 175.662192 
L 309.207188 167.929441 
L 309.207188 162.848223 
L 295.110345 166.563888 
L 289.92958 167.929441 
L 281.013503 170.279552 
L 266.916661 173.995217 
L 252.819819 177.710882 
L 246.511448 179.373651 
L 238.722977 181.426547 
L 224.626135 185.142212 
L 210.529293 186.211404 
L 196.432451 185.958101 
L 182.335609 185.705684 
L 168.238766 185.454149 
L 154.141924 185.203489 
L 140.045082 184.953702 
L 125.94824 182.330736 
L 120.329512 179.373651 
L 111.851398 174.871559 
L 98.955698 167.929441 
L 97.754556 167.276963 
L 83.657714 159.543225 
L 78.154039 156.48523 
L 79.235146 145.04102 
L 83.657714 142.79998 
L 97.754556 135.66994 
L 101.860824 133.596809 
L 111.851398 128.559969 
L 124.58929 122.152599 
L 125.94824 121.469985 
L 140.045082 118.974643 
L 154.141924 118.76968 
L 168.238766 118.564352 
L 182.335609 118.358658 
L 196.432451 118.152597 
L 210.529293 117.946168 
L 224.626135 118.954302 
L 237.740605 122.152599 
L 238.722977 122.392175 
L 252.819819 125.830048 
L 266.916661 129.26792 
L 281.013503 132.705793 
L 284.667074 133.596809 
L 295.110345 136.143666 
L 309.207188 139.581539 
L 309.207188 133.596809 
L 309.207188 127.725572 
L 295.110345 124.2877 
L 286.35546 122.152599 
L 281.013503 120.849827 
L 266.916661 117.411954 
L 252.819819 113.974081 
L 239.428991 110.708388 
L 238.722977 110.536209 
L 224.626135 107.098336 
L 210.529293 106.097255 
L 196.432451 106.314248 
L 182.335609 106.530854 
L 168.238766 106.747074 
L 154.141924 106.96291 
L 140.045082 107.178362 
L 125.94824 109.675163 
L 123.886608 110.708388 
L 111.851398 116.748547 
L 101.10811 122.152599 
L 97.754556 123.841869 
L 83.657714 130.955215 
L 78.43286 133.596809 
L 69.560872 138.08867 
L 55.860159 145.04102 
L 55.46403 148.79861 
L 54.649196 156.48523 
L 55.46403 156.946424 
L 69.560872 164.847171 
L 75.131987 167.929441 
L 83.657714 172.603167 
L 96.178162 179.373651 
L 97.754556 180.218355 
L 111.851398 187.696534 
L 117.811289 190.817862 
z
" clip-path="url(#pd2f3dce0ac)" style="fill: #bcd2f7"/>
   </g>
   <g id="PathCollection_5">
    <path d="M 83.657714 259.483125 
L 97.754556 259.483125 
L 104.888704 259.483125 
L 111.851398 250.216117 
L 113.487064 248.038914 
L 122.083769 236.594704 
L 125.94824 231.449476 
L 139.097472 225.150493 
L 140.045082 224.696528 
L 154.141924 223.952402 
L 168.238766 223.208275 
L 182.335609 222.464149 
L 196.432451 221.720023 
L 210.529293 220.975896 
L 224.626135 223.688121 
L 226.767952 225.150493 
L 238.722977 233.313048 
L 243.52935 236.594704 
L 252.819819 242.937974 
L 260.290748 248.038914 
L 266.916661 252.562901 
L 277.052147 259.483125 
L 281.013503 259.483125 
L 295.110345 259.483125 
L 309.207188 259.483125 
L 309.207188 248.244828 
L 308.905603 248.038914 
L 295.110345 238.619901 
L 292.144205 236.594704 
L 281.013503 228.994974 
L 275.382807 225.150493 
L 266.916661 219.370048 
L 258.621409 213.706283 
L 256.904893 202.262072 
L 266.916661 199.623157 
L 281.013503 195.907492 
L 295.110345 192.191827 
L 300.323025 190.817862 
L 309.207188 188.476162 
L 309.207188 179.373651 
L 309.207188 175.662192 
L 295.126302 179.373651 
L 295.110345 179.377857 
L 281.013503 183.093522 
L 266.916661 186.809187 
L 252.819819 190.524852 
L 251.70817 190.817862 
L 238.722977 194.240517 
L 224.626135 197.956182 
L 210.529293 199.010384 
L 196.432451 198.734663 
L 182.335609 198.459906 
L 168.238766 198.186108 
L 154.141924 197.913264 
L 140.045082 197.641369 
L 125.94824 195.04137 
L 117.811289 190.817862 
L 111.851398 187.696534 
L 97.754556 180.218355 
L 96.178162 179.373651 
L 83.657714 172.603167 
L 75.131987 167.929441 
L 69.560872 164.847171 
L 55.46403 156.946424 
L 54.649196 156.48523 
L 55.46403 148.79861 
L 55.860159 145.04102 
L 69.560872 138.08867 
L 78.43286 133.596809 
L 83.657714 130.955215 
L 97.754556 123.841869 
L 101.10811 122.152599 
L 111.851398 116.748547 
L 123.886608 110.708388 
L 125.94824 109.675163 
L 140.045082 107.178362 
L 154.141924 106.96291 
L 168.238766 106.747074 
L 182.335609 106.530854 
L 196.432451 106.314248 
L 210.529293 106.097255 
L 224.626135 107.098336 
L 238.722977 110.536209 
L 239.428991 110.708388 
L 252.819819 113.974081 
L 266.916661 117.411954 
L 281.013503 120.849827 
L 286.35546 122.152599 
L 295.110345 124.2877 
L 309.207188 127.725572 
L 309.207188 122.152599 
L 309.207188 115.869606 
L 295.110345 112.431733 
L 288.043846 110.708388 
L 281.013503 108.993861 
L 266.916661 105.555988 
L 252.819819 102.118115 
L 241.117377 99.264178 
L 238.722977 96.377976 
L 231.623231 87.819967 
L 234.606526 76.375757 
L 237.589822 64.931546 
L 238.722977 60.584652 
L 240.573117 53.487336 
L 243.556412 42.043125 
L 238.722977 42.043125 
L 224.626135 42.043125 
L 210.529293 42.043125 
L 196.432451 42.043125 
L 182.335609 42.043125 
L 168.238766 42.043125 
L 154.141924 42.043125 
L 140.045082 42.043125 
L 125.94824 42.043125 
L 121.801824 42.043125 
L 123.310014 53.487336 
L 124.811252 64.931546 
L 125.94824 73.634272 
L 126.956708 76.375757 
L 131.152325 87.819967 
L 125.94824 92.391073 
L 123.180719 99.264178 
L 111.851398 104.937124 
L 100.351968 110.708388 
L 97.754556 112.013799 
L 83.657714 119.110451 
L 77.626929 122.152599 
L 69.560872 126.227164 
L 55.46403 133.364023 
L 55.004897 133.596809 
L 41.367188 140.521114 
L 41.367188 145.04102 
L 41.367188 156.48523 
L 41.367188 162.32583 
L 51.308275 167.929441 
L 55.46403 170.250105 
L 69.560872 178.027856 
L 72.026812 179.373651 
L 83.657714 185.66311 
L 93.323164 190.817862 
L 97.754556 193.159747 
L 111.851398 200.521509 
L 115.221844 202.262072 
L 114.347874 213.706283 
L 111.851398 217.030251 
L 105.75208 225.150493 
L 97.754556 235.796205 
L 97.154631 236.594704 
L 88.555526 248.038914 
L 83.657714 254.556235 
L 79.954765 259.483125 
z
" clip-path="url(#pd2f3dce0ac)" style="fill: #dddcdc"/>
   </g>
   <g id="PathCollection_6">
    <path d="M 55.46403 259.483125 
L 69.560872 259.483125 
L 79.954765 259.483125 
L 83.657714 254.556235 
L 88.555526 248.038914 
L 97.154631 236.594704 
L 97.754556 235.796205 
L 105.75208 225.150493 
L 111.851398 217.030251 
L 114.347874 213.706283 
L 115.221844 202.262072 
L 111.851398 200.521509 
L 97.754556 193.159747 
L 93.323164 190.817862 
L 83.657714 185.66311 
L 72.026812 179.373651 
L 69.560872 178.027856 
L 55.46403 170.250105 
L 51.308275 167.929441 
L 41.367188 162.32583 
L 41.367188 167.929441 
L 41.367188 175.754824 
L 47.875462 179.373651 
L 55.46403 183.553785 
L 68.835038 190.817862 
L 69.560872 191.208541 
L 83.657714 198.723052 
L 90.387417 202.262072 
L 89.423536 213.706283 
L 83.657714 221.380846 
L 80.825343 225.150493 
L 72.225493 236.594704 
L 69.560872 240.14019 
L 63.623988 248.038914 
L 55.46403 258.893614 
L 55.020825 259.483125 
z
" clip-path="url(#pd2f3dce0ac)" style="fill: #f3c8b2"/>
    <path d="M 309.207188 248.244828 
L 309.207188 248.038914 
L 309.207188 236.594704 
L 309.207188 225.150493 
L 309.207188 215.051974 
L 307.236263 213.706283 
L 305.519748 202.262072 
L 309.207188 201.290132 
L 309.207188 190.817862 
L 309.207188 188.476162 
L 300.323025 190.817862 
L 295.110345 192.191827 
L 281.013503 195.907492 
L 266.916661 199.623157 
L 256.904893 202.262072 
L 258.621409 213.706283 
L 266.916661 219.370048 
L 275.382807 225.150493 
L 281.013503 228.994974 
L 292.144205 236.594704 
L 295.110345 238.619901 
L 308.905603 248.038914 
z
" clip-path="url(#pd2f3dce0ac)" style="fill: #f3c8b2"/>
    <path d="M 55.004897 133.596809 
L 55.46403 133.364023 
L 69.560872 126.227164 
L 77.626929 122.152599 
L 83.657714 119.110451 
L 97.754556 112.013799 
L 100.351968 110.708388 
L 111.851398 104.937124 
L 123.180719 99.264178 
L 125.94824 92.391073 
L 131.152325 87.819967 
L 126.956708 76.375757 
L 125.94824 73.634272 
L 124.811252 64.931546 
L 123.310014 53.487336 
L 121.801824 42.043125 
L 111.851398 42.043125 
L 97.940407 42.043125 
L 99.503726 53.487336 
L 101.059837 64.931546 
L 102.608792 76.375757 
L 104.150638 87.819967 
L 99.592376 99.264178 
L 97.754556 100.185729 
L 83.657714 107.265686 
L 76.817329 110.708388 
L 69.560872 114.365657 
L 55.46403 121.485727 
L 54.145749 122.152599 
L 41.367188 128.625982 
L 41.367188 133.596809 
L 41.367188 140.521114 
z
" clip-path="url(#pd2f3dce0ac)" style="fill: #f3c8b2"/>
    <path d="M 295.110345 112.431733 
L 309.207188 115.869606 
L 309.207188 110.708388 
L 309.207188 104.01364 
L 295.110345 100.575767 
L 289.732232 99.264178 
L 281.013503 88.754653 
L 280.238086 87.819967 
L 281.013503 84.845391 
L 283.221381 76.375757 
L 286.204676 64.931546 
L 289.187972 53.487336 
L 292.171267 42.043125 
L 281.013503 42.043125 
L 266.916661 42.043125 
L 252.819819 42.043125 
L 243.556412 42.043125 
L 240.573117 53.487336 
L 238.722977 60.584652 
L 237.589822 64.931546 
L 234.606526 76.375757 
L 231.623231 87.819967 
L 238.722977 96.377976 
L 241.117377 99.264178 
L 252.819819 102.118115 
L 266.916661 105.555988 
L 281.013503 108.993861 
L 288.043846 110.708388 
z
" clip-path="url(#pd2f3dce0ac)" style="fill: #f3c8b2"/>
   </g>
   <g id="PathCollection_7">
    <path d="M 55.46403 258.893614 
L 63.623988 248.038914 
L 69.560872 240.14019 
L 72.225493 236.594704 
L 80.825343 225.150493 
L 83.657714 221.380846 
L 89.423536 213.706283 
L 90.387417 202.262072 
L 83.657714 198.723052 
L 69.560872 191.208541 
L 68.835038 190.817862 
L 55.46403 183.553785 
L 47.875462 179.373651 
L 41.367188 175.754824 
L 41.367188 179.373651 
L 41.367188 189.183817 
L 44.346912 190.817862 
L 55.46403 196.857466 
L 65.55299 202.262072 
L 64.499199 213.706283 
L 55.898605 225.150493 
L 55.46403 225.728695 
L 47.296356 236.594704 
L 41.367188 244.481433 
L 41.367188 248.038914 
L 41.367188 259.483125 
L 55.020825 259.483125 
z
" clip-path="url(#pd2f3dce0ac)" style="fill: #f6a586"/>
    <path d="M 309.207188 215.051974 
L 309.207188 213.706283 
L 309.207188 202.262072 
L 309.207188 201.290132 
L 305.519748 202.262072 
L 307.236263 213.706283 
z
" clip-path="url(#pd2f3dce0ac)" style="fill: #f6a586"/>
    <path d="M 54.145749 122.152599 
L 55.46403 121.485727 
L 69.560872 114.365657 
L 76.817329 110.708388 
L 83.657714 107.265686 
L 97.754556 100.185729 
L 99.592376 99.264178 
L 104.150638 87.819967 
L 102.608792 76.375757 
L 101.059837 64.931546 
L 99.503726 53.487336 
L 97.940407 42.043125 
L 97.754556 42.043125 
L 83.657714 42.043125 
L 74.07899 42.043125 
L 75.697437 53.487336 
L 77.308423 64.931546 
L 78.911999 76.375757 
L 80.508216 87.819967 
L 76.004033 99.264178 
L 69.560872 102.504151 
L 55.46403 109.607432 
L 53.282689 110.708388 
L 41.367188 116.73085 
L 41.367188 122.152599 
L 41.367188 128.625982 
z
" clip-path="url(#pd2f3dce0ac)" style="fill: #f6a586"/>
    <path d="M 295.110345 100.575767 
L 309.207188 104.01364 
L 309.207188 99.264178 
L 309.207188 87.819967 
L 309.207188 76.375757 
L 309.207188 64.931546 
L 309.207188 53.487336 
L 309.207188 42.043125 
L 295.110345 42.043125 
L 292.171267 42.043125 
L 289.187972 53.487336 
L 286.204676 64.931546 
L 283.221381 76.375757 
L 281.013503 84.845391 
L 280.238086 87.819967 
L 281.013503 88.754653 
L 289.732232 99.264178 
z
" clip-path="url(#pd2f3dce0ac)" style="fill: #f6a586"/>
   </g>
   <g id="PathCollection_8">
    <path d="M 47.296356 236.594704 
L 55.46403 225.728695 
L 55.898605 225.150493 
L 64.499199 213.706283 
L 65.55299 202.262072 
L 55.46403 196.857466 
L 44.346912 190.817862 
L 41.367188 189.183817 
L 41.367188 190.817862 
L 41.367188 202.262072 
L 41.367188 213.706283 
L 41.367188 225.150493 
L 41.367188 236.594704 
L 41.367188 244.481433 
z
" clip-path="url(#pd2f3dce0ac)" style="fill: #e7745b"/>
    <path d="M 53.282689 110.708388 
L 55.46403 109.607432 
L 69.560872 102.504151 
L 76.004033 99.264178 
L 80.508216 87.819967 
L 78.911999 76.375757 
L 77.308423 64.931546 
L 75.697437 53.487336 
L 74.07899 42.043125 
L 69.560872 42.043125 
L 55.46403 42.043125 
L 50.217573 42.043125 
L 51.891148 53.487336 
L 53.557008 64.931546 
L 55.215206 76.375757 
L 55.46403 78.09759 
L 56.865795 87.819967 
L 55.46403 91.419195 
L 52.41569 99.264178 
L 41.367188 104.835718 
L 41.367188 110.708388 
L 41.367188 116.73085 
z
" clip-path="url(#pd2f3dce0ac)" style="fill: #e7745b"/>
   </g>
   <g id="PathCollection_9">
    <path d="M 52.41569 99.264178 
L 55.46403 91.419195 
L 56.865795 87.819967 
L 55.46403 78.09759 
L 55.215206 76.375757 
L 53.557008 64.931546 
L 51.891148 53.487336 
L 50.217573 42.043125 
L 41.367188 42.043125 
L 41.367188 53.487336 
L 41.367188 64.931546 
L 41.367188 76.375757 
L 41.367188 87.819967 
L 41.367188 99.264178 
L 41.367188 104.835718 
z
" clip-path="url(#pd2f3dce0ac)" style="fill: #c83836"/>
   </g>
   <g id="PathCollection_10"/>
   <g id="PathCollection_11">
    <path d="M 197.271823 141.818262 
L 210.529293 141.643995 
L 224.626135 142.666235 
L 234.363834 145.04102 
L 236.118002 156.48523 
L 224.626135 159.514272 
L 210.529293 160.613443 
L 196.432451 160.404978 
L 182.335609 160.197242 
L 168.238766 159.99023 
L 154.141924 159.78394 
L 140.045082 159.578368 
L 125.94824 156.90947 
L 125.163726 156.48523 
L 125.94824 145.557592 
L 126.053507 145.04102 
L 140.045082 142.567206 
L 154.141924 142.383221 
L 167.399389 142.209882 
" clip-path="url(#pd2f3dce0ac)" style="fill: none; stroke: #000000; stroke-width: 0.5"/>
   </g>
   <g id="PathCollection_12">
    <path d="M 167.337591 172.707584 
L 154.141924 172.493715 
L 140.045082 172.266035 
L 125.94824 169.620103 
L 122.779409 167.929441 
L 111.851398 162.046584 
L 101.658882 156.48523 
L 102.610134 145.04102 
L 111.851398 140.371392 
L 125.288787 133.596809 
L 125.94824 133.264807 
L 140.045082 130.770925 
L 154.141924 130.57645 
L 168.238766 130.38163 
L 182.335609 130.186462 
L 196.432451 129.990946 
L 210.529293 129.795082 
L 224.626135 130.810268 
L 236.05222 133.596809 
L 238.722977 134.248141 
L 252.819819 137.686014 
L 266.916661 141.123887 
L 281.013503 144.561759 
L 282.978689 145.04102 
L 284.732857 156.48523 
L 281.013503 157.465583 
L 266.916661 161.181247 
L 252.819819 164.896912 
L 241.314725 167.929441 
L 238.722977 168.612577 
L 224.626135 172.328242 
L 210.529293 173.412424 
L 197.33361 173.196299 
" clip-path="url(#pd2f3dce0ac)" style="fill: none; stroke: #000000; stroke-width: 0.5"/>
   </g>
   <g id="PathCollection_13">
    <path d="M 136.717401 259.483125 
L 140.045082 257.889381 
L 154.141924 257.145255 
L 167.356463 256.447703 
" clip-path="url(#pd2f3dce0ac)" style="fill: none; stroke: #000000; stroke-width: 0.5"/>
    <path d="M 197.314754 254.866302 
L 210.529293 254.16875 
L 224.626135 256.880974 
L 228.437292 259.483125 
" clip-path="url(#pd2f3dce0ac)" style="fill: none; stroke: #000000; stroke-width: 0.5"/>
    <path d="M 309.207188 162.848223 
L 295.110345 166.563888 
L 289.92958 167.929441 
L 281.013503 170.279552 
L 266.916661 173.995217 
L 252.819819 177.710882 
L 246.511448 179.373651 
L 238.722977 181.426547 
L 224.626135 185.142212 
L 210.529293 186.211404 
L 196.432451 185.958101 
L 182.335609 185.705684 
L 168.238766 185.454149 
L 154.141924 185.203489 
L 140.045082 184.953702 
L 125.94824 182.330736 
L 120.329512 179.373651 
L 111.851398 174.871559 
L 98.955698 167.929441 
L 97.754556 167.276963 
L 83.657714 159.543225 
L 78.154039 156.48523 
L 79.235146 145.04102 
L 83.657714 142.79998 
L 97.754556 135.66994 
L 101.860824 133.596809 
L 111.851398 128.559969 
L 124.58929 122.152599 
L 125.94824 121.469985 
L 139.157217 119.131808 
" clip-path="url(#pd2f3dce0ac)" style="fill: none; stroke: #000000; stroke-width: 0.5"/>
    <path d="M 169.140333 118.551197 
L 182.335609 118.358658 
L 196.432451 118.152597 
L 210.529293 117.946168 
L 224.626135 118.954302 
L 237.740605 122.152599 
L 238.722977 122.392175 
L 252.819819 125.830048 
L 266.916661 129.26792 
L 281.013503 132.705793 
L 284.667074 133.596809 
L 295.110345 136.143666 
L 309.207188 139.581539 
" clip-path="url(#pd2f3dce0ac)" style="fill: none; stroke: #000000; stroke-width: 0.5"/>
   </g>
   <g id="PathCollection_14">
    <path d="M 104.888704 259.483125 
L 111.851398 250.216117 
L 113.487064 248.038914 
L 122.083769 236.594704 
L 125.94824 231.449476 
L 139.097472 225.150493 
L 140.045082 224.696528 
L 154.141924 223.952402 
L 168.238766 223.208275 
L 181.390892 222.514018 
" clip-path="url(#pd2f3dce0ac)" style="fill: none; stroke: #000000; stroke-width: 0.5"/>
    <path d="M 211.458286 221.154634 
L 224.626135 223.688121 
L 226.767952 225.150493 
L 238.722977 233.313048 
L 243.52935 236.594704 
L 252.819819 242.937974 
L 260.290748 248.038914 
L 266.916661 252.562901 
L 277.052147 259.483125 
" clip-path="url(#pd2f3dce0ac)" style="fill: none; stroke: #000000; stroke-width: 0.5"/>
    <path d="M 309.207188 175.662192 
L 295.126302 179.373651 
L 295.110345 179.377857 
L 281.013503 183.093522 
L 266.916661 186.809187 
L 252.819819 190.524852 
L 251.70817 190.817862 
L 238.722977 194.240517 
L 224.626135 197.956182 
L 210.529293 199.010384 
L 196.432451 198.734663 
L 182.335609 198.459906 
L 168.238766 198.186108 
L 154.141924 197.913264 
L 140.045082 197.641369 
L 125.94824 195.04137 
L 117.811289 190.817862 
L 111.851398 187.696534 
L 97.754556 180.218355 
L 96.178162 179.373651 
L 83.657714 172.603167 
L 75.131987 167.929441 
L 69.560872 164.847171 
L 55.46403 156.946424 
L 54.649196 156.48523 
L 55.46403 148.79861 
L 55.860159 145.04102 
L 69.560872 138.08867 
L 78.43286 133.596809 
L 83.657714 130.955215 
L 84.307111 130.627526 
" clip-path="url(#pd2f3dce0ac)" style="fill: none; stroke: #000000; stroke-width: 0.5"/>
    <path d="M 111.209635 117.071364 
L 111.851398 116.748547 
L 123.886608 110.708388 
L 125.94824 109.675163 
L 140.045082 107.178362 
L 154.141924 106.96291 
L 168.238766 106.747074 
L 182.335609 106.530854 
L 196.432451 106.314248 
L 210.529293 106.097255 
L 224.626135 107.098336 
L 238.722977 110.536209 
L 239.428991 110.708388 
L 252.819819 113.974081 
L 266.916661 117.411954 
L 281.013503 120.849827 
L 286.35546 122.152599 
L 295.110345 124.2877 
L 309.207188 127.725572 
" clip-path="url(#pd2f3dce0ac)" style="fill: none; stroke: #000000; stroke-width: 0.5"/>
   </g>
   <g id="PathCollection_15">
    <path d="M 79.954765 259.483125 
L 83.657714 254.556235 
L 88.555526 248.038914 
L 97.154631 236.594704 
L 97.754556 235.796205 
L 105.75208 225.150493 
L 111.851398 217.030251 
L 114.347874 213.706283 
L 114.3685 213.436191 
" clip-path="url(#pd2f3dce0ac)" style="fill: none; stroke: #000000; stroke-width: 0.5"/>
    <path d="M 98.555291 193.577913 
L 97.754556 193.159747 
L 93.323164 190.817862 
L 83.657714 185.66311 
L 72.026812 179.373651 
L 69.560872 178.027856 
L 55.46403 170.250105 
L 51.308275 167.929441 
L 41.367188 162.32583 
" clip-path="url(#pd2f3dce0ac)" style="fill: none; stroke: #000000; stroke-width: 0.5"/>
    <path d="M 309.207188 188.476162 
L 300.323025 190.817862 
L 295.110345 192.191827 
L 281.013503 195.907492 
L 266.916661 199.623157 
L 256.904893 202.262072 
L 257.886337 208.805477 
" clip-path="url(#pd2f3dce0ac)" style="fill: none; stroke: #000000; stroke-width: 0.5"/>
    <path d="M 279.30457 227.828163 
L 281.013503 228.994974 
L 292.144205 236.594704 
L 295.110345 238.619901 
L 308.905603 248.038914 
L 309.207188 248.244828 
" clip-path="url(#pd2f3dce0ac)" style="fill: none; stroke: #000000; stroke-width: 0.5"/>
    <path d="M 41.367188 140.521114 
L 55.004897 133.596809 
L 55.46403 133.364023 
L 69.560872 126.227164 
L 77.626929 122.152599 
L 83.657714 119.110451 
L 97.754556 112.013799 
L 98.445595 111.666496 
" clip-path="url(#pd2f3dce0ac)" style="fill: none; stroke: #000000; stroke-width: 0.5"/>
    <path d="M 124.05091 97.103068 
L 125.94824 92.391073 
L 131.152325 87.819967 
L 126.956708 76.375757 
L 125.94824 73.634272 
L 124.811252 64.931546 
L 123.310014 53.487336 
L 121.801824 42.043125 
" clip-path="url(#pd2f3dce0ac)" style="fill: none; stroke: #000000; stroke-width: 0.5"/>
    <path d="M 243.556412 42.043125 
L 240.573117 53.487336 
L 238.722977 60.584652 
L 237.589822 64.931546 
L 234.606526 76.375757 
L 231.656093 87.693906 
" clip-path="url(#pd2f3dce0ac)" style="fill: none; stroke: #000000; stroke-width: 0.5"/>
    <path d="M 255.690273 102.818148 
L 266.916661 105.555988 
L 281.013503 108.993861 
L 288.043846 110.708388 
L 295.110345 112.431733 
L 309.207188 115.869606 
" clip-path="url(#pd2f3dce0ac)" style="fill: none; stroke: #000000; stroke-width: 0.5"/>
   </g>
   <g id="PathCollection_16">
    <path d="M 55.020825 259.483125 
L 55.46403 258.893614 
L 63.623988 248.038914 
L 69.560872 240.14019 
L 72.225493 236.594704 
L 80.375858 225.748643 
" clip-path="url(#pd2f3dce0ac)" style="fill: none; stroke: #000000; stroke-width: 0.5"/>
    <path d="M 87.220815 200.596818 
L 83.657714 198.723052 
L 69.560872 191.208541 
L 68.835038 190.817862 
L 55.46403 183.553785 
L 47.875462 179.373651 
L 41.367188 175.754824 
" clip-path="url(#pd2f3dce0ac)" style="fill: none; stroke: #000000; stroke-width: 0.5"/>
    <path d="M 309.207188 201.290132 
L 305.519748 202.262072 
L 307.236263 213.706283 
L 309.207188 215.051974 
" clip-path="url(#pd2f3dce0ac)" style="fill: none; stroke: #000000; stroke-width: 0.5"/>
    <path d="M 41.367188 128.625982 
L 54.145749 122.152599 
L 55.46403 121.485727 
L 69.560872 114.365657 
L 76.817329 110.708388 
L 83.657714 107.265686 
L 84.294313 106.945962 
" clip-path="url(#pd2f3dce0ac)" style="fill: none; stroke: #000000; stroke-width: 0.5"/>
    <path d="M 104.058778 87.138147 
L 102.608792 76.375757 
L 101.059837 64.931546 
L 99.503726 53.487336 
L 97.940407 42.043125 
" clip-path="url(#pd2f3dce0ac)" style="fill: none; stroke: #000000; stroke-width: 0.5"/>
    <path d="M 292.171267 42.043125 
L 289.187972 53.487336 
L 286.204676 64.931546 
L 284.037626 73.244563 
" clip-path="url(#pd2f3dce0ac)" style="fill: none; stroke: #000000; stroke-width: 0.5"/>
    <path d="M 289.919516 99.309852 
L 295.110345 100.575767 
L 309.207188 104.01364 
" clip-path="url(#pd2f3dce0ac)" style="fill: none; stroke: #000000; stroke-width: 0.5"/>
   </g>
   <g id="PathCollection_17">
    <path d="M 41.367188 244.481433 
L 47.296356 236.594704 
L 55.46403 225.728695 
L 55.487484 225.697488 
" clip-path="url(#pd2f3dce0ac)" style="fill: none; stroke: #000000; stroke-width: 0.5"/>
    <path d="M 62.461284 200.605861 
L 55.46403 196.857466 
L 44.346912 190.817862 
L 41.367188 189.183817 
" clip-path="url(#pd2f3dce0ac)" style="fill: none; stroke: #000000; stroke-width: 0.5"/>
    <path d="M 41.367188 116.73085 
L 53.282689 110.708388 
L 55.46403 109.607432 
L 69.560872 102.504151 
L 73.590664 100.477751 
" clip-path="url(#pd2f3dce0ac)" style="fill: none; stroke: #000000; stroke-width: 0.5"/>
    <path d="M 78.433951 72.964079 
L 77.308423 64.931546 
L 75.697437 53.487336 
L 74.07899 42.043125 
" clip-path="url(#pd2f3dce0ac)" style="fill: none; stroke: #000000; stroke-width: 0.5"/>
   </g>
   <g id="PathCollection_18">
    <path d="M 41.367188 104.835718 
L 52.41569 99.264178 
L 54.987921 92.644472 
" clip-path="url(#pd2f3dce0ac)" style="fill: none; stroke: #000000; stroke-width: 0.5"/>
    <path d="M 53.312626 63.252677 
L 51.891148 53.487336 
L 50.217573 42.043125 
" clip-path="url(#pd2f3dce0ac)" style="fill: none; stroke: #000000; stroke-width: 0.5"/>
   </g>
   <g id="PathCollection_19"/>
   <g id="patch_3">
    <path d="M 41.367188 259.483125 
L 41.367188 42.043125 
" style="fill: none; stroke: #ffffff; stroke-width: 0.8; stroke-linejoin: miter; stroke-linecap: square"/>
   </g>
   <g id="patch_4">
    <path d="M 309.207188 259.483125 
L 309.207188 42.043125 
" style="fill: none; stroke: #ffffff; stroke-width: 0.8; stroke-linejoin: miter; stroke-linecap: square"/>
   </g>
   <g id="patch_5">
    <path d="M 41.367188 259.483125 
L 309.207188 259.483125 
" style="fill: none; stroke: #ffffff; stroke-width: 0.8; stroke-linejoin: miter; stroke-linecap: square"/>
   </g>
   <g id="patch_6">
    <path d="M 41.367188 42.043125 
L 309.207188 42.043125 
" style="fill: none; stroke: #ffffff; stroke-width: 0.8; stroke-linejoin: miter; stroke-linecap: square"/>
   </g>
   <g id="text_19">
    <!-- GB | target: audit dependence on -->
    <g style="fill: #262626" transform="translate(101.718438 14.479687)scale(0.1 -0.1)">
     <defs>
      <path id="ArialMT-47" d="M 2638 1797 
L 2638 2334 
L 4578 2338 
L 4578 638 
Q 4131 281 3656 101 
Q 3181 -78 2681 -78 
Q 2006 -78 1454 211 
Q 903 500 622 1047 
Q 341 1594 341 2269 
Q 341 2938 620 3517 
Q 900 4097 1425 4378 
Q 1950 4659 2634 4659 
Q 3131 4659 3532 4498 
Q 3934 4338 4162 4050 
Q 4391 3763 4509 3300 
L 3963 3150 
Q 3859 3500 3706 3700 
Q 3553 3900 3268 4020 
Q 2984 4141 2638 4141 
Q 2222 4141 1919 4014 
Q 1616 3888 1430 3681 
Q 1244 3475 1141 3228 
Q 966 2803 966 2306 
Q 966 1694 1177 1281 
Q 1388 869 1791 669 
Q 2194 469 2647 469 
Q 3041 469 3416 620 
Q 3791 772 3984 944 
L 3984 1797 
L 2638 1797 
z
" transform="scale(0.015625)"/>
      <path id="ArialMT-42" d="M 469 0 
L 469 4581 
L 2188 4581 
Q 2713 4581 3030 4442 
Q 3347 4303 3526 4014 
Q 3706 3725 3706 3409 
Q 3706 3116 3547 2856 
Q 3388 2597 3066 2438 
Q 3481 2316 3704 2022 
Q 3928 1728 3928 1328 
Q 3928 1006 3792 729 
Q 3656 453 3456 303 
Q 3256 153 2954 76 
Q 2653 0 2216 0 
L 469 0 
z
M 1075 2656 
L 2066 2656 
Q 2469 2656 2644 2709 
Q 2875 2778 2992 2937 
Q 3109 3097 3109 3338 
Q 3109 3566 3000 3739 
Q 2891 3913 2687 3977 
Q 2484 4041 1991 4041 
L 1075 4041 
L 1075 2656 
z
M 1075 541 
L 2216 541 
Q 2509 541 2628 563 
Q 2838 600 2978 687 
Q 3119 775 3209 942 
Q 3300 1109 3300 1328 
Q 3300 1584 3169 1773 
Q 3038 1963 2805 2039 
Q 2572 2116 2134 2116 
L 1075 2116 
L 1075 541 
z
" transform="scale(0.015625)"/>
      <path id="ArialMT-7c" d="M 588 -1347 
L 588 4659 
L 1078 4659 
L 1078 -1347 
L 588 -1347 
z
" transform="scale(0.015625)"/>
      <path id="ArialMT-61" d="M 2588 409 
Q 2275 144 1986 34 
Q 1697 -75 1366 -75 
Q 819 -75 525 192 
Q 231 459 231 875 
Q 231 1119 342 1320 
Q 453 1522 633 1644 
Q 813 1766 1038 1828 
Q 1203 1872 1538 1913 
Q 2219 1994 2541 2106 
Q 2544 2222 2544 2253 
Q 2544 2597 2384 2738 
Q 2169 2928 1744 2928 
Q 1347 2928 1158 2789 
Q 969 2650 878 2297 
L 328 2372 
Q 403 2725 575 2942 
Q 747 3159 1072 3276 
Q 1397 3394 1825 3394 
Q 2250 3394 2515 3294 
Q 2781 3194 2906 3042 
Q 3031 2891 3081 2659 
Q 3109 2516 3109 2141 
L 3109 1391 
Q 3109 606 3145 398 
Q 3181 191 3288 0 
L 2700 0 
Q 2613 175 2588 409 
z
M 2541 1666 
Q 2234 1541 1622 1453 
Q 1275 1403 1131 1340 
Q 988 1278 909 1158 
Q 831 1038 831 891 
Q 831 666 1001 516 
Q 1172 366 1500 366 
Q 1825 366 2078 508 
Q 2331 650 2450 897 
Q 2541 1088 2541 1459 
L 2541 1666 
z
" transform="scale(0.015625)"/>
      <path id="ArialMT-67" d="M 319 -275 
L 866 -356 
Q 900 -609 1056 -725 
Q 1266 -881 1628 -881 
Q 2019 -881 2231 -725 
Q 2444 -569 2519 -288 
Q 2563 -116 2559 434 
Q 2191 0 1641 0 
Q 956 0 581 494 
Q 206 988 206 1678 
Q 206 2153 378 2554 
Q 550 2956 876 3175 
Q 1203 3394 1644 3394 
Q 2231 3394 2613 2919 
L 2613 3319 
L 3131 3319 
L 3131 450 
Q 3131 -325 2973 -648 
Q 2816 -972 2473 -1159 
Q 2131 -1347 1631 -1347 
Q 1038 -1347 672 -1080 
Q 306 -813 319 -275 
z
M 784 1719 
Q 784 1066 1043 766 
Q 1303 466 1694 466 
Q 2081 466 2343 764 
Q 2606 1063 2606 1700 
Q 2606 2309 2336 2618 
Q 2066 2928 1684 2928 
Q 1309 2928 1046 2623 
Q 784 2319 784 1719 
z
" transform="scale(0.015625)"/>
      <path id="ArialMT-6e" d="M 422 0 
L 422 3319 
L 928 3319 
L 928 2847 
Q 1294 3394 1984 3394 
Q 2284 3394 2536 3286 
Q 2788 3178 2913 3003 
Q 3038 2828 3088 2588 
Q 3119 2431 3119 2041 
L 3119 0 
L 2556 0 
L 2556 2019 
Q 2556 2363 2490 2533 
Q 2425 2703 2258 2804 
Q 2091 2906 1866 2906 
Q 1506 2906 1245 2678 
Q 984 2450 984 1813 
L 984 0 
L 422 0 
z
" transform="scale(0.015625)"/>
     </defs>
     <use xlink:href="#ArialMT-47"/>
     <use xlink:href="#ArialMT-42" x="77.783203"/>
     <use xlink:href="#ArialMT-20" x="144.482422"/>
     <use xlink:href="#ArialMT-7c" x="172.265625"/>
     <use xlink:href="#ArialMT-20" x="198.242188"/>
     <use xlink:href="#ArialMT-74" x="226.025391"/>
     <use xlink:href="#ArialMT-61" x="253.808594"/>
     <use xlink:href="#ArialMT-72" x="309.423828"/>
     <use xlink:href="#ArialMT-67" x="342.724609"/>
     <use xlink:href="#ArialMT-65" x="398.339844"/>
     <use xlink:href="#ArialMT-74" x="453.955078"/>
     <use xlink:href="#ArialMT-3a" x="481.738281"/>
     <use xlink:href="#ArialMT-20" x="509.521484"/>
     <use xlink:href="#ArialMT-61" x="537.304688"/>
     <use xlink:href="#ArialMT-75" x="592.919922"/>
     <use xlink:href="#ArialMT-64" x="648.535156"/>
     <use xlink:href="#ArialMT-69" x="704.150391"/>
     <use xlink:href="#ArialMT-74" x="726.367188"/>
     <use xlink:href="#ArialMT-20" x="754.150391"/>
     <use xlink:href="#ArialMT-64" x="781.933594"/>
     <use xlink:href="#ArialMT-65" x="837.548828"/>
     <use xlink:href="#ArialMT-70" x="893.164062"/>
     <use xlink:href="#ArialMT-65" x="948.779297"/>
     <use xlink:href="#ArialMT-6e" x="1004.394531"/>
     <use xlink:href="#ArialMT-64" x="1060.009766"/>
     <use xlink:href="#ArialMT-65" x="1115.625"/>
     <use xlink:href="#ArialMT-6e" x="1171.240234"/>
     <use xlink:href="#ArialMT-63" x="1226.855469"/>
     <use xlink:href="#ArialMT-65" x="1276.855469"/>
     <use xlink:href="#ArialMT-20" x="1332.470703"/>
     <use xlink:href="#ArialMT-6f" x="1360.253906"/>
     <use xlink:href="#ArialMT-6e" x="1415.869141"/>
    </g>
    <!-- predictors: ffmq_ds4 &amp; upps_ur_1 -->
    <g style="fill: #262626" transform="translate(100.33875 25.32)scale(0.1 -0.1)">
     <defs>
      <path id="ArialMT-26" d="M 3041 541 
Q 2763 231 2434 76 
Q 2106 -78 1725 -78 
Q 1022 -78 609 397 
Q 275 784 275 1263 
Q 275 1688 548 2030 
Q 822 2372 1366 2631 
Q 1056 2988 953 3209 
Q 850 3431 850 3638 
Q 850 4050 1173 4354 
Q 1497 4659 1988 4659 
Q 2456 4659 2754 4371 
Q 3053 4084 3053 3681 
Q 3053 3028 2188 2566 
L 3009 1519 
Q 3150 1794 3228 2156 
L 3813 2031 
Q 3663 1431 3406 1044 
Q 3722 625 4122 341 
L 3744 -106 
Q 3403 113 3041 541 
z
M 1897 2928 
Q 2263 3144 2370 3306 
Q 2478 3469 2478 3666 
Q 2478 3900 2329 4048 
Q 2181 4197 1959 4197 
Q 1731 4197 1579 4050 
Q 1428 3903 1428 3691 
Q 1428 3584 1483 3467 
Q 1538 3350 1647 3219 
L 1897 2928 
z
M 2688 984 
L 1656 2263 
Q 1200 1991 1040 1758 
Q 881 1525 881 1297 
Q 881 1019 1103 719 
Q 1325 419 1731 419 
Q 1984 419 2254 576 
Q 2525 734 2688 984 
z
" transform="scale(0.015625)"/>
     </defs>
     <use xlink:href="#ArialMT-70"/>
     <use xlink:href="#ArialMT-72" x="55.615234"/>
     <use xlink:href="#ArialMT-65" x="88.916016"/>
     <use xlink:href="#ArialMT-64" x="144.53125"/>
     <use xlink:href="#ArialMT-69" x="200.146484"/>
     <use xlink:href="#ArialMT-63" x="222.363281"/>
     <use xlink:href="#ArialMT-74" x="272.363281"/>
     <use xlink:href="#ArialMT-6f" x="300.146484"/>
     <use xlink:href="#ArialMT-72" x="355.761719"/>
     <use xlink:href="#ArialMT-73" x="389.0625"/>
     <use xlink:href="#ArialMT-3a" x="439.0625"/>
     <use xlink:href="#ArialMT-20" x="466.845703"/>
     <use xlink:href="#ArialMT-66" x="494.628906"/>
     <use xlink:href="#ArialMT-66" x="520.662109"/>
     <use xlink:href="#ArialMT-6d" x="548.445312"/>
     <use xlink:href="#ArialMT-71" x="631.746094"/>
     <use xlink:href="#ArialMT-5f" x="687.361328"/>
     <use xlink:href="#ArialMT-64" x="742.976562"/>
     <use xlink:href="#ArialMT-73" x="798.591797"/>
     <use xlink:href="#ArialMT-34" x="848.591797"/>
     <use xlink:href="#ArialMT-20" x="904.207031"/>
     <use xlink:href="#ArialMT-26" x="931.990234"/>
     <use xlink:href="#ArialMT-20" x="998.689453"/>
     <use xlink:href="#ArialMT-75" x="1026.472656"/>
     <use xlink:href="#ArialMT-70" x="1082.087891"/>
     <use xlink:href="#ArialMT-70" x="1137.703125"/>
     <use xlink:href="#ArialMT-73" x="1193.318359"/>
     <use xlink:href="#ArialMT-5f" x="1243.318359"/>
     <use xlink:href="#ArialMT-75" x="1298.933594"/>
     <use xlink:href="#ArialMT-72" x="1354.548828"/>
     <use xlink:href="#ArialMT-5f" x="1387.849609"/>
     <use xlink:href="#ArialMT-31" x="1443.464844"/>
    </g>
    <!-- Influence (% of audit range) 0.4% -->
    <g style="fill: #262626" transform="translate(101.080938 36.043125)scale(0.1 -0.1)">
     <defs>
      <path id="ArialMT-49" d="M 597 0 
L 597 4581 
L 1203 4581 
L 1203 0 
L 597 0 
z
" transform="scale(0.015625)"/>
      <path id="ArialMT-6c" d="M 409 0 
L 409 4581 
L 972 4581 
L 972 0 
L 409 0 
z
" transform="scale(0.015625)"/>
      <path id="ArialMT-28" d="M 1497 -1347 
Q 1031 -759 709 28 
Q 388 816 388 1659 
Q 388 2403 628 3084 
Q 909 3875 1497 4659 
L 1900 4659 
Q 1522 4009 1400 3731 
Q 1209 3300 1100 2831 
Q 966 2247 966 1656 
Q 966 153 1900 -1347 
L 1497 -1347 
z
" transform="scale(0.015625)"/>
      <path id="ArialMT-25" d="M 372 3481 
Q 372 3972 619 4315 
Q 866 4659 1334 4659 
Q 1766 4659 2048 4351 
Q 2331 4044 2331 3447 
Q 2331 2866 2045 2552 
Q 1759 2238 1341 2238 
Q 925 2238 648 2547 
Q 372 2856 372 3481 
z
M 1350 4272 
Q 1141 4272 1002 4090 
Q 863 3909 863 3425 
Q 863 2984 1003 2804 
Q 1144 2625 1350 2625 
Q 1563 2625 1702 2806 
Q 1841 2988 1841 3469 
Q 1841 3913 1700 4092 
Q 1559 4272 1350 4272 
z
M 1353 -169 
L 3859 4659 
L 4316 4659 
L 1819 -169 
L 1353 -169 
z
M 3334 1075 
Q 3334 1569 3581 1911 
Q 3828 2253 4300 2253 
Q 4731 2253 5014 1945 
Q 5297 1638 5297 1041 
Q 5297 459 5011 145 
Q 4725 -169 4303 -169 
Q 3888 -169 3611 142 
Q 3334 453 3334 1075 
z
M 4316 1866 
Q 4103 1866 3964 1684 
Q 3825 1503 3825 1019 
Q 3825 581 3965 400 
Q 4106 219 4313 219 
Q 4528 219 4667 400 
Q 4806 581 4806 1063 
Q 4806 1506 4665 1686 
Q 4525 1866 4316 1866 
z
" transform="scale(0.015625)"/>
      <path id="ArialMT-29" d="M 791 -1347 
L 388 -1347 
Q 1322 153 1322 1656 
Q 1322 2244 1188 2822 
Q 1081 3291 891 3722 
Q 769 4003 388 4659 
L 791 4659 
Q 1378 3875 1659 3084 
Q 1900 2403 1900 1659 
Q 1900 816 1576 28 
Q 1253 -759 791 -1347 
z
" transform="scale(0.015625)"/>
     </defs>
     <use xlink:href="#ArialMT-49"/>
     <use xlink:href="#ArialMT-6e" x="27.783203"/>
     <use xlink:href="#ArialMT-66" x="83.398438"/>
     <use xlink:href="#ArialMT-6c" x="111.181641"/>
     <use xlink:href="#ArialMT-75" x="133.398438"/>
     <use xlink:href="#ArialMT-65" x="189.013672"/>
     <use xlink:href="#ArialMT-6e" x="244.628906"/>
     <use xlink:href="#ArialMT-63" x="300.244141"/>
     <use xlink:href="#ArialMT-65" x="350.244141"/>
     <use xlink:href="#ArialMT-20" x="405.859375"/>
     <use xlink:href="#ArialMT-28" x="433.642578"/>
     <use xlink:href="#ArialMT-25" x="466.943359"/>
     <use xlink:href="#ArialMT-20" x="555.859375"/>
     <use xlink:href="#ArialMT-6f" x="583.642578"/>
     <use xlink:href="#ArialMT-66" x="639.257812"/>
     <use xlink:href="#ArialMT-20" x="667.041016"/>
     <use xlink:href="#ArialMT-61" x="694.824219"/>
     <use xlink:href="#ArialMT-75" x="750.439453"/>
     <use xlink:href="#ArialMT-64" x="806.054688"/>
     <use xlink:href="#ArialMT-69" x="861.669922"/>
     <use xlink:href="#ArialMT-74" x="883.886719"/>
     <use xlink:href="#ArialMT-20" x="911.669922"/>
     <use xlink:href="#ArialMT-72" x="939.453125"/>
     <use xlink:href="#ArialMT-61" x="972.753906"/>
     <use xlink:href="#ArialMT-6e" x="1028.369141"/>
     <use xlink:href="#ArialMT-67" x="1083.984375"/>
     <use xlink:href="#ArialMT-65" x="1139.599609"/>
     <use xlink:href="#ArialMT-29" x="1195.214844"/>
     <use xlink:href="#ArialMT-20" x="1228.515625"/>
     <use xlink:href="#ArialMT-30" x="1256.298828"/>
     <use xlink:href="#ArialMT-2e" x="1311.914062"/>
     <use xlink:href="#ArialMT-34" x="1339.697266"/>
     <use xlink:href="#ArialMT-25" x="1395.3125"/>
    </g>
   </g>
   <g id="text_20">
    <g clip-path="url(#pd2f3dce0ac)">
     <!-- 5.955 -->
     <g transform="translate(172.354829 144.213414)rotate(-0.75109)scale(0.08 -0.08)">
      <defs>
       <path id="ArialMT-39" d="M 350 1059 
L 891 1109 
Q 959 728 1153 556 
Q 1347 384 1650 384 
Q 1909 384 2104 503 
Q 2300 622 2425 820 
Q 2550 1019 2634 1356 
Q 2719 1694 2719 2044 
Q 2719 2081 2716 2156 
Q 2547 1888 2255 1720 
Q 1963 1553 1622 1553 
Q 1053 1553 659 1965 
Q 266 2378 266 3053 
Q 266 3750 677 4175 
Q 1088 4600 1706 4600 
Q 2153 4600 2523 4359 
Q 2894 4119 3086 3673 
Q 3278 3228 3278 2384 
Q 3278 1506 3087 986 
Q 2897 466 2520 194 
Q 2144 -78 1638 -78 
Q 1100 -78 759 220 
Q 419 519 350 1059 
z
M 2653 3081 
Q 2653 3566 2395 3850 
Q 2138 4134 1775 4134 
Q 1400 4134 1122 3828 
Q 844 3522 844 3034 
Q 844 2597 1108 2323 
Q 1372 2050 1759 2050 
Q 2150 2050 2401 2323 
Q 2653 2597 2653 3081 
z
" transform="scale(0.015625)"/>
      </defs>
      <use xlink:href="#ArialMT-35"/>
      <use xlink:href="#ArialMT-2e" x="55.615234"/>
      <use xlink:href="#ArialMT-39" x="83.398438"/>
      <use xlink:href="#ArialMT-35" x="139.013672"/>
      <use xlink:href="#ArialMT-35" x="194.628906"/>
     </g>
    </g>
   </g>
   <g id="text_21">
    <g clip-path="url(#pd2f3dce0ac)">
     <!-- 5.970 -->
     <g transform="translate(172.294496 174.856266)rotate(-359.066582)scale(0.08 -0.08)">
      <defs>
       <path id="ArialMT-37" d="M 303 3981 
L 303 4522 
L 3269 4522 
L 3269 4084 
Q 2831 3619 2401 2847 
Q 1972 2075 1738 1259 
Q 1569 684 1522 0 
L 944 0 
Q 953 541 1156 1306 
Q 1359 2072 1739 2783 
Q 2119 3494 2547 3981 
L 303 3981 
z
" transform="scale(0.015625)"/>
      </defs>
      <use xlink:href="#ArialMT-35"/>
      <use xlink:href="#ArialMT-2e" x="55.615234"/>
      <use xlink:href="#ArialMT-39" x="83.398438"/>
      <use xlink:href="#ArialMT-37" x="139.013672"/>
      <use xlink:href="#ArialMT-30" x="194.628906"/>
     </g>
    </g>
   </g>
   <g id="text_22">
    <g clip-path="url(#pd2f3dce0ac)">
     <!-- 5.985 -->
     <g transform="translate(172.449792 258.249847)rotate(-3.021653)scale(0.08 -0.08)">
      <defs>
       <path id="ArialMT-38" d="M 1131 2484 
Q 781 2613 612 2850 
Q 444 3088 444 3419 
Q 444 3919 803 4259 
Q 1163 4600 1759 4600 
Q 2359 4600 2725 4251 
Q 3091 3903 3091 3403 
Q 3091 3084 2923 2848 
Q 2756 2613 2416 2484 
Q 2838 2347 3058 2040 
Q 3278 1734 3278 1309 
Q 3278 722 2862 322 
Q 2447 -78 1769 -78 
Q 1091 -78 675 323 
Q 259 725 259 1325 
Q 259 1772 486 2073 
Q 713 2375 1131 2484 
z
M 1019 3438 
Q 1019 3113 1228 2906 
Q 1438 2700 1772 2700 
Q 2097 2700 2305 2904 
Q 2513 3109 2513 3406 
Q 2513 3716 2298 3927 
Q 2084 4138 1766 4138 
Q 1444 4138 1231 3931 
Q 1019 3725 1019 3438 
z
M 838 1322 
Q 838 1081 952 856 
Q 1066 631 1291 507 
Q 1516 384 1775 384 
Q 2178 384 2440 643 
Q 2703 903 2703 1303 
Q 2703 1709 2433 1975 
Q 2163 2241 1756 2241 
Q 1359 2241 1098 1978 
Q 838 1716 838 1322 
z
" transform="scale(0.015625)"/>
      </defs>
      <use xlink:href="#ArialMT-35"/>
      <use xlink:href="#ArialMT-2e" x="55.615234"/>
      <use xlink:href="#ArialMT-39" x="83.398438"/>
      <use xlink:href="#ArialMT-38" x="139.013672"/>
      <use xlink:href="#ArialMT-35" x="194.628906"/>
     </g>
    </g>
   </g>
   <g id="text_23">
    <g clip-path="url(#pd2f3dce0ac)">
     <!-- 5.985 -->
     <g transform="translate(144.164327 120.983224)rotate(-0.833744)scale(0.08 -0.08)">
      <use xlink:href="#ArialMT-35"/>
      <use xlink:href="#ArialMT-2e" x="55.615234"/>
      <use xlink:href="#ArialMT-39" x="83.398438"/>
      <use xlink:href="#ArialMT-38" x="139.013672"/>
      <use xlink:href="#ArialMT-35" x="194.628906"/>
     </g>
    </g>
   </g>
   <g id="text_24">
    <g clip-path="url(#pd2f3dce0ac)">
     <!-- 6.000 -->
     <g transform="translate(186.546634 224.312867)rotate(-3.021653)scale(0.08 -0.08)">
      <defs>
       <path id="ArialMT-36" d="M 3184 3459 
L 2625 3416 
Q 2550 3747 2413 3897 
Q 2184 4138 1850 4138 
Q 1581 4138 1378 3988 
Q 1113 3794 959 3422 
Q 806 3050 800 2363 
Q 1003 2672 1297 2822 
Q 1591 2972 1913 2972 
Q 2475 2972 2870 2558 
Q 3266 2144 3266 1488 
Q 3266 1056 3080 686 
Q 2894 316 2569 119 
Q 2244 -78 1831 -78 
Q 1128 -78 684 439 
Q 241 956 241 2144 
Q 241 3472 731 4075 
Q 1159 4600 1884 4600 
Q 2425 4600 2770 4297 
Q 3116 3994 3184 3459 
z
M 888 1484 
Q 888 1194 1011 928 
Q 1134 663 1356 523 
Q 1578 384 1822 384 
Q 2178 384 2434 671 
Q 2691 959 2691 1453 
Q 2691 1928 2437 2201 
Q 2184 2475 1800 2475 
Q 1419 2475 1153 2201 
Q 888 1928 888 1484 
z
" transform="scale(0.015625)"/>
      </defs>
      <use xlink:href="#ArialMT-36"/>
      <use xlink:href="#ArialMT-2e" x="55.615234"/>
      <use xlink:href="#ArialMT-30" x="83.398438"/>
      <use xlink:href="#ArialMT-30" x="139.013672"/>
      <use xlink:href="#ArialMT-30" x="194.628906"/>
     </g>
    </g>
   </g>
   <g id="text_25">
    <g clip-path="url(#pd2f3dce0ac)">
     <!-- 6.000 -->
     <g transform="translate(89.747315 130.192957)rotate(-26.745509)scale(0.08 -0.08)">
      <use xlink:href="#ArialMT-36"/>
      <use xlink:href="#ArialMT-2e" x="55.615234"/>
      <use xlink:href="#ArialMT-30" x="83.398438"/>
      <use xlink:href="#ArialMT-30" x="139.013672"/>
      <use xlink:href="#ArialMT-30" x="194.628906"/>
     </g>
    </g>
   </g>
   <g id="text_26">
    <g clip-path="url(#pd2f3dce0ac)">
     <!-- 6.015 -->
     <g transform="translate(103.500091 194.630169)rotate(-313.124534)scale(0.08 -0.08)">
      <use xlink:href="#ArialMT-36"/>
      <use xlink:href="#ArialMT-2e" x="55.615234"/>
      <use xlink:href="#ArialMT-30" x="83.398438"/>
      <use xlink:href="#ArialMT-31" x="139.013672"/>
      <use xlink:href="#ArialMT-35" x="194.628906"/>
     </g>
    </g>
   </g>
   <g id="text_27">
    <g clip-path="url(#pd2f3dce0ac)">
     <!-- 6.015 -->
     <g transform="translate(257.484666 215.434353)rotate(-325.67584)scale(0.08 -0.08)">
      <use xlink:href="#ArialMT-36"/>
      <use xlink:href="#ArialMT-2e" x="55.615234"/>
      <use xlink:href="#ArialMT-30" x="83.398438"/>
      <use xlink:href="#ArialMT-31" x="139.013672"/>
      <use xlink:href="#ArialMT-35" x="194.628906"/>
     </g>
    </g>
   </g>
   <g id="text_28">
    <g clip-path="url(#pd2f3dce0ac)">
     <!-- 6.015 -->
     <g transform="translate(103.830786 111.271317)rotate(-26.624724)scale(0.08 -0.08)">
      <use xlink:href="#ArialMT-36"/>
      <use xlink:href="#ArialMT-2e" x="55.615234"/>
      <use xlink:href="#ArialMT-30" x="83.398438"/>
      <use xlink:href="#ArialMT-31" x="139.013672"/>
      <use xlink:href="#ArialMT-35" x="194.628906"/>
     </g>
    </g>
   </g>
   <g id="text_29">
    <g clip-path="url(#pd2f3dce0ac)">
     <!-- 6.015 -->
     <g transform="translate(231.534352 95.712017)rotate(-327.986844)scale(0.08 -0.08)">
      <use xlink:href="#ArialMT-36"/>
      <use xlink:href="#ArialMT-2e" x="55.615234"/>
      <use xlink:href="#ArialMT-30" x="83.398438"/>
      <use xlink:href="#ArialMT-31" x="139.013672"/>
      <use xlink:href="#ArialMT-35" x="194.628906"/>
     </g>
    </g>
   </g>
   <g id="text_30">
    <g clip-path="url(#pd2f3dce0ac)">
     <!-- 6.030 -->
     <g transform="translate(87.791106 223.795256)rotate(-69.134186)scale(0.08 -0.08)">
      <use xlink:href="#ArialMT-36"/>
      <use xlink:href="#ArialMT-2e" x="55.615234"/>
      <use xlink:href="#ArialMT-30" x="83.398438"/>
      <use xlink:href="#ArialMT-33" x="139.013672"/>
      <use xlink:href="#ArialMT-30" x="194.628906"/>
     </g>
    </g>
   </g>
   <g id="text_31">
    <g clip-path="url(#pd2f3dce0ac)">
     <!-- 6.030 -->
     <g transform="translate(91.849656 108.527454)rotate(-43.031457)scale(0.08 -0.08)">
      <use xlink:href="#ArialMT-36"/>
      <use xlink:href="#ArialMT-2e" x="55.615234"/>
      <use xlink:href="#ArialMT-30" x="83.398438"/>
      <use xlink:href="#ArialMT-33" x="139.013672"/>
      <use xlink:href="#ArialMT-30" x="194.628906"/>
     </g>
    </g>
   </g>
   <g id="text_32">
    <g clip-path="url(#pd2f3dce0ac)">
     <!-- 6.030 -->
     <g transform="translate(276.047129 78.498588)rotate(-282.534197)scale(0.08 -0.08)">
      <use xlink:href="#ArialMT-36"/>
      <use xlink:href="#ArialMT-2e" x="55.615234"/>
      <use xlink:href="#ArialMT-30" x="83.398438"/>
      <use xlink:href="#ArialMT-33" x="139.013672"/>
      <use xlink:href="#ArialMT-30" x="194.628906"/>
     </g>
    </g>
   </g>
   <g id="text_33">
    <g clip-path="url(#pd2f3dce0ac)">
     <!-- 6.045 -->
     <g transform="translate(62.826713 223.788694)rotate(-68.906638)scale(0.08 -0.08)">
      <use xlink:href="#ArialMT-36"/>
      <use xlink:href="#ArialMT-2e" x="55.615234"/>
      <use xlink:href="#ArialMT-30" x="83.398438"/>
      <use xlink:href="#ArialMT-34" x="139.013672"/>
      <use xlink:href="#ArialMT-35" x="194.628906"/>
     </g>
    </g>
   </g>
   <g id="text_34">
    <g clip-path="url(#pd2f3dce0ac)">
     <!-- 6.045 -->
     <g transform="translate(81.381765 98.002753)rotate(-83.228402)scale(0.08 -0.08)">
      <use xlink:href="#ArialMT-36"/>
      <use xlink:href="#ArialMT-2e" x="55.615234"/>
      <use xlink:href="#ArialMT-30" x="83.398438"/>
      <use xlink:href="#ArialMT-34" x="139.013672"/>
      <use xlink:href="#ArialMT-35" x="194.628906"/>
     </g>
    </g>
   </g>
   <g id="text_35">
    <g clip-path="url(#pd2f3dce0ac)">
     <!-- 6.060 -->
     <g transform="translate(52.027693 68.472425)rotate(-277.972556)scale(0.08 -0.08)">
      <use xlink:href="#ArialMT-36"/>
      <use xlink:href="#ArialMT-2e" x="55.615234"/>
      <use xlink:href="#ArialMT-30" x="83.398438"/>
      <use xlink:href="#ArialMT-36" x="139.013672"/>
      <use xlink:href="#ArialMT-30" x="194.628906"/>
     </g>
    </g>
   </g>
  </g>
  <g id="axes_2">
   <g id="patch_7">
    <path d="M 325.947188 259.483125 
L 336.819188 259.483125 
L 336.819188 42.043125 
L 325.947188 42.043125 
z
" style="fill: #eaeaf2"/>
   </g>
   <g id="patch_8">
    <path clip-path="url(#p7ee68e9266)" style="fill: #eaeaf2; stroke: #eaeaf2; stroke-width: 0.01; stroke-linejoin: miter"/>
   </g>
   <g id="matplotlib.axis_3">
    <g id="ytick_10">
     <g id="line2d_17">
      <defs>
       <path id="m8bd48cf1f3" d="M 0 0 
L 3.5 0 
" style="stroke: #262626; stroke-width: 0.8"/>
      </defs>
      <g>
       <use xlink:href="#m8bd48cf1f3" x="336.819188" y="259.483125" style="fill: #262626; stroke: #262626; stroke-width: 0.8"/>
      </g>
     </g>
     <g id="text_36">
      <!-- 5.940 -->
      <g style="fill: #262626" transform="translate(343.819188 263.062031)scale(0.1 -0.1)">
       <use xlink:href="#ArialMT-35"/>
       <use xlink:href="#ArialMT-2e" x="55.615234"/>
       <use xlink:href="#ArialMT-39" x="83.398438"/>
       <use xlink:href="#ArialMT-34" x="139.013672"/>
       <use xlink:href="#ArialMT-30" x="194.628906"/>
      </g>
     </g>
    </g>
    <g id="ytick_11">
     <g id="line2d_18">
      <g>
       <use xlink:href="#m8bd48cf1f3" x="336.819188" y="235.323125" style="fill: #262626; stroke: #262626; stroke-width: 0.8"/>
      </g>
     </g>
     <g id="text_37">
      <!-- 5.955 -->
      <g style="fill: #262626" transform="translate(343.819188 238.902031)scale(0.1 -0.1)">
       <use xlink:href="#ArialMT-35"/>
       <use xlink:href="#ArialMT-2e" x="55.615234"/>
       <use xlink:href="#ArialMT-39" x="83.398438"/>
       <use xlink:href="#ArialMT-35" x="139.013672"/>
       <use xlink:href="#ArialMT-35" x="194.628906"/>
      </g>
     </g>
    </g>
    <g id="ytick_12">
     <g id="line2d_19">
      <g>
       <use xlink:href="#m8bd48cf1f3" x="336.819188" y="211.163125" style="fill: #262626; stroke: #262626; stroke-width: 0.8"/>
      </g>
     </g>
     <g id="text_38">
      <!-- 5.970 -->
      <g style="fill: #262626" transform="translate(343.819188 214.742031)scale(0.1 -0.1)">
       <use xlink:href="#ArialMT-35"/>
       <use xlink:href="#ArialMT-2e" x="55.615234"/>
       <use xlink:href="#ArialMT-39" x="83.398438"/>
       <use xlink:href="#ArialMT-37" x="139.013672"/>
       <use xlink:href="#ArialMT-30" x="194.628906"/>
      </g>
     </g>
    </g>
    <g id="ytick_13">
     <g id="line2d_20">
      <g>
       <use xlink:href="#m8bd48cf1f3" x="336.819188" y="187.003125" style="fill: #262626; stroke: #262626; stroke-width: 0.8"/>
      </g>
     </g>
     <g id="text_39">
      <!-- 5.985 -->
      <g style="fill: #262626" transform="translate(343.819188 190.582031)scale(0.1 -0.1)">
       <use xlink:href="#ArialMT-35"/>
       <use xlink:href="#ArialMT-2e" x="55.615234"/>
       <use xlink:href="#ArialMT-39" x="83.398438"/>
       <use xlink:href="#ArialMT-38" x="139.013672"/>
       <use xlink:href="#ArialMT-35" x="194.628906"/>
      </g>
     </g>
    </g>
    <g id="ytick_14">
     <g id="line2d_21">
      <g>
       <use xlink:href="#m8bd48cf1f3" x="336.819188" y="162.843125" style="fill: #262626; stroke: #262626; stroke-width: 0.8"/>
      </g>
     </g>
     <g id="text_40">
      <!-- 6.000 -->
      <g style="fill: #262626" transform="translate(343.819188 166.422031)scale(0.1 -0.1)">
       <use xlink:href="#ArialMT-36"/>
       <use xlink:href="#ArialMT-2e" x="55.615234"/>
       <use xlink:href="#ArialMT-30" x="83.398438"/>
       <use xlink:href="#ArialMT-30" x="139.013672"/>
       <use xlink:href="#ArialMT-30" x="194.628906"/>
      </g>
     </g>
    </g>
    <g id="ytick_15">
     <g id="line2d_22">
      <g>
       <use xlink:href="#m8bd48cf1f3" x="336.819188" y="138.683125" style="fill: #262626; stroke: #262626; stroke-width: 0.8"/>
      </g>
     </g>
     <g id="text_41">
      <!-- 6.015 -->
      <g style="fill: #262626" transform="translate(343.819188 142.262031)scale(0.1 -0.1)">
       <use xlink:href="#ArialMT-36"/>
       <use xlink:href="#ArialMT-2e" x="55.615234"/>
       <use xlink:href="#ArialMT-30" x="83.398438"/>
       <use xlink:href="#ArialMT-31" x="139.013672"/>
       <use xlink:href="#ArialMT-35" x="194.628906"/>
      </g>
     </g>
    </g>
    <g id="ytick_16">
     <g id="line2d_23">
      <g>
       <use xlink:href="#m8bd48cf1f3" x="336.819188" y="114.523125" style="fill: #262626; stroke: #262626; stroke-width: 0.8"/>
      </g>
     </g>
     <g id="text_42">
      <!-- 6.030 -->
      <g style="fill: #262626" transform="translate(343.819188 118.102031)scale(0.1 -0.1)">
       <use xlink:href="#ArialMT-36"/>
       <use xlink:href="#ArialMT-2e" x="55.615234"/>
       <use xlink:href="#ArialMT-30" x="83.398438"/>
       <use xlink:href="#ArialMT-33" x="139.013672"/>
       <use xlink:href="#ArialMT-30" x="194.628906"/>
      </g>
     </g>
    </g>
    <g id="ytick_17">
     <g id="line2d_24">
      <g>
       <use xlink:href="#m8bd48cf1f3" x="336.819188" y="90.363125" style="fill: #262626; stroke: #262626; stroke-width: 0.8"/>
      </g>
     </g>
     <g id="text_43">
      <!-- 6.045 -->
      <g style="fill: #262626" transform="translate(343.819188 93.942031)scale(0.1 -0.1)">
       <use xlink:href="#ArialMT-36"/>
       <use xlink:href="#ArialMT-2e" x="55.615234"/>
       <use xlink:href="#ArialMT-30" x="83.398438"/>
       <use xlink:href="#ArialMT-34" x="139.013672"/>
       <use xlink:href="#ArialMT-35" x="194.628906"/>
      </g>
     </g>
    </g>
    <g id="ytick_18">
     <g id="line2d_25">
      <g>
       <use xlink:href="#m8bd48cf1f3" x="336.819188" y="66.203125" style="fill: #262626; stroke: #262626; stroke-width: 0.8"/>
      </g>
     </g>
     <g id="text_44">
      <!-- 6.060 -->
      <g style="fill: #262626" transform="translate(343.819188 69.782031)scale(0.1 -0.1)">
       <use xlink:href="#ArialMT-36"/>
       <use xlink:href="#ArialMT-2e" x="55.615234"/>
       <use xlink:href="#ArialMT-30" x="83.398438"/>
       <use xlink:href="#ArialMT-36" x="139.013672"/>
       <use xlink:href="#ArialMT-30" x="194.628906"/>
      </g>
     </g>
    </g>
    <g id="ytick_19">
     <g id="line2d_26">
      <g>
       <use xlink:href="#m8bd48cf1f3" x="336.819188" y="42.043125" style="fill: #262626; stroke: #262626; stroke-width: 0.8"/>
      </g>
     </g>
     <g id="text_45">
      <!-- 6.075 -->
      <g style="fill: #262626" transform="translate(343.819188 45.622031)scale(0.1 -0.1)">
       <use xlink:href="#ArialMT-36"/>
       <use xlink:href="#ArialMT-2e" x="55.615234"/>
       <use xlink:href="#ArialMT-30" x="83.398438"/>
       <use xlink:href="#ArialMT-37" x="139.013672"/>
       <use xlink:href="#ArialMT-35" x="194.628906"/>
      </g>
     </g>
    </g>
   </g>
   <g id="QuadMesh_1">
    <path d="M 325.947188 259.483125 
L 336.819188 259.483125 
L 336.819188 235.323125 
L 325.947188 235.323125 
L 325.947188 259.483125 
" clip-path="url(#p7ee68e9266)" style="fill: #4b64d5"/>
    <path d="M 325.947188 235.323125 
L 336.819188 235.323125 
L 336.819188 211.163125 
L 325.947188 211.163125 
L 325.947188 235.323125 
" clip-path="url(#p7ee68e9266)" style="fill: #6f92f3"/>
    <path d="M 325.947188 211.163125 
L 336.819188 211.163125 
L 336.819188 187.003125 
L 325.947188 187.003125 
L 325.947188 211.163125 
" clip-path="url(#p7ee68e9266)" style="fill: #97b8ff"/>
    <path d="M 325.947188 187.003125 
L 336.819188 187.003125 
L 336.819188 162.843125 
L 325.947188 162.843125 
L 325.947188 187.003125 
" clip-path="url(#p7ee68e9266)" style="fill: #bcd2f7"/>
    <path d="M 325.947188 162.843125 
L 336.819188 162.843125 
L 336.819188 138.683125 
L 325.947188 138.683125 
L 325.947188 162.843125 
" clip-path="url(#p7ee68e9266)" style="fill: #dddcdc"/>
    <path d="M 325.947188 138.683125 
L 336.819188 138.683125 
L 336.819188 114.523125 
L 325.947188 114.523125 
L 325.947188 138.683125 
" clip-path="url(#p7ee68e9266)" style="fill: #f3c8b2"/>
    <path d="M 325.947188 114.523125 
L 336.819188 114.523125 
L 336.819188 90.363125 
L 325.947188 90.363125 
L 325.947188 114.523125 
" clip-path="url(#p7ee68e9266)" style="fill: #f6a586"/>
    <path d="M 325.947188 90.363125 
L 336.819188 90.363125 
L 336.819188 66.203125 
L 325.947188 66.203125 
L 325.947188 90.363125 
" clip-path="url(#p7ee68e9266)" style="fill: #e7745b"/>
    <path d="M 325.947188 66.203125 
L 336.819188 66.203125 
L 336.819188 42.043125 
L 325.947188 42.043125 
L 325.947188 66.203125 
" clip-path="url(#p7ee68e9266)" style="fill: #c83836"/>
   </g>
   <g id="LineCollection_1"/>
   <g id="patch_9">
    <path d="M 325.947188 259.483125 
L 331.383188 259.483125 
L 336.819188 259.483125 
L 336.819188 42.043125 
L 331.383188 42.043125 
L 325.947188 42.043125 
L 325.947188 259.483125 
z
" style="fill: none; stroke: #ffffff; stroke-width: 0.8; stroke-linejoin: miter; stroke-linecap: square"/>
   </g>
  </g>
 </g>
 <defs>
  <clipPath id="pd2f3dce0ac">
   <rect x="41.367188" y="42.043125" width="267.84" height="217.44"/>
  </clipPath>
  <clipPath id="p7ee68e9266">
   <rect x="325.947188" y="42.043125" width="10.872" height="217.44"/>
  </clipPath>
 </defs>
</svg>
